<svg width="458" height="158" viewBox="0 0 458 158" fill="none" xmlns="http://www.w3.org/2000/svg">
  <path fill="#fff" d="M0 0h458v158H0z"/>
  <circle cx="248" cy="25" r="15" fill="#F2F2F2"/>
  <path d="M246.5 29.2523l6.327 4.2477h.346l6.327-4.2477v-2.8956l-4.72 3.2623V16.5h-3.56v13.119l-4.72-3.2623v2.8956z" fill="#FFAC00"/>
  <path d="M249.5 20.7477L243.173 16.5h-.346l-6.327 4.2477v2.8956l4.72-3.2623V33.5h3.56V20.381l4.72 3.2623v-2.8956z" fill="#FFAC00"/>
  <path d="M190.769 45.4673l2.863 6.6723 2.849-6.6723h1.766V54h-1.348v-2.937l.139-3.9038L194.123 54h-.996l-2.908-6.8115.139 3.8745V54h-1.347v-8.5327h1.758zm12.392 4.2407l2.285-4.2407h1.524l-3.15 5.5517V54h-1.355v-3.0615l-3.105-5.4712h1.523l2.278 4.2407zm10.664 5.398h-6.709V54h6.709v1.106zm2.395-4.314V54h-1.355v-8.5327h3.421c.996 0 1.789.2441 2.38.7324.591.4834.886 1.1353.886 1.9556 0 .8301-.285 1.477-.857 1.9409-.571.4639-1.379.6958-2.424.6958h-2.051zm0-1.1133h2.066c.605 0 1.074-.1294 1.406-.3882.332-.2588.498-.6323.498-1.1206 0-.4687-.166-.8471-.498-1.1352-.332-.293-.789-.4419-1.37-.4468h-2.102v3.0908zm10.218 1.0327h-2.044V54h-1.355v-8.5327h3.12c1.04 0 1.841.227 2.403.6811.566.4541.849 1.0962.849 1.9263 0 1.1133-.574 1.8872-1.721 2.3218l2.109 3.5303V54h-1.45l-1.911-3.2886zm-2.044-1.1059h1.802c.571 0 1.023-.1319 1.355-.3955.337-.2686.505-.6299.505-1.084 0-.4883-.163-.8667-.491-1.1353-.327-.2685-.798-.4028-1.413-.4028h-1.758v3.0176zm11.939.542h-3.897v2.7465h4.534V54h-5.889v-8.5327h5.845v1.1206h-4.49v2.4463h3.897v1.1133zm6.928 1.6699c0-.3906-.149-.6934-.447-.9082-.293-.2149-.798-.4126-1.516-.5933-.717-.1806-1.286-.376-1.706-.5859-.952-.4785-1.428-1.1548-1.428-2.0288 0-.6983.295-1.2647.886-1.6992.596-.4346 1.36-.6519 2.292-.6519.957 0 1.739.2441 2.344.7324.61.4883.916 1.1133.916 1.875h-1.355c0-.4785-.174-.8471-.52-1.1059-.342-.2637-.809-.3955-1.399-.3955-.552 0-.992.1098-1.319.3295-.327.2149-.49.5176-.49.9082 0 .3174.148.5835.446.7984.303.2148.835.4199 1.597.6152.762.1953 1.357.4175 1.787.6665.43.2442.75.5323.96.8643.21.332.315.7202.315 1.1645 0 .7178-.298 1.2842-.894 1.6993-.591.4101-1.372.6152-2.344.6152-1.011 0-1.85-.2466-2.519-.7398-.664-.498-.996-1.1425-.996-1.9336h1.362c0 .4981.188.8863.564 1.1646.376.2783.906.4175 1.589.4175.615 0 1.082-.1099 1.399-.3296.318-.2246.476-.5176.476-.8789zm8.115-1.6699h-3.896v2.7465h4.534V54h-5.889v-8.5327h5.845v1.1206h-4.49v2.4463h3.896v1.1133zM260.568 54h-1.347l-4.431-6.416V54h-1.355v-8.5327h1.355l4.431 6.4233v-6.4233h1.347V54zm8.504-7.4121h-2.923V54h-1.355v-7.4121h-2.907v-1.1206h7.185v1.1206zm6.438 5.3686h-3.809L270.896 54h-1.385l3.509-8.5327h1.215L277.692 54h-1.377l-.805-2.0435zm-3.369-1.1059h2.937l-1.458-3.728-1.479 3.728zm12.722-4.2627h-2.923V54h-1.355v-7.4121h-2.907v-1.1206h7.185v1.1206zM287.631 54h-1.362v-8.5327h1.362V54zm9.265-4.0137c0 1.2744-.336 2.2827-1.01 3.0249-.674.7373-1.577 1.106-2.71 1.106-1.118 0-2.022-.3735-2.71-1.1206-.684-.7471-1.026-1.7627-1.026-3.0469v-.4541c0-1.2598.34-2.2656 1.018-3.0176.684-.7519 1.585-1.1279 2.703-1.1279 1.138 0 2.041.3711 2.71 1.1133.674.7422 1.016 1.7358 1.025 2.9809v.542zm-1.34-.5053c0-.9668-.21-1.7066-.63-2.2193-.42-.5127-1.008-.769-1.765-.769-.732 0-1.313.2612-1.743.7837-.425.5224-.637 1.2646-.637 2.2265v.4834c0 .9522.215 1.6919.644 2.2193.43.5224 1.013.7837 1.751.7837.762 0 1.347-.2564 1.758-.7691.415-.5176.622-1.2622.622-2.2339v-.5053zM305.759 54h-1.348l-4.431-6.416V54h-1.355v-8.5327h1.355l4.431 6.4233v-6.4233h1.348V54z" fill="#333"/>
  <path d="M256.525 80.2773l.065.4688.088-.375 1.453-5.1973h.967l1.429 5.2149.077.3457.07-.4688 1.16-5.0918h1.078L261.166 82h-1.02l-1.523-5.373-.006-.0293-.006.0293-1.57 5.373h-1.014l-1.74-6.8262h1.072l1.166 5.1035zm11.614-1.3593h-3.118v2.1972h3.627V82h-4.71v-6.8262h4.675v.8965h-3.592v1.957h3.118v.8907zM269.785 82v-6.8262h2.379c.816 0 1.441.1602 1.875.4805.434.3164.65.7773.65 1.3828 0 .3164-.093.5977-.281.8438-.183.2461-.447.4336-.791.5625.387.0937.694.2871.92.58.227.2891.34.6309.34 1.0254 0 .6172-.213 1.0957-.639 1.4356-.426.3398-1.031.5117-1.816.5156h-2.637zm1.084-3.1055v2.2207h1.535c.45 0 .793-.0957 1.032-.2871.238-.1914.357-.4531.357-.7851 0-.7657-.459-1.1485-1.377-1.1485h-1.547zm0-.8261h1.371c.422 0 .754-.0821.996-.2461.243-.168.364-.4141.364-.7383 0-.6563-.448-.9942-1.342-1.0137h-1.389v1.9981zm6.469 1.3652V82h-1.084v-6.8262h2.736c.797 0 1.432.1953 1.905.586.472.3867.709.9082.709 1.5644 0 .6641-.229 1.1817-.686 1.5528-.457.371-1.104.5566-1.939.5566h-1.641zm0-.8906h1.652c.485 0 .86-.1035 1.125-.3106.266-.207.399-.5058.399-.8965 0-.375-.133-.6777-.399-.9082-.265-.2343-.631-.3535-1.095-.3574h-1.682v2.4727zm9.557 1.8222h-3.047L283.203 82h-1.107l2.806-6.8262h.973L288.641 82h-1.102l-.644-1.6348zm-2.696-.8847h2.35l-1.166-2.9825-1.184 2.9825zm10.77.3105c-.078.7305-.364 1.2969-.856 1.6992-.492.4024-1.146.6036-1.963.6036-.875 0-1.578-.2872-2.109-.8614-.527-.5781-.791-1.373-.791-2.3847v-.5508c0-.6407.119-1.2031.357-1.6875.243-.4883.588-.8653 1.038-1.1309.453-.2656.976-.3984 1.57-.3984.797 0 1.435.207 1.916.6211.484.4101.764.9804.838 1.7109h-1.084c-.071-.5078-.244-.875-.522-1.1016-.273-.2265-.656-.3398-1.148-.3398-.598 0-1.061.1992-1.389.5977-.324.3945-.488.9609-.492 1.6992v.6211c0 .7383.154 1.3105.463 1.7168.312.4023.764.6035 1.353.6035.528 0 .928-.1074 1.202-.3223.277-.2187.455-.584.533-1.0957h1.084zm3.199-.832l-.861.832V82h-1.084v-6.8262h1.084v3.252l.761-.8438 2.327-2.4082h1.33l-2.807 3.041L301.924 82h-1.319l-2.437-3.041zm4.582 2.4726c0-.1875.055-.3437.164-.4687.113-.125.281-.1875.504-.1875.223 0 .391.0625.504.1875.117.125.176.2812.176.4687 0 .1797-.059.3301-.176.4512-.113.1211-.281.1817-.504.1817-.223 0-.391-.0606-.504-.1817-.109-.1211-.164-.2715-.164-.4512zm8.848-2.6425c0 1.0195-.27 1.8261-.809 2.4199-.539.5898-1.262.8848-2.168.8848-.894 0-1.617-.2989-2.168-.8965-.547-.5977-.82-1.4102-.82-2.4375v-.3633c0-1.0078.271-1.8125.814-2.4141.547-.6015 1.268-.9023 2.162-.9023.911 0 1.633.2969 2.168.8906.539.5938.813 1.3887.821 2.3848v.4336zm-1.073-.4043c0-.7735-.168-1.3653-.504-1.7754-.335-.4102-.806-.6153-1.412-.6153-.586 0-1.05.209-1.394.627-.34.418-.51 1.0117-.51 1.7812v.3868c0 .7617.172 1.3535.516 1.7754.343.4179.81.6269 1.4.6269.609 0 1.078-.2051 1.406-.6152.332-.4141.498-1.0098.498-1.7871v-.4043zM318.688 82h-1.079l-3.545-5.1328V82h-1.084v-6.8262h1.084l3.545 5.1387v-5.1387h1.079V82zm5.83-3.082H321.4v2.1972h3.627V82h-4.711v-6.8262h4.676v.8965H321.4v1.957h3.118v.8907zm2.73.5156V82h-1.084v-6.8262h2.736c.797 0 1.432.1953 1.905.586.472.3867.709.9082.709 1.5644 0 .6641-.229 1.1817-.686 1.5528-.457.371-1.103.5566-1.939.5566h-1.641zm0-.8906h1.652c.485 0 .86-.1035 1.125-.3106.266-.207.399-.5058.399-.8965 0-.375-.133-.6777-.399-.9082-.265-.2343-.63-.3535-1.095-.3574h-1.682v2.4727zm9.557 1.8222h-3.047L333.113 82h-1.107l2.806-6.8262h.973L338.551 82h-1.102l-.644-1.6348zm-2.696-.8847h2.35l-1.166-2.9825-1.184 2.9825zm10.799 1.6406c-.258.3242-.615.5684-1.072.7324-.453.1602-.975.2403-1.565.2403-.929 0-1.675-.2911-2.238-.8731-.562-.582-.847-1.3652-.855-2.3496v-.5273c0-1.0235.26-1.8223.779-2.3965.523-.5782 1.258-.8672 2.203-.8672.781 0 1.408.1836 1.881.5508.473.3671.762.9043.867 1.6113h-1.078c-.148-.8477-.701-1.2715-1.658-1.2715-.621 0-1.094.2012-1.418.6035-.324.4024-.486.9922-.486 1.7696v.4921c0 .7422.179 1.3243.539 1.7461.363.418.857.627 1.482.627.711 0 1.225-.1445 1.541-.4336v-1.3945h-1.646v-.8438h2.724v2.584zm5.707-2.2031h-3.117v2.1972h3.627V82h-4.711v-6.8262h4.676v.8965h-3.592v1.957h3.117v.8907zm1.682 2.5136c0-.1875.055-.3437.164-.4687.113-.125.281-.1875.504-.1875.223 0 .39.0625.504.1875.117.125.176.2812.176.4687 0 .1797-.059.3301-.176.4512-.114.1211-.281.1817-.504.1817-.223 0-.391-.0606-.504-.1817-.109-.1211-.164-.2715-.164-.4512zm6.176-6.2578h1.095v4.8457c0 .6133-.207 1.1133-.621 1.5-.414.3828-.967.5743-1.658.5743-.758 0-1.351-.1778-1.781-.5333-.426-.3593-.639-.8593-.639-1.5h1.09c0 .3672.109.6504.328.8497.223.1992.557.2988 1.002.2988.359 0 .647-.1055.861-.3164.215-.2149.323-.5078.323-.8789v-4.8399zm6.568 5.0801c0-.3125-.119-.5547-.357-.7266-.235-.1718-.639-.33-1.213-.4746-.575-.1445-1.03-.3007-1.366-.4687-.761-.3828-1.142-.9238-1.142-1.6231 0-.5586.236-1.0117.709-1.3593.476-.3477 1.088-.5215 1.834-.5215.765 0 1.39.1953 1.875.5859.488.3906.732.8906.732 1.5h-1.084c0-.3828-.138-.6777-.416-.8848-.273-.2109-.646-.3164-1.119-.3164-.441 0-.793.0879-1.055.2637-.261.1719-.392.4141-.392.7266 0 .2539.119.4668.357.6387.242.1718.668.3359 1.278.4921.609.1563 1.086.334 1.429.5332.344.1954.6.4258.768.6914.168.2657.252.5762.252.9317 0 .5742-.238 1.0273-.715 1.3594-.473.3281-1.098.4922-1.875.4922-.809 0-1.48-.1973-2.016-.5918-.531-.3985-.796-.9141-.796-1.5469h1.089c0 .3984.151.709.452.9316.3.2227.724.334 1.271.334.492 0 .865-.0879 1.119-.2637.254-.1797.381-.414.381-.7031zm8.803 1.1777c0-.1875.054-.3437.164-.4687.113-.125.281-.1875.504-.1875.222 0 .39.0625.504.1875.117.125.175.2812.175.4687 0 .1797-.058.3301-.175.4512-.114.1211-.282.1817-.504.1817-.223 0-.391-.0606-.504-.1817-.11-.1211-.164-.2715-.164-.4512zm3.129.5684v-6.8262h2.379c.816 0 1.441.1602 1.875.4805.433.3164.65.7773.65 1.3828 0 .3164-.094.5977-.281.8438-.184.2461-.448.4336-.791.5625.386.0937.693.2871.92.58.226.2891.339.6309.339 1.0254 0 .6172-.212 1.0957-.638 1.4356-.426.3398-1.031.5117-1.817.5156h-2.636zm1.084-3.1055v2.2207h1.535c.449 0 .793-.0957 1.031-.2871.238-.1914.357-.4531.357-.7851 0-.7657-.459-1.1485-1.376-1.1485h-1.547zm0-.8261h1.371c.422 0 .754-.0821.996-.2461.242-.168.363-.4141.363-.7383 0-.6563-.447-.9942-1.342-1.0137h-1.388v1.9981zm9.486 2.2968h-3.047L383.852 82h-1.108l2.807-6.8262h.972L389.289 82h-1.101l-.645-1.6348zm-2.695-.8847h2.349l-1.166-2.9825-1.183 2.9825zM390.227 82v-6.8262h2.378c.817 0 1.442.1602 1.875.4805.434.3164.651.7773.651 1.3828 0 .3164-.094.5977-.281.8438-.184.2461-.448.4336-.791.5625.386.0937.693.2871.92.58.226.2891.339.6309.339 1.0254 0 .6172-.213 1.0957-.638 1.4356-.426.3398-1.032.5117-1.817.5156h-2.636zm1.084-3.1055v2.2207h1.535c.449 0 .793-.0957 1.031-.2871.238-.1914.357-.4531.357-.7851 0-.7657-.459-1.1485-1.377-1.1485h-1.546zm0-.8261h1.371c.422 0 .754-.0821.996-.2461.242-.168.363-.4141.363-.7383 0-.6563-.447-.9942-1.342-1.0137h-1.388v1.9981zm9.585.8496h-3.117v2.1972h3.627V82h-4.711v-6.8262h4.676v.8965h-3.592v1.957h3.117v.8907zm2.731 2.1972h3.422V82h-4.506v-6.8262h1.084v5.9414zm7.189-1.7461h-1.634V82h-1.084v-6.8262h2.496c.832 0 1.472.1817 1.922.545.453.3632.679.8769.679 1.541 0 .8906-.459 1.5097-1.377 1.8574l1.688 2.8242V82h-1.16l-1.53-2.6309zm-1.634-.8847h1.441c.457 0 .818-.1055 1.084-.3164.27-.2149.404-.5039.404-.8672 0-.3906-.131-.6934-.392-.9082-.262-.2149-.639-.3223-1.131-.3223h-1.406v2.4141zm10.822 1.3066c-.078.7305-.363 1.2969-.856 1.6992-.492.4024-1.146.6036-1.962.6036-.875 0-1.579-.2872-2.11-.8614-.527-.5781-.791-1.373-.791-2.3847v-.5508c0-.6407.119-1.2031.358-1.6875.242-.4883.587-.8653 1.037-1.1309.453-.2656.976-.3984 1.57-.3984.797 0 1.436.207 1.916.6211.484.4101.764.9804.838 1.7109h-1.084c-.07-.5078-.244-.875-.522-1.1016-.273-.2265-.656-.3398-1.148-.3398-.598 0-1.061.1992-1.389.5977-.324.3945-.488.9609-.492 1.6992v.6211c0 .7383.154 1.3105.463 1.7168.313.4023.764.6035 1.354.6035.527 0 .927-.1074 1.201-.3223.277-.2187.455-.584.533-1.0957h1.084zm-360.1114-.3574V82h-1.084v-6.8262h2.7363c.7969 0 1.4317.1953 1.9043.586.4727.3867.709.9082.709 1.5644 0 .6641-.2285 1.1817-.6855 1.5528-.4571.371-1.1036.5566-1.9395.5566h-1.6406zm0-.8906h1.6523c.4844 0 .8594-.1035 1.125-.3106.2656-.207.3985-.5058.3985-.8965 0-.375-.1329-.6777-.3985-.9082-.2656-.2343-.6308-.3535-1.0957-.3574h-1.6816v2.4727zm9.5566 1.8222h-3.0469L65.7578 82h-1.1074l2.8066-6.8262h.9727L71.1953 82h-1.1015l-.6446-1.6348zm-2.6953-.8847h2.3496l-1.166-2.9825-1.1836 2.9825zm10.7695.3105c-.0781.7305-.3632 1.2969-.8554 1.6992-.4922.4024-1.1465.6036-1.9629.6036-.875 0-1.5781-.2872-2.1094-.8614-.5273-.5781-.791-1.373-.791-2.3847v-.5508c0-.6407.1191-1.2031.3574-1.6875.2422-.4883.5879-.8653 1.0371-1.1309.4531-.2656.9766-.3984 1.5703-.3984.7969 0 1.4356.207 1.916.6211.4844.4101.7637.9804.8379 1.7109h-1.0839c-.0704-.5078-.2442-.875-.5215-1.1016-.2735-.2265-.6563-.3398-1.1485-.3398-.5976 0-1.0605.1992-1.3886.5977-.3243.3945-.4883.9609-.4922 1.6992v.6211c0 .7383.1543 1.3105.4629 1.7168.3125.4023.7636.6035 1.3535.6035.5273 0 .9277-.1074 1.2011-.3223.2774-.2187.4551-.584.5333-1.0957h1.0839zm3.1993-.832l-.8614.832V82h-1.084v-6.8262h1.084v3.252l.7617-.8438 2.3262-2.4082h1.3301l-2.8066 3.041L84.4785 82h-1.3183l-2.4375-3.041zm8.6484 1.4062h-3.0469L85.6797 82h-1.1074l2.8066-6.8262h.9727L91.1172 82h-1.1016l-.6445-1.6348zm-2.6953-.8847h2.3496l-1.166-2.9825-1.1836 2.9825zm10.7988 1.6406c-.2578.3242-.6152.5684-1.0723.7324-.4531.1602-.9746.2403-1.5644.2403-.9297 0-1.6758-.2911-2.2383-.8731-.5625-.582-.8476-1.3652-.8555-2.3496v-.5273c0-1.0235.2598-1.8223.7793-2.3965.5235-.5782 1.2578-.8672 2.2032-.8672.7812 0 1.4082.1836 1.8808.5508.4727.3671.7617.9043.8672 1.6113h-1.0781c-.1485-.8477-.7012-1.2715-1.6582-1.2715-.6211 0-1.0938.2012-1.418.6035-.3242.4024-.4863.9922-.4863 1.7696v.4921c0 .7422.1797 1.3243.539 1.7461.3633.418.8575.627 1.4825.627.7109 0 1.2246-.1445 1.541-.4336v-1.3945H94.75v-.8438h2.7246v2.584zm5.7074-2.2031h-3.118v2.1972h3.627V82h-4.7105v-6.8262h4.6755v.8965h-3.592v1.957h3.118v.8907zm1.681 2.5136c0-.1875.055-.3437.164-.4687.114-.125.282-.1875.504-.1875.223 0 .391.0625.504.1875.117.125.176.2812.176.4687 0 .1797-.059.3301-.176.4512-.113.1211-.281.1817-.504.1817-.222 0-.39-.0606-.504-.1817-.109-.1211-.164-.2715-.164-.4512zm6.176-6.2578h1.096v4.8457c0 .6133-.207 1.1133-.621 1.5-.414.3828-.967.5743-1.659.5743-.757 0-1.351-.1778-1.781-.5333-.426-.3593-.638-.8593-.638-1.5h1.089c0 .3672.11.6504.329.8497.222.1992.556.2988 1.001.2988.36 0 .647-.1055.862-.3164.215-.2149.322-.5078.322-.8789v-4.8399zm6.568 5.0801c0-.3125-.119-.5547-.357-.7266-.234-.1718-.639-.33-1.213-.4746-.574-.1445-1.029-.3007-1.365-.4687-.762-.3828-1.143-.9238-1.143-1.6231 0-.5586.237-1.0117.709-1.3593.477-.3477 1.088-.5215 1.834-.5215.766 0 1.391.1953 1.875.5859.489.3906.733.8906.733 1.5h-1.084c0-.3828-.139-.6777-.416-.8848-.274-.2109-.647-.3164-1.119-.3164-.442 0-.793.0879-1.055.2637-.262.1719-.393.4141-.393.7266 0 .2539.119.4668.358.6387.242.1718.668.3359 1.277.4921.609.1563 1.086.334 1.43.5332.343.1954.599.4258.767.6914.168.2657.252.5762.252.9317 0 .5742-.238 1.0273-.715 1.3594-.472.3281-1.097.4922-1.875.4922-.808 0-1.48-.1973-2.015-.5918-.531-.3985-.797-.9141-.797-1.5469h1.09c0 .3984.15.709.451.9316.301.2227.725.334 1.271.334.493 0 .866-.0879 1.12-.2637.253-.1797.38-.414.38-.7031zm8.01-1.4648c0 1.0195-.269 1.8261-.808 2.4199-.539.5898-1.262.8848-2.168.8848-.895 0-1.618-.2989-2.168-.8965-.547-.5977-.821-1.4102-.821-2.4375v-.3633c0-1.0078.272-1.8125.815-2.4141.547-.6015 1.267-.9023 2.162-.9023.91 0 1.633.2969 2.168.8906.539.5938.812 1.3887.82 2.3848v.4336zm-1.072-.4043c0-.7735-.168-1.3653-.504-1.7754-.336-.4102-.807-.6153-1.412-.6153-.586 0-1.051.209-1.395.627-.339.418-.509 1.0117-.509 1.7812v.3868c0 .7617.171 1.3535.515 1.7754.344.4179.811.6269 1.401.6269.609 0 1.078-.2051 1.406-.6152.332-.4141.498-1.0098.498-1.7871v-.4043zM132.707 82h-1.078l-3.545-5.1328V82H127v-6.8262h1.084l3.545 5.1387v-5.1387h1.078V82zm9.818-1.7227l.065.4688.088-.375 1.453-5.1973h.967l1.429 5.2149.077.3457.07-.4688 1.16-5.0918h1.078L147.166 82h-1.02l-1.523-5.373-.006-.0293-.006.0293-1.57 5.373h-1.014l-1.74-6.8262h1.072l1.166 5.1035zm11.614-1.3593h-3.118v2.1972h3.627V82h-4.71v-6.8262h4.675v.8965h-3.592v1.957h3.118v.8907zM155.785 82v-6.8262h2.379c.816 0 1.441.1602 1.875.4805.434.3164.65.7773.65 1.3828 0 .3164-.093.5977-.281.8438-.183.2461-.447.4336-.791.5625.387.0937.694.2871.92.58.227.2891.34.6309.34 1.0254 0 .6172-.213 1.0957-.639 1.4356-.426.3398-1.031.5117-1.816.5156h-2.637zm1.084-3.1055v2.2207h1.535c.45 0 .793-.0957 1.032-.2871.238-.1914.357-.4531.357-.7851 0-.7657-.459-1.1485-1.377-1.1485h-1.547zm0-.8261h1.371c.422 0 .754-.0821.996-.2461.243-.168.364-.4141.364-.7383 0-.6563-.448-.9942-1.342-1.0137h-1.389v1.9981zm6.469 1.3652V82h-1.084v-6.8262h2.736c.797 0 1.432.1953 1.905.586.472.3867.709.9082.709 1.5644 0 .6641-.229 1.1817-.686 1.5528-.457.371-1.104.5566-1.939.5566h-1.641zm0-.8906h1.652c.485 0 .86-.1035 1.125-.3106.266-.207.399-.5058.399-.8965 0-.375-.133-.6777-.399-.9082-.265-.2343-.631-.3535-1.095-.3574h-1.682v2.4727zm9.557 1.8222h-3.047L169.203 82h-1.107l2.806-6.8262h.973L174.641 82h-1.102l-.644-1.6348zm-2.696-.8847h2.35l-1.166-2.9825-1.184 2.9825zm10.77.3105c-.078.7305-.364 1.2969-.856 1.6992-.492.4024-1.146.6036-1.963.6036-.875 0-1.578-.2872-2.109-.8614-.527-.5781-.791-1.373-.791-2.3847v-.5508c0-.6407.119-1.2031.357-1.6875.243-.4883.588-.8653 1.038-1.1309.453-.2656.976-.3984 1.57-.3984.797 0 1.435.207 1.916.6211.484.4101.764.9804.838 1.7109h-1.084c-.071-.5078-.244-.875-.522-1.1016-.273-.2265-.656-.3398-1.148-.3398-.598 0-1.061.1992-1.389.5977-.324.3945-.488.9609-.492 1.6992v.6211c0 .7383.154 1.3105.463 1.7168.312.4023.764.6035 1.353.6035.528 0 .928-.1074 1.202-.3223.277-.2187.455-.584.533-1.0957h1.084zm3.199-.832l-.861.832V82h-1.084v-6.8262h1.084v3.252l.761-.8438 2.327-2.4082h1.33l-2.807 3.041L187.924 82h-1.319l-2.437-3.041zm4.582 2.4726c0-.1875.055-.3437.164-.4687.113-.125.281-.1875.504-.1875.223 0 .391.0625.504.1875.117.125.176.2812.176.4687 0 .1797-.059.3301-.176.4512-.113.1211-.281.1817-.504.1817-.223 0-.391-.0606-.504-.1817-.109-.1211-.164-.2715-.164-.4512zm8.602-1.6406c-.079.7305-.364 1.2969-.856 1.6992-.492.4024-1.146.6036-1.963.6036-.875 0-1.578-.2872-2.109-.8614-.528-.5781-.791-1.373-.791-2.3847v-.5508c0-.6407.119-1.2031.357-1.6875.242-.4883.588-.8653 1.037-1.1309.453-.2656.977-.3984 1.571-.3984.797 0 1.435.207 1.916.6211.484.4101.763.9804.838 1.7109h-1.084c-.071-.5078-.245-.875-.522-1.1016-.273-.2265-.656-.3398-1.148-.3398-.598 0-1.061.1992-1.389.5977-.324.3945-.488.9609-.492 1.6992v.6211c0 .7383.154 1.3105.463 1.7168.312.4023.763.6035 1.353.6035.528 0 .928-.1074 1.201-.3223.278-.2187.455-.584.534-1.0957h1.084zm6.972-1.0019c0 1.0195-.269 1.8261-.808 2.4199-.539.5898-1.262.8848-2.168.8848-.895 0-1.618-.2989-2.168-.8965-.547-.5977-.821-1.4102-.821-2.4375v-.3633c0-1.0078.272-1.8125.815-2.4141.547-.6015 1.267-.9023 2.162-.9023.91 0 1.633.2969 2.168.8906.539.5938.812 1.3887.82 2.3848v.4336zm-1.072-.4043c0-.7735-.168-1.3653-.504-1.7754-.336-.4102-.807-.6153-1.412-.6153-.586 0-1.051.209-1.395.627-.339.418-.509 1.0117-.509 1.7812v.3868c0 .7617.172 1.3535.515 1.7754.344.4179.811.6269 1.401.6269.609 0 1.078-.2051 1.406-.6152.332-.4141.498-1.0098.498-1.7871v-.4043zM211.414 82h-1.078l-3.545-5.1328V82h-1.084v-6.8262h1.084l3.545 5.1387v-5.1387h1.078V82zm5.76-2.9238h-3.047V82h-1.084v-6.8262h4.6v.8965h-3.516v2.1094h3.047v.8965zM219.904 82h-1.09v-6.8262h1.09V82zm7.196-.8789c-.258.3242-.616.5684-1.073.7324-.453.1602-.974.2403-1.564.2403-.93 0-1.676-.2911-2.238-.8731-.563-.582-.848-1.3652-.856-2.3496v-.5273c0-1.0235.26-1.8223.779-2.3965.524-.5782 1.258-.8672 2.204-.8672.781 0 1.408.1836 1.88.5508.473.3671.762.9043.868 1.6113h-1.079c-.148-.8477-.701-1.2715-1.658-1.2715-.621 0-1.093.2012-1.418.6035-.324.4024-.486.9922-.486 1.7696v.4921c0 .7422.18 1.3243.539 1.7461.363.418.857.627 1.482.627.711 0 1.225-.1445 1.541-.4336v-1.3945h-1.646v-.8438h2.725v2.584zm1.541.3105c0-.1875.054-.3437.164-.4687.113-.125.281-.1875.504-.1875.222 0 .39.0625.503.1875.118.125.176.2812.176.4687 0 .1797-.058.3301-.176.4512-.113.1211-.281.1817-.503.1817-.223 0-.391-.0606-.504-.1817-.11-.1211-.164-.2715-.164-.4512zm6.175-6.2578h1.096v4.8457c0 .6133-.207 1.1133-.621 1.5-.414.3828-.967.5743-1.658.5743-.758 0-1.352-.1778-1.781-.5333-.426-.3593-.639-.8593-.639-1.5h1.09c0 .3672.109.6504.328.8497.223.1992.557.2988 1.002.2988.359 0 .646-.1055.861-.3164.215-.2149.322-.5078.322-.8789v-4.8399zm6.569 5.0801c0-.3125-.119-.5547-.358-.7266-.234-.1718-.638-.33-1.213-.4746-.574-.1445-1.029-.3007-1.365-.4687-.761-.3828-1.142-.9238-1.142-1.6231 0-.5586.236-1.0117.709-1.3593.476-.3477 1.088-.5215 1.834-.5215.765 0 1.39.1953 1.875.5859.488.3906.732.8906.732 1.5h-1.084c0-.3828-.139-.6777-.416-.8848-.273-.2109-.646-.3164-1.119-.3164-.442 0-.793.0879-1.055.2637-.262.1719-.392.4141-.392.7266 0 .2539.119.4668.357.6387.242.1718.668.3359 1.277.4921.61.1563 1.086.334 1.43.5332.344.1954.6.4258.768.6914.168.2657.252.5762.252.9317 0 .5742-.239 1.0273-.715 1.3594-.473.3281-1.098.4922-1.875.4922-.809 0-1.481-.1973-2.016-.5918-.531-.3985-.797-.9141-.797-1.5469h1.09c0 .3984.15.709.451.9316.301.2227.725.334 1.272.334.492 0 .865-.0879 1.119-.2637.254-.1797.381-.414.381-.7031z" fill="#828282"/>
  <path d="M139.881 112.817c0-.39-.149-.693-.446-.908-.293-.215-.799-.412-1.517-.593-.717-.181-1.286-.376-1.706-.586-.952-.479-1.428-1.155-1.428-2.029 0-.698.295-1.264.886-1.699.596-.435 1.36-.652 2.292-.652.957 0 1.739.244 2.344.733.611.488.916 1.113.916 1.875h-1.355c0-.479-.174-.848-.52-1.106-.342-.264-.808-.396-1.399-.396-.552 0-.991.11-1.319.33-.327.214-.49.517-.49.908 0 .317.149.583.446.798.303.215.835.42 1.597.615.762.196 1.358.418 1.787.667.43.244.75.532.96.864.21.332.315.72.315 1.165 0 .718-.298 1.284-.894 1.699-.591.41-1.372.615-2.344.615-1.01 0-1.85-.246-2.519-.74-.664-.498-.996-1.142-.996-1.933h1.362c0 .498.188.886.564 1.164.376.279.906.418 1.589.418.616 0 1.082-.11 1.399-.33.318-.224.476-.517.476-.879zm6.263-1.106H144.1V115h-1.355v-8.533h3.12c1.04 0 1.841.227 2.403.681.566.455.849 1.097.849 1.927 0 1.113-.574 1.887-1.721 2.321l2.109 3.531V115h-1.45l-1.911-3.289zm-2.044-1.106h1.802c.571 0 1.023-.131 1.355-.395.337-.269.505-.63.505-1.084 0-.488-.163-.867-.491-1.135-.327-.269-.798-.403-1.413-.403H144.1v3.017zm13.528 1.634c-.098.913-.454 1.621-1.069 2.124-.616.503-1.434.754-2.454.754-1.094 0-1.973-.359-2.637-1.076-.659-.723-.989-1.717-.989-2.981v-.689c0-.801.149-1.504.447-2.109.303-.611.735-1.082 1.297-1.414.566-.332 1.22-.498 1.963-.498.996 0 1.794.259 2.395.776.605.513.954 1.226 1.047 2.139h-1.355c-.088-.635-.305-1.094-.652-1.377-.342-.283-.82-.425-1.435-.425-.748 0-1.326.249-1.736.747-.406.494-.611 1.202-.616 2.124v.777c0 .923.193 1.638.579 2.146.391.503.955.754 1.692.754.659 0 1.16-.134 1.501-.403.347-.273.569-.73.667-1.369h1.355z" fill="#333"/>
  <path d="M11.8926 140.434V143h-1.084v-6.826h2.7363c.7969 0 1.4317.195 1.9043.586.4727.386.709.908.709 1.564 0 .664-.2285 1.182-.6855 1.553-.4571.371-1.1036.557-1.9395.557h-1.6406zm0-.891h1.6523c.4844 0 .8594-.104 1.125-.311.2656-.207.3985-.505.3985-.896 0-.375-.1329-.678-.3985-.908-.2656-.235-.6308-.354-1.0957-.358h-1.6816v2.473zm8.1738.826h-1.6348V143h-1.0839v-6.826h2.4961c.832 0 1.4726.181 1.9218.545.4532.363.6797.877.6797 1.541 0 .89-.459 1.51-1.3769 1.857l1.6875 2.824V143h-1.1602l-1.5293-2.631zm-1.6348-.885h1.4414c.4571 0 .8184-.105 1.084-.316.2696-.215.4043-.504.4043-.867 0-.391-.1308-.694-.3925-.908-.2618-.215-.6387-.323-1.1309-.323h-1.4063v2.414zm9.5508.434h-3.1172v2.197h3.627V143h-4.711v-6.826h4.6758v.896h-3.5918v1.957h3.1172v.891zm5.543 1.336c0-.313-.1192-.555-.3574-.727-.2344-.172-.6387-.33-1.2129-.474-.5742-.145-1.0293-.301-1.3653-.469-.7617-.383-1.1425-.924-1.1425-1.623 0-.559.2363-1.012.7089-1.359.4766-.348 1.0879-.522 1.834-.522.7657 0 1.3907.195 1.875.586.4883.391.7325.891.7325 1.5h-1.084c0-.383-.1387-.678-.416-.885-.2735-.211-.6465-.316-1.1192-.316-.4414 0-.793.088-1.0547.264-.2617.171-.3926.414-.3926.726 0 .254.1192.467.3575.639.2422.172.6679.336 1.2773.492.6094.156 1.086.334 1.4297.533.3438.195.5996.426.7676.692.1679.265.2519.576.2519.931 0 .574-.2382 1.028-.7148 1.36-.4727.328-1.0977.492-1.875.492-.8086 0-1.4805-.198-2.0156-.592-.5313-.398-.7969-.914-.7969-1.547h1.0898c0 .399.1504.709.4512.932.3008.222.7246.334 1.2715.334.4922 0 .8652-.088 1.1191-.264.2539-.18.3809-.414.3809-.703zm6.4922-1.336h-3.1172v2.197h3.6269V143h-4.7109v-6.826h4.6758v.896h-3.5918v1.957h3.1172v.891zM47.3711 143H46.293l-3.545-5.133V143h-1.0839v-6.826h1.0839l3.545 5.138v-5.138h1.0781V143zm6.8027-5.93h-2.3379V143H50.752v-5.93h-2.3262v-.896h5.748v.896zm5.1504 4.295h-3.0469L55.6328 143h-1.1074l2.8066-6.826h.9727L61.0703 143h-1.1015l-.6446-1.635zm-2.6953-.885h2.3496l-1.166-2.982-1.1836 2.982zm10.1777-3.41h-2.3378V143h-1.084v-5.93h-2.3262v-.896h5.748v.896zm2.2149 5.93h-1.0899v-6.826h1.0899V143zm7.4121-3.211c0 1.02-.2695 1.826-.8086 2.42-.5391.59-1.2617.885-2.168.885-.8945 0-1.6172-.299-2.1679-.897-.5469-.597-.8203-1.41-.8203-2.437v-.364c0-1.007.2714-1.812.8144-2.414.5469-.601 1.2676-.902 2.1621-.902.9102 0 1.6328.297 2.168.891.539.593.8125 1.388.8203 2.384v.434zm-1.0723-.404c0-.774-.1679-1.365-.5039-1.776-.3359-.41-.8066-.615-1.4121-.615-.5859 0-1.0508.209-1.3945.627-.3399.418-.5098 1.012-.5098 1.781v.387c0 .762.1719 1.354.5156 1.775.3438.418.8106.627 1.4004.627.6094 0 1.0782-.205 1.4063-.615.332-.414.498-1.01.498-1.787v-.404zM83.5234 143h-1.0781l-3.5449-5.133V143h-1.084v-6.826h1.084l3.5449 5.138v-5.138h1.0781V143zm1.6641-.568c0-.188.0547-.344.1641-.469.1132-.125.2812-.188.5039-.188.2226 0 .3906.063.5039.188.1172.125.1758.281.1758.469 0 .179-.0586.33-.1758.451-.1133.121-.2813.181-.5039.181-.2227 0-.3907-.06-.5039-.181-.1094-.121-.1641-.272-.1641-.451zm4.5352-6.258l2.291 5.338 2.2793-5.338h1.4121V143H94.627v-2.35l.1113-3.123L92.4062 143h-.7968l-2.3262-5.449.1113 3.099V143h-1.0781v-6.826h1.4063zM97.3281 143v-6.826h2.1153c.6326 0 1.1936.131 1.6816.392.492.258.875.627 1.148 1.108.274.48.416 1.031.428 1.652v.451c0 .985-.305 1.768-.914 2.35-.605.582-1.422.873-2.4491.873h-2.0098zm1.084-5.93v5.045h.9609c.727 0 1.283-.203 1.67-.609.387-.406.58-.985.58-1.735v-.375c0-.75-.185-1.324-.557-1.722-.367-.403-.908-.604-1.6226-.604h-1.0313zm7.9749 1.653l1.681-2.549h1.289l-2.314 3.387 2.396 3.439h-1.289l-1.752-2.596-1.734 2.596h-1.289l2.379-3.439-2.326-3.387h1.283l1.676 2.549zM117.975 143h-1.09v-6.826h1.09V143zm7.4 0h-1.078l-3.545-5.133V143h-1.084v-6.826h1.084l3.545 5.138v-5.138h1.078V143zm1.629 0v-6.826h2.115c.633 0 1.193.131 1.682.392.492.258.875.627 1.148 1.108.274.48.416 1.031.428 1.652v.451c0 .985-.305 1.768-.914 2.35-.606.582-1.422.873-2.449.873h-2.01zm1.084-5.93v5.045h.961c.726 0 1.283-.203 1.67-.609.386-.406.58-.985.58-1.735v-.375c0-.75-.186-1.324-.557-1.722-.367-.403-.908-.604-1.623-.604h-1.031zm9.867 2.848h-3.117v2.197h3.627V143h-4.711v-6.826h4.676v.896h-3.592v1.957h3.117v.891zm4.072-1.195l1.682-2.549h1.289l-2.314 3.387L145.08 143h-1.289l-1.752-2.596-1.734 2.596h-1.289l2.379-3.439-2.327-3.387h1.284l1.675 2.549zm4.102 3.709c0-.188.055-.344.164-.469.113-.125.281-.188.504-.188.223 0 .391.063.504.188.117.125.176.281.176.469 0 .179-.059.33-.176.451-.113.121-.281.181-.504.181-.223 0-.391-.06-.504-.181-.109-.121-.164-.272-.164-.451zm8.836.568h-1.084v-2.918h-3.539V143h-1.084v-6.826h1.084v3.017h3.539v-3.017h1.084V143zm6.803-5.93h-2.338V143h-1.084v-5.93h-2.326v-.896h5.748v.896zm2.455-.896l2.291 5.338 2.279-5.338h1.412V143h-1.078v-2.35l.111-3.123-2.332 5.473h-.797l-2.326-5.449.112 3.099V143h-1.079v-6.826h1.407zm8.689 5.941h3.422V143h-4.506v-6.826h1.084v5.941zm12.063.885h-1.09v-6.826h1.09V143zm7.4 0h-1.078l-3.545-5.133V143h-1.084v-6.826h1.084l3.545 5.138v-5.138h1.078V143zm1.629 0v-6.826h2.115c.633 0 1.193.131 1.682.392.492.258.875.627 1.148 1.108.274.48.416 1.031.428 1.652v.451c0 .985-.305 1.768-.914 2.35-.606.582-1.422.873-2.449.873h-2.01zm1.084-5.93v5.045h.961c.726 0 1.283-.203 1.67-.609.386-.406.58-.985.58-1.735v-.375c0-.75-.186-1.324-.557-1.722-.367-.403-.908-.604-1.623-.604h-1.031zm9.867 2.848h-3.117v2.197h3.627V143h-4.711v-6.826h4.676v.896h-3.592v1.957h3.117v.891zm4.072-1.195l1.682-2.549h1.289l-2.314 3.387L212.08 143h-1.289l-1.752-2.596-1.734 2.596h-1.289l2.379-3.439-2.327-3.387h1.284l1.675 2.549zm4.102 3.709c0-.188.055-.344.164-.469.113-.125.281-.188.504-.188.223 0 .391.063.504.188.117.125.176.281.176.469 0 .179-.059.33-.176.451-.113.121-.281.181-.504.181-.223 0-.391-.06-.504-.181-.109-.121-.164-.272-.164-.451zm6.176-6.258h1.095v4.846c0 .613-.207 1.113-.621 1.5-.414.382-.967.574-1.658.574-.758 0-1.351-.178-1.781-.533-.426-.36-.639-.86-.639-1.5h1.09c0 .367.109.65.328.849.223.199.557.299 1.002.299.359 0 .647-.105.861-.316.215-.215.323-.508.323-.879v-4.84zm6.568 5.08c0-.313-.119-.555-.357-.727-.235-.172-.639-.33-1.213-.474-.574-.145-1.03-.301-1.365-.469-.762-.383-1.143-.924-1.143-1.623 0-.559.236-1.012.709-1.359.476-.348 1.088-.522 1.834-.522.766 0 1.391.195 1.875.586.488.391.732.891.732 1.5h-1.084c0-.383-.138-.678-.416-.885-.273-.211-.646-.316-1.119-.316-.441 0-.793.088-1.055.264-.261.171-.392.414-.392.726 0 .254.119.467.357.639.243.172.668.336 1.278.492.609.156 1.086.334 1.429.533.344.195.6.426.768.692.168.265.252.576.252.931 0 .574-.238 1.028-.715 1.36-.473.328-1.098.492-1.875.492-.809 0-1.48-.198-2.016-.592-.531-.398-.796-.914-.796-1.547h1.089c0 .399.151.709.452.932.3.222.724.334 1.271.334.492 0 .865-.088 1.119-.264.254-.18.381-.414.381-.703z" fill="#828282"/>
  <circle cx="245.5" cy="67.5" r=".5" fill="#E0E0E0"/>
  <circle cx="243.5" cy="67.5" r=".5" fill="#E0E0E0"/>
  <circle cx="241.5" cy="67.5" r=".5" fill="#E0E0E0"/>
  <circle cx="239.5" cy="67.5" r=".5" fill="#E0E0E0"/>
  <circle cx="237.5" cy="67.5" r=".5" fill="#E0E0E0"/>
  <circle cx="235.5" cy="67.5" r=".5" fill="#E0E0E0"/>
  <circle cx="233.5" cy="67.5" r=".5" fill="#E0E0E0"/>
  <circle cx="231.5" cy="67.5" r=".5" fill="#E0E0E0"/>
  <circle cx="229.5" cy="67.5" r=".5" fill="#E0E0E0"/>
  <circle cx="227.5" cy="67.5" r=".5" fill="#E0E0E0"/>
  <circle cx="225.5" cy="67.5" r=".5" fill="#E0E0E0"/>
  <circle cx="223.5" cy="67.5" r=".5" fill="#E0E0E0"/>
  <circle cx="221.5" cy="67.5" r=".5" fill="#E0E0E0"/>
  <circle cx="219.5" cy="67.5" r=".5" fill="#E0E0E0"/>
  <circle cx="217.5" cy="67.5" r=".5" fill="#E0E0E0"/>
  <circle cx="215.5" cy="67.5" r=".5" fill="#E0E0E0"/>
  <circle cx="213.5" cy="67.5" r=".5" fill="#E0E0E0"/>
  <circle cx="211.5" cy="67.5" r=".5" fill="#E0E0E0"/>
  <circle cx="209.5" cy="67.5" r=".5" fill="#E0E0E0"/>
  <circle cx="207.5" cy="67.5" r=".5" fill="#E0E0E0"/>
  <circle cx="205.5" cy="67.5" r=".5" fill="#E0E0E0"/>
  <circle cx="203.5" cy="67.5" r=".5" fill="#E0E0E0"/>
  <circle cx="201.5" cy="67.5" r=".5" fill="#E0E0E0"/>
  <circle cx="199.5" cy="67.5" r=".5" fill="#E0E0E0"/>
  <circle cx="197.5" cy="67.5" r=".5" fill="#E0E0E0"/>
  <circle cx="195.5" cy="67.5" r=".5" fill="#E0E0E0"/>
  <circle cx="192.5" cy="70.5" r=".5" fill="#E0E0E0"/>
  <circle cx="192.5" cy="72.5" r=".5" fill="#E0E0E0"/>
  <circle cx="192.5" cy="67.5" r="1.5" fill="#E0E0E0"/>
  <circle cx="189.5" cy="67.5" r=".5" fill="#E0E0E0"/>
  <circle cx="187.5" cy="67.5" r=".5" fill="#E0E0E0"/>
  <circle cx="185.5" cy="67.5" r=".5" fill="#E0E0E0"/>
  <circle cx="183.5" cy="67.5" r=".5" fill="#E0E0E0"/>
  <circle cx="181.5" cy="67.5" r=".5" fill="#E0E0E0"/>
  <circle cx="179.5" cy="67.5" r=".5" fill="#E0E0E0"/>
  <circle cx="177.5" cy="67.5" r=".5" fill="#E0E0E0"/>
  <circle cx="175.5" cy="67.5" r=".5" fill="#E0E0E0"/>
  <circle cx="173.5" cy="67.5" r=".5" fill="#E0E0E0"/>
  <circle cx="171.5" cy="67.5" r=".5" fill="#E0E0E0"/>
  <circle cx="169.5" cy="67.5" r=".5" fill="#E0E0E0"/>
  <circle cx="167.5" cy="67.5" r=".5" fill="#E0E0E0"/>
  <circle cx="165.5" cy="67.5" r=".5" fill="#E0E0E0"/>
  <circle cx="163.5" cy="67.5" r=".5" fill="#E0E0E0"/>
  <circle cx="161.5" cy="67.5" r=".5" fill="#E0E0E0"/>
  <circle cx="159.5" cy="67.5" r=".5" fill="#E0E0E0"/>
  <circle cx="157.5" cy="67.5" r=".5" fill="#E0E0E0"/>
  <circle cx="155.5" cy="67.5" r=".5" fill="#E0E0E0"/>
  <circle cx="153.5" cy="67.5" r=".5" fill="#E0E0E0"/>
  <circle cx="151.5" cy="67.5" r=".5" fill="#E0E0E0"/>
  <circle cx="149.5" cy="67.5" r=".5" fill="#E0E0E0"/>
  <circle cx="147.5" cy="67.5" r=".5" fill="#E0E0E0"/>
  <circle cx="145.5" cy="67.5" r=".5" fill="#E0E0E0"/>
  <circle cx="143.5" cy="67.5" r=".5" fill="#E0E0E0"/>
  <circle cx="141.5" cy="67.5" r=".5" fill="#E0E0E0"/>
  <circle cx="139.5" cy="67.5" r=".5" fill="#E0E0E0"/>
  <circle cx="137.5" cy="67.5" r=".5" fill="#E0E0E0"/>
  <circle cx="135.5" cy="67.5" r=".5" fill="#E0E0E0"/>
  <circle cx="133.5" cy="67.5" r=".5" fill="#E0E0E0"/>
  <circle cx="131.5" cy="67.5" r=".5" fill="#E0E0E0"/>
  <circle cx="129.5" cy="67.5" r=".5" fill="#E0E0E0"/>
  <circle cx="127.5" cy="67.5" r=".5" fill="#E0E0E0"/>
  <circle cx="125.5" cy="67.5" r=".5" fill="#E0E0E0"/>
  <circle cx="123.5" cy="67.5" r=".5" fill="#E0E0E0"/>
  <circle cx="121.5" cy="67.5" r=".5" fill="#E0E0E0"/>
  <circle cx="119.5" cy="67.5" r=".5" fill="#E0E0E0"/>
  <circle cx="117.5" cy="67.5" r=".5" fill="#E0E0E0"/>
  <circle cx="115.5" cy="67.5" r=".5" fill="#E0E0E0"/>
  <circle cx="113.5" cy="67.5" r=".5" fill="#E0E0E0"/>
  <circle cx="111.5" cy="67.5" r=".5" fill="#E0E0E0"/>
  <circle cx="109.5" cy="67.5" r=".5" fill="#E0E0E0"/>
  <circle cx="107.5" cy="67.5" r=".5" fill="#E0E0E0"/>
  <circle cx="105.5" cy="67.5" r=".5" fill="#E0E0E0"/>
  <circle cx="103.5" cy="67.5" r=".5" fill="#E0E0E0"/>
  <circle cx="101.5" cy="67.5" r=".5" fill="#E0E0E0"/>
  <circle cx="99.5" cy="67.5" r=".5" fill="#E0E0E0"/>
  <circle cx="97.5" cy="67.5" r=".5" fill="#E0E0E0"/>
  <circle cx="94.5" cy="70.5" r=".5" fill="#E0E0E0"/>
  <circle cx="94.5" cy="72.5" r=".5" fill="#E0E0E0"/>
  <circle cx="94.5" cy="67.5" r="1.5" fill="#E0E0E0"/>
  <circle r=".5" transform="matrix(-1 0 0 1 251.5 67.5)" fill="#E0E0E0"/>
  <circle r=".5" transform="matrix(-1 0 0 1 253.5 67.5)" fill="#E0E0E0"/>
  <circle r=".5" transform="matrix(-1 0 0 1 255.5 67.5)" fill="#E0E0E0"/>
  <circle r=".5" transform="matrix(-1 0 0 1 257.5 67.5)" fill="#E0E0E0"/>
  <circle r=".5" transform="matrix(-1 0 0 1 259.5 67.5)" fill="#E0E0E0"/>
  <circle r=".5" transform="matrix(-1 0 0 1 261.5 67.5)" fill="#E0E0E0"/>
  <circle r=".5" transform="matrix(-1 0 0 1 263.5 67.5)" fill="#E0E0E0"/>
  <circle r=".5" transform="matrix(-1 0 0 1 265.5 67.5)" fill="#E0E0E0"/>
  <circle r=".5" transform="matrix(-1 0 0 1 267.5 67.5)" fill="#E0E0E0"/>
  <circle r=".5" transform="matrix(-1 0 0 1 269.5 67.5)" fill="#E0E0E0"/>
  <circle r=".5" transform="matrix(-1 0 0 1 271.5 67.5)" fill="#E0E0E0"/>
  <circle r=".5" transform="matrix(-1 0 0 1 273.5 67.5)" fill="#E0E0E0"/>
  <circle r=".5" transform="matrix(-1 0 0 1 275.5 67.5)" fill="#E0E0E0"/>
  <circle r=".5" transform="matrix(-1 0 0 1 277.5 67.5)" fill="#E0E0E0"/>
  <circle r=".5" transform="matrix(-1 0 0 1 279.5 67.5)" fill="#E0E0E0"/>
  <circle r=".5" transform="matrix(-1 0 0 1 281.5 67.5)" fill="#E0E0E0"/>
  <circle r=".5" transform="matrix(-1 0 0 1 283.5 67.5)" fill="#E0E0E0"/>
  <circle r=".5" transform="matrix(-1 0 0 1 285.5 67.5)" fill="#E0E0E0"/>
  <circle r=".5" transform="matrix(-1 0 0 1 287.5 67.5)" fill="#E0E0E0"/>
  <circle r=".5" transform="matrix(-1 0 0 1 289.5 67.5)" fill="#E0E0E0"/>
  <circle r=".5" transform="matrix(-1 0 0 1 291.5 67.5)" fill="#E0E0E0"/>
  <circle r=".5" transform="matrix(-1 0 0 1 293.5 67.5)" fill="#E0E0E0"/>
  <circle r=".5" transform="matrix(-1 0 0 1 295.5 67.5)" fill="#E0E0E0"/>
  <circle r=".5" transform="matrix(-1 0 0 1 297.5 67.5)" fill="#E0E0E0"/>
  <circle r=".5" transform="matrix(-1 0 0 1 299.5 67.5)" fill="#E0E0E0"/>
  <circle r=".5" transform="matrix(-1 0 0 1 301.5 67.5)" fill="#E0E0E0"/>
  <circle r=".5" transform="matrix(-1 0 0 1 303.5 67.5)" fill="#E0E0E0"/>
  <circle r=".5" transform="matrix(-1 0 0 1 305.5 67.5)" fill="#E0E0E0"/>
  <circle r=".5" transform="matrix(-1 0 0 1 310.5 70.5)" fill="#E0E0E0"/>
  <circle r=".5" transform="matrix(-1 0 0 1 310.5 72.5)" fill="#E0E0E0"/>
  <circle r=".5" transform="matrix(-1 0 0 1 307.5 67.5)" fill="#E0E0E0"/>
  <circle r="1.5" transform="matrix(-1 0 0 1 310.5 67.5)" fill="#E0E0E0"/>
  <circle r=".5" transform="matrix(-1 0 0 1 313.5 67.5)" fill="#E0E0E0"/>
  <circle r=".5" transform="matrix(-1 0 0 1 315.5 67.5)" fill="#E0E0E0"/>
  <circle r=".5" transform="matrix(-1 0 0 1 317.5 67.5)" fill="#E0E0E0"/>
  <circle r=".5" transform="matrix(-1 0 0 1 319.5 67.5)" fill="#E0E0E0"/>
  <circle r=".5" transform="matrix(-1 0 0 1 321.5 67.5)" fill="#E0E0E0"/>
  <circle r=".5" transform="matrix(-1 0 0 1 323.5 67.5)" fill="#E0E0E0"/>
  <circle r=".5" transform="matrix(-1 0 0 1 325.5 67.5)" fill="#E0E0E0"/>
  <circle r=".5" transform="matrix(-1 0 0 1 327.5 67.5)" fill="#E0E0E0"/>
  <circle r=".5" transform="matrix(-1 0 0 1 329.5 67.5)" fill="#E0E0E0"/>
  <circle r=".5" transform="matrix(-1 0 0 1 331.5 67.5)" fill="#E0E0E0"/>
  <circle r=".5" transform="matrix(-1 0 0 1 333.5 67.5)" fill="#E0E0E0"/>
  <circle r=".5" transform="matrix(-1 0 0 1 335.5 67.5)" fill="#E0E0E0"/>
  <circle r=".5" transform="matrix(-1 0 0 1 337.5 67.5)" fill="#E0E0E0"/>
  <circle r=".5" transform="matrix(-1 0 0 1 339.5 67.5)" fill="#E0E0E0"/>
  <circle r=".5" transform="matrix(-1 0 0 1 341.5 67.5)" fill="#E0E0E0"/>
  <circle r=".5" transform="matrix(-1 0 0 1 343.5 67.5)" fill="#E0E0E0"/>
  <circle r=".5" transform="matrix(-1 0 0 1 345.5 67.5)" fill="#E0E0E0"/>
  <circle r=".5" transform="matrix(-1 0 0 1 347.5 67.5)" fill="#E0E0E0"/>
  <circle r=".5" transform="matrix(-1 0 0 1 349.5 67.5)" fill="#E0E0E0"/>
  <circle r=".5" transform="matrix(-1 0 0 1 351.5 67.5)" fill="#E0E0E0"/>
  <circle r=".5" transform="matrix(-1 0 0 1 353.5 67.5)" fill="#E0E0E0"/>
  <circle r=".5" transform="matrix(-1 0 0 1 355.5 67.5)" fill="#E0E0E0"/>
  <circle r=".5" transform="matrix(-1 0 0 1 357.5 67.5)" fill="#E0E0E0"/>
  <circle r=".5" transform="matrix(-1 0 0 1 359.5 67.5)" fill="#E0E0E0"/>
  <circle r=".5" transform="matrix(-1 0 0 1 361.5 67.5)" fill="#E0E0E0"/>
  <circle r=".5" transform="matrix(-1 0 0 1 363.5 67.5)" fill="#E0E0E0"/>
  <circle r=".5" transform="matrix(-1 0 0 1 365.5 67.5)" fill="#E0E0E0"/>
  <circle r=".5" transform="matrix(-1 0 0 1 367.5 67.5)" fill="#E0E0E0"/>
  <circle r=".5" transform="matrix(-1 0 0 1 369.5 67.5)" fill="#E0E0E0"/>
  <circle r=".5" transform="matrix(-1 0 0 1 371.5 67.5)" fill="#E0E0E0"/>
  <circle r=".5" transform="matrix(-1 0 0 1 373.5 67.5)" fill="#E0E0E0"/>
  <circle r=".5" transform="matrix(-1 0 0 1 375.5 67.5)" fill="#E0E0E0"/>
  <circle r=".5" transform="matrix(-1 0 0 1 377.5 67.5)" fill="#E0E0E0"/>
  <circle r=".5" transform="matrix(-1 0 0 1 379.5 67.5)" fill="#E0E0E0"/>
  <circle r=".5" transform="matrix(-1 0 0 1 381.5 67.5)" fill="#E0E0E0"/>
  <circle r=".5" transform="matrix(-1 0 0 1 383.5 67.5)" fill="#E0E0E0"/>
  <circle r=".5" transform="matrix(-1 0 0 1 385.5 67.5)" fill="#E0E0E0"/>
  <circle r=".5" transform="matrix(-1 0 0 1 387.5 67.5)" fill="#E0E0E0"/>
  <circle r=".5" transform="matrix(-1 0 0 1 389.5 67.5)" fill="#E0E0E0"/>
  <circle r=".5" transform="matrix(-1 0 0 1 391.5 67.5)" fill="#E0E0E0"/>
  <circle r=".5" transform="matrix(-1 0 0 1 393.5 67.5)" fill="#E0E0E0"/>
  <circle r="1.5" transform="matrix(-1 0 0 1 396.5 67.5)" fill="#E0E0E0"/>
  <circle r=".5" transform="matrix(-1 0 0 1 396.5 70.5)" fill="#E0E0E0"/>
  <circle cx="248.5" cy="62.5" r=".5" fill="#E0E0E0"/>
  <circle cx="248.5" cy="60.5" r=".5" fill="#E0E0E0"/>
  <circle cx="248.5" cy="58.5" r=".5" fill="#E0E0E0"/>
  <circle cx="248.5" cy="56.5" r=".5" fill="#E0E0E0"/>
  <circle cx="248.5" cy="64.5" r=".5" fill="#E0E0E0"/>
  <circle cx="248.5" cy="67.5" r="1.5" fill="#E0E0E0"/>
  <circle cx="248.5" cy="70.5" r=".5" fill="#E0E0E0"/>
  <circle cx="248.5" cy="72.5" r=".5" fill="#E0E0E0"/>
  <circle cx="248.5" cy="74.5" r=".5" fill="#E0E0E0"/>
  <circle cx="248.5" cy="76.5" r=".5" fill="#E0E0E0"/>
  <circle cx="248.5" cy="78.5" r=".5" fill="#E0E0E0"/>
  <circle cx="248.5" cy="80.5" r=".5" fill="#E0E0E0"/>
  <circle cx="248.5" cy="82.5" r=".5" fill="#E0E0E0"/>
  <circle cx="248.5" cy="84.5" r=".5" fill="#E0E0E0"/>
  <circle cx="248.5" cy="86.5" r=".5" fill="#E0E0E0"/>
  <circle cx="248.5" cy="88.5" r=".5" fill="#E0E0E0"/>
  <circle cx="248.5" cy="90.5" r=".5" fill="#E0E0E0"/>
  <circle cx="248.5" cy="92.5" r=".5" fill="#E0E0E0"/>
  <circle cx="248.5" cy="94.5" r=".5" fill="#E0E0E0"/>
  <circle r="1.5" transform="matrix(-1 0 0 1 248.5 97.5)" fill="#E0E0E0"/>
  <circle cx="245.5" cy="97.5" r=".5" fill="#E0E0E0"/>
  <circle cx="251.5" cy="97.5" r=".5" fill="#E0E0E0"/>
  <circle cx="255.5" cy="97.5" r=".5" fill="#E0E0E0"/>
  <circle cx="257.5" cy="97.5" r=".5" fill="#E0E0E0"/>
  <circle cx="259.5" cy="97.5" r=".5" fill="#E0E0E0"/>
  <circle cx="261.5" cy="97.5" r=".5" fill="#E0E0E0"/>
  <circle cx="263.5" cy="97.5" r=".5" fill="#E0E0E0"/>
  <circle cx="265.5" cy="97.5" r=".5" fill="#E0E0E0"/>
  <circle cx="267.5" cy="97.5" r=".5" fill="#E0E0E0"/>
  <circle cx="269.5" cy="97.5" r=".5" fill="#E0E0E0"/>
  <circle cx="271.5" cy="97.5" r=".5" fill="#E0E0E0"/>
  <circle cx="273.5" cy="97.5" r=".5" fill="#E0E0E0"/>
  <circle cx="275.5" cy="97.5" r=".5" fill="#E0E0E0"/>
  <circle cx="277.5" cy="97.5" r=".5" fill="#E0E0E0"/>
  <circle cx="279.5" cy="97.5" r=".5" fill="#E0E0E0"/>
  <circle cx="281.5" cy="97.5" r=".5" fill="#E0E0E0"/>
  <circle cx="283.5" cy="97.5" r=".5" fill="#E0E0E0"/>
  <circle cx="285.5" cy="97.5" r=".5" fill="#E0E0E0"/>
  <circle cx="287.5" cy="97.5" r=".5" fill="#E0E0E0"/>
  <circle cx="289.5" cy="97.5" r=".5" fill="#E0E0E0"/>
  <circle cx="291.5" cy="97.5" r=".5" fill="#E0E0E0"/>
  <circle cx="293.5" cy="97.5" r=".5" fill="#E0E0E0"/>
  <circle cx="295.5" cy="97.5" r=".5" fill="#E0E0E0"/>
  <circle cx="297.5" cy="97.5" r=".5" fill="#E0E0E0"/>
  <circle cx="299.5" cy="97.5" r=".5" fill="#E0E0E0"/>
  <circle cx="301.5" cy="97.5" r=".5" fill="#E0E0E0"/>
  <circle cx="303.5" cy="97.5" r=".5" fill="#E0E0E0"/>
  <circle cx="305.5" cy="97.5" r=".5" fill="#E0E0E0"/>
  <circle cx="307.5" cy="97.5" r=".5" fill="#E0E0E0"/>
  <circle cx="309.5" cy="97.5" r=".5" fill="#E0E0E0"/>
  <circle cx="311.5" cy="97.5" r=".5" fill="#E0E0E0"/>
  <circle cx="313.5" cy="97.5" r=".5" fill="#E0E0E0"/>
  <circle cx="315.5" cy="97.5" r=".5" fill="#E0E0E0"/>
  <circle cx="317.5" cy="97.5" r=".5" fill="#E0E0E0"/>
  <circle cx="319.5" cy="97.5" r=".5" fill="#E0E0E0"/>
  <circle cx="321.5" cy="97.5" r=".5" fill="#E0E0E0"/>
  <circle cx="323.5" cy="97.5" r=".5" fill="#E0E0E0"/>
  <circle cx="325.5" cy="97.5" r=".5" fill="#E0E0E0"/>
  <circle cx="327.5" cy="97.5" r=".5" fill="#E0E0E0"/>
  <circle cx="329.5" cy="97.5" r=".5" fill="#E0E0E0"/>
  <circle cx="332.5" cy="102.5" r=".5" fill="#E0E0E0"/>
  <circle cx="332.5" cy="100.5" r=".5" fill="#E0E0E0"/>
  <circle cx="332.5" cy="97.5" r="1.5" fill="#E0E0E0"/>
  <circle cx="253.5" cy="97.5" r=".5" fill="#E0E0E0"/>
  <circle cx="243.5" cy="97.5" r=".5" fill="#E0E0E0"/>
  <circle cx="241.5" cy="97.5" r=".5" fill="#E0E0E0"/>
  <circle cx="239.5" cy="97.5" r=".5" fill="#E0E0E0"/>
  <circle cx="237.5" cy="97.5" r=".5" fill="#E0E0E0"/>
  <circle cx="235.5" cy="97.5" r=".5" fill="#E0E0E0"/>
  <circle cx="233.5" cy="97.5" r=".5" fill="#E0E0E0"/>
  <circle cx="231.5" cy="97.5" r=".5" fill="#E0E0E0"/>
  <circle cx="229.5" cy="97.5" r=".5" fill="#E0E0E0"/>
  <circle cx="227.5" cy="97.5" r=".5" fill="#E0E0E0"/>
  <circle cx="225.5" cy="97.5" r=".5" fill="#E0E0E0"/>
  <circle cx="223.5" cy="97.5" r=".5" fill="#E0E0E0"/>
  <circle cx="221.5" cy="97.5" r=".5" fill="#E0E0E0"/>
  <circle cx="219.5" cy="97.5" r=".5" fill="#E0E0E0"/>
  <circle cx="217.5" cy="97.5" r=".5" fill="#E0E0E0"/>
  <circle cx="215.5" cy="97.5" r=".5" fill="#E0E0E0"/>
  <circle cx="213.5" cy="97.5" r=".5" fill="#E0E0E0"/>
  <circle cx="211.5" cy="97.5" r=".5" fill="#E0E0E0"/>
  <circle cx="209.5" cy="97.5" r=".5" fill="#E0E0E0"/>
  <circle cx="207.5" cy="97.5" r=".5" fill="#E0E0E0"/>
  <circle cx="205.5" cy="97.5" r=".5" fill="#E0E0E0"/>
  <circle cx="203.5" cy="97.5" r=".5" fill="#E0E0E0"/>
  <circle cx="201.5" cy="97.5" r=".5" fill="#E0E0E0"/>
  <circle cx="199.5" cy="97.5" r=".5" fill="#E0E0E0"/>
  <circle cx="197.5" cy="97.5" r=".5" fill="#E0E0E0"/>
  <circle cx="195.5" cy="97.5" r=".5" fill="#E0E0E0"/>
  <circle cx="193.5" cy="97.5" r=".5" fill="#E0E0E0"/>
  <circle cx="191.5" cy="97.5" r=".5" fill="#E0E0E0"/>
  <circle cx="189.5" cy="97.5" r=".5" fill="#E0E0E0"/>
  <circle cx="187.5" cy="97.5" r=".5" fill="#E0E0E0"/>
  <circle cx="185.5" cy="97.5" r=".5" fill="#E0E0E0"/>
  <circle cx="183.5" cy="97.5" r=".5" fill="#E0E0E0"/>
  <circle cx="181.5" cy="97.5" r=".5" fill="#E0E0E0"/>
  <circle cx="179.5" cy="97.5" r=".5" fill="#E0E0E0"/>
  <circle cx="177.5" cy="97.5" r=".5" fill="#E0E0E0"/>
  <circle cx="175.5" cy="97.5" r=".5" fill="#E0E0E0"/>
  <circle cx="173.5" cy="97.5" r=".5" fill="#E0E0E0"/>
  <circle cx="171.5" cy="97.5" r=".5" fill="#E0E0E0"/>
  <circle cx="169.5" cy="97.5" r=".5" fill="#E0E0E0"/>
  <circle cx="167.5" cy="97.5" r=".5" fill="#E0E0E0"/>
  <circle cx="165.5" cy="97.5" r=".5" fill="#E0E0E0"/>
  <circle cx="163.5" cy="97.5" r=".5" fill="#E0E0E0"/>
  <circle cx="161.5" cy="97.5" r=".5" fill="#E0E0E0"/>
  <circle cx="159.5" cy="97.5" r=".5" fill="#E0E0E0"/>
  <circle cx="157.5" cy="97.5" r=".5" fill="#E0E0E0"/>
  <circle cx="155.5" cy="97.5" r=".5" fill="#E0E0E0"/>
  <circle cx="153.5" cy="97.5" r=".5" fill="#E0E0E0"/>
  <circle cx="151.5" cy="97.5" r=".5" fill="#E0E0E0"/>
  <circle cx="149.5" cy="97.5" r=".5" fill="#E0E0E0"/>
  <circle cx="146.5" cy="97.5" r="1.5" fill="#E0E0E0"/>
  <circle cx="146.5" cy="100.5" r=".5" fill="#E0E0E0"/>
  <circle cx="146.5" cy="102.5" r=".5" fill="#E0E0E0"/>
  <circle cx="146.5" cy="123.5" r=".5" fill="#E0E0E0"/>
  <circle cx="146.5" cy="121.5" r=".5" fill="#E0E0E0"/>
  <circle cx="146.5" cy="119.5" r=".5" fill="#E0E0E0"/>
  <circle cx="146.5" cy="117.5" r=".5" fill="#E0E0E0"/>
  <circle cx="146.5" cy="125.5" r=".5" fill="#E0E0E0"/>
  <circle cx="146.5" cy="128.5" r="1.5" fill="#E0E0E0"/>
  <circle cx="332.5" cy="123.5" r=".5" fill="#E0E0E0"/>
  <circle cx="332.5" cy="121.5" r=".5" fill="#E0E0E0"/>
  <circle cx="332.5" cy="119.5" r=".5" fill="#E0E0E0"/>
  <circle cx="332.5" cy="117.5" r=".5" fill="#E0E0E0"/>
  <circle cx="332.5" cy="125.5" r=".5" fill="#E0E0E0"/>
  <circle cx="282.5" cy="131.5" r=".5" fill="#E0E0E0"/>
  <circle cx="332.5" cy="131.5" r=".5" fill="#E0E0E0"/>
  <circle cx="398.5" cy="131.5" r=".5" fill="#E0E0E0"/>
  <circle cx="398.5" cy="133.5" r=".5" fill="#E0E0E0"/>
  <circle cx="332.5" cy="133.5" r=".5" fill="#E0E0E0"/>
  <circle cx="332.5" cy="128.5" r="1.5" fill="#E0E0E0"/>
  <circle cx="398.5" cy="128.5" r="1.5" fill="#E0E0E0"/>
  <circle cx="285.5" cy="128.5" r=".5" fill="#E0E0E0"/>
  <circle cx="287.5" cy="128.5" r=".5" fill="#E0E0E0"/>
  <circle cx="289.5" cy="128.5" r=".5" fill="#E0E0E0"/>
  <circle cx="291.5" cy="128.5" r=".5" fill="#E0E0E0"/>
  <circle cx="293.5" cy="128.5" r=".5" fill="#E0E0E0"/>
  <circle cx="295.5" cy="128.5" r=".5" fill="#E0E0E0"/>
  <circle cx="297.5" cy="128.5" r=".5" fill="#E0E0E0"/>
  <circle cx="299.5" cy="128.5" r=".5" fill="#E0E0E0"/>
  <circle cx="301.5" cy="128.5" r=".5" fill="#E0E0E0"/>
  <circle cx="303.5" cy="128.5" r=".5" fill="#E0E0E0"/>
  <circle cx="305.5" cy="128.5" r=".5" fill="#E0E0E0"/>
  <circle cx="307.5" cy="128.5" r=".5" fill="#E0E0E0"/>
  <circle cx="309.5" cy="128.5" r=".5" fill="#E0E0E0"/>
  <circle cx="311.5" cy="128.5" r=".5" fill="#E0E0E0"/>
  <circle cx="313.5" cy="128.5" r=".5" fill="#E0E0E0"/>
  <circle cx="315.5" cy="128.5" r=".5" fill="#E0E0E0"/>
  <circle cx="317.5" cy="128.5" r=".5" fill="#E0E0E0"/>
  <circle cx="319.5" cy="128.5" r=".5" fill="#E0E0E0"/>
  <circle cx="321.5" cy="128.5" r=".5" fill="#E0E0E0"/>
  <circle cx="323.5" cy="128.5" r=".5" fill="#E0E0E0"/>
  <circle cx="325.5" cy="128.5" r=".5" fill="#E0E0E0"/>
  <circle cx="327.5" cy="128.5" r=".5" fill="#E0E0E0"/>
  <circle cx="329.5" cy="128.5" r=".5" fill="#E0E0E0"/>
  <circle cx="335.5" cy="128.5" r=".5" fill="#E0E0E0"/>
  <circle cx="337.5" cy="128.5" r=".5" fill="#E0E0E0"/>
  <circle cx="339.5" cy="128.5" r=".5" fill="#E0E0E0"/>
  <circle cx="341.5" cy="128.5" r=".5" fill="#E0E0E0"/>
  <circle cx="343.5" cy="128.5" r=".5" fill="#E0E0E0"/>
  <circle cx="345.5" cy="128.5" r=".5" fill="#E0E0E0"/>
  <circle cx="347.5" cy="128.5" r=".5" fill="#E0E0E0"/>
  <circle cx="349.5" cy="128.5" r=".5" fill="#E0E0E0"/>
  <circle cx="351.5" cy="128.5" r=".5" fill="#E0E0E0"/>
  <circle cx="353.5" cy="128.5" r=".5" fill="#E0E0E0"/>
  <circle cx="355.5" cy="128.5" r=".5" fill="#E0E0E0"/>
  <circle cx="357.5" cy="128.5" r=".5" fill="#E0E0E0"/>
  <circle cx="359.5" cy="128.5" r=".5" fill="#E0E0E0"/>
  <circle cx="361.5" cy="128.5" r=".5" fill="#E0E0E0"/>
  <circle cx="363.5" cy="128.5" r=".5" fill="#E0E0E0"/>
  <circle cx="365.5" cy="128.5" r=".5" fill="#E0E0E0"/>
  <circle cx="367.5" cy="128.5" r=".5" fill="#E0E0E0"/>
  <circle cx="369.5" cy="128.5" r=".5" fill="#E0E0E0"/>
  <circle cx="371.5" cy="128.5" r=".5" fill="#E0E0E0"/>
  <circle cx="373.5" cy="128.5" r=".5" fill="#E0E0E0"/>
  <circle cx="375.5" cy="128.5" r=".5" fill="#E0E0E0"/>
  <circle cx="377.5" cy="128.5" r=".5" fill="#E0E0E0"/>
  <circle cx="379.5" cy="128.5" r=".5" fill="#E0E0E0"/>
  <circle cx="381.5" cy="128.5" r=".5" fill="#E0E0E0"/>
  <circle cx="383.5" cy="128.5" r=".5" fill="#E0E0E0"/>
  <circle cx="385.5" cy="128.5" r=".5" fill="#E0E0E0"/>
  <circle cx="387.5" cy="128.5" r=".5" fill="#E0E0E0"/>
  <circle cx="389.5" cy="128.5" r=".5" fill="#E0E0E0"/>
  <circle cx="391.5" cy="128.5" r=".5" fill="#E0E0E0"/>
  <circle cx="393.5" cy="128.5" r=".5" fill="#E0E0E0"/>
  <circle cx="395.5" cy="128.5" r=".5" fill="#E0E0E0"/>
  <circle cx="282.5" cy="133.5" r=".5" fill="#E0E0E0"/>
  <circle cx="282.5" cy="128.5" r="1.5" fill="#E0E0E0"/>
  <circle cx="146.5" cy="131.5" r=".5" fill="#E0E0E0"/>
  <circle cx="204.5" cy="131.5" r=".5" fill="#E0E0E0"/>
  <circle cx="204.5" cy="133.5" r=".5" fill="#E0E0E0"/>
  <circle cx="60.5" cy="131.5" r=".5" fill="#E0E0E0"/>
  <circle cx="60.5" cy="133.5" r=".5" fill="#E0E0E0"/>
  <circle cx="146.5" cy="133.5" r=".5" fill="#E0E0E0"/>
  <circle cx="143.5" cy="128.5" r=".5" fill="#E0E0E0"/>
  <circle cx="149.5" cy="128.5" r=".5" fill="#E0E0E0"/>
  <circle cx="151.5" cy="128.5" r=".5" fill="#E0E0E0"/>
  <circle cx="153.5" cy="128.5" r=".5" fill="#E0E0E0"/>
  <circle cx="155.5" cy="128.5" r=".5" fill="#E0E0E0"/>
  <circle cx="157.5" cy="128.5" r=".5" fill="#E0E0E0"/>
  <circle cx="159.5" cy="128.5" r=".5" fill="#E0E0E0"/>
  <circle cx="161.5" cy="128.5" r=".5" fill="#E0E0E0"/>
  <circle cx="163.5" cy="128.5" r=".5" fill="#E0E0E0"/>
  <circle cx="165.5" cy="128.5" r=".5" fill="#E0E0E0"/>
  <circle cx="167.5" cy="128.5" r=".5" fill="#E0E0E0"/>
  <circle cx="169.5" cy="128.5" r=".5" fill="#E0E0E0"/>
  <circle cx="171.5" cy="128.5" r=".5" fill="#E0E0E0"/>
  <circle cx="173.5" cy="128.5" r=".5" fill="#E0E0E0"/>
  <circle cx="175.5" cy="128.5" r=".5" fill="#E0E0E0"/>
  <circle cx="177.5" cy="128.5" r=".5" fill="#E0E0E0"/>
  <circle cx="179.5" cy="128.5" r=".5" fill="#E0E0E0"/>
  <circle cx="181.5" cy="128.5" r=".5" fill="#E0E0E0"/>
  <circle cx="183.5" cy="128.5" r=".5" fill="#E0E0E0"/>
  <circle cx="185.5" cy="128.5" r=".5" fill="#E0E0E0"/>
  <circle cx="187.5" cy="128.5" r=".5" fill="#E0E0E0"/>
  <circle cx="189.5" cy="128.5" r=".5" fill="#E0E0E0"/>
  <circle cx="191.5" cy="128.5" r=".5" fill="#E0E0E0"/>
  <circle cx="193.5" cy="128.5" r=".5" fill="#E0E0E0"/>
  <circle cx="195.5" cy="128.5" r=".5" fill="#E0E0E0"/>
  <circle cx="197.5" cy="128.5" r=".5" fill="#E0E0E0"/>
  <circle cx="199.5" cy="128.5" r=".5" fill="#E0E0E0"/>
  <circle cx="201.5" cy="128.5" r=".5" fill="#E0E0E0"/>
  <circle cx="204.5" cy="128.5" r="1.5" fill="#E0E0E0"/>
  <circle cx="141.5" cy="128.5" r=".5" fill="#E0E0E0"/>
  <circle cx="139.5" cy="128.5" r=".5" fill="#E0E0E0"/>
  <circle cx="137.5" cy="128.5" r=".5" fill="#E0E0E0"/>
  <circle cx="135.5" cy="128.5" r=".5" fill="#E0E0E0"/>
  <circle cx="133.5" cy="128.5" r=".5" fill="#E0E0E0"/>
  <circle cx="131.5" cy="128.5" r=".5" fill="#E0E0E0"/>
  <circle cx="129.5" cy="128.5" r=".5" fill="#E0E0E0"/>
  <circle cx="127.5" cy="128.5" r=".5" fill="#E0E0E0"/>
  <circle cx="125.5" cy="128.5" r=".5" fill="#E0E0E0"/>
  <circle cx="123.5" cy="128.5" r=".5" fill="#E0E0E0"/>
  <circle cx="121.5" cy="128.5" r=".5" fill="#E0E0E0"/>
  <circle cx="119.5" cy="128.5" r=".5" fill="#E0E0E0"/>
  <circle cx="117.5" cy="128.5" r=".5" fill="#E0E0E0"/>
  <circle cx="115.5" cy="128.5" r=".5" fill="#E0E0E0"/>
  <circle cx="113.5" cy="128.5" r=".5" fill="#E0E0E0"/>
  <circle cx="111.5" cy="128.5" r=".5" fill="#E0E0E0"/>
  <circle cx="109.5" cy="128.5" r=".5" fill="#E0E0E0"/>
  <circle cx="107.5" cy="128.5" r=".5" fill="#E0E0E0"/>
  <circle cx="105.5" cy="128.5" r=".5" fill="#E0E0E0"/>
  <circle cx="103.5" cy="128.5" r=".5" fill="#E0E0E0"/>
  <circle cx="101.5" cy="128.5" r=".5" fill="#E0E0E0"/>
  <circle cx="99.5" cy="128.5" r=".5" fill="#E0E0E0"/>
  <circle cx="97.5" cy="128.5" r=".5" fill="#E0E0E0"/>
  <circle cx="95.5" cy="128.5" r=".5" fill="#E0E0E0"/>
  <circle cx="93.5" cy="128.5" r=".5" fill="#E0E0E0"/>
  <circle cx="91.5" cy="128.5" r=".5" fill="#E0E0E0"/>
  <circle cx="89.5" cy="128.5" r=".5" fill="#E0E0E0"/>
  <circle cx="87.5" cy="128.5" r=".5" fill="#E0E0E0"/>
  <circle cx="85.5" cy="128.5" r=".5" fill="#E0E0E0"/>
  <circle cx="83.5" cy="128.5" r=".5" fill="#E0E0E0"/>
  <circle cx="81.5" cy="128.5" r=".5" fill="#E0E0E0"/>
  <circle cx="79.5" cy="128.5" r=".5" fill="#E0E0E0"/>
  <circle cx="77.5" cy="128.5" r=".5" fill="#E0E0E0"/>
  <circle cx="75.5" cy="128.5" r=".5" fill="#E0E0E0"/>
  <circle cx="73.5" cy="128.5" r=".5" fill="#E0E0E0"/>
  <circle cx="69.5" cy="128.5" r=".5" fill="#E0E0E0"/>
  <circle cx="67.5" cy="128.5" r=".5" fill="#E0E0E0"/>
  <circle cx="65.5" cy="128.5" r=".5" fill="#E0E0E0"/>
  <circle cx="63.5" cy="128.5" r=".5" fill="#E0E0E0"/>
  <circle cx="60.5" cy="128.5" r="1.5" fill="#E0E0E0"/>
  <circle cx="71.5" cy="128.5" r=".5" fill="#E0E0E0"/>
  <circle r=".5" transform="matrix(-1 0 0 1 396.5 72.5)" fill="#E0E0E0"/>
  <path d="M320.011 115v-8.533h2.644c.791 0 1.491.164 2.102.491.615.322 1.094.784 1.435 1.384.342.601.52 1.289.535 2.066v.564c0 1.23-.381 2.209-1.143 2.937-.756.727-1.777 1.091-3.061 1.091h-2.512zm1.355-7.412v6.306h1.201c.908 0 1.604-.254 2.087-.762.484-.507.725-1.23.725-2.168v-.468c0-.938-.232-1.656-.695-2.154-.459-.503-1.136-.754-2.029-.754h-1.289zm8.54 7.412h-1.363v-8.533h1.363V115zm6.987-2.183c0-.39-.149-.693-.447-.908-.293-.215-.798-.412-1.516-.593s-1.286-.376-1.706-.586c-.953-.479-1.429-1.155-1.429-2.029 0-.698.296-1.264.887-1.699.595-.435 1.36-.652 2.292-.652.957 0 1.738.244 2.344.733.61.488.915 1.113.915 1.875h-1.355c0-.479-.173-.848-.52-1.106-.341-.264-.808-.396-1.399-.396-.551 0-.991.11-1.318.33-.327.214-.491.517-.491.908 0 .317.149.583.447.798.303.215.835.42 1.597.615.762.196 1.357.418 1.787.667.43.244.749.532.959.864.21.332.315.72.315 1.165 0 .718-.297 1.284-.893 1.699-.591.41-1.372.615-2.344.615-1.011 0-1.851-.246-2.519-.74-.665-.498-.997-1.142-.997-1.933h1.363c0 .498.188.886.564 1.164.376.279.905.418 1.589.418.615 0 1.082-.11 1.399-.33.317-.224.476-.517.476-.879zm9.331-5.229h-2.922V115h-1.355v-7.412h-2.908v-1.121h7.185v1.121z" fill="#333"/>
  <path d="M352.893 143.434V146h-1.084v-6.826h2.736c.797 0 1.432.195 1.904.586.473.386.709.908.709 1.564 0 .664-.228 1.182-.685 1.553-.457.371-1.104.557-1.94.557h-1.64zm0-.891h1.652c.484 0 .859-.104 1.125-.311.266-.207.398-.505.398-.896 0-.375-.132-.678-.398-.908-.266-.235-.631-.354-1.096-.358h-1.681v2.473zm8.173.826h-1.634V146h-1.084v-6.826h2.496c.832 0 1.472.181 1.922.545.453.363.679.877.679 1.541 0 .89-.459 1.51-1.377 1.857l1.688 2.824V146h-1.16l-1.53-2.631zm-1.634-.885h1.441c.457 0 .818-.105 1.084-.316.27-.215.404-.504.404-.867 0-.391-.131-.694-.392-.908-.262-.215-.639-.323-1.131-.323h-1.406v2.414zm9.55.434h-3.117v2.197h3.627V146h-4.711v-6.826h4.676v.896h-3.592v1.957h3.117v.891zm5.543 1.336c0-.313-.119-.555-.357-.727-.234-.172-.639-.33-1.213-.474-.574-.145-1.029-.301-1.365-.469-.762-.383-1.143-.924-1.143-1.623 0-.559.237-1.012.709-1.359.477-.348 1.088-.522 1.834-.522.766 0 1.391.195 1.875.586.489.391.733.891.733 1.5h-1.084c0-.383-.139-.678-.416-.885-.274-.211-.647-.316-1.119-.316-.442 0-.793.088-1.055.264-.262.171-.393.414-.393.726 0 .254.119.467.358.639.242.172.668.336 1.277.492.609.156 1.086.334 1.43.533.343.195.599.426.767.692.168.265.252.576.252.931 0 .574-.238 1.028-.715 1.36-.472.328-1.097.492-1.875.492-.808 0-1.48-.198-2.015-.592-.531-.398-.797-.914-.797-1.547h1.09c0 .399.15.709.451.932.301.222.725.334 1.271.334.493 0 .866-.088 1.12-.264.253-.18.38-.414.38-.703zm6.493-1.336H377.9v2.197h3.627V146h-4.711v-6.826h4.676v.896H377.9v1.957h3.118v.891zm7.353 3.082h-1.078l-3.545-5.133V146h-1.084v-6.826h1.084l3.545 5.138v-5.138h1.078V146zm6.803-5.93h-2.338V146h-1.084v-5.93h-2.326v-.896h5.748v.896zm5.15 4.295h-3.047l-.644 1.635h-1.108l2.807-6.826h.973L402.07 146h-1.101l-.645-1.635zm-2.695-.885h2.35l-1.167-2.982-1.183 2.982zm10.178-3.41h-2.338V146h-1.084v-5.93h-2.326v-.896h5.748v.896zm2.214 5.93h-1.089v-6.826h1.089V146zm7.413-3.211c0 1.02-.27 1.826-.809 2.42-.539.59-1.262.885-2.168.885-.895 0-1.617-.299-2.168-.897-.547-.597-.82-1.41-.82-2.437v-.364c0-1.007.271-1.812.814-2.414.547-.601 1.268-.902 2.162-.902.91 0 1.633.297 2.168.891.539.593.813 1.388.821 2.384v.434zm-1.073-.404c0-.774-.168-1.365-.504-1.776-.336-.41-.806-.615-1.412-.615-.586 0-1.05.209-1.394.627-.34.418-.51 1.012-.51 1.781v.387c0 .762.172 1.354.516 1.775.343.418.81.627 1.4.627.609 0 1.078-.205 1.406-.615.332-.414.498-1.01.498-1.787v-.404zm8.162 3.615h-1.078l-3.545-5.133V146h-1.084v-6.826h1.084l3.545 5.138v-5.138h1.078V146zm1.665-.568c0-.188.054-.344.164-.469.113-.125.281-.188.503-.188.223 0 .391.063.504.188.118.125.176.281.176.469 0 .179-.058.33-.176.451-.113.121-.281.181-.504.181-.222 0-.39-.06-.503-.181-.11-.121-.164-.272-.164-.451zm4.212-1.998V146h-1.084v-6.826h2.737c.797 0 1.431.195 1.904.586.473.386.709.908.709 1.564 0 .664-.228 1.182-.686 1.553-.457.371-1.103.557-1.939.557H430.4zm0-.891h1.653c.484 0 .859-.104 1.125-.311.265-.207.398-.505.398-.896 0-.375-.133-.678-.398-.908-.266-.235-.631-.354-1.096-.358H430.4v2.473zm5.455 3.457v-6.826h2.116c.633 0 1.193.131 1.681.392.493.258.875.627 1.149 1.108.273.48.416 1.031.428 1.652v.451c0 .985-.305 1.768-.915 2.35-.605.582-1.421.873-2.449.873h-2.01zm1.084-5.93v5.045h.961c.727 0 1.284-.203 1.67-.609.387-.406.58-.985.58-1.735v-.375c0-.75-.185-1.324-.556-1.722-.367-.403-.908-.604-1.623-.604h-1.032zm9.797 3.006h-3.047V146h-1.084v-6.826h4.6v.896h-3.516v2.11h3.047v.896z" fill="#828282"/>
  <path d="M321.157 143.847l.08.586.11-.469 1.817-6.497h1.208l1.787 6.519.095.432.088-.586 1.45-6.365h1.348L326.958 146h-1.275l-1.904-6.716-.008-.037-.007.037-1.963 6.716h-1.267l-2.175-8.533h1.34l1.458 6.38zm14.516-1.7h-3.896v2.747h4.534V146h-5.889v-8.533h5.845v1.121h-4.49v2.446h3.896v1.113zm2.058 3.853v-8.533h2.974c1.021 0 1.802.2 2.344.601.542.395.813.972.813 1.728 0 .396-.117.747-.352 1.055-.229.308-.559.542-.989.703.484.117.867.359 1.15.725.284.362.425.789.425 1.282 0 .772-.266 1.37-.798 1.794-.532.425-1.289.64-2.271.645h-3.296zm1.355-3.882v2.776h1.919c.562 0 .992-.12 1.289-.359.298-.239.447-.566.447-.981 0-.957-.574-1.436-1.721-1.436h-1.934zm0-1.033h1.714c.528 0 .943-.102 1.245-.307.303-.21.455-.518.455-.923 0-.82-.56-1.243-1.678-1.267h-1.736v2.497zm-76.927.901c0 1.275-.337 2.283-1.011 3.025-.673.738-1.577 1.106-2.71 1.106-1.118 0-2.021-.373-2.709-1.12-.684-.747-1.026-1.763-1.026-3.047v-.454c0-1.26.339-2.266 1.018-3.018.684-.752 1.585-1.128 2.703-1.128 1.138 0 2.041.371 2.71 1.113.674.743 1.015 1.736 1.025 2.981v.542zm-1.34-.505c0-.967-.21-1.707-.63-2.219-.42-.513-1.008-.769-1.765-.769-.733 0-1.314.261-1.743.783-.425.523-.638 1.265-.638 2.227v.483c0 .952.215 1.692.645 2.22.43.522 1.013.783 1.75.783.762 0 1.348-.256 1.758-.769.415-.517.623-1.262.623-2.234v-.505zM271.021 146h-1.347l-4.431-6.416V146h-1.355v-8.533h1.355l4.431 6.424v-6.424h1.347V146zm7.288-3.853h-3.896v2.747h4.533V146h-5.888v-8.533h5.844v1.121h-4.489v2.446h3.896v1.113zm3.413.645V146h-1.355v-8.533h3.421c.996 0 1.789.244 2.38.733.591.483.886 1.135.886 1.955 0 .83-.285 1.477-.857 1.941-.571.464-1.379.696-2.424.696h-2.051zm0-1.113h2.066c.605 0 1.074-.13 1.406-.388.332-.259.498-.633.498-1.121 0-.469-.166-.847-.498-1.135-.332-.293-.789-.442-1.37-.447h-2.102v3.091zm11.946 2.278h-3.809l-.805 2.043h-1.385l3.509-8.533h1.216l3.457 8.533h-1.377l-.806-2.043zm-3.369-1.106h2.937l-1.458-3.728-1.479 3.728zm13.498 2.05c-.322.406-.769.711-1.34.916-.566.2-1.218.3-1.956.3-1.162 0-2.094-.364-2.797-1.091-.704-.728-1.06-1.707-1.07-2.937v-.659c0-1.28.325-2.278.974-2.996.655-.723 1.573-1.084 2.754-1.084.977 0 1.761.23 2.351.689.591.459.953 1.13 1.084 2.014h-1.347c-.186-1.06-.877-1.59-2.073-1.59-.776 0-1.367.252-1.773.755-.405.503-.607 1.24-.607 2.212v.615c0 .928.224 1.655.673 2.183.455.522 1.072.783 1.853.783.889 0 1.531-.18 1.927-.542v-1.743h-2.058v-1.055h3.405v3.23zm7.134-2.754h-3.896v2.747h4.533V146h-5.888v-8.533h5.844v1.121h-4.489v2.446h3.896v1.113z" fill="#333"/>
</svg>
