<?xml version="1.0" encoding="UTF-8" standalone="no"?>
<svg
   xmlns="http://www.w3.org/2000/svg"
   height="98.059998"
   width="93.180023"
   version="1.1"
   viewBox="0 0 93.180023 98.059998"
>
  <path d="M86.43 49.68V11.44a.74.74 0 00-.74-.73H6.59a.73.73 0 00-.73.73v38.24a4.72 4.72 0 004.73 4.72h71.12a4.73 4.73 0 004.72-4.72zm-52-3H23.99a.74.74 0 01-.74-.73V30.74a1.47 1.47 0 011.48-1.47h9a1.47 1.47 0 011.47 1.47V46a.74.74 0 01-.77.73zm17 0H40.98a.73.73 0 01-.73-.73V24.37a1.48 1.48 0 011.47-1.48h9a1.48 1.48 0 011.48 1.48V46a.74.74 0 01-.77.73zm17.23 0H58.21a.73.73 0 01-.73-.73V34.81a1.47 1.47 0 011.47-1.47h9a1.47 1.47 0 011.48 1.47V46a.74.74 0 01-.77.73zM15.91 59.23a9.29 9.29 0 010 18.57 9.17 9.17 0 01-3.12-.54 9.28 9.28 0 013.12-18zm30.24-.06a9.29 9.29 0 11-9.28 9.28 9.28 9.28 0 019.28-9.28zm47 29.89v6a3 3 0 01-3 3H2.95a3 3 0 01-2.95-3v-6a11.81 11.81 0 016-10.27.76.76 0 01.85.08 13.79 13.79 0 0014.42 2.33A13.88 13.88 0 0025 78.86a.72.72 0 01.84-.09 11.86 11.86 0 015.22 6 11.79 11.79 0 015.22-6 .72.72 0 01.84.09 14 14 0 003.67 2.29 13.75 13.75 0 0014.41-2.31.72.72 0 01.84-.08A11.8 11.8 0 0161.71 86a11.83 11.83 0 015.64-7.26.72.72 0 01.84.09 13.8 13.8 0 003.67 2.29 13.75 13.75 0 0014.41-2.31.74.74 0 01.84-.09 11.8 11.8 0 016.07 10.34zM67.93 68.45a9.29 9.29 0 116.34 8.81 9.28 9.28 0 01-6.34-8.81zM1.87 3.27V3a3 3 0 012.95-3h82.66a3 3 0 013 3v.32a3 3 0 01-3 3H4.82a3 3 0 01-2.95-3.05z" fill="#333"/>
</svg>
