<?xml version="1.0" encoding="UTF-8" standalone="no"?>
<svg
   height="98.059998"
   width="93.180023"
   version="1.1"
   viewBox="0 0 93.180023 98.059998"
>
  <path
     style="fill:#333333;fill-opacity:1"
     d="M 86.43,49.68 V 11.44 A 0.74,0.74 0 0 0 85.69,10.71 H 6.59 a 0.73,0.73 0 0 0 -0.73,0.73 v 38.24 a 4.72,4.72 0 0 0 4.73,4.72 h 71.12 a 4.73,4.73 0 0 0 4.72,-4.72 z m -52,-3 H 23.99 A 0.74,0.74 0 0 1 23.25,45.95 V 30.74 a 1.47,1.47 0 0 1 1.48,-1.47 h 9 a 1.47,1.47 0 0 1 1.47,1.47 V 46 a 0.74,0.74 0 0 1 -0.77,0.73 z m 17,0 H 40.98 A 0.73,0.73 0 0 1 40.25,45.95 V 24.37 a 1.48,1.48 0 0 1 1.47,-1.48 h 9 a 1.48,1.48 0 0 1 1.48,1.48 V 46 a 0.74,0.74 0 0 1 -0.77,0.73 z m 17.23,0 H 58.21 A 0.73,0.73 0 0 1 57.48,45.95 V 34.81 a 1.47,1.47 0 0 1 1.47,-1.47 h 9 a 1.47,1.47 0 0 1 1.48,1.47 V 46 a 0.74,0.74 0 0 1 -0.77,0.73 z M 15.91,59.23 a 9.29,9.29 0 0 1 0,18.57 9.17,9.17 0 0 1 -3.12,-0.54 9.28,9.28 0 0 1 3.12,-18 z m 30.24,-0.06 a 9.29,9.29 0 1 1 -9.28,9.28 9.28,9.28 0 0 1 9.28,-9.28 z m 47,29.89 v 6 a 3,3 0 0 1 -3,3 H 2.95 A 3,3 0 0 1 2.8939139e-8,95.06 v -6 A 11.81,11.81 0 0 1 6,78.79 0.76,0.76 0 0 1 6.85,78.87 13.79,13.79 0 0 0 21.27,81.2 13.88,13.88 0 0 0 25,78.86 a 0.72,0.72 0 0 1 0.84,-0.09 11.86,11.86 0 0 1 5.22,6 11.79,11.79 0 0 1 5.22,-6 0.72,0.72 0 0 1 0.84,0.09 14,14 0 0 0 3.67,2.29 13.75,13.75 0 0 0 14.41,-2.31 0.72,0.72 0 0 1 0.84,-0.08 11.8,11.8 0 0 1 5.67,7.24 11.83,11.83 0 0 1 5.64,-7.26 0.72,0.72 0 0 1 0.84,0.09 13.8,13.8 0 0 0 3.67,2.29 13.75,13.75 0 0 0 14.41,-2.31 0.74,0.74 0 0 1 0.84,-0.09 11.8,11.8 0 0 1 6.07,10.34 z M 67.93,68.45 a 9.29,9.29 0 1 1 6.34,8.81 9.28,9.28 0 0 1 -6.34,-8.81 z M 1.87,3.27 V 3 A 3,3 0 0 1 4.82,0 h 82.66 a 3,3 0 0 1 3,3 v 0.32 a 3,3 0 0 1 -3,3 H 4.82 A 3,3 0 0 1 1.87,3.27 Z"
  />
</svg>
