<?xml version="1.0" encoding="UTF-8" standalone="no"?>
<svg
   xmlns="http://www.w3.org/2000/svg"
   viewBox="0 0 225.9466 201.03675"
   height="1963.1676"
   width="2206.5098"
>
  <path
     id="path4"
     d="M 159.11324,6.6627523e-4 C 147.80601,-0.07953675 133.31145,7.084242 118.70895,19.791492 a 151.13599,151.13599 0 0 0 -5.62603,5.163015 137.573,137.573 0 0 0 -3.74396,-3.458144 C 88.933965,3.3783636 68.480943,-4.2556146 56.199944,2.853385 44.423944,9.6703851 40.935914,29.913371 45.892914,55.24337 a 150.91,150.91 0 0 0 1.670069,7.484112 c -2.894,0.821999 -5.688948,1.697909 -8.362948,2.62991 C 15.278036,73.697391 0,86.76945 0,100.32745 c 0,14.004 16.399924,28.04993 41.317923,36.56592 a 128.43999,128.43999 0 0 0 6.110054,1.91008 147.813,147.813 0 0 0 -1.775073,8.06694 c -4.726,24.88999 -1.034953,44.65315 10.710047,51.42814 12.130999,6.995 32.490985,-0.19513 52.316989,-17.52513 1.567,-1.37 3.13999,-2.82297 4.71499,-4.34598 a 148.33999,148.33999 0 0 0 6.10805,5.57303 c 19.20401,16.525 38.16988,23.19809 49.90488,16.40509 12.12001,-7.016 16.05806,-28.24705 10.94406,-54.07805 -0.39,-1.973 -0.84505,-3.98805 -1.35506,-6.04006 1.43001,-0.422 2.83318,-0.85806 4.20218,-1.31206 25.904,-8.582 42.75698,-22.45692 42.75698,-36.64792 0,-13.607 -15.77007,-26.767068 -40.17408,-35.168067 a 151.364,151.364 0 0 0 -7.27389,-2.291896 137.5,137.5 0 0 0 1.12384,-4.961006 C 185.13789,31.178482 181.53786,9.6463723 169.24386,2.5583727 166.2971,0.85887345 162.88231,0.02740096 159.11324,6.6627523e-4 Z M 159.10546,9.6316681 c 2.08135,0.02986 3.87462,0.4566499 5.31762,1.2888539 7.566,4.363999 10.50883,21.960878 5.75484,45.037877 a 127.52499,127.52499 0 0 1 -1.01584,4.491988 c -9.37401,-2.163 -19.55407,-3.772999 -30.21207,-4.772999 -6.20899,-8.840999 -12.64199,-16.879995 -19.09999,-23.837994 a 141.92,141.92 0 0 1 5.19601,-4.765999 C 138.3395,15.504365 150.94013,9.5145247 159.10546,9.6316681 Z m -92.398658,0.213009 c 8.716811,-0.090285 22.182771,6.4042719 36.222108,18.8697859 1.126,1 2.25715,2.046931 3.39015,3.129931 -6.564005,7.049 -13.051008,15.073994 -19.248009,23.819993 -10.626999,0.985 -20.800057,2.566996 -30.152057,4.685996 a 141.52499,141.52499 0 0 1 -1.553065,-6.961891 v 10e-4 C 51.118929,31.686493 53.938966,15.315533 61.035966,11.207533 62.571591,10.318658 64.48487,9.86769 66.706802,9.8446771 Z M 113.08594,38.742482 c 4.452,4.823 8.91095,10.209069 13.29695,16.052069 a 284.24499,284.24499 0 0 0 -26.705908,-0.006 c 4.389998,-5.789 8.886948,-11.16707 13.408958,-16.046069 z m -0.10701,25.387058 c 6.996,0 13.89506,0.267833 20.61306,0.779833 a 290.70399,290.70399 0 0 1 10.88705,17.383125 316.41799,316.41799 0 0 1 9.74102,18.129962 290.80599,290.80599 0 0 1 -9.70901,18.28995 h -0.001 a 316.47799,316.47799 0 0 1 -10.84004,17.49014 c -6.704,0.479 -13.63207,0.72582 -20.69207,0.72582 -7.031,0 -13.870849,-0.21882 -20.45785,-0.64582 a 273.79799,273.79799 0 0 1 -11.043062,-17.51713 271.33399,271.33399 0 0 1 -9.640002,-18.20596 273.86399,273.86399 0 0 1 9.611,-18.215961 v 0.002 A 271.25198,271.25198 0 0 1 92.404057,64.903372 c 6.719993,-0.508 13.609853,-0.773832 20.574853,-0.773832 z m -32.967994,2.008884 a 283.78998,283.78998 0 0 0 -6.926889,11.384075 285.23999,285.23999 0 0 0 -6.378065,11.684888 c -2.811001,-6.667001 -5.2161,-13.222016 -7.180099,-19.552016 6.446999,-1.443 13.322054,-2.621947 20.485053,-3.516947 z m 65.950954,0.018 c 7.21,0.91 14.11705,2.11995 20.60305,3.60095 -1.94699,6.241 -4.3739,12.767011 -7.2319,19.457007 a 336.41998,336.41998 0 0 0 -6.50007,-11.757886 306.98199,306.98199 0 0 0 -6.87108,-11.300071 z m -95.806998,5.869044 c 2.827999,9.197001 6.537059,18.812993 11.013059,28.536992 -4.534,9.869 -8.296065,19.63801 -11.150065,28.943 a 118.908,118.908 0 0 1 -5.577833,-1.74607 c -11.018,-3.766 -20.117099,-8.65998 -26.354099,-13.99999 -5.603999,-4.79999 -8.4339512,-9.56495 -8.4339512,-13.43195 0,-8.227 12.2669652,-18.722079 32.7259642,-25.85508 a 139.27599,139.27599 0 0 1 7.776925,-2.446902 z m 125.768038,0.142007 c 2.31101,0.67 4.55509,1.374887 6.71709,2.119888 20.91,7.196999 33.664,17.840081 33.664,26.040087 0,8.735 -13.77511,20.07495 -36.14011,27.48595 h -10e-4 c -1.235,0.409 -2.50296,0.80405 -3.79496,1.18705 -2.86,-9.053 -6.72008,-18.68 -11.44207,-28.625 4.507,-9.710001 8.21705,-19.212976 10.99705,-28.207975 z m -16.49788,39.395045 c 3.01999,6.884 5.56592,13.54403 7.58791,19.87702 -6.552,1.495 -13.62507,2.69896 -21.07807,3.59296 a 337.53699,337.53699 0 0 0 6.93709,-11.49809 306.63198,306.63198 0 0 0 6.55307,-11.97189 z m -92.708068,0.34701 a 283.49398,283.49398 0 0 0 6.406067,11.69189 285.26999,285.26999 0 0 0 7.093896,11.60408 c -7.4,-0.82599 -14.379069,-1.94514 -20.824068,-3.34814 1.995,-6.44199 4.453105,-13.13783 7.324105,-19.94783 z m 102.942898,28.827 c 0.46,1.86001 0.87004,3.68284 1.22304,5.46583 2.26101,11.42201 2.58405,21.74905 1.08605,29.82205 -1.346,7.254 -4.05211,12.08998 -7.3981,14.02699 -7.121,4.12199 -22.34983,-1.23585 -38.77183,-15.36785 -1.883,-1.62 -3.78003,-3.35002 -5.68203,-5.18001 6.367,-6.964 12.72999,-15.06 18.93998,-24.05001 10.92401,-0.96899 21.24388,-2.554 30.60289,-4.717 z m -112.872912,0.43202 c 9.255,2.047 19.50007,3.51999 30.450066,4.40798 6.251003,8.797 12.798016,16.88301 19.396016,23.96401 a 118.86299,118.86299 0 0 1 -4.30518,3.96396 c -8.767003,7.664 -17.551858,13.09987 -25.293857,15.83486 h -0.001 c -6.956998,2.457 -12.49806,2.52703 -15.84706,0.59602 -7.128,-4.10999 -10.090052,-19.97991 -6.049052,-41.26492 a 138.507,138.507 0 0 1 1.650067,-7.50191 z m 69.830912,5.10882 c -4.4,5.98 -8.84295,11.44808 -13.26495,16.31707 -4.575,-4.937 -9.13797,-10.39707 -13.594967,-16.27007 4.325997,0.16999 8.736947,0.25601 13.219947,0.25601 4.60601,0 9.15897,-0.10302 13.63997,-0.30301 z"
     style="fill:#333333;fill-opacity:1;stroke-width:1" />
  <path
     style="fill:#333333;fill-opacity:1"
     id="path8"
     d="m 112.97796,80.150461 c 11.144,0 20.177,9.034 20.177,20.176999 0,11.144 -9.033,20.178 -20.177,20.178 -11.143,0 -20.176995,-9.034 -20.176995,-20.178 0,-11.142999 9.033995,-20.176999 20.176995,-20.176999" />
</svg>
