<?xml version="1.0" encoding="UTF-8" standalone="no"?>
<svg
   xmlns="http://www.w3.org/2000/svg"
   height="13.339285"
   width="14.490506"
   viewBox="0 0 14.49 13.339285"
>
  <g
    style="fill:#333333;fill-opacity:1"
    id="g4"
    transform="translate(-0.75474684,-1.2691111)"
  >
    <path
      style="fill:#333333;fill-opacity:1"
      d="m 13.622,1.29 c 0.17,0.002 0.337,0.027 0.498,0.082 0.43,0.146 0.783,0.482 0.95,0.905 0.067,0.17 0.101,0.349 0.108,0.531 0.043,3.416 0.128,6.834 -0.002,10.248 -0.01,0.169 -0.044,0.334 -0.106,0.491 -0.157,0.398 -0.48,0.722 -0.878,0.879 -0.17,0.067 -0.349,0.1 -0.531,0.107 C 9.874,14.581 6.084,14.676 2.3,14.532 2.131,14.521 1.966,14.488 1.808,14.426 1.41,14.269 1.087,13.945 0.93,13.547 0.863,13.377 0.829,13.198 0.822,13.016 0.779,9.6 0.694,6.182 0.824,2.768 0.834,2.599 0.868,2.434 0.93,2.277 1.087,1.879 1.41,1.555 1.808,1.398 1.978,1.331 2.157,1.297 2.339,1.29 c 3.761,-0.047 7.522,0 11.283,0 z m 1.092,2.682 H 1.306 c -0.044,3.02 -0.098,6.041 0.017,9.059 0.007,0.114 0.03,0.226 0.072,0.333 0.107,0.27 0.327,0.49 0.597,0.597 0.115,0.045 0.236,0.068 0.36,0.072 3.774,0.048 7.551,0.143 11.323,-10e-4 0.114,-0.007 0.226,-0.029 0.333,-0.071 0.27,-0.107 0.49,-0.327 0.597,-0.597 0.046,-0.116 0.068,-0.237 0.073,-0.361 0.038,-3.01 0.109,-6.022 0.036,-9.031 z M 3.333,12.988 c 1.042,-0.167 2.548,-0.184 3.622,-1.258 0.444,-0.444 0.444,-1.165 0,-1.609 -0.444,-0.444 -1.165,-0.444 -1.609,0 -1.074,1.074 -0.852,2.223 -2.013,2.867 z M 6.37,9.303 C 6.717,8.585 7.345,7.726 8.167,6.904 9.785,5.286 11.546,4.419 12.097,4.969 12.647,5.52 11.78,7.281 10.162,8.899 9.343,9.718 8.488,10.344 7.771,10.692 7.76,10.614 7.743,10.536 7.721,10.46 7.675,10.306 7.607,10.158 7.518,10.024 7.472,9.955 7.42,9.891 7.366,9.828 7.308,9.767 7.308,9.768 7.248,9.71 7.102,9.585 6.945,9.48 6.766,9.408 6.639,9.356 6.506,9.321 6.37,9.303 Z"
    />
  </g>
</svg>
