<?xml version="1.0" encoding="UTF-8" standalone="no"?>
<svg
  xmlns="http://www.w3.org/2000/svg"
  width="78"
  height="83"
  viewBox="0 0 78 83"
>
  <path
    d="M69.4405 79.3723L61.9937 65.0218H76.3689L45.4297 36.6252V78.0146L56.0856 67.367L63.8204 82.2852L69.4405 79.3723Z"
    fill="#333333"
  />
  <path
    d="M77.2739 44.2365C77.348 43.6934 77.4385 43.1503 77.4961 42.5908C77.6195 41.3482 77.6936 40.1222 77.6936 38.8221C77.6936 37.522 77.6277 36.3535 77.5125 35.1522C77.4549 34.5104 77.348 33.885 77.2574 33.2596C77.1916 32.8153 77.1505 32.3627 77.0764 31.9266C74.1859 16.0074 61.7273 3.54885 45.8081 0.658281C45.2486 0.534853 44.7302 0.485482 44.22 0.411425C43.7098 0.337369 43.1091 0.238627 42.5743 0.181027C41.3236 0.0658283 40.0975 0 38.855 0C37.6125 0 36.3865 0.0658283 35.1686 0.181027C34.6009 0.238627 34.0496 0.32914 33.5229 0.411425C32.9963 0.49371 32.4861 0.526624 31.9842 0.617138C16.065 3.50771 3.60645 15.9662 0.71588 31.8855C0.633595 32.3545 0.592453 32.84 0.518396 33.3172C0.444339 33.7945 0.255084 34.5597 0.181027 35.1604C0.0658283 36.37 0 37.629 0 38.8386C0 40.0481 0.0658283 41.3071 0.181027 42.5085C0.238627 43.1421 0.345597 43.751 0.436111 44.3763C0.501939 44.8289 0.543082 45.2897 0.625367 45.7423C3.51594 61.6615 15.9745 74.12 31.8937 77.0106C32.3709 77.0929 32.8564 77.1423 33.3337 77.2081C33.8109 77.2739 34.5186 77.3891 35.1275 77.4467C36.3371 77.5619 37.5961 77.6277 38.7974 77.6277H38.9126V68.5764H38.855C37.1496 68.5662 35.4483 68.4093 33.7698 68.1073C32.2185 63.1137 31.1656 57.9788 30.6265 52.7776C33.3008 52.9422 36.0573 53.041 38.855 53.041H38.9702V47.8652H38.855C35.7529 47.8652 32.84 47.7583 30.1163 47.5772C29.9271 44.8536 29.8037 41.9654 29.8037 38.8386C29.8037 35.7117 29.9106 32.8235 30.0917 30.0916C32.8235 29.9106 35.7364 29.8037 38.8386 29.8037C41.9407 29.8037 46.1734 29.9915 47.569 30.0916L52.72 30.5771C57.9658 31.1153 63.1451 32.1737 68.1814 33.7369C68.4792 35.4158 68.6334 37.117 68.6422 38.8221C68.6405 40.5241 68.4918 42.2227 68.1979 43.8991C68.1979 43.8991 67.8468 45.814 67.2434 47.857L74.4186 54.4398C75.6282 51.6587 76.5065 48.745 77.0353 45.7587C77.1587 45.2568 77.2081 44.7302 77.2739 44.2365ZM27.9029 11.1743C26.7034 15.8264 25.8617 20.5633 25.3849 25.3438C20.6074 25.8177 15.8731 26.6567 11.2237 27.8535C14.258 20.2512 20.2737 14.2236 27.87 11.1743H27.9029ZM27.9029 66.511C20.2795 63.4756 14.2375 57.4424 11.1908 49.8236C15.84 51.0233 20.5742 51.8651 25.352 52.3415C25.827 57.1189 26.666 61.8531 27.8617 66.5028L27.9029 66.511ZM24.9159 47.1C19.6947 46.5552 14.5404 45.494 9.52861 43.932C8.90621 40.5676 8.90621 37.1177 9.52861 33.7533C14.5404 32.1913 19.6947 31.1301 24.9159 30.5854C24.7514 33.2596 24.6526 36.0162 24.6526 38.8139C24.6526 41.6116 24.7514 44.4339 24.9159 47.1ZM38.855 24.6361C36.0326 24.6361 33.2761 24.7267 30.6265 24.8912C31.1709 19.67 32.2321 14.5156 33.7945 9.50392C37.156 8.88086 40.6034 8.88086 43.9649 9.50392C45.5105 14.5201 46.5552 19.6772 47.0835 24.8995C44.4339 24.7267 41.6774 24.6361 38.855 24.6361ZM52.3415 25.3356C51.8669 20.5554 51.0279 15.8185 49.8318 11.1661C57.4458 14.2071 63.4782 20.2395 66.5192 27.8535C61.8647 26.6529 57.1249 25.8111 52.3415 25.3356Z"
    fill="#333333"
  />
</svg>
