<?xml version="1.0" encoding="UTF-8" standalone="no"?>
<svg
   xmlns="http://www.w3.org/2000/svg"
   height="83.634369"
   width="95.013489"
   viewBox="0 0 95.013489 83.634369"
>
  <switch
    transform="translate(-2.5,-8.1784234)"
    style="fill:#333333;fill-opacity:1"
    id="switch16"
  >
    <g
      style="fill:#333333;fill-opacity:1"
      id="g12"
    >
      <path
        style="fill:#333333;fill-opacity:1"
        id="path2"
        d="m 3.8,44 h 45.6 l 3.4,-8.1 h -49 c -0.7,0 -1.3,0.6 -1.3,1.3 v 5.4 c 0,0.8 0.6,1.4 1.3,1.4 z"
      />
      <path
        style="fill:#333333;fill-opacity:1"
        id="path4"
        d="M 3.8,23.9 H 57.7 L 61,15.8 H 3.8 c -0.7,0 -1.3,0.6 -1.3,1.3 v 5.4 c 0,0.8 0.6,1.4 1.3,1.4 z"
      />
      <path
        style="fill:#333333;fill-opacity:1"
        id="path6"
        d="m 2.5,57.4 v 5.4 c 0,0.7 0.6,1.3 1.3,1.3 H 41 C 41,64 41,64 41.1,63.9 L 44.4,56 H 3.8 c -0.7,0 -1.3,0.6 -1.3,1.4 z"
      />
      <path
        style="fill:#333333;fill-opacity:1"
        id="path8"
        d="m 3.8,76.1 c -0.7,0 -1.3,0.6 -1.3,1.3 v 5.4 c 0,0.7 0.6,1.3 1.3,1.3 H 42.6 L 41.4,76 H 3.8 Z"
      />
      <path
        style="fill:#333333;fill-opacity:1"
        id="path10"
        d="m 95.6,15.9 c -4.9,-4 -12,-7 -18.4,-7.7 -2.3,-0.2 -4.5,1 -5.4,3.2 L 48.6,67 c -0.2,0.5 -0.2,1 -0.2,1.4 l 3.2,21.1 c 0.1,0.9 0.8,1.7 1.6,2.1 0.9,0.4 1.9,0.2 2.6,-0.3 L 73,78.7 c 0.4,-0.3 0.7,-0.7 0.9,-1.1 l 0.9,-2 c 0,0 0,0 0,0 L 97.1,22 C 98,19.8 97.4,17.4 95.6,15.9 Z M 61.3,80.7 C 59.6,79.3 57.6,78.5 55.4,78.2 L 54,68.8 c 5.2,0.6 11,3 15,6.3 z"
      />
  </g>
  </switch>
</svg>
