<svg width="431" height="158" viewBox="0 0 431 158" fill="none" xmlns="http://www.w3.org/2000/svg">
<rect width="431" height="158" fill="white"/>
<circle cx="248" cy="25" r="15" fill="#F2F2F2"/>
<path d="M246.5 29.2523L252.827 33.5H253.173L259.5 29.2523V26.3567L254.78 29.619V16.5H251.22V29.619L246.5 26.3567V29.2523Z" fill="#FFAC00"/>
<path d="M249.5 20.7477L243.173 16.5L242.827 16.5L236.5 20.7477L236.5 23.6433L241.22 20.381L241.22 33.5L244.78 33.5L244.78 20.381L249.5 23.6433L249.5 20.7477Z" fill="#FFAC00"/>
<path d="M190.769 45.4673L193.632 52.1396L196.481 45.4673H198.247V54H196.899V51.063L197.038 47.1592L194.123 54H193.127L190.219 47.1885L190.358 51.063V54H189.011V45.4673H190.769ZM203.161 49.708L205.446 45.4673H206.97L203.82 51.019V54H202.465V50.9385L199.36 45.4673H200.883L203.161 49.708ZM213.825 55.106H207.116V54H213.825V55.106ZM216.22 50.792V54H214.865V45.4673H218.286C219.282 45.4673 220.075 45.7114 220.666 46.1997C221.257 46.6831 221.552 47.335 221.552 48.1553C221.552 48.9854 221.267 49.6323 220.695 50.0962C220.124 50.5601 219.316 50.792 218.271 50.792H216.22ZM216.22 49.6787H218.286C218.891 49.6787 219.36 49.5493 219.692 49.2905C220.024 49.0317 220.19 48.6582 220.19 48.1699C220.19 47.7012 220.024 47.3228 219.692 47.0347C219.36 46.7417 218.903 46.5928 218.322 46.5879H216.22V49.6787ZM226.438 50.7114H224.394V54H223.039V45.4673H226.159C227.199 45.4673 228 45.6943 228.562 46.1484C229.128 46.6025 229.411 47.2446 229.411 48.0747C229.411 49.188 228.837 49.9619 227.69 50.3965L229.799 53.9268V54H228.349L226.438 50.7114ZM224.394 49.6055H226.196C226.767 49.6055 227.219 49.4736 227.551 49.21C227.888 48.9414 228.056 48.5801 228.056 48.126C228.056 47.6377 227.893 47.2593 227.565 46.9907C227.238 46.7222 226.767 46.5879 226.152 46.5879H224.394V49.6055ZM236.333 50.1475H232.436V52.894H236.97V54H231.081V45.4673H236.926V46.5879H232.436V49.0342H236.333V50.1475ZM243.261 51.8174C243.261 51.4268 243.112 51.124 242.814 50.9092C242.521 50.6943 242.016 50.4966 241.298 50.3159C240.581 50.1353 240.012 49.9399 239.592 49.73C238.64 49.2515 238.164 48.5752 238.164 47.7012C238.164 47.0029 238.459 46.4365 239.05 46.002C239.646 45.5674 240.41 45.3501 241.342 45.3501C242.299 45.3501 243.081 45.5942 243.686 46.0825C244.296 46.5708 244.602 47.1958 244.602 47.9575H243.247C243.247 47.479 243.073 47.1104 242.727 46.8516C242.385 46.5879 241.918 46.4561 241.328 46.4561C240.776 46.4561 240.336 46.5659 240.009 46.7856C239.682 47.0005 239.519 47.3032 239.519 47.6938C239.519 48.0112 239.667 48.2773 239.965 48.4922C240.268 48.707 240.8 48.9121 241.562 49.1074C242.324 49.3027 242.919 49.5249 243.349 49.7739C243.779 50.0181 244.099 50.3062 244.309 50.6382C244.519 50.9702 244.624 51.3584 244.624 51.8027C244.624 52.5205 244.326 53.0869 243.73 53.502C243.139 53.9121 242.358 54.1172 241.386 54.1172C240.375 54.1172 239.536 53.8706 238.867 53.3774C238.203 52.8794 237.871 52.2349 237.871 51.4438H239.233C239.233 51.9419 239.421 52.3301 239.797 52.6084C240.173 52.8867 240.703 53.0259 241.386 53.0259C242.001 53.0259 242.468 52.916 242.785 52.6963C243.103 52.4717 243.261 52.1787 243.261 51.8174ZM251.376 50.1475H247.48V52.894H252.014V54H246.125V45.4673H251.97V46.5879H247.48V49.0342H251.376V50.1475ZM260.568 54H259.221L254.79 47.584V54H253.435V45.4673H254.79L259.221 51.8906V45.4673H260.568V54ZM269.072 46.5879H266.149V54H264.794V46.5879H261.887V45.4673H269.072V46.5879ZM275.51 51.9565H271.701L270.896 54H269.511L273.02 45.4673H274.235L277.692 54H276.315L275.51 51.9565ZM272.141 50.8506H275.078L273.62 47.1226L272.141 50.8506ZM284.863 46.5879H281.94V54H280.585V46.5879H277.678V45.4673H284.863V46.5879ZM287.631 54H286.269V45.4673H287.631V54ZM296.896 49.9863C296.896 51.2607 296.56 52.269 295.886 53.0112C295.212 53.7485 294.309 54.1172 293.176 54.1172C292.058 54.1172 291.154 53.7437 290.466 52.9966C289.782 52.2495 289.44 51.2339 289.44 49.9497V49.4956C289.44 48.2358 289.78 47.23 290.458 46.478C291.142 45.7261 292.043 45.3501 293.161 45.3501C294.299 45.3501 295.202 45.7212 295.871 46.4634C296.545 47.2056 296.887 48.1992 296.896 49.4443V49.9863ZM295.556 49.481C295.556 48.5142 295.346 47.7744 294.926 47.2617C294.506 46.749 293.918 46.4927 293.161 46.4927C292.429 46.4927 291.848 46.7539 291.418 47.2764C290.993 47.7988 290.781 48.541 290.781 49.5029V49.9863C290.781 50.9385 290.996 51.6782 291.425 52.2056C291.855 52.728 292.438 52.9893 293.176 52.9893C293.938 52.9893 294.523 52.7329 294.934 52.2202C295.349 51.7026 295.556 50.958 295.556 49.9863V49.481ZM305.759 54H304.411L299.98 47.584V54H298.625V45.4673H299.98L304.411 51.8906V45.4673H305.759V54Z" fill="#333333"/>
<path d="M256.525 80.2773L256.59 80.7461L256.678 80.3711L258.131 75.1738H259.098L260.527 80.3887L260.604 80.7344L260.674 80.2656L261.834 75.1738H262.912L261.166 82H260.146L258.623 76.627L258.617 76.5977L258.611 76.627L257.041 82H256.027L254.287 75.1738H255.359L256.525 80.2773ZM268.139 78.918H265.021V81.1152H268.648V82H263.938V75.1738H268.613V76.0703H265.021V78.0273H268.139V78.918ZM269.785 82V75.1738H272.164C272.98 75.1738 273.605 75.334 274.039 75.6543C274.473 75.9707 274.689 76.4316 274.689 77.0371C274.689 77.3535 274.596 77.6348 274.408 77.8809C274.225 78.127 273.961 78.3145 273.617 78.4434C274.004 78.5371 274.311 78.7305 274.537 79.0234C274.764 79.3125 274.877 79.6543 274.877 80.0488C274.877 80.666 274.664 81.1445 274.238 81.4844C273.812 81.8242 273.207 81.9961 272.422 82H269.785ZM270.869 78.8945V81.1152H272.404C272.854 81.1152 273.197 81.0195 273.436 80.8281C273.674 80.6367 273.793 80.375 273.793 80.043C273.793 79.2773 273.334 78.8945 272.416 78.8945H270.869ZM270.869 78.0684H272.24C272.662 78.0684 272.994 77.9863 273.236 77.8223C273.479 77.6543 273.6 77.4082 273.6 77.084C273.6 76.4277 273.152 76.0898 272.258 76.0703H270.869V78.0684ZM277.338 79.4336V82H276.254V75.1738H278.99C279.787 75.1738 280.422 75.3691 280.895 75.7598C281.367 76.1465 281.604 76.668 281.604 77.3242C281.604 77.9883 281.375 78.5059 280.918 78.877C280.461 79.248 279.814 79.4336 278.979 79.4336H277.338ZM277.338 78.543H278.99C279.475 78.543 279.85 78.4395 280.115 78.2324C280.381 78.0254 280.514 77.7266 280.514 77.3359C280.514 76.9609 280.381 76.6582 280.115 76.4277C279.85 76.1934 279.484 76.0742 279.02 76.0703H277.338V78.543ZM286.895 80.3652H283.848L283.203 82H282.096L284.902 75.1738H285.875L288.641 82H287.539L286.895 80.3652ZM284.199 79.4805H286.549L285.383 76.498L284.199 79.4805ZM294.969 79.791C294.891 80.5215 294.605 81.0879 294.113 81.4902C293.621 81.8926 292.967 82.0938 292.15 82.0938C291.275 82.0938 290.572 81.8066 290.041 81.2324C289.514 80.6543 289.25 79.8594 289.25 78.8477V78.2969C289.25 77.6562 289.369 77.0938 289.607 76.6094C289.85 76.1211 290.195 75.7441 290.645 75.4785C291.098 75.2129 291.621 75.0801 292.215 75.0801C293.012 75.0801 293.65 75.2871 294.131 75.7012C294.615 76.1113 294.895 76.6816 294.969 77.4121H293.885C293.814 76.9043 293.641 76.5371 293.363 76.3105C293.09 76.084 292.707 75.9707 292.215 75.9707C291.617 75.9707 291.154 76.1699 290.826 76.5684C290.502 76.9629 290.338 77.5293 290.334 78.2676V78.8887C290.334 79.627 290.488 80.1992 290.797 80.6055C291.109 81.0078 291.561 81.209 292.15 81.209C292.678 81.209 293.078 81.1016 293.352 80.8867C293.629 80.668 293.807 80.3027 293.885 79.791H294.969ZM298.168 78.959L297.307 79.791V82H296.223V75.1738H297.307V78.4258L298.068 77.582L300.395 75.1738H301.725L298.918 78.2148L301.924 82H300.605L298.168 78.959ZM302.75 81.4316C302.75 81.2441 302.805 81.0879 302.914 80.9629C303.027 80.8379 303.195 80.7754 303.418 80.7754C303.641 80.7754 303.809 80.8379 303.922 80.9629C304.039 81.0879 304.098 81.2441 304.098 81.4316C304.098 81.6113 304.039 81.7617 303.922 81.8828C303.809 82.0039 303.641 82.0645 303.418 82.0645C303.195 82.0645 303.027 82.0039 302.914 81.8828C302.805 81.7617 302.75 81.6113 302.75 81.4316ZM311.598 78.7891C311.598 79.8086 311.328 80.6152 310.789 81.209C310.25 81.7988 309.527 82.0938 308.621 82.0938C307.727 82.0938 307.004 81.7949 306.453 81.1973C305.906 80.5996 305.633 79.7871 305.633 78.7598V78.3965C305.633 77.3887 305.904 76.584 306.447 75.9824C306.994 75.3809 307.715 75.0801 308.609 75.0801C309.52 75.0801 310.242 75.377 310.777 75.9707C311.316 76.5645 311.59 77.3594 311.598 78.3555V78.7891ZM310.525 78.3848C310.525 77.6113 310.357 77.0195 310.021 76.6094C309.686 76.1992 309.215 75.9941 308.609 75.9941C308.023 75.9941 307.559 76.2031 307.215 76.6211C306.875 77.0391 306.705 77.6328 306.705 78.4023V78.7891C306.705 79.5508 306.877 80.1426 307.221 80.5645C307.564 80.9824 308.031 81.1914 308.621 81.1914C309.23 81.1914 309.699 80.9863 310.027 80.5762C310.359 80.1621 310.525 79.5664 310.525 78.7891V78.3848ZM318.688 82H317.609L314.064 76.8672V82H312.98V75.1738H314.064L317.609 80.3125V75.1738H318.688V82ZM324.518 78.918H321.4V81.1152H325.027V82H320.316V75.1738H324.992V76.0703H321.4V78.0273H324.518V78.918ZM327.248 79.4336V82H326.164V75.1738H328.9C329.697 75.1738 330.332 75.3691 330.805 75.7598C331.277 76.1465 331.514 76.668 331.514 77.3242C331.514 77.9883 331.285 78.5059 330.828 78.877C330.371 79.248 329.725 79.4336 328.889 79.4336H327.248ZM327.248 78.543H328.9C329.385 78.543 329.76 78.4395 330.025 78.2324C330.291 78.0254 330.424 77.7266 330.424 77.3359C330.424 76.9609 330.291 76.6582 330.025 76.4277C329.76 76.1934 329.395 76.0742 328.93 76.0703H327.248V78.543ZM336.805 80.3652H333.758L333.113 82H332.006L334.812 75.1738H335.785L338.551 82H337.449L336.805 80.3652ZM334.109 79.4805H336.459L335.293 76.498L334.109 79.4805ZM344.908 81.1211C344.65 81.4453 344.293 81.6895 343.836 81.8535C343.383 82.0137 342.861 82.0938 342.271 82.0938C341.342 82.0938 340.596 81.8027 340.033 81.2207C339.471 80.6387 339.186 79.8555 339.178 78.8711V78.3438C339.178 77.3203 339.438 76.5215 339.957 75.9473C340.48 75.3691 341.215 75.0801 342.16 75.0801C342.941 75.0801 343.568 75.2637 344.041 75.6309C344.514 75.998 344.803 76.5352 344.908 77.2422H343.83C343.682 76.3945 343.129 75.9707 342.172 75.9707C341.551 75.9707 341.078 76.1719 340.754 76.5742C340.43 76.9766 340.268 77.5664 340.268 78.3438V78.8359C340.268 79.5781 340.447 80.1602 340.807 80.582C341.17 81 341.664 81.209 342.289 81.209C343 81.209 343.514 81.0645 343.83 80.7754V79.3809H342.184V78.5371H344.908V81.1211ZM350.615 78.918H347.498V81.1152H351.125V82H346.414V75.1738H351.09V76.0703H347.498V78.0273H350.615V78.918ZM352.297 81.4316C352.297 81.2441 352.352 81.0879 352.461 80.9629C352.574 80.8379 352.742 80.7754 352.965 80.7754C353.188 80.7754 353.355 80.8379 353.469 80.9629C353.586 81.0879 353.645 81.2441 353.645 81.4316C353.645 81.6113 353.586 81.7617 353.469 81.8828C353.355 82.0039 353.188 82.0645 352.965 82.0645C352.742 82.0645 352.574 82.0039 352.461 81.8828C352.352 81.7617 352.297 81.6113 352.297 81.4316ZM358.473 75.1738H359.568V80.0195C359.568 80.6328 359.361 81.1328 358.947 81.5195C358.533 81.9023 357.98 82.0938 357.289 82.0938C356.531 82.0938 355.938 81.916 355.508 81.5605C355.082 81.2012 354.869 80.7012 354.869 80.0605H355.959C355.959 80.4277 356.068 80.7109 356.287 80.9102C356.51 81.1094 356.844 81.209 357.289 81.209C357.648 81.209 357.936 81.1035 358.15 80.8926C358.365 80.6777 358.473 80.3848 358.473 80.0137V75.1738ZM365.041 80.2539C365.041 79.9414 364.922 79.6992 364.684 79.5273C364.449 79.3555 364.045 79.1973 363.471 79.0527C362.896 78.9082 362.441 78.752 362.105 78.584C361.344 78.2012 360.963 77.6602 360.963 76.9609C360.963 76.4023 361.199 75.9492 361.672 75.6016C362.148 75.2539 362.76 75.0801 363.506 75.0801C364.271 75.0801 364.896 75.2754 365.381 75.666C365.869 76.0566 366.113 76.5566 366.113 77.166H365.029C365.029 76.7832 364.891 76.4883 364.613 76.2812C364.34 76.0703 363.967 75.9648 363.494 75.9648C363.053 75.9648 362.701 76.0527 362.439 76.2285C362.178 76.4004 362.047 76.6426 362.047 76.9551C362.047 77.209 362.166 77.4219 362.404 77.5938C362.646 77.7656 363.072 77.9297 363.682 78.0859C364.291 78.2422 364.768 78.4199 365.111 78.6191C365.455 78.8145 365.711 79.0449 365.879 79.3105C366.047 79.5762 366.131 79.8867 366.131 80.2422C366.131 80.8164 365.893 81.2695 365.416 81.6016C364.943 81.9297 364.318 82.0938 363.541 82.0938C362.732 82.0938 362.061 81.8965 361.525 81.502C360.994 81.1035 360.729 80.5879 360.729 79.9551H361.818C361.818 80.3535 361.969 80.6641 362.27 80.8867C362.57 81.1094 362.994 81.2207 363.541 81.2207C364.033 81.2207 364.406 81.1328 364.66 80.957C364.914 80.7773 365.041 80.543 365.041 80.2539Z" fill="#828282"/>
<path d="M373.844 81.4316C373.844 81.2441 373.898 81.0879 374.008 80.9629C374.121 80.8379 374.289 80.7754 374.512 80.7754C374.734 80.7754 374.902 80.8379 375.016 80.9629C375.133 81.0879 375.191 81.2441 375.191 81.4316C375.191 81.6113 375.133 81.7617 375.016 81.8828C374.902 82.0039 374.734 82.0645 374.512 82.0645C374.289 82.0645 374.121 82.0039 374.008 81.8828C373.898 81.7617 373.844 81.6113 373.844 81.4316ZM376.973 82V75.1738H379.352C380.168 75.1738 380.793 75.334 381.227 75.6543C381.66 75.9707 381.877 76.4316 381.877 77.0371C381.877 77.3535 381.783 77.6348 381.596 77.8809C381.412 78.127 381.148 78.3145 380.805 78.4434C381.191 78.5371 381.498 78.7305 381.725 79.0234C381.951 79.3125 382.064 79.6543 382.064 80.0488C382.064 80.666 381.852 81.1445 381.426 81.4844C381 81.8242 380.395 81.9961 379.609 82H376.973ZM378.057 78.8945V81.1152H379.592C380.041 81.1152 380.385 81.0195 380.623 80.8281C380.861 80.6367 380.98 80.375 380.98 80.043C380.98 79.2773 380.521 78.8945 379.604 78.8945H378.057ZM378.057 78.0684H379.428C379.85 78.0684 380.182 77.9863 380.424 77.8223C380.666 77.6543 380.787 77.4082 380.787 77.084C380.787 76.4277 380.34 76.0898 379.445 76.0703H378.057V78.0684ZM387.543 80.3652H384.496L383.852 82H382.744L385.551 75.1738H386.523L389.289 82H388.188L387.543 80.3652ZM384.848 79.4805H387.197L386.031 76.498L384.848 79.4805ZM390.227 82V75.1738H392.605C393.422 75.1738 394.047 75.334 394.48 75.6543C394.914 75.9707 395.131 76.4316 395.131 77.0371C395.131 77.3535 395.037 77.6348 394.85 77.8809C394.666 78.127 394.402 78.3145 394.059 78.4434C394.445 78.5371 394.752 78.7305 394.979 79.0234C395.205 79.3125 395.318 79.6543 395.318 80.0488C395.318 80.666 395.105 81.1445 394.68 81.4844C394.254 81.8242 393.648 81.9961 392.863 82H390.227ZM391.311 78.8945V81.1152H392.846C393.295 81.1152 393.639 81.0195 393.877 80.8281C394.115 80.6367 394.234 80.375 394.234 80.043C394.234 79.2773 393.775 78.8945 392.857 78.8945H391.311ZM391.311 78.0684H392.682C393.104 78.0684 393.436 77.9863 393.678 77.8223C393.92 77.6543 394.041 77.4082 394.041 77.084C394.041 76.4277 393.594 76.0898 392.699 76.0703H391.311V78.0684ZM400.896 78.918H397.779V81.1152H401.406V82H396.695V75.1738H401.371V76.0703H397.779V78.0273H400.896V78.918ZM403.627 81.1152H407.049V82H402.543V75.1738H403.627V81.1152ZM410.816 79.3691H409.182V82H408.098V75.1738H410.594C411.426 75.1738 412.066 75.3555 412.516 75.7188C412.969 76.082 413.195 76.5957 413.195 77.2598C413.195 78.1504 412.736 78.7695 411.818 79.1172L413.506 81.9414V82H412.346L410.816 79.3691ZM409.182 78.4844H410.623C411.08 78.4844 411.441 78.3789 411.707 78.168C411.977 77.9531 412.111 77.6641 412.111 77.3008C412.111 76.9102 411.98 76.6074 411.719 76.3926C411.457 76.1777 411.08 76.0703 410.588 76.0703H409.182V78.4844ZM420.004 79.791C419.926 80.5215 419.641 81.0879 419.148 81.4902C418.656 81.8926 418.002 82.0938 417.186 82.0938C416.311 82.0938 415.607 81.8066 415.076 81.2324C414.549 80.6543 414.285 79.8594 414.285 78.8477V78.2969C414.285 77.6562 414.404 77.0938 414.643 76.6094C414.885 76.1211 415.23 75.7441 415.68 75.4785C416.133 75.2129 416.656 75.0801 417.25 75.0801C418.047 75.0801 418.686 75.2871 419.166 75.7012C419.65 76.1113 419.93 76.6816 420.004 77.4121H418.92C418.85 76.9043 418.676 76.5371 418.398 76.3105C418.125 76.084 417.742 75.9707 417.25 75.9707C416.652 75.9707 416.189 76.1699 415.861 76.5684C415.537 76.9629 415.373 77.5293 415.369 78.2676V78.8887C415.369 79.627 415.523 80.1992 415.832 80.6055C416.145 81.0078 416.596 81.209 417.186 81.209C417.713 81.209 418.113 81.1016 418.387 80.8867C418.664 80.668 418.842 80.3027 418.92 79.791H420.004Z" fill="#828282"/>
<path d="M59.8926 79.4336V82H58.8086V75.1738H61.5449C62.3418 75.1738 62.9766 75.3691 63.4492 75.7598C63.9219 76.1465 64.1582 76.668 64.1582 77.3242C64.1582 77.9883 63.9297 78.5059 63.4727 78.877C63.0156 79.248 62.3691 79.4336 61.5332 79.4336H59.8926ZM59.8926 78.543H61.5449C62.0293 78.543 62.4043 78.4395 62.6699 78.2324C62.9355 78.0254 63.0684 77.7266 63.0684 77.3359C63.0684 76.9609 62.9355 76.6582 62.6699 76.4277C62.4043 76.1934 62.0391 76.0742 61.5742 76.0703H59.8926V78.543ZM69.4492 80.3652H66.4023L65.7578 82H64.6504L67.457 75.1738H68.4297L71.1953 82H70.0938L69.4492 80.3652ZM66.7539 79.4805H69.1035L67.9375 76.498L66.7539 79.4805ZM77.5234 79.791C77.4453 80.5215 77.1602 81.0879 76.668 81.4902C76.1758 81.8926 75.5215 82.0938 74.7051 82.0938C73.8301 82.0938 73.127 81.8066 72.5957 81.2324C72.0684 80.6543 71.8047 79.8594 71.8047 78.8477V78.2969C71.8047 77.6562 71.9238 77.0938 72.1621 76.6094C72.4043 76.1211 72.75 75.7441 73.1992 75.4785C73.6523 75.2129 74.1758 75.0801 74.7695 75.0801C75.5664 75.0801 76.2051 75.2871 76.6855 75.7012C77.1699 76.1113 77.4492 76.6816 77.5234 77.4121H76.4395C76.3691 76.9043 76.1953 76.5371 75.918 76.3105C75.6445 76.084 75.2617 75.9707 74.7695 75.9707C74.1719 75.9707 73.709 76.1699 73.3809 76.5684C73.0566 76.9629 72.8926 77.5293 72.8887 78.2676V78.8887C72.8887 79.627 73.043 80.1992 73.3516 80.6055C73.6641 81.0078 74.1152 81.209 74.7051 81.209C75.2324 81.209 75.6328 81.1016 75.9062 80.8867C76.1836 80.668 76.3613 80.3027 76.4395 79.791H77.5234ZM80.7227 78.959L79.8613 79.791V82H78.7773V75.1738H79.8613V78.4258L80.623 77.582L82.9492 75.1738H84.2793L81.4727 78.2148L84.4785 82H83.1602L80.7227 78.959ZM89.3711 80.3652H86.3242L85.6797 82H84.5723L87.3789 75.1738H88.3516L91.1172 82H90.0156L89.3711 80.3652ZM86.6758 79.4805H89.0254L87.8594 76.498L86.6758 79.4805ZM97.4746 81.1211C97.2168 81.4453 96.8594 81.6895 96.4023 81.8535C95.9492 82.0137 95.4277 82.0938 94.8379 82.0938C93.9082 82.0938 93.1621 81.8027 92.5996 81.2207C92.0371 80.6387 91.752 79.8555 91.7441 78.8711V78.3438C91.7441 77.3203 92.0039 76.5215 92.5234 75.9473C93.0469 75.3691 93.7812 75.0801 94.7266 75.0801C95.5078 75.0801 96.1348 75.2637 96.6074 75.6309C97.0801 75.998 97.3691 76.5352 97.4746 77.2422H96.3965C96.248 76.3945 95.6953 75.9707 94.7383 75.9707C94.1172 75.9707 93.6445 76.1719 93.3203 76.5742C92.9961 76.9766 92.834 77.5664 92.834 78.3438V78.8359C92.834 79.5781 93.0137 80.1602 93.373 80.582C93.7363 81 94.2305 81.209 94.8555 81.209C95.5664 81.209 96.0801 81.0645 96.3965 80.7754V79.3809H94.75V78.5371H97.4746V81.1211ZM103.182 78.918H100.064V81.1152H103.691V82H98.9805V75.1738H103.656V76.0703H100.064V78.0273H103.182V78.918ZM104.863 81.4316C104.863 81.2441 104.918 81.0879 105.027 80.9629C105.141 80.8379 105.309 80.7754 105.531 80.7754C105.754 80.7754 105.922 80.8379 106.035 80.9629C106.152 81.0879 106.211 81.2441 106.211 81.4316C106.211 81.6113 106.152 81.7617 106.035 81.8828C105.922 82.0039 105.754 82.0645 105.531 82.0645C105.309 82.0645 105.141 82.0039 105.027 81.8828C104.918 81.7617 104.863 81.6113 104.863 81.4316ZM111.039 75.1738H112.135V80.0195C112.135 80.6328 111.928 81.1328 111.514 81.5195C111.1 81.9023 110.547 82.0938 109.855 82.0938C109.098 82.0938 108.504 81.916 108.074 81.5605C107.648 81.2012 107.436 80.7012 107.436 80.0605H108.525C108.525 80.4277 108.635 80.7109 108.854 80.9102C109.076 81.1094 109.41 81.209 109.855 81.209C110.215 81.209 110.502 81.1035 110.717 80.8926C110.932 80.6777 111.039 80.3848 111.039 80.0137V75.1738ZM117.607 80.2539C117.607 79.9414 117.488 79.6992 117.25 79.5273C117.016 79.3555 116.611 79.1973 116.037 79.0527C115.463 78.9082 115.008 78.752 114.672 78.584C113.91 78.2012 113.529 77.6602 113.529 76.9609C113.529 76.4023 113.766 75.9492 114.238 75.6016C114.715 75.2539 115.326 75.0801 116.072 75.0801C116.838 75.0801 117.463 75.2754 117.947 75.666C118.436 76.0566 118.68 76.5566 118.68 77.166H117.596C117.596 76.7832 117.457 76.4883 117.18 76.2812C116.906 76.0703 116.533 75.9648 116.061 75.9648C115.619 75.9648 115.268 76.0527 115.006 76.2285C114.744 76.4004 114.613 76.6426 114.613 76.9551C114.613 77.209 114.732 77.4219 114.971 77.5938C115.213 77.7656 115.639 77.9297 116.248 78.0859C116.857 78.2422 117.334 78.4199 117.678 78.6191C118.021 78.8145 118.277 79.0449 118.445 79.3105C118.613 79.5762 118.697 79.8867 118.697 80.2422C118.697 80.8164 118.459 81.2695 117.982 81.6016C117.51 81.9297 116.885 82.0938 116.107 82.0938C115.299 82.0938 114.627 81.8965 114.092 81.502C113.561 81.1035 113.295 80.5879 113.295 79.9551H114.385C114.385 80.3535 114.535 80.6641 114.836 80.8867C115.137 81.1094 115.561 81.2207 116.107 81.2207C116.6 81.2207 116.973 81.1328 117.227 80.957C117.48 80.7773 117.607 80.543 117.607 80.2539ZM125.617 78.7891C125.617 79.8086 125.348 80.6152 124.809 81.209C124.27 81.7988 123.547 82.0938 122.641 82.0938C121.746 82.0938 121.023 81.7949 120.473 81.1973C119.926 80.5996 119.652 79.7871 119.652 78.7598V78.3965C119.652 77.3887 119.924 76.584 120.467 75.9824C121.014 75.3809 121.734 75.0801 122.629 75.0801C123.539 75.0801 124.262 75.377 124.797 75.9707C125.336 76.5645 125.609 77.3594 125.617 78.3555V78.7891ZM124.545 78.3848C124.545 77.6113 124.377 77.0195 124.041 76.6094C123.705 76.1992 123.234 75.9941 122.629 75.9941C122.043 75.9941 121.578 76.2031 121.234 76.6211C120.895 77.0391 120.725 77.6328 120.725 78.4023V78.7891C120.725 79.5508 120.896 80.1426 121.24 80.5645C121.584 80.9824 122.051 81.1914 122.641 81.1914C123.25 81.1914 123.719 80.9863 124.047 80.5762C124.379 80.1621 124.545 79.5664 124.545 78.7891V78.3848ZM132.707 82H131.629L128.084 76.8672V82H127V75.1738H128.084L131.629 80.3125V75.1738H132.707V82Z" fill="#828282"/>
<path d="M142.525 80.2773L142.59 80.7461L142.678 80.3711L144.131 75.1738H145.098L146.527 80.3887L146.604 80.7344L146.674 80.2656L147.834 75.1738H148.912L147.166 82H146.146L144.623 76.627L144.617 76.5977L144.611 76.627L143.041 82H142.027L140.287 75.1738H141.359L142.525 80.2773ZM154.139 78.918H151.021V81.1152H154.648V82H149.938V75.1738H154.613V76.0703H151.021V78.0273H154.139V78.918ZM155.785 82V75.1738H158.164C158.98 75.1738 159.605 75.334 160.039 75.6543C160.473 75.9707 160.689 76.4316 160.689 77.0371C160.689 77.3535 160.596 77.6348 160.408 77.8809C160.225 78.127 159.961 78.3145 159.617 78.4434C160.004 78.5371 160.311 78.7305 160.537 79.0234C160.764 79.3125 160.877 79.6543 160.877 80.0488C160.877 80.666 160.664 81.1445 160.238 81.4844C159.812 81.8242 159.207 81.9961 158.422 82H155.785ZM156.869 78.8945V81.1152H158.404C158.854 81.1152 159.197 81.0195 159.436 80.8281C159.674 80.6367 159.793 80.375 159.793 80.043C159.793 79.2773 159.334 78.8945 158.416 78.8945H156.869ZM156.869 78.0684H158.24C158.662 78.0684 158.994 77.9863 159.236 77.8223C159.479 77.6543 159.6 77.4082 159.6 77.084C159.6 76.4277 159.152 76.0898 158.258 76.0703H156.869V78.0684ZM163.338 79.4336V82H162.254V75.1738H164.99C165.787 75.1738 166.422 75.3691 166.895 75.7598C167.367 76.1465 167.604 76.668 167.604 77.3242C167.604 77.9883 167.375 78.5059 166.918 78.877C166.461 79.248 165.814 79.4336 164.979 79.4336H163.338ZM163.338 78.543H164.99C165.475 78.543 165.85 78.4395 166.115 78.2324C166.381 78.0254 166.514 77.7266 166.514 77.3359C166.514 76.9609 166.381 76.6582 166.115 76.4277C165.85 76.1934 165.484 76.0742 165.02 76.0703H163.338V78.543ZM172.895 80.3652H169.848L169.203 82H168.096L170.902 75.1738H171.875L174.641 82H173.539L172.895 80.3652ZM170.199 79.4805H172.549L171.383 76.498L170.199 79.4805ZM180.969 79.791C180.891 80.5215 180.605 81.0879 180.113 81.4902C179.621 81.8926 178.967 82.0938 178.15 82.0938C177.275 82.0938 176.572 81.8066 176.041 81.2324C175.514 80.6543 175.25 79.8594 175.25 78.8477V78.2969C175.25 77.6562 175.369 77.0938 175.607 76.6094C175.85 76.1211 176.195 75.7441 176.645 75.4785C177.098 75.2129 177.621 75.0801 178.215 75.0801C179.012 75.0801 179.65 75.2871 180.131 75.7012C180.615 76.1113 180.895 76.6816 180.969 77.4121H179.885C179.814 76.9043 179.641 76.5371 179.363 76.3105C179.09 76.084 178.707 75.9707 178.215 75.9707C177.617 75.9707 177.154 76.1699 176.826 76.5684C176.502 76.9629 176.338 77.5293 176.334 78.2676V78.8887C176.334 79.627 176.488 80.1992 176.797 80.6055C177.109 81.0078 177.561 81.209 178.15 81.209C178.678 81.209 179.078 81.1016 179.352 80.8867C179.629 80.668 179.807 80.3027 179.885 79.791H180.969ZM184.168 78.959L183.307 79.791V82H182.223V75.1738H183.307V78.4258L184.068 77.582L186.395 75.1738H187.725L184.918 78.2148L187.924 82H186.605L184.168 78.959ZM188.75 81.4316C188.75 81.2441 188.805 81.0879 188.914 80.9629C189.027 80.8379 189.195 80.7754 189.418 80.7754C189.641 80.7754 189.809 80.8379 189.922 80.9629C190.039 81.0879 190.098 81.2441 190.098 81.4316C190.098 81.6113 190.039 81.7617 189.922 81.8828C189.809 82.0039 189.641 82.0645 189.418 82.0645C189.195 82.0645 189.027 82.0039 188.914 81.8828C188.805 81.7617 188.75 81.6113 188.75 81.4316ZM197.352 79.791C197.273 80.5215 196.988 81.0879 196.496 81.4902C196.004 81.8926 195.35 82.0938 194.533 82.0938C193.658 82.0938 192.955 81.8066 192.424 81.2324C191.896 80.6543 191.633 79.8594 191.633 78.8477V78.2969C191.633 77.6562 191.752 77.0938 191.99 76.6094C192.232 76.1211 192.578 75.7441 193.027 75.4785C193.48 75.2129 194.004 75.0801 194.598 75.0801C195.395 75.0801 196.033 75.2871 196.514 75.7012C196.998 76.1113 197.277 76.6816 197.352 77.4121H196.268C196.197 76.9043 196.023 76.5371 195.746 76.3105C195.473 76.084 195.09 75.9707 194.598 75.9707C194 75.9707 193.537 76.1699 193.209 76.5684C192.885 76.9629 192.721 77.5293 192.717 78.2676V78.8887C192.717 79.627 192.871 80.1992 193.18 80.6055C193.492 81.0078 193.943 81.209 194.533 81.209C195.061 81.209 195.461 81.1016 195.734 80.8867C196.012 80.668 196.189 80.3027 196.268 79.791H197.352ZM204.324 78.7891C204.324 79.8086 204.055 80.6152 203.516 81.209C202.977 81.7988 202.254 82.0938 201.348 82.0938C200.453 82.0938 199.73 81.7949 199.18 81.1973C198.633 80.5996 198.359 79.7871 198.359 78.7598V78.3965C198.359 77.3887 198.631 76.584 199.174 75.9824C199.721 75.3809 200.441 75.0801 201.336 75.0801C202.246 75.0801 202.969 75.377 203.504 75.9707C204.043 76.5645 204.316 77.3594 204.324 78.3555V78.7891ZM203.252 78.3848C203.252 77.6113 203.084 77.0195 202.748 76.6094C202.412 76.1992 201.941 75.9941 201.336 75.9941C200.75 75.9941 200.285 76.2031 199.941 76.6211C199.602 77.0391 199.432 77.6328 199.432 78.4023V78.7891C199.432 79.5508 199.604 80.1426 199.947 80.5645C200.291 80.9824 200.758 81.1914 201.348 81.1914C201.957 81.1914 202.426 80.9863 202.754 80.5762C203.086 80.1621 203.252 79.5664 203.252 78.7891V78.3848ZM211.414 82H210.336L206.791 76.8672V82H205.707V75.1738H206.791L210.336 80.3125V75.1738H211.414V82ZM217.174 79.0762H214.127V82H213.043V75.1738H217.643V76.0703H214.127V78.1797H217.174V79.0762ZM219.904 82H218.814V75.1738H219.904V82ZM227.1 81.1211C226.842 81.4453 226.484 81.6895 226.027 81.8535C225.574 82.0137 225.053 82.0938 224.463 82.0938C223.533 82.0938 222.787 81.8027 222.225 81.2207C221.662 80.6387 221.377 79.8555 221.369 78.8711V78.3438C221.369 77.3203 221.629 76.5215 222.148 75.9473C222.672 75.3691 223.406 75.0801 224.352 75.0801C225.133 75.0801 225.76 75.2637 226.232 75.6309C226.705 75.998 226.994 76.5352 227.1 77.2422H226.021C225.873 76.3945 225.32 75.9707 224.363 75.9707C223.742 75.9707 223.27 76.1719 222.945 76.5742C222.621 76.9766 222.459 77.5664 222.459 78.3438V78.8359C222.459 79.5781 222.639 80.1602 222.998 80.582C223.361 81 223.855 81.209 224.48 81.209C225.191 81.209 225.705 81.0645 226.021 80.7754V79.3809H224.375V78.5371H227.1V81.1211ZM228.641 81.4316C228.641 81.2441 228.695 81.0879 228.805 80.9629C228.918 80.8379 229.086 80.7754 229.309 80.7754C229.531 80.7754 229.699 80.8379 229.812 80.9629C229.93 81.0879 229.988 81.2441 229.988 81.4316C229.988 81.6113 229.93 81.7617 229.812 81.8828C229.699 82.0039 229.531 82.0645 229.309 82.0645C229.086 82.0645 228.918 82.0039 228.805 81.8828C228.695 81.7617 228.641 81.6113 228.641 81.4316ZM234.816 75.1738H235.912V80.0195C235.912 80.6328 235.705 81.1328 235.291 81.5195C234.877 81.9023 234.324 82.0938 233.633 82.0938C232.875 82.0938 232.281 81.916 231.852 81.5605C231.426 81.2012 231.213 80.7012 231.213 80.0605H232.303C232.303 80.4277 232.412 80.7109 232.631 80.9102C232.854 81.1094 233.188 81.209 233.633 81.209C233.992 81.209 234.279 81.1035 234.494 80.8926C234.709 80.6777 234.816 80.3848 234.816 80.0137V75.1738ZM241.385 80.2539C241.385 79.9414 241.266 79.6992 241.027 79.5273C240.793 79.3555 240.389 79.1973 239.814 79.0527C239.24 78.9082 238.785 78.752 238.449 78.584C237.688 78.2012 237.307 77.6602 237.307 76.9609C237.307 76.4023 237.543 75.9492 238.016 75.6016C238.492 75.2539 239.104 75.0801 239.85 75.0801C240.615 75.0801 241.24 75.2754 241.725 75.666C242.213 76.0566 242.457 76.5566 242.457 77.166H241.373C241.373 76.7832 241.234 76.4883 240.957 76.2812C240.684 76.0703 240.311 75.9648 239.838 75.9648C239.396 75.9648 239.045 76.0527 238.783 76.2285C238.521 76.4004 238.391 76.6426 238.391 76.9551C238.391 77.209 238.51 77.4219 238.748 77.5938C238.99 77.7656 239.416 77.9297 240.025 78.0859C240.635 78.2422 241.111 78.4199 241.455 78.6191C241.799 78.8145 242.055 79.0449 242.223 79.3105C242.391 79.5762 242.475 79.8867 242.475 80.2422C242.475 80.8164 242.236 81.2695 241.76 81.6016C241.287 81.9297 240.662 82.0938 239.885 82.0938C239.076 82.0938 238.404 81.8965 237.869 81.502C237.338 81.1035 237.072 80.5879 237.072 79.9551H238.162C238.162 80.3535 238.312 80.6641 238.613 80.8867C238.914 81.1094 239.338 81.2207 239.885 81.2207C240.377 81.2207 240.75 81.1328 241.004 80.957C241.258 80.7773 241.385 80.543 241.385 80.2539Z" fill="#828282"/>
<path d="M139.881 112.817C139.881 112.427 139.732 112.124 139.435 111.909C139.142 111.694 138.636 111.497 137.918 111.316C137.201 111.135 136.632 110.94 136.212 110.73C135.26 110.251 134.784 109.575 134.784 108.701C134.784 108.003 135.079 107.437 135.67 107.002C136.266 106.567 137.03 106.35 137.962 106.35C138.919 106.35 139.701 106.594 140.306 107.083C140.917 107.571 141.222 108.196 141.222 108.958H139.867C139.867 108.479 139.693 108.11 139.347 107.852C139.005 107.588 138.539 107.456 137.948 107.456C137.396 107.456 136.957 107.566 136.629 107.786C136.302 108 136.139 108.303 136.139 108.694C136.139 109.011 136.288 109.277 136.585 109.492C136.888 109.707 137.42 109.912 138.182 110.107C138.944 110.303 139.54 110.525 139.969 110.774C140.399 111.018 140.719 111.306 140.929 111.638C141.139 111.97 141.244 112.358 141.244 112.803C141.244 113.521 140.946 114.087 140.35 114.502C139.759 114.912 138.978 115.117 138.006 115.117C136.996 115.117 136.156 114.871 135.487 114.377C134.823 113.879 134.491 113.235 134.491 112.444H135.853C135.853 112.942 136.041 113.33 136.417 113.608C136.793 113.887 137.323 114.026 138.006 114.026C138.622 114.026 139.088 113.916 139.405 113.696C139.723 113.472 139.881 113.179 139.881 112.817ZM146.144 111.711H144.1V115H142.745V106.467H145.865C146.905 106.467 147.706 106.694 148.268 107.148C148.834 107.603 149.117 108.245 149.117 109.075C149.117 110.188 148.543 110.962 147.396 111.396L149.505 114.927V115H148.055L146.144 111.711ZM144.1 110.605H145.902C146.473 110.605 146.925 110.474 147.257 110.21C147.594 109.941 147.762 109.58 147.762 109.126C147.762 108.638 147.599 108.259 147.271 107.991C146.944 107.722 146.473 107.588 145.858 107.588H144.1V110.605ZM157.628 112.239C157.53 113.152 157.174 113.86 156.559 114.363C155.943 114.866 155.125 115.117 154.105 115.117C153.011 115.117 152.132 114.758 151.468 114.041C150.809 113.318 150.479 112.324 150.479 111.06V110.371C150.479 109.57 150.628 108.867 150.926 108.262C151.229 107.651 151.661 107.18 152.223 106.848C152.789 106.516 153.443 106.35 154.186 106.35C155.182 106.35 155.98 106.609 156.581 107.126C157.186 107.639 157.535 108.352 157.628 109.265H156.273C156.185 108.63 155.968 108.171 155.621 107.888C155.279 107.605 154.801 107.463 154.186 107.463C153.438 107.463 152.86 107.712 152.45 108.21C152.044 108.704 151.839 109.412 151.834 110.334V111.111C151.834 112.034 152.027 112.749 152.413 113.257C152.804 113.76 153.368 114.011 154.105 114.011C154.764 114.011 155.265 113.877 155.606 113.608C155.953 113.335 156.175 112.878 156.273 112.239H157.628Z" fill="#333333"/>
<path d="M11.8926 140.434V143H10.8086V136.174H13.5449C14.3418 136.174 14.9766 136.369 15.4492 136.76C15.9219 137.146 16.1582 137.668 16.1582 138.324C16.1582 138.988 15.9297 139.506 15.4727 139.877C15.0156 140.248 14.3691 140.434 13.5332 140.434H11.8926ZM11.8926 139.543H13.5449C14.0293 139.543 14.4043 139.439 14.6699 139.232C14.9355 139.025 15.0684 138.727 15.0684 138.336C15.0684 137.961 14.9355 137.658 14.6699 137.428C14.4043 137.193 14.0391 137.074 13.5742 137.07H11.8926V139.543ZM20.0664 140.369H18.4316V143H17.3477V136.174H19.8438C20.6758 136.174 21.3164 136.355 21.7656 136.719C22.2188 137.082 22.4453 137.596 22.4453 138.26C22.4453 139.15 21.9863 139.77 21.0684 140.117L22.7559 142.941V143H21.5957L20.0664 140.369ZM18.4316 139.484H19.873C20.3301 139.484 20.6914 139.379 20.957 139.168C21.2266 138.953 21.3613 138.664 21.3613 138.301C21.3613 137.91 21.2305 137.607 20.9688 137.393C20.707 137.178 20.3301 137.07 19.8379 137.07H18.4316V139.484ZM27.9824 139.918H24.8652V142.115H28.4922V143H23.7812V136.174H28.457V137.07H24.8652V139.027H27.9824V139.918ZM33.5254 141.254C33.5254 140.941 33.4062 140.699 33.168 140.527C32.9336 140.355 32.5293 140.197 31.9551 140.053C31.3809 139.908 30.9258 139.752 30.5898 139.584C29.8281 139.201 29.4473 138.66 29.4473 137.961C29.4473 137.402 29.6836 136.949 30.1562 136.602C30.6328 136.254 31.2441 136.08 31.9902 136.08C32.7559 136.08 33.3809 136.275 33.8652 136.666C34.3535 137.057 34.5977 137.557 34.5977 138.166H33.5137C33.5137 137.783 33.375 137.488 33.0977 137.281C32.8242 137.07 32.4512 136.965 31.9785 136.965C31.5371 136.965 31.1855 137.053 30.9238 137.229C30.6621 137.4 30.5312 137.643 30.5312 137.955C30.5312 138.209 30.6504 138.422 30.8887 138.594C31.1309 138.766 31.5566 138.93 32.166 139.086C32.7754 139.242 33.252 139.42 33.5957 139.619C33.9395 139.814 34.1953 140.045 34.3633 140.311C34.5312 140.576 34.6152 140.887 34.6152 141.242C34.6152 141.816 34.377 142.27 33.9004 142.602C33.4277 142.93 32.8027 143.094 32.0254 143.094C31.2168 143.094 30.5449 142.896 30.0098 142.502C29.4785 142.104 29.2129 141.588 29.2129 140.955H30.3027C30.3027 141.354 30.4531 141.664 30.7539 141.887C31.0547 142.109 31.4785 142.221 32.0254 142.221C32.5176 142.221 32.8906 142.133 33.1445 141.957C33.3984 141.777 33.5254 141.543 33.5254 141.254ZM40.0176 139.918H36.9004V142.115H40.5273V143H35.8164V136.174H40.4922V137.07H36.9004V139.027H40.0176V139.918ZM47.3711 143H46.293L42.748 137.867V143H41.6641V136.174H42.748L46.293 141.312V136.174H47.3711V143ZM54.1738 137.07H51.8359V143H50.752V137.07H48.4258V136.174H54.1738V137.07ZM59.3242 141.365H56.2773L55.6328 143H54.5254L57.332 136.174H58.3047L61.0703 143H59.9688L59.3242 141.365ZM56.6289 140.48H58.9785L57.8125 137.498L56.6289 140.48ZM66.8066 137.07H64.4688V143H63.3848V137.07H61.0586V136.174H66.8066V137.07ZM69.0215 143H67.9316V136.174H69.0215V143ZM76.4336 139.789C76.4336 140.809 76.1641 141.615 75.625 142.209C75.0859 142.799 74.3633 143.094 73.457 143.094C72.5625 143.094 71.8398 142.795 71.2891 142.197C70.7422 141.6 70.4688 140.787 70.4688 139.76V139.396C70.4688 138.389 70.7402 137.584 71.2832 136.982C71.8301 136.381 72.5508 136.08 73.4453 136.08C74.3555 136.08 75.0781 136.377 75.6133 136.971C76.1523 137.564 76.4258 138.359 76.4336 139.355V139.789ZM75.3613 139.385C75.3613 138.611 75.1934 138.02 74.8574 137.609C74.5215 137.199 74.0508 136.994 73.4453 136.994C72.8594 136.994 72.3945 137.203 72.0508 137.621C71.7109 138.039 71.541 138.633 71.541 139.402V139.789C71.541 140.551 71.7129 141.143 72.0566 141.564C72.4004 141.982 72.8672 142.191 73.457 142.191C74.0664 142.191 74.5352 141.986 74.8633 141.576C75.1953 141.162 75.3613 140.566 75.3613 139.789V139.385ZM83.5234 143H82.4453L78.9004 137.867V143H77.8164V136.174H78.9004L82.4453 141.312V136.174H83.5234V143ZM85.1875 142.432C85.1875 142.244 85.2422 142.088 85.3516 141.963C85.4648 141.838 85.6328 141.775 85.8555 141.775C86.0781 141.775 86.2461 141.838 86.3594 141.963C86.4766 142.088 86.5352 142.244 86.5352 142.432C86.5352 142.611 86.4766 142.762 86.3594 142.883C86.2461 143.004 86.0781 143.064 85.8555 143.064C85.6328 143.064 85.4648 143.004 85.3516 142.883C85.2422 142.762 85.1875 142.611 85.1875 142.432ZM89.7227 136.174L92.0137 141.512L94.293 136.174H95.7051V143H94.627V140.65L94.7383 137.527L92.4062 143H91.6094L89.2832 137.551L89.3945 140.65V143H88.3164V136.174H89.7227ZM97.3281 143V136.174H99.4434C100.076 136.174 100.637 136.305 101.125 136.566C101.617 136.824 102 137.193 102.273 137.674C102.547 138.154 102.689 138.705 102.701 139.326V139.777C102.701 140.762 102.396 141.545 101.787 142.127C101.182 142.709 100.365 143 99.3379 143H97.3281ZM98.4121 137.07V142.115H99.373C100.1 142.115 100.656 141.912 101.043 141.506C101.43 141.1 101.623 140.521 101.623 139.771V139.396C101.623 138.646 101.438 138.072 101.066 137.674C100.699 137.271 100.158 137.07 99.4434 137.07H98.4121ZM106.387 138.723L108.068 136.174H109.357L107.043 139.561L109.439 143H108.15L106.398 140.404L104.664 143H103.375L105.754 139.561L103.428 136.174H104.711L106.387 138.723Z" fill="#828282"/>
<path d="M117.975 143H116.885V136.174H117.975V143ZM125.375 143H124.297L120.752 137.867V143H119.668V136.174H120.752L124.297 141.312V136.174H125.375V143ZM127.004 143V136.174H129.119C129.752 136.174 130.312 136.305 130.801 136.566C131.293 136.824 131.676 137.193 131.949 137.674C132.223 138.154 132.365 138.705 132.377 139.326V139.777C132.377 140.762 132.072 141.545 131.463 142.127C130.857 142.709 130.041 143 129.014 143H127.004ZM128.088 137.07V142.115H129.049C129.775 142.115 130.332 141.912 130.719 141.506C131.105 141.1 131.299 140.521 131.299 139.771V139.396C131.299 138.646 131.113 138.072 130.742 137.674C130.375 137.271 129.834 137.07 129.119 137.07H128.088ZM137.955 139.918H134.838V142.115H138.465V143H133.754V136.174H138.43V137.07H134.838V139.027H137.955V139.918ZM142.027 138.723L143.709 136.174H144.998L142.684 139.561L145.08 143H143.791L142.039 140.404L140.305 143H139.016L141.395 139.561L139.068 136.174H140.352L142.027 138.723ZM146.129 142.432C146.129 142.244 146.184 142.088 146.293 141.963C146.406 141.838 146.574 141.775 146.797 141.775C147.02 141.775 147.188 141.838 147.301 141.963C147.418 142.088 147.477 142.244 147.477 142.432C147.477 142.611 147.418 142.762 147.301 142.883C147.188 143.004 147.02 143.064 146.797 143.064C146.574 143.064 146.406 143.004 146.293 142.883C146.184 142.762 146.129 142.611 146.129 142.432ZM154.965 143H153.881V140.082H150.342V143H149.258V136.174H150.342V139.191H153.881V136.174H154.965V143ZM161.768 137.07H159.43V143H158.346V137.07H156.02V136.174H161.768V137.07ZM164.223 136.174L166.514 141.512L168.793 136.174H170.205V143H169.127V140.65L169.238 137.527L166.906 143H166.109L163.783 137.551L163.895 140.65V143H162.816V136.174H164.223ZM172.912 142.115H176.334V143H171.828V136.174H172.912V142.115Z" fill="#828282"/>
<path d="M184.975 143H183.885V136.174H184.975V143ZM192.375 143H191.297L187.752 137.867V143H186.668V136.174H187.752L191.297 141.312V136.174H192.375V143ZM194.004 143V136.174H196.119C196.752 136.174 197.312 136.305 197.801 136.566C198.293 136.824 198.676 137.193 198.949 137.674C199.223 138.154 199.365 138.705 199.377 139.326V139.777C199.377 140.762 199.072 141.545 198.463 142.127C197.857 142.709 197.041 143 196.014 143H194.004ZM195.088 137.07V142.115H196.049C196.775 142.115 197.332 141.912 197.719 141.506C198.105 141.1 198.299 140.521 198.299 139.771V139.396C198.299 138.646 198.113 138.072 197.742 137.674C197.375 137.271 196.834 137.07 196.119 137.07H195.088ZM204.955 139.918H201.838V142.115H205.465V143H200.754V136.174H205.43V137.07H201.838V139.027H204.955V139.918ZM209.027 138.723L210.709 136.174H211.998L209.684 139.561L212.08 143H210.791L209.039 140.404L207.305 143H206.016L208.395 139.561L206.068 136.174H207.352L209.027 138.723ZM213.129 142.432C213.129 142.244 213.184 142.088 213.293 141.963C213.406 141.838 213.574 141.775 213.797 141.775C214.02 141.775 214.188 141.838 214.301 141.963C214.418 142.088 214.477 142.244 214.477 142.432C214.477 142.611 214.418 142.762 214.301 142.883C214.188 143.004 214.02 143.064 213.797 143.064C213.574 143.064 213.406 143.004 213.293 142.883C213.184 142.762 213.129 142.611 213.129 142.432ZM219.305 136.174H220.4V141.02C220.4 141.633 220.193 142.133 219.779 142.52C219.365 142.902 218.812 143.094 218.121 143.094C217.363 143.094 216.77 142.916 216.34 142.561C215.914 142.201 215.701 141.701 215.701 141.061H216.791C216.791 141.428 216.9 141.711 217.119 141.91C217.342 142.109 217.676 142.209 218.121 142.209C218.48 142.209 218.768 142.104 218.982 141.893C219.197 141.678 219.305 141.385 219.305 141.014V136.174ZM225.873 141.254C225.873 140.941 225.754 140.699 225.516 140.527C225.281 140.355 224.877 140.197 224.303 140.053C223.729 139.908 223.273 139.752 222.938 139.584C222.176 139.201 221.795 138.66 221.795 137.961C221.795 137.402 222.031 136.949 222.504 136.602C222.98 136.254 223.592 136.08 224.338 136.08C225.104 136.08 225.729 136.275 226.213 136.666C226.701 137.057 226.945 137.557 226.945 138.166H225.861C225.861 137.783 225.723 137.488 225.445 137.281C225.172 137.07 224.799 136.965 224.326 136.965C223.885 136.965 223.533 137.053 223.271 137.229C223.01 137.4 222.879 137.643 222.879 137.955C222.879 138.209 222.998 138.422 223.236 138.594C223.479 138.766 223.904 138.93 224.514 139.086C225.123 139.242 225.6 139.42 225.943 139.619C226.287 139.814 226.543 140.045 226.711 140.311C226.879 140.576 226.963 140.887 226.963 141.242C226.963 141.816 226.725 142.27 226.248 142.602C225.775 142.93 225.15 143.094 224.373 143.094C223.564 143.094 222.893 142.896 222.357 142.502C221.826 142.104 221.561 141.588 221.561 140.955H222.65C222.65 141.354 222.801 141.664 223.102 141.887C223.402 142.109 223.826 142.221 224.373 142.221C224.865 142.221 225.238 142.133 225.492 141.957C225.746 141.777 225.873 141.543 225.873 141.254Z" fill="#828282"/>
<circle cx="245.5" cy="67.5" r="0.5" fill="#E0E0E0"/>
<circle cx="243.5" cy="67.5" r="0.5" fill="#E0E0E0"/>
<circle cx="241.5" cy="67.5" r="0.5" fill="#E0E0E0"/>
<circle cx="239.5" cy="67.5" r="0.5" fill="#E0E0E0"/>
<circle cx="237.5" cy="67.5" r="0.5" fill="#E0E0E0"/>
<circle cx="235.5" cy="67.5" r="0.5" fill="#E0E0E0"/>
<circle cx="233.5" cy="67.5" r="0.5" fill="#E0E0E0"/>
<circle cx="231.5" cy="67.5" r="0.5" fill="#E0E0E0"/>
<circle cx="229.5" cy="67.5" r="0.5" fill="#E0E0E0"/>
<circle cx="227.5" cy="67.5" r="0.5" fill="#E0E0E0"/>
<circle cx="225.5" cy="67.5" r="0.5" fill="#E0E0E0"/>
<circle cx="223.5" cy="67.5" r="0.5" fill="#E0E0E0"/>
<circle cx="221.5" cy="67.5" r="0.5" fill="#E0E0E0"/>
<circle cx="219.5" cy="67.5" r="0.5" fill="#E0E0E0"/>
<circle cx="217.5" cy="67.5" r="0.5" fill="#E0E0E0"/>
<circle cx="215.5" cy="67.5" r="0.5" fill="#E0E0E0"/>
<circle cx="213.5" cy="67.5" r="0.5" fill="#E0E0E0"/>
<circle cx="211.5" cy="67.5" r="0.5" fill="#E0E0E0"/>
<circle cx="209.5" cy="67.5" r="0.5" fill="#E0E0E0"/>
<circle cx="207.5" cy="67.5" r="0.5" fill="#E0E0E0"/>
<circle cx="205.5" cy="67.5" r="0.5" fill="#E0E0E0"/>
<circle cx="203.5" cy="67.5" r="0.5" fill="#E0E0E0"/>
<circle cx="201.5" cy="67.5" r="0.5" fill="#E0E0E0"/>
<circle cx="199.5" cy="67.5" r="0.5" fill="#E0E0E0"/>
<circle cx="197.5" cy="67.5" r="0.5" fill="#E0E0E0"/>
<circle cx="195.5" cy="67.5" r="0.5" fill="#E0E0E0"/>
<circle cx="192.5" cy="70.5" r="0.5" fill="#E0E0E0"/>
<circle cx="192.5" cy="72.5" r="0.5" fill="#E0E0E0"/>
<circle cx="192.5" cy="67.5" r="1.5" fill="#E0E0E0"/>
<circle cx="189.5" cy="67.5" r="0.5" fill="#E0E0E0"/>
<circle cx="187.5" cy="67.5" r="0.5" fill="#E0E0E0"/>
<circle cx="185.5" cy="67.5" r="0.5" fill="#E0E0E0"/>
<circle cx="183.5" cy="67.5" r="0.5" fill="#E0E0E0"/>
<circle cx="181.5" cy="67.5" r="0.5" fill="#E0E0E0"/>
<circle cx="179.5" cy="67.5" r="0.5" fill="#E0E0E0"/>
<circle cx="177.5" cy="67.5" r="0.5" fill="#E0E0E0"/>
<circle cx="175.5" cy="67.5" r="0.5" fill="#E0E0E0"/>
<circle cx="173.5" cy="67.5" r="0.5" fill="#E0E0E0"/>
<circle cx="171.5" cy="67.5" r="0.5" fill="#E0E0E0"/>
<circle cx="169.5" cy="67.5" r="0.5" fill="#E0E0E0"/>
<circle cx="167.5" cy="67.5" r="0.5" fill="#E0E0E0"/>
<circle cx="165.5" cy="67.5" r="0.5" fill="#E0E0E0"/>
<circle cx="163.5" cy="67.5" r="0.5" fill="#E0E0E0"/>
<circle cx="161.5" cy="67.5" r="0.5" fill="#E0E0E0"/>
<circle cx="159.5" cy="67.5" r="0.5" fill="#E0E0E0"/>
<circle cx="157.5" cy="67.5" r="0.5" fill="#E0E0E0"/>
<circle cx="155.5" cy="67.5" r="0.5" fill="#E0E0E0"/>
<circle cx="153.5" cy="67.5" r="0.5" fill="#E0E0E0"/>
<circle cx="151.5" cy="67.5" r="0.5" fill="#E0E0E0"/>
<circle cx="149.5" cy="67.5" r="0.5" fill="#E0E0E0"/>
<circle cx="147.5" cy="67.5" r="0.5" fill="#E0E0E0"/>
<circle cx="145.5" cy="67.5" r="0.5" fill="#E0E0E0"/>
<circle cx="143.5" cy="67.5" r="0.5" fill="#E0E0E0"/>
<circle cx="141.5" cy="67.5" r="0.5" fill="#E0E0E0"/>
<circle cx="139.5" cy="67.5" r="0.5" fill="#E0E0E0"/>
<circle cx="137.5" cy="67.5" r="0.5" fill="#E0E0E0"/>
<circle cx="135.5" cy="67.5" r="0.5" fill="#E0E0E0"/>
<circle cx="133.5" cy="67.5" r="0.5" fill="#E0E0E0"/>
<circle cx="131.5" cy="67.5" r="0.5" fill="#E0E0E0"/>
<circle cx="129.5" cy="67.5" r="0.5" fill="#E0E0E0"/>
<circle cx="127.5" cy="67.5" r="0.5" fill="#E0E0E0"/>
<circle cx="125.5" cy="67.5" r="0.5" fill="#E0E0E0"/>
<circle cx="123.5" cy="67.5" r="0.5" fill="#E0E0E0"/>
<circle cx="121.5" cy="67.5" r="0.5" fill="#E0E0E0"/>
<circle cx="119.5" cy="67.5" r="0.5" fill="#E0E0E0"/>
<circle cx="117.5" cy="67.5" r="0.5" fill="#E0E0E0"/>
<circle cx="115.5" cy="67.5" r="0.5" fill="#E0E0E0"/>
<circle cx="113.5" cy="67.5" r="0.5" fill="#E0E0E0"/>
<circle cx="111.5" cy="67.5" r="0.5" fill="#E0E0E0"/>
<circle cx="109.5" cy="67.5" r="0.5" fill="#E0E0E0"/>
<circle cx="107.5" cy="67.5" r="0.5" fill="#E0E0E0"/>
<circle cx="105.5" cy="67.5" r="0.5" fill="#E0E0E0"/>
<circle cx="103.5" cy="67.5" r="0.5" fill="#E0E0E0"/>
<circle cx="101.5" cy="67.5" r="0.5" fill="#E0E0E0"/>
<circle cx="99.5" cy="67.5" r="0.5" fill="#E0E0E0"/>
<circle cx="97.5" cy="67.5" r="0.5" fill="#E0E0E0"/>
<circle cx="94.5" cy="70.5" r="0.5" fill="#E0E0E0"/>
<circle cx="94.5" cy="72.5" r="0.5" fill="#E0E0E0"/>
<circle cx="94.5" cy="67.5" r="1.5" fill="#E0E0E0"/>
<circle r="0.5" transform="matrix(-1 0 0 1 251.5 67.5)" fill="#E0E0E0"/>
<circle r="0.5" transform="matrix(-1 0 0 1 253.5 67.5)" fill="#E0E0E0"/>
<circle r="0.5" transform="matrix(-1 0 0 1 255.5 67.5)" fill="#E0E0E0"/>
<circle r="0.5" transform="matrix(-1 0 0 1 257.5 67.5)" fill="#E0E0E0"/>
<circle r="0.5" transform="matrix(-1 0 0 1 259.5 67.5)" fill="#E0E0E0"/>
<circle r="0.5" transform="matrix(-1 0 0 1 261.5 67.5)" fill="#E0E0E0"/>
<circle r="0.5" transform="matrix(-1 0 0 1 263.5 67.5)" fill="#E0E0E0"/>
<circle r="0.5" transform="matrix(-1 0 0 1 265.5 67.5)" fill="#E0E0E0"/>
<circle r="0.5" transform="matrix(-1 0 0 1 267.5 67.5)" fill="#E0E0E0"/>
<circle r="0.5" transform="matrix(-1 0 0 1 269.5 67.5)" fill="#E0E0E0"/>
<circle r="0.5" transform="matrix(-1 0 0 1 271.5 67.5)" fill="#E0E0E0"/>
<circle r="0.5" transform="matrix(-1 0 0 1 273.5 67.5)" fill="#E0E0E0"/>
<circle r="0.5" transform="matrix(-1 0 0 1 275.5 67.5)" fill="#E0E0E0"/>
<circle r="0.5" transform="matrix(-1 0 0 1 277.5 67.5)" fill="#E0E0E0"/>
<circle r="0.5" transform="matrix(-1 0 0 1 279.5 67.5)" fill="#E0E0E0"/>
<circle r="0.5" transform="matrix(-1 0 0 1 281.5 67.5)" fill="#E0E0E0"/>
<circle r="0.5" transform="matrix(-1 0 0 1 283.5 67.5)" fill="#E0E0E0"/>
<circle r="0.5" transform="matrix(-1 0 0 1 285.5 67.5)" fill="#E0E0E0"/>
<circle r="0.5" transform="matrix(-1 0 0 1 287.5 67.5)" fill="#E0E0E0"/>
<circle r="0.5" transform="matrix(-1 0 0 1 289.5 67.5)" fill="#E0E0E0"/>
<circle r="0.5" transform="matrix(-1 0 0 1 291.5 67.5)" fill="#E0E0E0"/>
<circle r="0.5" transform="matrix(-1 0 0 1 293.5 67.5)" fill="#E0E0E0"/>
<circle r="0.5" transform="matrix(-1 0 0 1 295.5 67.5)" fill="#E0E0E0"/>
<circle r="0.5" transform="matrix(-1 0 0 1 297.5 67.5)" fill="#E0E0E0"/>
<circle r="0.5" transform="matrix(-1 0 0 1 299.5 67.5)" fill="#E0E0E0"/>
<circle r="0.5" transform="matrix(-1 0 0 1 301.5 67.5)" fill="#E0E0E0"/>
<circle r="0.5" transform="matrix(-1 0 0 1 303.5 67.5)" fill="#E0E0E0"/>
<circle r="0.5" transform="matrix(-1 0 0 1 305.5 67.5)" fill="#E0E0E0"/>
<circle r="0.5" transform="matrix(-1 0 0 1 310.5 70.5)" fill="#E0E0E0"/>
<circle r="0.5" transform="matrix(-1 0 0 1 310.5 72.5)" fill="#E0E0E0"/>
<circle r="0.5" transform="matrix(-1 0 0 1 307.5 67.5)" fill="#E0E0E0"/>
<circle r="1.5" transform="matrix(-1 0 0 1 310.5 67.5)" fill="#E0E0E0"/>
<circle r="0.5" transform="matrix(-1 0 0 1 313.5 67.5)" fill="#E0E0E0"/>
<circle r="0.5" transform="matrix(-1 0 0 1 315.5 67.5)" fill="#E0E0E0"/>
<circle r="0.5" transform="matrix(-1 0 0 1 317.5 67.5)" fill="#E0E0E0"/>
<circle r="0.5" transform="matrix(-1 0 0 1 319.5 67.5)" fill="#E0E0E0"/>
<circle r="0.5" transform="matrix(-1 0 0 1 321.5 67.5)" fill="#E0E0E0"/>
<circle r="0.5" transform="matrix(-1 0 0 1 323.5 67.5)" fill="#E0E0E0"/>
<circle r="0.5" transform="matrix(-1 0 0 1 325.5 67.5)" fill="#E0E0E0"/>
<circle r="0.5" transform="matrix(-1 0 0 1 327.5 67.5)" fill="#E0E0E0"/>
<circle r="0.5" transform="matrix(-1 0 0 1 329.5 67.5)" fill="#E0E0E0"/>
<circle r="0.5" transform="matrix(-1 0 0 1 331.5 67.5)" fill="#E0E0E0"/>
<circle r="0.5" transform="matrix(-1 0 0 1 333.5 67.5)" fill="#E0E0E0"/>
<circle r="0.5" transform="matrix(-1 0 0 1 335.5 67.5)" fill="#E0E0E0"/>
<circle r="0.5" transform="matrix(-1 0 0 1 337.5 67.5)" fill="#E0E0E0"/>
<circle r="0.5" transform="matrix(-1 0 0 1 339.5 67.5)" fill="#E0E0E0"/>
<circle r="0.5" transform="matrix(-1 0 0 1 341.5 67.5)" fill="#E0E0E0"/>
<circle r="0.5" transform="matrix(-1 0 0 1 343.5 67.5)" fill="#E0E0E0"/>
<circle r="0.5" transform="matrix(-1 0 0 1 345.5 67.5)" fill="#E0E0E0"/>
<circle r="0.5" transform="matrix(-1 0 0 1 347.5 67.5)" fill="#E0E0E0"/>
<circle r="0.5" transform="matrix(-1 0 0 1 349.5 67.5)" fill="#E0E0E0"/>
<circle r="0.5" transform="matrix(-1 0 0 1 351.5 67.5)" fill="#E0E0E0"/>
<circle r="0.5" transform="matrix(-1 0 0 1 353.5 67.5)" fill="#E0E0E0"/>
<circle r="0.5" transform="matrix(-1 0 0 1 355.5 67.5)" fill="#E0E0E0"/>
<circle r="0.5" transform="matrix(-1 0 0 1 357.5 67.5)" fill="#E0E0E0"/>
<circle r="0.5" transform="matrix(-1 0 0 1 359.5 67.5)" fill="#E0E0E0"/>
<circle r="0.5" transform="matrix(-1 0 0 1 361.5 67.5)" fill="#E0E0E0"/>
<circle r="0.5" transform="matrix(-1 0 0 1 363.5 67.5)" fill="#E0E0E0"/>
<circle r="0.5" transform="matrix(-1 0 0 1 365.5 67.5)" fill="#E0E0E0"/>
<circle r="0.5" transform="matrix(-1 0 0 1 367.5 67.5)" fill="#E0E0E0"/>
<circle r="0.5" transform="matrix(-1 0 0 1 369.5 67.5)" fill="#E0E0E0"/>
<circle r="0.5" transform="matrix(-1 0 0 1 371.5 67.5)" fill="#E0E0E0"/>
<circle r="0.5" transform="matrix(-1 0 0 1 373.5 67.5)" fill="#E0E0E0"/>
<circle r="0.5" transform="matrix(-1 0 0 1 375.5 67.5)" fill="#E0E0E0"/>
<circle r="0.5" transform="matrix(-1 0 0 1 377.5 67.5)" fill="#E0E0E0"/>
<circle r="0.5" transform="matrix(-1 0 0 1 379.5 67.5)" fill="#E0E0E0"/>
<circle r="0.5" transform="matrix(-1 0 0 1 381.5 67.5)" fill="#E0E0E0"/>
<circle r="0.5" transform="matrix(-1 0 0 1 383.5 67.5)" fill="#E0E0E0"/>
<circle r="0.5" transform="matrix(-1 0 0 1 385.5 67.5)" fill="#E0E0E0"/>
<circle r="0.5" transform="matrix(-1 0 0 1 387.5 67.5)" fill="#E0E0E0"/>
<circle r="0.5" transform="matrix(-1 0 0 1 389.5 67.5)" fill="#E0E0E0"/>
<circle r="0.5" transform="matrix(-1 0 0 1 391.5 67.5)" fill="#E0E0E0"/>
<circle r="0.5" transform="matrix(-1 0 0 1 393.5 67.5)" fill="#E0E0E0"/>
<circle r="1.5" transform="matrix(-1 0 0 1 396.5 67.5)" fill="#E0E0E0"/>
<circle r="0.5" transform="matrix(-1 0 0 1 396.5 70.5)" fill="#E0E0E0"/>
<circle cx="248.5" cy="62.5" r="0.5" fill="#E0E0E0"/>
<circle cx="248.5" cy="60.5" r="0.5" fill="#E0E0E0"/>
<circle cx="248.5" cy="58.5" r="0.5" fill="#E0E0E0"/>
<circle cx="248.5" cy="56.5" r="0.5" fill="#E0E0E0"/>
<circle cx="248.5" cy="64.5" r="0.5" fill="#E0E0E0"/>
<circle cx="248.5" cy="67.5" r="1.5" fill="#E0E0E0"/>
<circle cx="248.5" cy="70.5" r="0.5" fill="#E0E0E0"/>
<circle cx="248.5" cy="72.5" r="0.5" fill="#E0E0E0"/>
<circle cx="248.5" cy="74.5" r="0.5" fill="#E0E0E0"/>
<circle cx="248.5" cy="76.5" r="0.5" fill="#E0E0E0"/>
<circle cx="248.5" cy="78.5" r="0.5" fill="#E0E0E0"/>
<circle cx="248.5" cy="80.5" r="0.5" fill="#E0E0E0"/>
<circle cx="248.5" cy="82.5" r="0.5" fill="#E0E0E0"/>
<circle cx="248.5" cy="84.5" r="0.5" fill="#E0E0E0"/>
<circle cx="248.5" cy="86.5" r="0.5" fill="#E0E0E0"/>
<circle cx="248.5" cy="88.5" r="0.5" fill="#E0E0E0"/>
<circle cx="248.5" cy="90.5" r="0.5" fill="#E0E0E0"/>
<circle cx="248.5" cy="92.5" r="0.5" fill="#E0E0E0"/>
<circle cx="248.5" cy="94.5" r="0.5" fill="#E0E0E0"/>
<circle r="1.5" transform="matrix(-1 0 0 1 248.5 97.5)" fill="#E0E0E0"/>
<circle cx="245.5" cy="97.5" r="0.5" fill="#E0E0E0"/>
<circle cx="251.5" cy="97.5" r="0.5" fill="#E0E0E0"/>
<circle cx="255.5" cy="97.5" r="0.5" fill="#E0E0E0"/>
<circle cx="257.5" cy="97.5" r="0.5" fill="#E0E0E0"/>
<circle cx="259.5" cy="97.5" r="0.5" fill="#E0E0E0"/>
<circle cx="261.5" cy="97.5" r="0.5" fill="#E0E0E0"/>
<circle cx="263.5" cy="97.5" r="0.5" fill="#E0E0E0"/>
<circle cx="265.5" cy="97.5" r="0.5" fill="#E0E0E0"/>
<circle cx="267.5" cy="97.5" r="0.5" fill="#E0E0E0"/>
<circle cx="269.5" cy="97.5" r="0.5" fill="#E0E0E0"/>
<circle cx="271.5" cy="97.5" r="0.5" fill="#E0E0E0"/>
<circle cx="273.5" cy="97.5" r="0.5" fill="#E0E0E0"/>
<circle cx="275.5" cy="97.5" r="0.5" fill="#E0E0E0"/>
<circle cx="277.5" cy="97.5" r="0.5" fill="#E0E0E0"/>
<circle cx="279.5" cy="97.5" r="0.5" fill="#E0E0E0"/>
<circle cx="282.5" cy="102.5" r="0.5" fill="#E0E0E0"/>
<circle cx="282.5" cy="100.5" r="0.5" fill="#E0E0E0"/>
<circle cx="282.5" cy="97.5" r="1.5" fill="#E0E0E0"/>
<circle cx="253.5" cy="97.5" r="0.5" fill="#E0E0E0"/>
<circle cx="243.5" cy="97.5" r="0.5" fill="#E0E0E0"/>
<circle cx="241.5" cy="97.5" r="0.5" fill="#E0E0E0"/>
<circle cx="239.5" cy="97.5" r="0.5" fill="#E0E0E0"/>
<circle cx="237.5" cy="97.5" r="0.5" fill="#E0E0E0"/>
<circle cx="235.5" cy="97.5" r="0.5" fill="#E0E0E0"/>
<circle cx="233.5" cy="97.5" r="0.5" fill="#E0E0E0"/>
<circle cx="231.5" cy="97.5" r="0.5" fill="#E0E0E0"/>
<circle cx="229.5" cy="97.5" r="0.5" fill="#E0E0E0"/>
<circle cx="227.5" cy="97.5" r="0.5" fill="#E0E0E0"/>
<circle cx="225.5" cy="97.5" r="0.5" fill="#E0E0E0"/>
<circle cx="223.5" cy="97.5" r="0.5" fill="#E0E0E0"/>
<circle cx="221.5" cy="97.5" r="0.5" fill="#E0E0E0"/>
<circle cx="219.5" cy="97.5" r="0.5" fill="#E0E0E0"/>
<circle cx="217.5" cy="97.5" r="0.5" fill="#E0E0E0"/>
<circle cx="215.5" cy="97.5" r="0.5" fill="#E0E0E0"/>
<circle cx="213.5" cy="97.5" r="0.5" fill="#E0E0E0"/>
<circle cx="211.5" cy="97.5" r="0.5" fill="#E0E0E0"/>
<circle cx="209.5" cy="97.5" r="0.5" fill="#E0E0E0"/>
<circle cx="207.5" cy="97.5" r="0.5" fill="#E0E0E0"/>
<circle cx="205.5" cy="97.5" r="0.5" fill="#E0E0E0"/>
<circle cx="203.5" cy="97.5" r="0.5" fill="#E0E0E0"/>
<circle cx="201.5" cy="97.5" r="0.5" fill="#E0E0E0"/>
<circle cx="199.5" cy="97.5" r="0.5" fill="#E0E0E0"/>
<circle cx="197.5" cy="97.5" r="0.5" fill="#E0E0E0"/>
<circle cx="195.5" cy="97.5" r="0.5" fill="#E0E0E0"/>
<circle cx="193.5" cy="97.5" r="0.5" fill="#E0E0E0"/>
<circle cx="191.5" cy="97.5" r="0.5" fill="#E0E0E0"/>
<circle cx="189.5" cy="97.5" r="0.5" fill="#E0E0E0"/>
<circle cx="187.5" cy="97.5" r="0.5" fill="#E0E0E0"/>
<circle cx="185.5" cy="97.5" r="0.5" fill="#E0E0E0"/>
<circle cx="183.5" cy="97.5" r="0.5" fill="#E0E0E0"/>
<circle cx="181.5" cy="97.5" r="0.5" fill="#E0E0E0"/>
<circle cx="179.5" cy="97.5" r="0.5" fill="#E0E0E0"/>
<circle cx="177.5" cy="97.5" r="0.5" fill="#E0E0E0"/>
<circle cx="175.5" cy="97.5" r="0.5" fill="#E0E0E0"/>
<circle cx="173.5" cy="97.5" r="0.5" fill="#E0E0E0"/>
<circle cx="171.5" cy="97.5" r="0.5" fill="#E0E0E0"/>
<circle cx="169.5" cy="97.5" r="0.5" fill="#E0E0E0"/>
<circle cx="167.5" cy="97.5" r="0.5" fill="#E0E0E0"/>
<circle cx="165.5" cy="97.5" r="0.5" fill="#E0E0E0"/>
<circle cx="163.5" cy="97.5" r="0.5" fill="#E0E0E0"/>
<circle cx="161.5" cy="97.5" r="0.5" fill="#E0E0E0"/>
<circle cx="159.5" cy="97.5" r="0.5" fill="#E0E0E0"/>
<circle cx="157.5" cy="97.5" r="0.5" fill="#E0E0E0"/>
<circle cx="155.5" cy="97.5" r="0.5" fill="#E0E0E0"/>
<circle cx="153.5" cy="97.5" r="0.5" fill="#E0E0E0"/>
<circle cx="151.5" cy="97.5" r="0.5" fill="#E0E0E0"/>
<circle cx="149.5" cy="97.5" r="0.5" fill="#E0E0E0"/>
<circle cx="146.5" cy="97.5" r="1.5" fill="#E0E0E0"/>
<circle cx="146.5" cy="100.5" r="0.5" fill="#E0E0E0"/>
<circle cx="146.5" cy="102.5" r="0.5" fill="#E0E0E0"/>
<circle cx="146.5" cy="123.5" r="0.5" fill="#E0E0E0"/>
<circle cx="146.5" cy="121.5" r="0.5" fill="#E0E0E0"/>
<circle cx="146.5" cy="119.5" r="0.5" fill="#E0E0E0"/>
<circle cx="146.5" cy="117.5" r="0.5" fill="#E0E0E0"/>
<circle cx="146.5" cy="125.5" r="0.5" fill="#E0E0E0"/>
<circle cx="146.5" cy="128.5" r="1.5" fill="#E0E0E0"/>
<circle cx="282.5" cy="123.5" r="0.5" fill="#E0E0E0"/>
<circle cx="282.5" cy="121.5" r="0.5" fill="#E0E0E0"/>
<circle cx="282.5" cy="119.5" r="0.5" fill="#E0E0E0"/>
<circle cx="282.5" cy="117.5" r="0.5" fill="#E0E0E0"/>
<circle cx="282.5" cy="125.5" r="0.5" fill="#E0E0E0"/>
<circle cx="282.5" cy="131.5" r="0.5" fill="#E0E0E0"/>
<circle cx="332.5" cy="131.5" r="0.5" fill="#E0E0E0"/>
<circle cx="332.5" cy="133.5" r="0.5" fill="#E0E0E0"/>
<circle cx="332.5" cy="128.5" r="1.5" fill="#E0E0E0"/>
<circle cx="285.5" cy="128.5" r="0.5" fill="#E0E0E0"/>
<circle cx="287.5" cy="128.5" r="0.5" fill="#E0E0E0"/>
<circle cx="289.5" cy="128.5" r="0.5" fill="#E0E0E0"/>
<circle cx="291.5" cy="128.5" r="0.5" fill="#E0E0E0"/>
<circle cx="293.5" cy="128.5" r="0.5" fill="#E0E0E0"/>
<circle cx="295.5" cy="128.5" r="0.5" fill="#E0E0E0"/>
<circle cx="297.5" cy="128.5" r="0.5" fill="#E0E0E0"/>
<circle cx="299.5" cy="128.5" r="0.5" fill="#E0E0E0"/>
<circle cx="301.5" cy="128.5" r="0.5" fill="#E0E0E0"/>
<circle cx="303.5" cy="128.5" r="0.5" fill="#E0E0E0"/>
<circle cx="305.5" cy="128.5" r="0.5" fill="#E0E0E0"/>
<circle cx="307.5" cy="128.5" r="0.5" fill="#E0E0E0"/>
<circle cx="309.5" cy="128.5" r="0.5" fill="#E0E0E0"/>
<circle cx="311.5" cy="128.5" r="0.5" fill="#E0E0E0"/>
<circle cx="313.5" cy="128.5" r="0.5" fill="#E0E0E0"/>
<circle cx="315.5" cy="128.5" r="0.5" fill="#E0E0E0"/>
<circle cx="317.5" cy="128.5" r="0.5" fill="#E0E0E0"/>
<circle cx="319.5" cy="128.5" r="0.5" fill="#E0E0E0"/>
<circle cx="321.5" cy="128.5" r="0.5" fill="#E0E0E0"/>
<circle cx="323.5" cy="128.5" r="0.5" fill="#E0E0E0"/>
<circle cx="325.5" cy="128.5" r="0.5" fill="#E0E0E0"/>
<circle cx="327.5" cy="128.5" r="0.5" fill="#E0E0E0"/>
<circle cx="329.5" cy="128.5" r="0.5" fill="#E0E0E0"/>
<circle cx="282.5" cy="133.5" r="0.5" fill="#E0E0E0"/>
<circle cx="282.5" cy="128.5" r="1.5" fill="#E0E0E0"/>
<circle cx="146.5" cy="131.5" r="0.5" fill="#E0E0E0"/>
<circle cx="204.5" cy="131.5" r="0.5" fill="#E0E0E0"/>
<circle cx="204.5" cy="133.5" r="0.5" fill="#E0E0E0"/>
<circle cx="60.5" cy="131.5" r="0.5" fill="#E0E0E0"/>
<circle cx="60.5" cy="133.5" r="0.5" fill="#E0E0E0"/>
<circle cx="146.5" cy="133.5" r="0.5" fill="#E0E0E0"/>
<circle cx="143.5" cy="128.5" r="0.5" fill="#E0E0E0"/>
<circle cx="149.5" cy="128.5" r="0.5" fill="#E0E0E0"/>
<circle cx="151.5" cy="128.5" r="0.5" fill="#E0E0E0"/>
<circle cx="153.5" cy="128.5" r="0.5" fill="#E0E0E0"/>
<circle cx="155.5" cy="128.5" r="0.5" fill="#E0E0E0"/>
<circle cx="157.5" cy="128.5" r="0.5" fill="#E0E0E0"/>
<circle cx="159.5" cy="128.5" r="0.5" fill="#E0E0E0"/>
<circle cx="161.5" cy="128.5" r="0.5" fill="#E0E0E0"/>
<circle cx="163.5" cy="128.5" r="0.5" fill="#E0E0E0"/>
<circle cx="165.5" cy="128.5" r="0.5" fill="#E0E0E0"/>
<circle cx="167.5" cy="128.5" r="0.5" fill="#E0E0E0"/>
<circle cx="169.5" cy="128.5" r="0.5" fill="#E0E0E0"/>
<circle cx="171.5" cy="128.5" r="0.5" fill="#E0E0E0"/>
<circle cx="173.5" cy="128.5" r="0.5" fill="#E0E0E0"/>
<circle cx="175.5" cy="128.5" r="0.5" fill="#E0E0E0"/>
<circle cx="177.5" cy="128.5" r="0.5" fill="#E0E0E0"/>
<circle cx="179.5" cy="128.5" r="0.5" fill="#E0E0E0"/>
<circle cx="181.5" cy="128.5" r="0.5" fill="#E0E0E0"/>
<circle cx="183.5" cy="128.5" r="0.5" fill="#E0E0E0"/>
<circle cx="185.5" cy="128.5" r="0.5" fill="#E0E0E0"/>
<circle cx="187.5" cy="128.5" r="0.5" fill="#E0E0E0"/>
<circle cx="189.5" cy="128.5" r="0.5" fill="#E0E0E0"/>
<circle cx="191.5" cy="128.5" r="0.5" fill="#E0E0E0"/>
<circle cx="193.5" cy="128.5" r="0.5" fill="#E0E0E0"/>
<circle cx="195.5" cy="128.5" r="0.5" fill="#E0E0E0"/>
<circle cx="197.5" cy="128.5" r="0.5" fill="#E0E0E0"/>
<circle cx="199.5" cy="128.5" r="0.5" fill="#E0E0E0"/>
<circle cx="201.5" cy="128.5" r="0.5" fill="#E0E0E0"/>
<circle cx="204.5" cy="128.5" r="1.5" fill="#E0E0E0"/>
<circle cx="141.5" cy="128.5" r="0.5" fill="#E0E0E0"/>
<circle cx="139.5" cy="128.5" r="0.5" fill="#E0E0E0"/>
<circle cx="137.5" cy="128.5" r="0.5" fill="#E0E0E0"/>
<circle cx="135.5" cy="128.5" r="0.5" fill="#E0E0E0"/>
<circle cx="133.5" cy="128.5" r="0.5" fill="#E0E0E0"/>
<circle cx="131.5" cy="128.5" r="0.5" fill="#E0E0E0"/>
<circle cx="129.5" cy="128.5" r="0.5" fill="#E0E0E0"/>
<circle cx="127.5" cy="128.5" r="0.5" fill="#E0E0E0"/>
<circle cx="125.5" cy="128.5" r="0.5" fill="#E0E0E0"/>
<circle cx="123.5" cy="128.5" r="0.5" fill="#E0E0E0"/>
<circle cx="121.5" cy="128.5" r="0.5" fill="#E0E0E0"/>
<circle cx="119.5" cy="128.5" r="0.5" fill="#E0E0E0"/>
<circle cx="117.5" cy="128.5" r="0.5" fill="#E0E0E0"/>
<circle cx="115.5" cy="128.5" r="0.5" fill="#E0E0E0"/>
<circle cx="113.5" cy="128.5" r="0.5" fill="#E0E0E0"/>
<circle cx="111.5" cy="128.5" r="0.5" fill="#E0E0E0"/>
<circle cx="109.5" cy="128.5" r="0.5" fill="#E0E0E0"/>
<circle cx="107.5" cy="128.5" r="0.5" fill="#E0E0E0"/>
<circle cx="105.5" cy="128.5" r="0.5" fill="#E0E0E0"/>
<circle cx="103.5" cy="128.5" r="0.5" fill="#E0E0E0"/>
<circle cx="101.5" cy="128.5" r="0.5" fill="#E0E0E0"/>
<circle cx="99.5" cy="128.5" r="0.5" fill="#E0E0E0"/>
<circle cx="97.5" cy="128.5" r="0.5" fill="#E0E0E0"/>
<circle cx="95.5" cy="128.5" r="0.5" fill="#E0E0E0"/>
<circle cx="93.5" cy="128.5" r="0.5" fill="#E0E0E0"/>
<circle cx="91.5" cy="128.5" r="0.5" fill="#E0E0E0"/>
<circle cx="89.5" cy="128.5" r="0.5" fill="#E0E0E0"/>
<circle cx="87.5" cy="128.5" r="0.5" fill="#E0E0E0"/>
<circle cx="85.5" cy="128.5" r="0.5" fill="#E0E0E0"/>
<circle cx="83.5" cy="128.5" r="0.5" fill="#E0E0E0"/>
<circle cx="81.5" cy="128.5" r="0.5" fill="#E0E0E0"/>
<circle cx="79.5" cy="128.5" r="0.5" fill="#E0E0E0"/>
<circle cx="77.5" cy="128.5" r="0.5" fill="#E0E0E0"/>
<circle cx="75.5" cy="128.5" r="0.5" fill="#E0E0E0"/>
<circle cx="73.5" cy="128.5" r="0.5" fill="#E0E0E0"/>
<circle cx="69.5" cy="128.5" r="0.5" fill="#E0E0E0"/>
<circle cx="67.5" cy="128.5" r="0.5" fill="#E0E0E0"/>
<circle cx="65.5" cy="128.5" r="0.5" fill="#E0E0E0"/>
<circle cx="63.5" cy="128.5" r="0.5" fill="#E0E0E0"/>
<circle cx="60.5" cy="128.5" r="1.5" fill="#E0E0E0"/>
<circle cx="71.5" cy="128.5" r="0.5" fill="#E0E0E0"/>
<circle r="0.5" transform="matrix(-1 0 0 1 396.5 72.5)" fill="#E0E0E0"/>
<path d="M270.011 115V106.467H272.655C273.446 106.467 274.146 106.631 274.757 106.958C275.372 107.28 275.851 107.742 276.192 108.342C276.534 108.943 276.712 109.631 276.727 110.408V110.972C276.727 112.202 276.346 113.181 275.584 113.909C274.828 114.636 273.807 115 272.523 115H270.011ZM271.366 107.588V113.894H272.567C273.475 113.894 274.171 113.64 274.654 113.132C275.138 112.625 275.379 111.902 275.379 110.964V110.496C275.379 109.558 275.147 108.84 274.684 108.342C274.225 107.839 273.548 107.588 272.655 107.588H271.366ZM279.906 115H278.543V106.467H279.906V115ZM286.893 112.817C286.893 112.427 286.744 112.124 286.446 111.909C286.153 111.694 285.648 111.497 284.93 111.316C284.212 111.135 283.644 110.94 283.224 110.73C282.271 110.251 281.795 109.575 281.795 108.701C281.795 108.003 282.091 107.437 282.682 107.002C283.277 106.567 284.042 106.35 284.974 106.35C285.931 106.35 286.712 106.594 287.318 107.083C287.928 107.571 288.233 108.196 288.233 108.958H286.878C286.878 108.479 286.705 108.11 286.358 107.852C286.017 107.588 285.55 107.456 284.959 107.456C284.408 107.456 283.968 107.566 283.641 107.786C283.314 108 283.15 108.303 283.15 108.694C283.15 109.011 283.299 109.277 283.597 109.492C283.9 109.707 284.432 109.912 285.194 110.107C285.956 110.303 286.551 110.525 286.981 110.774C287.411 111.018 287.73 111.306 287.94 111.638C288.15 111.97 288.255 112.358 288.255 112.803C288.255 113.521 287.958 114.087 287.362 114.502C286.771 114.912 285.99 115.117 285.018 115.117C284.007 115.117 283.167 114.871 282.499 114.377C281.834 113.879 281.502 113.235 281.502 112.444H282.865C282.865 112.942 283.053 113.33 283.429 113.608C283.805 113.887 284.334 114.026 285.018 114.026C285.633 114.026 286.1 113.916 286.417 113.696C286.734 113.472 286.893 113.179 286.893 112.817ZM296.224 107.588H293.302V115H291.947V107.588H289.039V106.467H296.224V107.588Z" fill="#333333"/>
<path d="M321.157 143.847L321.237 144.433L321.347 143.964L323.164 137.467H324.372L326.159 143.986L326.254 144.418L326.342 143.832L327.792 137.467H329.14L326.958 146H325.683L323.779 139.284L323.771 139.247L323.764 139.284L321.801 146H320.534L318.359 137.467H319.699L321.157 143.847ZM335.673 142.147H331.777V144.894H336.311V146H330.422V137.467H336.267V138.588H331.777V141.034H335.673V142.147ZM337.731 146V137.467H340.705C341.726 137.467 342.507 137.667 343.049 138.068C343.591 138.463 343.862 139.04 343.862 139.796C343.862 140.192 343.745 140.543 343.51 140.851C343.281 141.159 342.951 141.393 342.521 141.554C343.005 141.671 343.388 141.913 343.671 142.279C343.955 142.641 344.096 143.068 344.096 143.561C344.096 144.333 343.83 144.931 343.298 145.355C342.766 145.78 342.009 145.995 341.027 146H337.731ZM339.086 142.118V144.894H341.005C341.567 144.894 341.997 144.774 342.294 144.535C342.592 144.296 342.741 143.969 342.741 143.554C342.741 142.597 342.167 142.118 341.02 142.118H339.086ZM339.086 141.085H340.8C341.328 141.085 341.743 140.983 342.045 140.778C342.348 140.568 342.5 140.26 342.5 139.855C342.5 139.035 341.94 138.612 340.822 138.588H339.086V141.085Z" fill="#333333"/>
<path d="M262.159 141.986C262.159 143.261 261.822 144.269 261.148 145.011C260.475 145.749 259.571 146.117 258.438 146.117C257.32 146.117 256.417 145.744 255.729 144.997C255.045 144.25 254.703 143.234 254.703 141.95V141.496C254.703 140.236 255.042 139.23 255.721 138.478C256.405 137.726 257.306 137.35 258.424 137.35C259.562 137.35 260.465 137.721 261.134 138.463C261.808 139.206 262.149 140.199 262.159 141.444V141.986ZM260.819 141.481C260.819 140.514 260.609 139.774 260.189 139.262C259.769 138.749 259.181 138.493 258.424 138.493C257.691 138.493 257.11 138.754 256.681 139.276C256.256 139.799 256.043 140.541 256.043 141.503V141.986C256.043 142.938 256.258 143.678 256.688 144.206C257.118 144.728 257.701 144.989 258.438 144.989C259.2 144.989 259.786 144.733 260.196 144.22C260.611 143.703 260.819 142.958 260.819 141.986V141.481ZM271.021 146H269.674L265.243 139.584V146H263.888V137.467H265.243L269.674 143.891V137.467H271.021V146ZM278.309 142.147H274.413V144.894H278.946V146H273.058V137.467H278.902V138.588H274.413V141.034H278.309V142.147ZM281.722 142.792V146H280.367V137.467H283.788C284.784 137.467 285.577 137.711 286.168 138.2C286.759 138.683 287.054 139.335 287.054 140.155C287.054 140.985 286.769 141.632 286.197 142.096C285.626 142.56 284.818 142.792 283.773 142.792H281.722ZM281.722 141.679H283.788C284.393 141.679 284.862 141.549 285.194 141.291C285.526 141.032 285.692 140.658 285.692 140.17C285.692 139.701 285.526 139.323 285.194 139.035C284.862 138.742 284.405 138.593 283.824 138.588H281.722V141.679ZM293.668 143.957H289.859L289.054 146H287.669L291.178 137.467H292.394L295.851 146H294.474L293.668 143.957ZM290.299 142.851H293.236L291.778 139.123L290.299 142.851ZM303.797 144.901C303.475 145.307 303.028 145.612 302.457 145.817C301.891 146.017 301.239 146.117 300.501 146.117C299.339 146.117 298.407 145.753 297.704 145.026C297 144.298 296.644 143.319 296.634 142.089V141.43C296.634 140.15 296.959 139.152 297.608 138.434C298.263 137.711 299.181 137.35 300.362 137.35C301.339 137.35 302.123 137.58 302.713 138.039C303.304 138.498 303.666 139.169 303.797 140.053H302.45C302.264 138.993 301.573 138.463 300.377 138.463C299.601 138.463 299.01 138.715 298.604 139.218C298.199 139.721 297.997 140.458 297.997 141.43V142.045C297.997 142.973 298.221 143.7 298.67 144.228C299.125 144.75 299.742 145.011 300.523 145.011C301.412 145.011 302.054 144.831 302.45 144.469V142.726H300.392V141.671H303.797V144.901ZM310.931 142.147H307.035V144.894H311.568V146H305.68V137.467H311.524V138.588H307.035V141.034H310.931V142.147Z" fill="#333333"/>
</svg>
