<?xml version="1.0" encoding="UTF-8" standalone="no"?>
<!-- Created with Inkscape (http://www.inkscape.org/) -->

<svg
   xmlns:dc="http://purl.org/dc/elements/1.1/"
   xmlns:cc="http://creativecommons.org/ns#"
   xmlns:rdf="http://www.w3.org/1999/02/22-rdf-syntax-ns#"
   xmlns:svg="http://www.w3.org/2000/svg"
   xmlns="http://www.w3.org/2000/svg"
   xmlns:sodipodi="http://sodipodi.sourceforge.net/DTD/sodipodi-0.dtd"
   xmlns:inkscape="http://www.inkscape.org/namespaces/inkscape"
   width="343.08182mm"
   height="147.53804mm"
   viewBox="0 0 343.08182 147.53804"
   version="1.1"
   id="svg8"
   inkscape:version="0.92.3 (2405546, 2018-03-11)"
   sodipodi:docname="pipeline.svg">
  <defs
     id="defs2" />
  <sodipodi:namedview
     id="base"
     pagecolor="#ffffff"
     bordercolor="#666666"
     borderopacity="1.0"
     inkscape:pageopacity="0.0"
     inkscape:pageshadow="2"
     inkscape:zoom="0.79756673"
     inkscape:cx="636.0214"
     inkscape:cy="319.91309"
     inkscape:document-units="mm"
     inkscape:current-layer="layer1"
     showgrid="false"
     inkscape:snap-intersection-paths="true"
     inkscape:window-width="1920"
     inkscape:window-height="1054"
     inkscape:window-x="0"
     inkscape:window-y="0"
     inkscape:window-maximized="1"
     showguides="true"
     inkscape:guide-bbox="true"
     fit-margin-top="15"
     fit-margin-left="10"
     fit-margin-right="10"
     fit-margin-bottom="15"
     inkscape:snap-page="true" />
  <metadata
     id="metadata5">
    <rdf:RDF>
      <cc:Work
         rdf:about="">
        <dc:format>image/svg+xml</dc:format>
        <dc:type
           rdf:resource="http://purl.org/dc/dcmitype/StillImage" />
        <dc:title />
      </cc:Work>
    </rdf:RDF>
  </metadata>
  <g
     inkscape:label="Layer 1"
     inkscape:groupmode="layer"
     id="layer1"
     transform="translate(4.337653,11.716933)">
    <rect
       style="opacity:1;vector-effect:none;fill:#ffffff;fill-opacity:1;stroke:none;stroke-width:1.58700001;stroke-linecap:round;stroke-linejoin:miter;stroke-miterlimit:4;stroke-dasharray:none;stroke-dashoffset:0;stroke-opacity:1"
       id="rect882"
       width="343.08179"
       height="147.53804"
       x="-4.3376532"
       y="-11.716933" />
    <g
       id="g1255">
      <g
         transform="translate(45.752768)"
         id="g1054">
        <path
           style="color:#000000;font-style:normal;font-variant:normal;font-weight:normal;font-stretch:normal;font-size:medium;line-height:normal;font-family:sans-serif;font-variant-ligatures:normal;font-variant-position:normal;font-variant-caps:normal;font-variant-numeric:normal;font-variant-alternates:normal;font-feature-settings:normal;text-indent:0;text-align:start;text-decoration:none;text-decoration-line:none;text-decoration-style:solid;text-decoration-color:#000000;letter-spacing:normal;word-spacing:normal;text-transform:none;writing-mode:lr-tb;direction:ltr;text-orientation:mixed;dominant-baseline:auto;baseline-shift:baseline;text-anchor:start;white-space:normal;shape-padding:0;clip-rule:nonzero;display:inline;overflow:visible;visibility:visible;opacity:1;isolation:auto;mix-blend-mode:normal;color-interpolation:sRGB;color-interpolation-filters:linearRGB;solid-color:#000000;solid-opacity:1;vector-effect:none;fill:#8c8c8c;fill-opacity:1;fill-rule:nonzero;stroke:none;stroke-width:0.5291667;stroke-linecap:round;stroke-linejoin:miter;stroke-miterlimit:4;stroke-dasharray:none;stroke-dashoffset:0;stroke-opacity:1;color-rendering:auto;image-rendering:auto;shape-rendering:auto;text-rendering:auto;enable-background:accumulate"
           d="M 5.6623422,3.2830706 V 3.5466205 59.406259 H 46.123438 V 10.489866 L 45.594271,9.9606993 39.445809,3.8122373 38.916643,3.2830706 Z M 6.1915088,3.8122373 H 38.916643 v 0.1095542 6.5680745 h 6.677628 V 58.876577 H 6.1915088 Z M 39.445809,4.560512 44.844447,9.9606993 h -5.398638 z"
           id="rect815"
           inkscape:connector-curvature="0"
           sodipodi:nodetypes="ccccccccccccccccccccc" />
        <g
           id="g885"
           transform="matrix(0.05393056,0,0,0.05393056,3.1881243,15.35695)">
          <path
             id="path877"
             d="m 666.3,296.5 c 0,-32.5 -40.7,-63.3 -103.1,-82.4 14.4,-63.6 8,-114.2 -20.2,-130.4 -6.5,-3.8 -14.1,-5.6 -22.4,-5.6 v 22.3 c 4.6,0 8.3,0.9 11.4,2.6 13.6,7.8 19.5,37.5 14.9,75.7 -1.1,9.4 -2.9,19.3 -5.1,29.4 -19.6,-4.8 -41,-8.5 -63.5,-10.9 -13.5,-18.5 -27.5,-35.3 -41.6,-50 32.6,-30.3 63.2,-46.9 84,-46.9 V 78 c 0,0 0,0 0,0 -27.5,0 -63.5,19.6 -99.9,53.6 C 384.4,97.8 348.4,78.4 320.9,78.4 v 22.3 c 20.7,0 51.4,16.5 84,46.6 -14,14.7 -28,31.4 -41.3,49.9 -22.6,2.4 -44,6.1 -63.6,11 -2.3,-10 -4,-19.7 -5.2,-29 -4.7,-38.2 1.1,-67.9 14.6,-75.8 3,-1.8 6.9,-2.6 11.5,-2.6 V 78.5 c 0,0 0,0 0,0 -8.4,0 -16,1.8 -22.6,5.6 -28.1,16.2 -34.4,66.7 -19.9,130.1 -62.2,19.2 -102.7,49.9 -102.7,82.3 0,32.5 40.7,63.3 103.1,82.4 -14.4,63.6 -8,114.2 20.2,130.4 6.5,3.8 14.1,5.6 22.5,5.6 27.5,0 63.5,-19.6 99.9,-53.6 36.4,33.8 72.4,53.2 99.9,53.2 8.4,0 16,-1.8 22.6,-5.6 28.1,-16.2 34.4,-66.7 19.9,-130.1 62,-19.1 102.5,-49.9 102.5,-82.3 z M 536.1,229.8 c -3.7,12.9 -8.3,26.2 -13.5,39.5 -4.1,-8 -8.4,-16 -13.1,-24 -4.6,-8 -9.5,-15.8 -14.4,-23.4 14.2,2.1 27.9,4.7 41,7.9 z m -45.8,106.5 c -7.8,13.5 -15.8,26.3 -24.1,38.2 -14.9,1.3 -30,2 -45.2,2 -15.1,0 -30.2,-0.7 -45,-1.9 -8.3,-11.9 -16.4,-24.6 -24.2,-38 -7.6,-13.1 -14.5,-26.4 -20.8,-39.8 6.2,-13.4 13.2,-26.8 20.7,-39.9 7.8,-13.5 15.8,-26.3 24.1,-38.2 14.9,-1.3 30,-2 45.2,-2 15.1,0 30.2,0.7 45,1.9 8.3,11.9 16.4,24.6 24.2,38 7.6,13.1 14.5,26.4 20.8,39.8 -6.3,13.4 -13.2,26.8 -20.7,39.9 z m 32.3,-13 c 5.4,13.4 10,26.8 13.8,39.8 -13.1,3.2 -26.9,5.9 -41.2,8 4.9,-7.7 9.8,-15.6 14.4,-23.7 4.6,-8 8.9,-16.1 13,-24.1 z M 421.2,430 c -9.3,-9.6 -18.6,-20.3 -27.8,-32 9,0.4 18.2,0.7 27.5,0.7 9.4,0 18.7,-0.2 27.8,-0.7 -9,11.7 -18.3,22.4 -27.5,32 z m -74.4,-58.9 c -14.2,-2.1 -27.9,-4.7 -41,-7.9 3.7,-12.9 8.3,-26.2 13.5,-39.5 4.1,8 8.4,16 13.1,24 4.7,8 9.5,15.8 14.4,23.4 z M 420.7,163 c 9.3,9.6 18.6,20.3 27.8,32 -9,-0.4 -18.2,-0.7 -27.5,-0.7 -9.4,0 -18.7,0.2 -27.8,0.7 9,-11.7 18.3,-22.4 27.5,-32 z m -74,58.9 c -4.9,7.7 -9.8,15.6 -14.4,23.7 -4.6,8 -8.9,16 -13,24 -5.4,-13.4 -10,-26.8 -13.8,-39.8 13.1,-3.1 26.9,-5.8 41.2,-7.9 z m -90.5,125.2 c -35.4,-15.1 -58.3,-34.9 -58.3,-50.6 0,-15.7 22.9,-35.6 58.3,-50.6 8.6,-3.7 18,-7 27.7,-10.1 5.7,19.6 13.2,40 22.5,60.9 -9.2,20.8 -16.6,41.1 -22.2,60.6 -9.9,-3.1 -19.3,-6.5 -28,-10.2 z M 310,490 c -13.6,-7.8 -19.5,-37.5 -14.9,-75.7 1.1,-9.4 2.9,-19.3 5.1,-29.4 19.6,4.8 41,8.5 63.5,10.9 13.5,18.5 27.5,35.3 41.6,50 -32.6,30.3 -63.2,46.9 -84,46.9 -4.5,-0.1 -8.3,-1 -11.3,-2.7 z m 237.2,-76.2 c 4.7,38.2 -1.1,67.9 -14.6,75.8 -3,1.8 -6.9,2.6 -11.5,2.6 -20.7,0 -51.4,-16.5 -84,-46.6 14,-14.7 28,-31.4 41.3,-49.9 22.6,-2.4 44,-6.1 63.6,-11 2.3,10.1 4.1,19.8 5.2,29.1 z m 38.5,-66.7 c -8.6,3.7 -18,7 -27.7,10.1 -5.7,-19.6 -13.2,-40 -22.5,-60.9 9.2,-20.8 16.6,-41.1 22.2,-60.6 9.9,3.1 19.3,6.5 28.1,10.2 35.4,15.1 58.3,34.9 58.3,50.6 -0.1,15.7 -23,35.6 -58.4,50.6 z"
             inkscape:connector-curvature="0"
             style="fill:#61dafb" />
          <polygon
             id="polygon879"
             points=""
             style="fill:#61dafb" />
          <circle
             id="circle881"
             r="45.700001"
             cy="296.5"
             cx="420.89999"
             style="fill:#61dafb" />
          <polygon
             id="polygon883"
             points=""
             style="fill:#61dafb" />
        </g>
        <text
           xml:space="preserve"
           style="font-style:normal;font-variant:normal;font-weight:normal;font-stretch:normal;font-size:4.23333311px;line-height:1;font-family:Roboto;-inkscape-font-specification:'Roboto, Normal';font-variant-ligatures:normal;font-variant-caps:normal;font-variant-numeric:normal;font-feature-settings:normal;text-align:end;letter-spacing:0px;word-spacing:0px;writing-mode:lr-tb;text-anchor:end;fill:#000000;fill-opacity:1;stroke:none;stroke-width:0.26458332"
           x="44.647556"
           y="57.777416"
           id="text901"><tspan
             sodipodi:role="line"
             id="tspan899"
             x="44.647556"
             y="57.777416"
             style="fill:#8c8c8c;stroke-width:0.26458332">.JSX</tspan></text>
      </g>
      <g
         transform="translate(-50.147752,61.414851)"
         id="g1044">
        <path
           sodipodi:nodetypes="ccccccccccccccccccccc"
           inkscape:connector-curvature="0"
           id="path852"
           d="M 55.810099,3.2830706 V 3.5466205 59.406259 H 96.271195 V 10.489866 L 95.742028,9.9606993 89.593566,3.8122373 89.0644,3.2830706 Z m 0.529167,0.5291667 H 89.0644 v 0.1095542 6.5680745 h 6.677628 V 58.876577 H 56.339266 Z m 33.2543,0.7482747 5.398638,5.4001873 h -5.398638 z"
           style="color:#000000;font-style:normal;font-variant:normal;font-weight:normal;font-stretch:normal;font-size:medium;line-height:normal;font-family:sans-serif;font-variant-ligatures:normal;font-variant-position:normal;font-variant-caps:normal;font-variant-numeric:normal;font-variant-alternates:normal;font-feature-settings:normal;text-indent:0;text-align:start;text-decoration:none;text-decoration-line:none;text-decoration-style:solid;text-decoration-color:#000000;letter-spacing:normal;word-spacing:normal;text-transform:none;writing-mode:lr-tb;direction:ltr;text-orientation:mixed;dominant-baseline:auto;baseline-shift:baseline;text-anchor:start;white-space:normal;shape-padding:0;clip-rule:nonzero;display:inline;overflow:visible;visibility:visible;opacity:1;isolation:auto;mix-blend-mode:normal;color-interpolation:sRGB;color-interpolation-filters:linearRGB;solid-color:#000000;solid-opacity:1;vector-effect:none;fill:#8c8c8c;fill-opacity:1;fill-rule:nonzero;stroke:none;stroke-width:0.5291667;stroke-linecap:round;stroke-linejoin:miter;stroke-miterlimit:4;stroke-dasharray:none;stroke-dashoffset:0;stroke-opacity:1;color-rendering:auto;image-rendering:auto;shape-rendering:auto;text-rendering:auto;enable-background:accumulate" />
        <text
           id="text905"
           y="57.777416"
           x="94.795311"
           style="font-style:normal;font-variant:normal;font-weight:normal;font-stretch:normal;font-size:4.23333311px;line-height:1;font-family:Roboto;-inkscape-font-specification:'Roboto, Normal';font-variant-ligatures:normal;font-variant-caps:normal;font-variant-numeric:normal;font-feature-settings:normal;text-align:end;letter-spacing:0px;word-spacing:0px;writing-mode:lr-tb;text-anchor:end;fill:#000000;fill-opacity:1;stroke:none;stroke-width:0.26458332"
           xml:space="preserve"><tspan
             style="fill:#8c8c8c;stroke-width:0.26458332"
             y="57.777416"
             x="94.795311"
             id="tspan903"
             sodipodi:role="line">.MDX</tspan></text>
        <path
           style="fill:#ffffff;stroke-width:0.05167643"
           inkscape:connector-curvature="0"
           d="m 63.818048,26.024239 h 24.445198 c 0.476496,0 0.862772,0.386276 0.862772,0.862772 v 8.915308 c 0,0.476495 -0.386276,0.862771 -0.862772,0.862771 H 63.818048 c -0.476496,0 -0.862772,-0.386276 -0.862772,-0.862771 v -8.915308 c 0,-0.476496 0.386276,-0.862772 0.862772,-0.862772 z"
           id="path915" />
        <g
           id="g949"
           transform="matrix(1.237654,0,0,1.237654,-18.118975,-7.2084768)">
          <polygon
             transform="matrix(0.05167643,0,0,0.05167643,62.811481,25.880444)"
             id="polygon919"
             points="272.69446,125.09867 303.87853,93.920837 319.61875,109.66223 261.97675,167.29994 203.60786,108.93104 219.34867,93.190232 250.43359,124.27501 250.43478,40.20313 272.69565,40.20313 "
             style="fill:#000000" />
          <polygon
             transform="matrix(0.05167643,0,0,0.05167643,62.811481,25.880444)"
             id="polygon921"
             points="49.901449,162.97925 72.162319,162.97925 72.162319,97.231807 112.41683,137.48922 152.9767,96.93226 152.9767,162.31513 175.23756,162.31513 175.23756,43.192494 112.41796,106.00759 49.901449,43.48657 "
             style="fill:#000000" />
          <polygon
             transform="matrix(0.05167643,0,0,0.05167643,62.811481,25.880444)"
             id="polygon923"
             points="339.2546,145.23972 384.9498,99.539478 337.80393,52.39228 353.54447,36.651199 400.69565,83.797333 447.84683,36.651199 463.58737,52.39228 416.4378,99.539478 462.13671,145.23972 446.39616,160.9808 400.69565,115.28162 354.99514,160.9808 "
             style="fill:#f9ac00" />
        </g>
      </g>
      <g
         transform="translate(-100.2955,-4.0666666e-6)"
         id="g1034">
        <path
           style="color:#000000;font-style:normal;font-variant:normal;font-weight:normal;font-stretch:normal;font-size:medium;line-height:normal;font-family:sans-serif;font-variant-ligatures:normal;font-variant-position:normal;font-variant-caps:normal;font-variant-numeric:normal;font-variant-alternates:normal;font-feature-settings:normal;text-indent:0;text-align:start;text-decoration:none;text-decoration-line:none;text-decoration-style:solid;text-decoration-color:#000000;letter-spacing:normal;word-spacing:normal;text-transform:none;writing-mode:lr-tb;direction:ltr;text-orientation:mixed;dominant-baseline:auto;baseline-shift:baseline;text-anchor:start;white-space:normal;shape-padding:0;clip-rule:nonzero;display:inline;overflow:visible;visibility:visible;opacity:1;isolation:auto;mix-blend-mode:normal;color-interpolation:sRGB;color-interpolation-filters:linearRGB;solid-color:#000000;solid-opacity:1;vector-effect:none;fill:#8c8c8c;fill-opacity:1;fill-rule:nonzero;stroke:none;stroke-width:0.5291667;stroke-linecap:round;stroke-linejoin:miter;stroke-miterlimit:4;stroke-dasharray:none;stroke-dashoffset:0;stroke-opacity:1;color-rendering:auto;image-rendering:auto;shape-rendering:auto;text-rendering:auto;enable-background:accumulate"
           d="M 105.95785,3.2830706 V 3.5466205 59.406259 h 40.4611 V 10.489866 l -0.52917,-0.5291667 -6.14846,-6.148462 -0.52917,-0.5291667 z m 0.52917,0.5291667 h 32.72513 v 0.1095542 6.5680745 h 6.67763 v 48.386711 h -39.40276 z m 33.2543,0.7482747 5.39863,5.4001873 h -5.39863 z"
           id="path854"
           inkscape:connector-curvature="0"
           sodipodi:nodetypes="ccccccccccccccccccccc" />
        <text
           xml:space="preserve"
           style="font-style:normal;font-variant:normal;font-weight:normal;font-stretch:normal;font-size:4.23333311px;line-height:1;font-family:Roboto;-inkscape-font-specification:'Roboto, Normal';font-variant-ligatures:normal;font-variant-caps:normal;font-variant-numeric:normal;font-feature-settings:normal;text-align:end;letter-spacing:0px;word-spacing:0px;writing-mode:lr-tb;text-anchor:end;fill:#000000;fill-opacity:1;stroke:none;stroke-width:0.26458332"
           x="144.9431"
           y="57.796021"
           id="text909"><tspan
             sodipodi:role="line"
             id="tspan907"
             x="144.9431"
             y="57.796021"
             style="fill:#8c8c8c;stroke-width:0.26458332">.HTML</tspan></text>
        <g
           id="g973"
           transform="matrix(0.05866593,0,0,0.05866593,111.19925,16.326187)">
          <path
             id="path953"
             d="M 71,460 30,0 h 451 l -41,460 -185,52"
             inkscape:connector-curvature="0"
             style="fill:#e34f26" />
          <path
             id="path955"
             d="M 256,472 405,431 440,37 H 256"
             inkscape:connector-curvature="0"
             style="fill:#ef652a" />
          <path
             id="path957"
             d="m 256,208 h -75 l -5,-58 h 80 V 94 h -1 -141 l 1,15 14,156 h 127 z m 0,147 h -1 l -63,-17 -4,-45 h -30 -26 l 7,89 116,32 h 1 z"
             inkscape:connector-curvature="0"
             style="fill:#ebebeb" />
          <path
             id="path959"
             d="m 255,208 v 57 h 70 l -7,73 -63,17 v 59 l 116,-32 1,-10 13,-149 2,-15 h -16 z m 0,-114 v 35 21 0 h 137 v 0 0 l 1,-12 3,-29 1,-15 z"
             inkscape:connector-curvature="0"
             style="fill:#ffffff" />
        </g>
      </g>
      <g
         id="g1077">
        <path
           sodipodi:nodetypes="ccccccccccccccccccccc"
           inkscape:connector-curvature="0"
           id="path856"
           d="m 51.41511,64.697926 v 0.26355 55.859634 h 40.4611 V 71.904721 l -0.52917,-0.529167 -6.14846,-6.148462 -0.52917,-0.529166 z m 0.52917,0.529166 h 32.72513 v 0.109554 6.568075 h 6.67763 V 120.29143 H 51.94428 Z m 33.2543,0.748275 5.39863,5.400187 h -5.39863 z"
           style="color:#000000;font-style:normal;font-variant:normal;font-weight:normal;font-stretch:normal;font-size:medium;line-height:normal;font-family:sans-serif;font-variant-ligatures:normal;font-variant-position:normal;font-variant-caps:normal;font-variant-numeric:normal;font-variant-alternates:normal;font-feature-settings:normal;text-indent:0;text-align:start;text-decoration:none;text-decoration-line:none;text-decoration-style:solid;text-decoration-color:#000000;letter-spacing:normal;word-spacing:normal;text-transform:none;writing-mode:lr-tb;direction:ltr;text-orientation:mixed;dominant-baseline:auto;baseline-shift:baseline;text-anchor:start;white-space:normal;shape-padding:0;clip-rule:nonzero;display:inline;overflow:visible;visibility:visible;opacity:1;isolation:auto;mix-blend-mode:normal;color-interpolation:sRGB;color-interpolation-filters:linearRGB;solid-color:#000000;solid-opacity:1;vector-effect:none;fill:#8c8c8c;fill-opacity:1;fill-rule:nonzero;stroke:none;stroke-width:0.5291667;stroke-linecap:round;stroke-linejoin:miter;stroke-miterlimit:4;stroke-dasharray:none;stroke-dashoffset:0;stroke-opacity:1;color-rendering:auto;image-rendering:auto;shape-rendering:auto;text-rendering:auto;enable-background:accumulate" />
        <text
           id="text913"
           y="119.21088"
           x="90.396217"
           style="font-style:normal;font-variant:normal;font-weight:normal;font-stretch:normal;font-size:4.23333311px;line-height:1;font-family:Roboto;-inkscape-font-specification:'Roboto, Normal';font-variant-ligatures:normal;font-variant-caps:normal;font-variant-numeric:normal;font-feature-settings:normal;text-align:end;letter-spacing:0px;word-spacing:0px;writing-mode:lr-tb;text-anchor:end;fill:#000000;fill-opacity:1;stroke:none;stroke-width:0.26458332"
           xml:space="preserve"><tspan
             style="fill:#8c8c8c;stroke-width:0.26458332"
             y="119.21088"
             x="90.396217"
             id="tspan911"
             sodipodi:role="line">.PNG</tspan></text>
        <g
           id="g1016"
           transform="matrix(1.9211543,0,0,1.9211543,-169.54432,-70.134435)"
           style="fill:#8c8c8c">
          <path
             style="fill:#8c8c8c;stroke-width:0.26458332"
             id="path977"
             d="m 131.89431,79.49796 h -12.7 c -0.2921,0 -0.52917,0.237067 -0.52917,0.529167 v 9.524999 c 0,0.2921 0.23707,0.529167 0.52917,0.529167 h 12.7 c 0.2921,0 0.52916,-0.237067 0.52916,-0.529167 v -9.524999 c 0,-0.2921 -0.23706,-0.529167 -0.52916,-0.529167 z m -0.52917,1.058333 v 4.543425 l -2.27171,-2.271712 c -0.20664,-0.20664 -0.5416,-0.20664 -0.74824,0 l -3.85922,3.859212 -0.68421,-0.684212 c -0.186,-0.186267 -0.48048,-0.207169 -0.69162,-0.04921 l -3.38667,2.54 v -7.9375 z m -10.58333,8.466667 2.59609,-1.947069 0.73369,0.73369 c 0.20637,0.206639 0.54186,0.206639 0.74824,0 l 3.85948,-3.858948 2.64583,2.645833 v 2.426494 z"
             inkscape:connector-curvature="0" />
          <path
             style="fill:#8c8c8c;stroke-width:0.26458332"
             id="path979"
             d="m 122.89847,84.789627 c 0.87551,0 1.5875,-0.711994 1.5875,-1.5875 0,-0.875507 -0.71199,-1.5875 -1.5875,-1.5875 -0.8755,0 -1.5875,0.711993 -1.5875,1.5875 0,0.875506 0.712,1.5875 1.5875,1.5875 z m 0,-2.116667 c 0.29184,0 0.52917,0.237331 0.52917,0.529167 0,0.291835 -0.23733,0.529166 -0.52917,0.529166 -0.29183,0 -0.52916,-0.237331 -0.52916,-0.529166 0,-0.291836 0.23733,-0.529167 0.52916,-0.529167 z"
             inkscape:connector-curvature="0" />
        </g>
      </g>
    </g>
    <g
       transform="translate(182.3252,30.707423)"
       id="g1131">
      <path
         style="color:#000000;font-style:normal;font-variant:normal;font-weight:normal;font-stretch:normal;font-size:medium;line-height:normal;font-family:sans-serif;font-variant-ligatures:normal;font-variant-position:normal;font-variant-caps:normal;font-variant-numeric:normal;font-variant-alternates:normal;font-feature-settings:normal;text-indent:0;text-align:start;text-decoration:none;text-decoration-line:none;text-decoration-style:solid;text-decoration-color:#000000;letter-spacing:normal;word-spacing:normal;text-transform:none;writing-mode:lr-tb;direction:ltr;text-orientation:mixed;dominant-baseline:auto;baseline-shift:baseline;text-anchor:start;white-space:normal;shape-padding:0;clip-rule:nonzero;display:inline;overflow:visible;visibility:visible;opacity:1;isolation:auto;mix-blend-mode:normal;color-interpolation:sRGB;color-interpolation-filters:linearRGB;solid-color:#000000;solid-opacity:1;vector-effect:none;fill:#8c8c8c;fill-opacity:1;fill-rule:nonzero;stroke:none;stroke-width:0.5291667;stroke-linecap:round;stroke-linejoin:miter;stroke-miterlimit:4;stroke-dasharray:none;stroke-dashoffset:0;stroke-opacity:1;color-rendering:auto;image-rendering:auto;shape-rendering:auto;text-rendering:auto;enable-background:accumulate"
         d="M 105.95785,3.2830706 V 3.5466205 59.406259 h 40.4611 V 10.489866 l -0.52917,-0.5291667 -6.14846,-6.148462 -0.52917,-0.5291667 z m 0.52917,0.5291667 h 32.72513 v 0.1095542 6.5680745 h 6.67763 v 48.386711 h -39.40276 z m 33.2543,0.7482747 5.39863,5.4001873 h -5.39863 z"
         id="path1115"
         inkscape:connector-curvature="0"
         sodipodi:nodetypes="ccccccccccccccccccccc" />
      <text
         xml:space="preserve"
         style="font-style:normal;font-variant:normal;font-weight:normal;font-stretch:normal;font-size:4.23333311px;line-height:1;font-family:Roboto;-inkscape-font-specification:'Roboto, Normal';font-variant-ligatures:normal;font-variant-caps:normal;font-variant-numeric:normal;font-feature-settings:normal;text-align:end;letter-spacing:0px;word-spacing:0px;writing-mode:lr-tb;text-anchor:end;fill:#000000;fill-opacity:1;stroke:none;stroke-width:0.26458332"
         x="144.9431"
         y="57.796021"
         id="text1119"><tspan
           sodipodi:role="line"
           id="tspan1117"
           x="144.9431"
           y="57.796021"
           style="fill:#8c8c8c;stroke-width:0.26458332">.HTML</tspan></text>
      <g
         id="g1129"
         transform="matrix(0.05866593,0,0,0.05866593,111.19925,16.326187)">
        <path
           id="path1121"
           d="M 71,460 30,0 h 451 l -41,460 -185,52"
           inkscape:connector-curvature="0"
           style="fill:#e34f26" />
        <path
           id="path1123"
           d="M 256,472 405,431 440,37 H 256"
           inkscape:connector-curvature="0"
           style="fill:#ef652a" />
        <path
           id="path1125"
           d="m 256,208 h -75 l -5,-58 h 80 V 94 h -1 -141 l 1,15 14,156 h 127 z m 0,147 h -1 l -63,-17 -4,-45 h -30 -26 l 7,89 116,32 h 1 z"
           inkscape:connector-curvature="0"
           style="fill:#ebebeb" />
        <path
           id="path1127"
           d="m 255,208 v 57 h 70 l -7,73 -63,17 v 59 l 116,-32 1,-10 13,-149 2,-15 h -16 z m 0,-114 v 35 21 0 h 137 v 0 0 l 1,-12 3,-29 1,-15 z"
           inkscape:connector-curvature="0"
           style="fill:#ffffff" />
      </g>
    </g>
    <g
       id="g1320"
       transform="matrix(0.25839793,0,0,0.25839793,219.44398,84.60473)"
       style="stroke-width:5.16000032">
      <path
         id="path1287"
         d="m -113.64005,-265.35803 102.393749,57.91729 V -91.5797 L -113.64005,-33.662409 -216.0338,-91.5797 v -115.86104 z"
         inkscape:connector-curvature="0"
         style="fill:#ffffff;stroke-width:1.36524999" />
      <path
         id="path1289"
         d="m -29.529009,-95.574908 -80.724371,45.667082 v -35.559999 l 50.297288,-27.675415 z m 5.529792,-5.000622 v -95.48813 l -29.5275,17.06563 v 61.38333 z m -174.069373,5.000622 80.72437,45.667082 v -35.559999 l -50.32375,-27.675415 z m -5.52979,-5.000622 v -95.48813 l 29.5275,17.06563 v 61.38333 z m 3.46604,-101.67938 82.78812,-46.83125 v 34.36938 l -53.04895,29.18354 -0.42334,0.23812 z m 172.667081,0 -82.788121,-46.83125 v 34.36938 l 53.048955,29.15708 0.423333,0.23813 z"
         inkscape:connector-curvature="0"
         style="fill:#8ed6fb;stroke-width:1.36524999" />
      <path
         id="path1291"
         d="m -117.34422,-93.564075 -49.63583,-27.304995 v -54.05438 l 49.63583,28.65438 z m 7.09084,0 49.63583,-27.278545 v -54.08083 l -49.63583,28.65438 z m -3.54542,-54.768745 z m -49.82104,-32.8348 49.82104,-27.38437 49.821042,27.38437 -49.821042,28.76021 z"
         inkscape:connector-curvature="0"
         style="fill:#1c78c0;stroke-width:1.36524999" />
    </g>
    <g
       id="g883"
       transform="translate(-38.334183,2.0540733)">
      <rect
         y="6.5743585"
         x="163.4283"
         height="106.84731"
         width="129.97102"
         id="rect1273"
         style="opacity:1;vector-effect:none;fill:none;fill-opacity:1;stroke:#afafaf;stroke-width:2.11666656;stroke-linecap:round;stroke-linejoin:miter;stroke-miterlimit:4;stroke-dasharray:none;stroke-dashoffset:0;stroke-opacity:1" />
      <path
         sodipodi:nodetypes="cccc"
         inkscape:connector-curvature="0"
         id="rect1275"
         d="m 162.36997,31.973154 h -3.59926 L 141.85206,24.8712 v 70.25363 l 16.91865,-7.101955 h 3.59926"
         style="opacity:1;vector-effect:none;fill:none;fill-opacity:1;stroke:#afafaf;stroke-width:2.11666656;stroke-linecap:square;stroke-linejoin:miter;stroke-miterlimit:4;stroke-dasharray:none;stroke-dashoffset:0;stroke-opacity:1" />
      <path
         style="opacity:1;vector-effect:none;fill:none;fill-opacity:1;stroke:#afafaf;stroke-width:2.11666656;stroke-linecap:square;stroke-linejoin:miter;stroke-miterlimit:4;stroke-dasharray:none;stroke-dashoffset:0;stroke-opacity:1"
         d="m 294.45765,31.973154 h 3.59926 L 314.97556,24.8712 v 70.25363 l -16.91865,-7.101955 h -3.59926"
         id="path878"
         inkscape:connector-curvature="0"
         sodipodi:nodetypes="cccc" />
    </g>
    <g
       id="g996"
       transform="translate(1.0769414e-5,-11.163993)">
      <g
         transform="matrix(0.39062562,0,0,0.39062562,40.788607,41.346699)"
         id="g971">
        <path
           style="fill:#000000;stroke-width:0.26458332"
           inkscape:connector-curvature="0"
           d="m 327.69262,145.89197 -0.0302,-0.29025 -0.47017,0.0402 0.0299,0.28998 z m 3.16151,7.6036 0.0101,0.16007 0.3302,-0.0299 c -0.01,-0.10001 0.0299,-0.26008 0.10001,-0.46011 l -0.0302,-0.29025 c -0.13996,0.0101 -0.28019,0.22014 -0.4101,0.62019 z m -12.3362,9.57474 c -0.0198,-0.27014 -0.86043,-1.32054 -2.52122,-3.17156 -0.0299,-0.33999 0.54028,-0.85037 1.7108,-1.52056 l 3.34169,-2.91148 c 0.75036,-0.95065 1.19062,-2.49131 1.3208,-4.63232 l -0.0402,-0.49028 c -0.12991,-1.4806 -1.20041,-2.67123 -3.23136,-3.58166 -1.20067,-0.81042 -3.36179,-1.26074 -6.48335,-1.34064 -2.58127,0.22013 -5.95286,1.14035 -10.10496,2.77124 -1.14062,0.82048 -2.44105,1.64095 -3.90181,2.46116 l 0.0198,0.25029 c 0.0902,-0.0101 0.23019,-0.0601 0.39026,-0.17012 0.17013,-0.0201 0.27014,0.0601 0.2802,0.22013 l 0.25003,-0.13018 0.12012,-0.0101 0.01,0.11007 c 0.0101,0.13017 -0.89059,0.84058 -2.71145,2.11111 l 0.14023,0.26008 -0.12012,0.0101 -0.3003,-0.11007 c 0.0101,0.09 -0.11986,0.15002 -0.37015,0.17013 l 0.0101,0.11006 0.29025,0.3601 c -0.09,0.0101 -0.23019,-0.0299 -0.42016,-0.10001 -0.42042,0.04 -0.83053,0.26008 -1.24063,0.68024 l 0.17013,-0.7403 c 0.61013,-2.63128 1.03028,-4.96253 1.25042,-6.98341 l -0.0299,-0.13018 c -0.42016,-0.27014 -0.83053,-0.65035 -1.21073,-1.13056 0.01,-0.3101 0.01,-0.49001 0,-0.53023 l -0.0299,-0.11007 -0.12012,0.0302 c -1.32054,1.98093 -3.86186,5.36257 -7.63376,10.14492 -2.87126,3.40174 -4.35213,5.29272 -4.44209,5.67293 -1.17052,1.21047 -1.73091,1.94098 -1.67084,2.19101 -0.3101,0.20003 -0.44027,0.40005 -0.39027,0.62018 -0.09,0.0201 -0.15001,-0.01 -0.17012,-0.10001 -0.50006,0.81042 -1.24063,1.33059 -2.23097,1.56078 l -1.04061,0.24024 c -0.13996,0.0299 -0.21007,0.12991 -0.20002,0.30004 l 0.0299,0.13017 0.39026,-0.0902 0.0302,0.11007 -0.88053,0.34025 -1.56078,0.3601 -0.82047,0.05 c -0.12012,0.12012 0.65034,-0.01 0.35031,0.0601 l -1.0205,0.24024 c -0.62045,0.13996 -0.96044,0.09 -1.0205,-0.16008 l -0.12012,0.0299 c 0.0201,0.11007 0.0299,0.19024 0.0101,0.26009 l -0.0601,-0.25003 -0.82047,0.18997 c -0.0601,-0.37994 -1.17052,-1.7608 -3.32158,-4.14179 -0.04,-0.46037 0.7202,-1.13083 2.27118,-2.00104 l 4.38203,-3.85207 c 0.98055,-1.26048 1.56078,-3.28163 1.75102,-6.06293 l -0.0601,-0.65035 c -0.17013,-1.96082 -1.59094,-3.54171 -4.26218,-4.76223 -1.58088,-1.0705 -4.42224,-1.64095 -8.52408,-1.7309 -3.40175,0.29024 -7.8441,1.50071 -13.30669,3.61182 -1.50071,1.09035 -3.21151,2.17091 -5.13239,3.24141 l 0.0299,0.34026 c 0.13018,-0.0101 0.30004,-0.0799 0.51012,-0.20003 0.22013,-0.0201 0.34025,0.0799 0.36036,0.2802 l 0.33999,-0.19024 0.17013,-0.01 0.0101,0.16007 c 0.0101,0.16007 -1.18057,1.09061 -3.59172,2.79135 l 0.18997,0.30031 -0.16986,0.0101 -0.37041,-0.13018 c 0.0101,0.10002 -0.16008,0.17013 -0.51012,0.20003 l 0.0198,0.18018 0.40032,0.44027 c -0.12991,0.01 -0.31009,-0.0302 -0.54028,-0.11007 -0.78026,0.0701 -1.54067,0.63024 -2.29103,1.69095 l 0.18997,0.30004 c 0.65035,-0.60034 1.03055,-0.90038 1.14062,-0.91043 l 0.04,0.49027 c -0.11006,0.0101 -0.28019,0.0799 -0.51011,0.20003 l 0.4101,0.62044 a 13.546137,13.546137 0 0 1 2.61144,-2.19127 c 0.47016,0.12012 0.72019,0.27014 0.73025,0.43021 l 0.3601,-0.0299 c 2.58127,-1.91109 5.13265,-3.29168 7.66392,-4.14205 l 0.0299,0.33999 c -0.47016,0.70035 -0.79031,1.06071 -0.96043,1.08056 0.0201,0.24024 0.10001,0.45032 0.25003,0.6305 0.0402,0.43021 -1.11046,3.33163 -3.4417,8.69421 -5.29246,12.4661 -9.73482,21.69054 -13.34638,27.65372 0.01,0.11985 0.0799,0.27993 0.21008,0.48022 0.89032,-0.21008 1.45071,-0.43022 1.69069,-0.64056 l 0.19023,-0.0198 0.0299,0.34025 0.3302,-0.0302 0.34025,-0.18997 c 0.0101,0.10001 0.12013,0.15002 0.35005,0.12991 l 0.0302,0.34025 c 0.0299,0.3302 -0.16007,0.83026 -0.56039,1.52083 -0.36009,0.4101 -0.75035,1.27053 -1.16046,2.58127 l 0.01,0.16007 0.3302,-0.0302 c 1.44092,-1.61078 2.53127,-3.19167 3.28163,-4.73234 4.20211,-1.23057 7.40383,-2.44104 9.62475,-3.63167 2.23123,-0.19023 3.93197,-0.78052 5.0927,-1.75101 l -0.0201,-0.17992 -0.84032,0.25004 -0.19023,0.0201 -0.0201,-0.18018 c 1.64094,-0.25003 2.77151,-0.61039 3.40174,-1.11045 3.19167,-2.46142 5.60282,-4.20212 7.23371,-5.23267 3.35148,-2.46115 5.5327,-4.86251 6.52304,-7.19349 a 21.024585,21.024585 0 0 0 0.56039,-0.13017 c 0.47016,-0.0199 0.73025,-0.0299 0.80036,-0.05 -0.0201,-0.09 0.0201,-0.13997 0.11007,-0.16007 0.75036,-0.0799 0.39026,0.05 0.87048,-0.0601 l 1.26047,-0.28999 c -0.0799,0.0199 -0.11006,0.0601 -0.09,0.13997 l 0.18998,-0.12012 c -0.04,0 -0.0699,-0.01 -0.10002,-0.0199 l 0.21008,-0.05 -0.10001,0.0601 c 0.14023,0.0198 0.29025,0.01 0.46037,-0.0302 l 0.09,0.37016 -5.73272,9.11463 -1.2708,1.59067 -0.62018,2.08095 0.12012,-0.0299 0.62018,-0.26008 -0.20002,0.81042 0.0601,0.23997 0.16986,0.21008 c -0.0799,0.0201 -0.1098,0.0701 -0.09,0.16007 l 0.0302,0.13018 0.26008,-0.0601 c 0.38021,-0.3302 0.54028,-0.63024 0.48022,-0.90038 0.4101,0.0699 0.68024,0.10001 0.82047,0.0601 l 0.0299,0.12991 c -0.25003,0.0601 -0.38021,0.26009 -0.40031,0.60034 l 0.0302,0.13018 0.13996,-0.0302 c 2.08122,-2.27118 7.1837,-10.0449 11.27575,-15.31752 -0.13017,-0.57017 2.00078,-1.36075 6.40292,-2.38125 l 0.14023,-0.0299 c 0.16007,0.6903 -0.18018,2.36115 -1.0205,5.01254 -0.54028,1.60072 -0.80037,2.48126 -0.76041,2.62122 -0.70036,2.13096 -1.03056,3.28163 -0.9906,3.46181 l -1.56078,5.11228 c -1.01044,2.62149 -1.78065,5.37289 -2.32093,8.27431 0.09,-0.0201 0.22993,-0.0101 0.43022,0.04 l 0.21987,-0.19024 c 0.0201,0.0902 0.0802,0.12012 0.17012,0.10001 l -0.09,-0.37015 0.68025,-0.0198 c 0.20002,-0.05 0.37015,-0.3003 0.51038,-0.76041 -0.0302,-0.6903 0.11007,-1.06045 0.42016,-1.14062 0.42016,-1.64068 0.68024,-2.46116 0.77046,-2.49132 0.39,-1.63063 0.68025,-2.56117 0.87022,-2.79135 0.59055,-2.1209 1.0205,-3.21152 1.30069,-3.28163 l 0.0601,0.26035 -0.43021,1.11045 c -0.75036,3.33164 -1.51077,5.96292 -2.28097,7.89385 l 0.22013,0.96044 0.13996,-0.0299 c 1.86082,-4.00209 4.54211,-11.92583 8.03381,-23.77176 0.10028,-1.0406 0.60034,-1.85102 1.49093,-2.4212 l -0.20029,-0.21008 -0.0299,-0.11006 c 0.40032,-0.09 0.68024,-0.25003 0.84032,-0.47017 -0.0198,-0.0902 -0.37015,-0.22013 -1.0504,-0.40031 l 1.74096,-7.46363 c 0.37994,-0.34026 0.60008,-0.52017 0.67019,-0.52017 l 0.0302,0.3802 c -0.0902,0.01 -0.23019,0.0598 -0.39026,0.16986 l 0.3302,0.47043 c 0.60008,-0.65034 1.25042,-1.21073 1.96083,-1.68089 0.3601,0.10001 0.54028,0.22013 0.56039,0.34025 l 0.26008,-0.0201 c 1.98094,-1.45071 3.92192,-2.49132 5.83274,-3.12155 l 0.0201,0.25003 c -0.35004,0.53022 -0.59029,0.80036 -0.72046,0.81042 0.0201,0.18018 0.0701,0.34025 0.16007,0.48022 0.0302,0.3302 -0.83026,2.53126 -2.59106,6.61326 -4.0222,9.45462 -7.39378,16.44808 -10.13513,20.99045 0.0101,0.09 0.0701,0.21008 0.18018,0.37015 0.67019,-0.16007 1.1004,-0.3302 1.27053,-0.49027 l 0.12012,-0.0101 0.0201,0.2503 0.27993,-0.0201 0.25029,-0.13017 c 0.01,0.0701 0.10002,0.10027 0.27014,0.0902 l 0.0198,0.27014 c 0.0201,0.23998 -0.11986,0.62018 -0.43022,1.14035 -0.28998,0.31036 -0.59028,0.96071 -0.91043,1.95104 l 0.0101,0.13018 0.26008,-0.0201 c 1.09061,-1.22052 1.92088,-2.4212 2.49132,-3.60177 3.1914,-0.94033 5.62266,-1.85077 7.30356,-2.75141 1.71079,-0.15002 3.00143,-0.59028 3.88196,-1.33059 l -0.0101,-0.12991 -0.65035,0.18997 -0.13996,0.0101 -0.0101,-0.13018 c 1.24064,-0.17991 2.11112,-0.46011 2.58128,-0.83026 2.4212,-1.86108 4.25212,-3.19167 5.49275,-3.97192 3.86186,-2.81147 5.66261,-5.51286 5.44248,-8.10419 z m -0.66014,0.17013 0.09,1.01044 c -0.12012,0.2503 -0.25003,0.38021 -0.37015,0.39026 l -0.15002,-1.72085 c 0.27993,0.10001 0.42016,0.20002 0.43021,0.32015 z m -75.75735,-8.14388 -0.17012,0.01 -0.0299,-0.31009 0.6903,-0.0601 0.0101,0.16007 c -0.11007,0.0101 -0.28019,0.0701 -0.50033,0.20029 z m -3.37158,33.72644 c -0.40032,-0.17992 -0.76042,-0.25003 -1.07051,-0.22014 l -0.0402,-0.49027 c -0.0198,-0.18997 0.0902,-0.32014 0.3302,-0.37015 0.22013,-0.0198 0.3503,0.14023 0.37015,0.46037 0.58049,-0.7104 0.90064,-1.0705 0.9607,-1.08055 l 0.37015,0.15001 c -0.12012,1.00066 -0.43021,1.51078 -0.92048,1.55073 z m 36.02778,-37.68857 c -0.17013,0.0201 -0.51038,-0.51012 -1.00065,-1.56078 l -0.0299,-0.31009 c 0.32014,-0.0299 0.65034,0.49027 1.00039,1.56077 z m -0.48048,-3.73169 -0.13997,0.3302 -4.89241,-2.04099 c 3.26152,0.11006 4.94242,0.68024 5.03238,1.71079 z m -20.65999,17.73873 -0.6903,0.0601 -0.0302,-0.31036 0.69029,-0.0598 z m -0.56039,-10.6553 0.17013,-0.0101 0.04,0.49028 c -0.16007,0.0101 -0.37015,0.25003 -0.63024,0.7104 l -0.0302,-0.34025 c 0.31036,-0.37015 0.47043,-0.65035 0.45032,-0.85037 z m -1.45071,3.42159 0.0601,0.65034 -0.17013,0.0101 -0.0601,-0.65035 z m -0.76041,1.22079 0.3302,-0.0302 c -0.0299,0.54028 -0.17992,0.83053 -0.45006,0.85037 l -0.17013,0.0101 c 0.21008,-0.3601 0.3101,-0.64029 0.28999,-0.83026 z m -0.57018,1.70074 0.18997,-0.0201 0.0101,0.16007 -0.31009,0.52044 -0.3302,0.0299 -0.0101,-0.16008 c 0.3302,-0.0299 0.48022,-0.20002 0.45032,-0.53022 z m -0.56039,1.53088 -0.10001,0.82021 -0.17013,0.01 -0.0699,-0.81042 z m -5.6126,15.95781 c -0.22014,1.12051 -0.46038,1.69069 -0.71041,1.7108 l -0.0101,-0.16008 c -0.0601,-0.55033 0.18018,-1.0705 0.72046,-1.55072 z m -1.03056,2.23097 0.0101,0.16007 c 0.0198,0.22013 -0.0802,0.35031 -0.3003,0.3601 l -0.01,-0.16007 c -0.0201,-0.18998 0.0799,-0.3101 0.30003,-0.3601 z m -0.30003,4.63232 0.52017,-0.05 0.0198,0.18018 c -0.12991,0.01 -0.30004,0.0799 -0.51012,0.20002 l -0.3302,0.0299 c -0.0201,-0.16986 0.09,-0.30004 0.30004,-0.3601 z m 14.80714,-4.57226 c -2.92153,1.44065 -4.64238,2.4212 -5.1525,2.93132 -3.1615,1.10066 -4.73234,1.78091 -4.70244,2.05105 -2.8112,1.11072 -4.66222,1.93119 -5.55254,2.44131 -0.21008,0.0201 -0.51038,-0.0601 -0.91043,-0.24024 -0.05,-0.57018 0.21007,-1.03029 0.76014,-1.40044 0.49028,-0.0402 0.96044,0.0299 1.41076,0.21986 0.52044,-0.27013 1.43087,-0.57017 2.72151,-0.89032 l -0.0302,-0.34025 -1.04034,0.0902 c 0.12991,-0.18018 1.1303,-0.65035 3.01122,-1.41076 l 0.52044,-0.05 0.01,0.16007 c -0.89058,0.0799 -1.38086,0.34025 -1.49092,0.81042 0.0201,0.21008 0.14023,0.30004 0.36036,0.28019 0.67019,-0.42042 1.00039,-0.67045 0.99034,-0.74057 1.27079,-0.23997 4.78234,-2.08095 10.53517,-5.51259 l 0.0302,0.31009 c 0.01,0.15002 -0.48022,0.57018 -1.47082,1.29064 z m -8.82439,2.90142 c 0.84059,-0.0701 1.56078,-0.41011 2.16112,-1.00039 0.23998,-0.0201 0.37015,0.0699 0.38021,0.27993 -0.41037,0.0402 -1.20068,0.3802 -2.35109,1.0406 l -0.17013,0.0101 z m 14.23697,-10.93549 -4.41219,3.49197 c -3.28163,2.15106 -5.04243,3.23135 -5.29246,3.25146 -5.22261,2.87152 -8.47408,4.36219 -9.73482,4.47225 l -0.18997,0.0199 c 0.16007,-0.59002 2.481,-5.34247 6.98341,-14.28697 1.98094,-0.17013 5.10249,-1.09035 9.35461,-2.77125 l 1.04034,-0.0902 c 2.15107,-0.18997 3.76185,0.23018 4.82256,1.23084 l 0.0598,0.65008 c -0.80036,2.30135 -1.68063,3.64199 -2.63128,4.03199 z m -8.62409,-4.8522 0.7104,-0.0601 0.01,0.16007 -0.71014,0.0601 z m 9.97479,-1.69095 0.52043,-0.05 c 0.48022,0.23019 0.73025,0.43022 0.75036,0.6104 l 0.01,0.16007 c -0.46011,0.04 -0.89032,-0.20002 -1.28058,-0.72046 z m 1.41076,-8.03381 c -0.46011,0.55007 -1.72085,1.49066 -3.78196,2.8112 -0.68024,0.0601 -3.21151,1.04061 -7.59354,2.96148 a 1.3864166,1.3864166 0 0 0 -0.70035,-0.11986 l -0.0302,-0.31035 c -0.05,-0.63024 0.23018,-1.42055 0.85037,-2.38099 0.34025,-1.80102 0.7104,-2.83157 1.12077,-3.0816 l 3.65178,-8.21399 c -0.0402,-0.51038 0.7403,-0.90064 2.34103,-1.17078 l 0.52017,-0.05 0.0402,0.47043 c 1.57057,-0.24024 2.55111,-0.3802 2.93132,-0.41037 2.90142,-0.25003 4.41219,0.34026 4.53231,1.75102 l 0.3302,-0.0302 -0.0701,-0.83026 0.3601,-0.0302 c 0.85037,0.47043 1.31074,1.04061 1.3708,1.71079 0.04,0.46038 -0.21008,1.03056 -0.74057,1.71107 -0.21987,0.0198 -0.35004,-0.14023 -0.37015,-0.46038 l -0.3601,0.0302 -0.0799,1.00039 c -1.47082,2.20107 -2.54132,3.33164 -3.20172,3.3917 -0.60034,0.83052 -0.9705,1.24063 -1.12051,1.25068 z m 2.24102,5.75284 c -0.30004,-0.20029 -0.54028,-0.29025 -0.7202,-0.2802 l -0.0402,-0.49027 0.3302,-0.0299 0.73052,0.43021 c 0.0299,0.22993 -0.0701,0.35005 -0.3003,0.37016 z m 2.32119,2.75113 c 0.32014,0.13018 0.51038,0.27014 0.55033,0.40032 l -0.16007,0.04 0.0101,0.0101 c -0.0302,0 -0.0701,0.0101 -0.10028,0.0201 l -0.23997,0.18997 z m 0.22013,1.38086 -0.0299,-0.13017 0.42016,-0.10001 0.0299,0.13017 z m 1.01044,1.13057 c 0.43022,-0.0701 0.64029,-0.10001 1.44066,-0.28019 l 0.0302,0.13017 -1.52082,0.35004 c 0.0201,-0.0701 0.04,-0.13996 0.05,-0.20002 z m 1.48088,0.63024 c -0.6403,0.0601 -0.50033,-0.0201 -1.52083,0.21008 l -0.0302,-0.12991 1.27079,-0.41037 0.6104,-0.13997 0.0598,0.23998 c -0.27014,0.0601 -0.0698,0.0601 -0.38999,0.23019 z m 1.35069,-0.32015 c -0.15028,0.04 -0.27014,-0.0299 -0.34025,-0.20002 l 0.39026,-0.0902 c 0.16986,-0.04 0.27993,0.0302 0.32015,0.20029 z m 3.66157,-3.94203 -0.0299,-0.12991 0.63024,-0.15002 0.0601,0.23998 z m 3.91213,23.99189 c 0.04,-0.18018 0.05,-0.31009 0.0299,-0.40031 l 0.14023,-0.0299 c 0.16986,-0.04 0.26987,0.0201 0.31009,0.18018 l 0.0299,0.12991 z m 2.74135,-22.96133 -0.28019,-0.05 c -0.45033,0.18018 -0.83053,0.31009 -1.14062,0.38021 l -0.26009,0.0601 c -0.15002,0.04 -0.27014,-0.0201 -0.3302,-0.18018 l 1.83092,-0.42016 0.60034,-0.2802 0.20002,0.23019 c -0.29025,0.0601 -0.50032,0.15002 -0.62018,0.26009 z m 1.41049,-0.45032 -0.0299,-0.12992 c 0.09,-0.0201 0.21007,-0.09 0.34025,-0.22013 l 1.30043,-0.30004 0.0302,0.12991 c -0.6903,0.17013 -1.24063,0.34026 -1.64095,0.52018 z m 0.20029,-2.63129 c -0.0902,0.0201 -0.21008,0.10028 -0.36036,0.22014 -0.0198,-0.09 -0.20002,-0.09 -0.54028,-0.01 -0.0598,-0.2503 0.90064,-0.60034 2.89163,-1.06072 l 0.27993,-0.0601 0.0601,0.24024 c -1.4007,0.41011 -2.18096,0.6403 -2.33098,0.67019 z m 3.50176,-3.78169 c -0.14023,1.59068 -0.70035,2.49132 -1.69095,2.72124 l -0.0299,-0.12991 -0.88053,0.33999 -0.39026,0.0902 c -0.20003,0.05 -0.38021,0.04 -0.54028,-0.0101 l -0.0799,-0.35031 c -0.0302,-0.12991 1.24063,-1.89097 3.8219,-5.27261 l 0.30004,0.0503 c 0.11007,0.46011 -0.0601,1.31048 -0.51012,2.56116 z m 6.19284,-5.30277 -0.11986,0.0101 -0.0201,-0.25003 0.52017,-0.05 0.0101,0.12991 c -0.09,0.0201 -0.22013,0.0701 -0.39026,0.16008 z m -2.55111,25.62277 c -0.3003,-0.14023 -0.57044,-0.20002 -0.80037,-0.18018 l -0.0302,-0.3802 c -0.0101,-0.12991 0.0701,-0.22014 0.24024,-0.27014 0.17013,-0.0199 0.27014,0.10001 0.28999,0.36036 0.43021,-0.55033 0.67045,-0.83053 0.72046,-0.83053 l 0.27014,0.11007 c -0.10002,0.76041 -0.3302,1.16046 -0.6903,1.19062 z m 27.35342,-28.61415 c -0.13018,0.0101 -0.38021,-0.39026 -0.77047,-1.20068 l -0.0198,-0.25003 c 0.25003,-0.0201 0.51011,0.37015 0.7702,1.17051 z m -0.3601,-2.86147 -0.12012,0.26008 -3.70179,-1.55072 c 2.47121,0.0802 3.75179,0.51038 3.82191,1.29064 z m -15.69773,13.47681 -0.52044,0.05 -0.0198,-0.2503 0.52017,-0.04 z m -0.43021,-8.09413 0.13996,-0.01 0.0299,0.3802 c -0.12991,0.0101 -0.28998,0.19024 -0.48022,0.54028 l -0.0198,-0.25003 c 0.23018,-0.29025 0.33999,-0.51038 0.3302,-0.6604 z m -1.09062,2.60138 0.04,0.49028 -0.13997,0.01 -0.0402,-0.49027 z m -0.59028,0.93054 0.26008,-0.0201 c -0.0299,0.42015 -0.13996,0.64029 -0.3302,0.6604 l -0.13996,0.01 c 0.15002,-0.27992 0.22013,-0.50006 0.21008,-0.65008 z m -0.42016,1.28059 0.12012,-0.0101 0.01,0.12991 -0.22992,0.40032 -0.26035,0.0201 -0.01,-0.13018 c 0.27014,-0.0201 0.38999,-0.16007 0.37015,-0.4101 z m -0.42016,1.16046 -0.0902,0.64029 -0.12012,0.0101 -0.05,-0.63024 z m -4.27222,12.13591 c -0.17013,0.84058 -0.35005,1.27079 -0.54028,1.29064 l -0.0101,-0.11007 c -0.0299,-0.42016 0.15002,-0.82021 0.55034,-1.18057 z m -0.79031,1.69095 0.01,0.11007 c 0.0201,0.17991 -0.0598,0.28019 -0.23997,0.28998 l -0.0101,-0.12991 c -0.0101,-0.13018 0.0701,-0.22013 0.24025,-0.27014 z m -0.22014,3.5216 0.40005,-0.0299 0.0101,0.12991 c -0.09,0.01 -0.23019,0.0601 -0.39026,0.15028 l -0.26009,0.0198 c -0.01,-0.13996 0.0701,-0.22992 0.24024,-0.27014 z m 11.23553,-3.47159 c -2.20107,1.09061 -3.51181,1.83091 -3.92192,2.21112 -2.40135,0.84032 -3.59171,1.36075 -3.57187,1.57083 -2.13095,0.85037 -3.53166,1.4605 -4.19206,1.85076 -0.16007,0.0101 -0.39026,-0.05 -0.6903,-0.18997 -0.04,-0.43021 0.16008,-0.78052 0.58023,-1.04061 0.38021,-0.0299 0.74031,0.0201 1.07051,0.16008 0.40031,-0.20003 1.09061,-0.42016 2.07116,-0.67019 l -0.0201,-0.2503 -0.82047,0.0601 c 0.10027,-0.13996 0.87047,-0.50033 2.30134,-1.08056 l 0.40005,-0.0299 0.0101,0.11007 c -0.68025,0.0601 -1.06045,0.26009 -1.14062,0.62018 0.0101,0.16008 0.11006,0.24025 0.28019,0.22014 0.50033,-0.3302 0.7403,-0.52017 0.7403,-0.58023 0.96044,-0.17013 3.62189,-1.57083 7.99413,-4.19206 l 0.0198,0.25003 c 0.0101,0.11007 -0.3601,0.43021 -1.11046,0.98055 z m -6.70322,2.20106 c 0.65009,-0.0601 1.20042,-0.31009 1.66079,-0.75035 0.16987,-0.0201 0.27014,0.0601 0.27993,0.22013 -0.30003,0.0299 -0.89032,0.28019 -1.78091,0.76041 l -0.13996,0.0101 z m 10.82517,-8.314 -3.33164,2.68129 c -2.49131,1.63063 -3.84175,2.4511 -4.05209,2.47121 -3.96187,2.18096 -6.42303,3.31152 -7.39352,3.39169 l -0.13996,0.0101 c 0.11985,-0.45032 1.89098,-4.06215 5.31257,-10.84554 1.49066,-0.12991 3.8518,-0.84032 7.09348,-2.1209 l 0.81041,-0.0701 c 1.63063,-0.13997 2.85142,0.18018 3.65178,0.95038 l 0.04,0.49027 c -0.6104,1.72085 -1.27053,2.7313 -1.99099,3.04165 z m -6.54315,-3.68194 0.52017,-0.05 0.0101,0.13018 -0.52018,0.05 z m 7.5737,-1.29064 0.40031,-0.0299 c 0.37016,0.17991 0.56013,0.34025 0.57018,0.47016 l 0.0101,0.11007 c -0.3503,0.0299 -0.6805,-0.15002 -0.98054,-0.55034 z m 1.05039,-6.09282 c -0.35004,0.42016 -1.30042,1.14035 -2.85115,2.14101 -0.52043,0.05 -2.44131,0.79031 -5.76289,2.23096 -0.16007,-0.0601 -0.34025,-0.0799 -0.53048,-0.0699 l -0.0198,-0.25029 c -0.04,-0.48022 0.17013,-1.08056 0.63024,-1.81081 0.26008,-1.3806 0.55033,-2.15106 0.85037,-2.33124 l 2.79135,-6.24311 c -0.0299,-0.37015 0.56039,-0.67019 1.76107,-0.90038 l 0.40005,-0.0299 0.0302,0.38021 c 1.18057,-0.19024 1.92088,-0.3003 2.22092,-0.3302 2.20106,-0.19024 3.35174,0.25003 3.4417,1.33059 l 0.26008,-0.0201 -0.05,-0.60034 0.26035,-0.0198 c 0.6403,0.35004 0.98029,0.77046 1.0205,1.27053 0.0299,0.36036 -0.15028,0.80036 -0.53049,1.31074 -0.16986,0.0198 -0.26987,-0.10001 -0.28998,-0.3601 l -0.26009,0.0199 -0.0802,0.75036 c -1.11046,1.69095 -1.92088,2.56143 -2.43126,2.60138 -0.45006,0.61039 -0.73025,0.92048 -0.86043,0.93054 z m 1.17079,4.16189 -0.0302,-0.3802 0.26009,-0.0198 0.56039,0.33999 c 0.01,0.16008 -0.0701,0.2503 -0.24025,0.27014 -0.23997,-0.15002 -0.42015,-0.22013 -0.55006,-0.21008 z m -46.57302,24.30198 -0.26009,0.0601 -0.22013,0.18997 c 0.04,0.16008 0.13997,0.22014 0.31009,0.18019 0.17013,-0.04 0.24024,-0.13997 0.20029,-0.30004 z m -0.99034,-1.97088 0.0299,0.12991 c 0.17013,-0.0399 0.23998,-0.13996 0.20003,-0.30004 l -0.0299,-0.13017 c -0.16007,0.0402 -0.23019,0.14023 -0.20003,0.3003 z m 7.04321,-16.75844 0.3003,-0.0699 -0.0601,-0.26009 -0.30003,0.0699 z m 90.78489,7.62397 c -3.04165,0.68024 -3.42185,0.56012 -4.06214,0.61013 l 0.0201,0.25029 0.2802,-0.0201 0.15002,-0.01 -0.04,-0.0299 0.32994,-0.13017 c 3.01149,-0.3302 3.3618,-0.21008 3.33163,-0.55034 z m -16.37823,2.1709 0.0201,0.2503 h 0.04 l -0.0198,-0.2503 z m -1.88093,-6.59315 -0.27014,-0.09 c -0.22013,0.59029 -0.3302,0.94033 -0.32014,1.04034 l 0.01,0.11007 c 0.21008,-0.0101 0.40032,-0.37015 0.58023,-1.06045 z m 18.87935,4.37224 0.0201,0.25003 0.44001,0.0799 -0.0199,-0.25003 z m -20.70021,2.531 -0.68024,-0.0799 -0.12012,0.26009 0.0101,0.13017 4.05183,-0.34025 -0.0198,-0.25003 z m -1.84097,-8.87412 -0.01,-0.13017 -0.14023,0.0101 -0.25003,0.16007 0.13996,0.23998 c 0.19024,-0.0198 0.2802,-0.11007 0.26009,-0.27993 z m 24.46205,4.50215 0.19024,-0.0201 c 0.11006,-0.0101 0.16007,-0.10001 0.15002,-0.26008 l -0.11007,-0.24025 c -0.6903,0.0601 -1.01045,0.0902 -1.57083,0.40032 l -0.0101,-0.12991 -0.83026,0.0799 c -0.0201,-0.25003 -0.09,-0.3802 -0.20002,-0.37015 l -0.43022,0.04 c -0.50032,0.04 -0.74057,0.0201 -0.9906,0.21008 -0.01,-0.09 -0.0399,-0.12991 -0.0899,-0.12991 l -0.48022,0.04 -0.2802,0.16008 c -0.01,-0.09 -0.0399,-0.13018 -0.0902,-0.13018 l -0.16986,0.15029 -0.0101,-0.13018 -0.67045,-0.05 -0.16007,0.0101 0.0201,0.25003 0.34026,0.09 0.32014,-0.0198 c 0.11007,0.0701 0.22993,0.09 0.37016,0.0799 l 0.28019,-0.13997 0.01,0.11007 c -1.57057,0.39026 -1.56078,0.32015 -2.64134,0.50033 -0.11985,-0.0802 -0.21007,-0.12012 -0.27014,-0.11007 l -0.0198,0.0198 c -0.12012,-0.0101 -0.19023,-0.09 -0.20002,-0.22013 l 0.56012,-0.0699 c 0.0399,0 0.0701,0.04 0.38021,0.10001 0.45032,-0.22013 0.47016,-0.31035 0.7104,-0.3302 l -0.0201,-0.25029 c -1.54067,0.3003 -0.92048,0.10027 -2.85141,0.27014 l -0.09,0.0101 -0.0201,-0.25003 c 2.48126,-0.30004 1.651,-0.13017 2.50137,-0.37015 0.0101,0.09 0.0399,0.12991 0.09,0.12991 a 0.58155416,0.58155416 0 0 1 0.34026,-0.16986 l 0.17012,-0.0101 c 0.87022,-0.0701 1.16046,0.10001 2.88131,-0.3802 l 0.0101,0.11006 0.28019,-0.14023 0.26009,-0.0198 c -0.0201,-0.2503 0.3601,-0.29025 0.49027,-0.3003 l -0.0201,-0.27014 c -3.02154,0.61039 -3.81185,0.44026 -4.65217,0.68051 l -0.01,-0.11007 c -0.79031,0.13996 -0.82047,0.0799 -1.0205,0.09 -0.0601,0.0101 -0.15002,0.0601 -0.25029,0.16007 -0.01,-0.09 -0.04,-0.13017 -0.10002,-0.13017 -0.0299,0 -0.0399,0.01 -0.05,0.01 l -2.56117,0.42016 c -0.01,-0.0699 -0.0399,-0.1098 -0.10001,-0.10001 -1.33059,0.28019 -0.97049,0.3302 -2.7514,0.49027 -0.0802,0.01 -0.18997,0.05 -0.3302,0.14023 -0.0101,-0.0701 -0.05,-0.11007 -0.13997,-0.10028 l -1.09061,0.0902 -0.73025,0.17992 c -0.0101,-0.0698 -0.05,-0.1098 -0.14023,-0.10001 -0.4101,0.11006 -0.7702,0.18018 -1.06045,0.20029 h -0.0201 c -0.17992,0.0198 0.0902,-0.05 -0.05,-0.11007 l -0.22014,0.12991 c -0.32014,0.0302 -0.15002,-0.0198 -1.25042,-0.0101 -1.93093,0.24024 -1.72085,0.27014 -1.93093,0.28019 l -0.72046,-0.05 c 0.0101,0.0701 -0.0299,0.12013 -0.11007,0.12013 -0.82047,-0.11007 -1.24063,-0.24025 -1.25068,-0.39027 0.11007,-0.78025 0.3003,-1.18057 0.57044,-1.20067 l 0.13997,-0.01 -0.12013,0.26008 0.14023,-0.01 c 0.26009,-0.13997 0.38021,-0.27014 0.37016,-0.39026 l -0.0201,-0.27014 -0.26009,0.0201 -0.0201,-0.25004 c -0.0198,-0.19023 0.0101,-0.36036 0.0802,-0.50032 l 0.59029,-0.95039 0.0201,0.25004 0.27993,-0.0201 -0.0198,-0.25003 -0.16007,-0.23019 c 0.21008,-0.17992 0.37015,-0.2802 0.50006,-0.28999 l -0.01,-0.13017 -0.3802,0.0302 -0.0302,-0.3802 c 0.76042,-1.58089 1.12051,-2.50137 1.10067,-2.76146 l 0.27014,0.11007 c 0.17013,-0.0101 0.25003,-0.11007 0.23998,-0.29025 l -0.26009,0.0201 -0.0101,-0.11007 a 0.95593957,0.95593957 0 0 1 0.10001,-0.53022 c 0.41037,-0.43022 0.60034,-0.86043 0.56039,-1.31075 0.0802,-0.0101 0.12012,0.0302 0.13017,0.12012 0.35005,-0.20002 0.62019,-0.73025 0.82021,-1.61078 0.62045,-1.12051 1.50072,-3.36153 2.65139,-6.71328 2.20107,-5.92296 2.11111,-6.5532 2.4212,-7.9539 l -0.26008,0.0198 c 0.0198,0.18018 -0.0201,0.35031 -0.10002,0.51038 -0.18018,-0.0701 -0.32014,-0.11006 -0.42015,-0.10001 l -0.0101,-0.11006 c -0.0402,-0.51039 0.17013,-1.12051 0.65035,-1.84098 l 0.11985,-0.01 0.22014,0.86043 0.26008,-0.0198 c -0.01,-0.0601 0.0601,-0.40031 0.20029,-1.03055 -0.01,-0.13018 -0.11006,-0.21008 -0.31035,-0.22013 l -0.25004,0.16007 c -0.0198,-0.18018 -0.0101,-0.65035 0.0201,-1.4007 l -0.13017,0.0101 c -0.22014,-0.22013 -0.3302,-0.40032 -0.34026,-0.55033 l -1.4306,0.13996 c -0.0101,-0.10001 -0.0601,-0.25003 -0.16007,-0.44 -0.0101,-0.13018 0.31009,-0.26035 0.97049,-0.39026 l 0.29025,0.11006 0.27014,-0.16007 c 0.01,0.09 0.0598,0.12991 0.15981,0.12012 l 0.27014,-0.16007 c 0.0101,0.09 0.0601,0.12991 0.16033,0.11986 l 0.12991,-0.01 -0.0201,-0.29025 c -0.20003,0.0201 -0.73025,0.0201 -1.57057,-0.0101 l -0.27014,0.18019 -0.0101,-0.16008 c -6.71327,0.55007 -10.52512,0.86043 -11.43555,0.95039 -0.12012,0.0101 -0.59029,0 -1.42081,-0.0201 0.0101,0.11006 -0.09,0.17012 -0.28999,0.19023 l -0.29025,-0.13017 -0.98054,0.25029 c -0.23019,0.0199 -0.62018,0.01 -1.16046,-0.05 -0.15002,0.11985 -0.3302,0.18997 -0.55034,0.21008 -0.12012,0.01 1.43061,-0.0802 2.87126,-0.18018 -0.15002,0.12012 -0.37994,0.18997 -0.70009,0.22013 -0.22013,0.0201 -0.41036,-0.0101 -0.57044,-0.10001 -0.22013,0.10001 -0.93027,0.26008 -2.1209,0.50006 l -0.29025,-0.1098 -4.68233,0.72019 c -0.18018,-0.09 -0.39026,-0.12012 -0.63023,-0.10001 -0.2503,0.0201 -0.67046,0.11007 -1.25069,0.27014 l -2.26113,0.94033 0.17013,0.28019 c 0.11007,-0.0101 0.27014,-0.0699 0.46011,-0.17991 l 0.80063,0.0699 -0.10028,0.75035 c -0.7403,0.3302 -1.17052,0.82048 -1.29064,1.44093 -1.11045,0.49 -1.66079,0.84031 -1.66079,1.05039 l 0.0101,0.13018 0.17013,-0.0101 0.30003,-0.16007 0.35031,0.42016 0.05,0.58023 c 0.0198,0.18018 -1.85103,4.11215 -5.59277,11.79592 -3.24167,7.40357 -4.94241,11.45566 -5.10248,12.18591 -1.11046,0.31009 -1.75102,0.76041 -1.94099,1.36075 0.0201,0.18997 0.35005,0.32015 0.99034,0.37016 l 0.0302,0.28998 -0.29025,0.48022 0.05,0.58049 c 0.0302,0.30004 0.84058,0.53023 2.43125,0.6903 -0.0101,-0.10001 0.0402,-0.16007 0.15002,-0.17013 0.0302,0.3601 -0.0699,1.06045 -0.30003,2.10106 l 0.17012,-0.0101 c 0.66014,-0.90038 0.97049,-1.52083 0.94033,-1.86082 l 0.14023,-0.0101 c 0.16007,-0.0101 0.3302,0.17012 0.53023,0.56012 -0.20003,0.0802 -0.90038,1.67084 -2.10106,4.78261 l 0.17013,0.27993 0.17012,-0.01 c 1.47056,-3.7219 2.39104,-5.783 2.77125,-6.17326 1.93093,-0.17013 5.27262,-0.51012 10.01501,-1.0205 l 0.30004,-0.17991 c 0.01,0.10001 0.0701,0.15001 0.18018,0.13996 l 0.31009,-0.0299 0.3003,-0.18018 c 0.01,0.10001 0.0698,0.15002 0.17992,0.13997 l 3.59172,-0.3101 c 0.95064,-0.0799 1.4007,-0.37015 1.36075,-0.86042 -0.0101,-0.12991 0.55033,-0.28019 1.6809,-0.44027 0.11006,-0.0101 0.27014,0.0201 0.49027,0.0902 -0.0101,-0.0902 0.56012,-0.18019 1.70074,-0.2802 0.0302,-0.60034 0.22013,-0.92048 0.56039,-0.95038 l -0.0302,-0.29025 c -0.32015,0.0299 -0.68025,0.11007 -1.10041,0.25003 -0.75036,-0.04 -1.23057,-0.10001 -1.43086,-0.17013 -0.20003,0.11007 -0.35005,0.17013 -0.46011,0.18019 l -2.50137,0.0802 -0.30004,0.16008 c -0.0101,-0.0902 -0.0701,-0.13018 -0.18018,-0.12012 l -0.13997,0.0101 -0.32014,0.16007 c -0.0101,-0.0902 -0.27014,-0.16007 -0.79058,-0.23018 l -0.31988,0.18997 -0.62045,0.05 -0.01,-0.16007 c 3.22156,-0.35004 4.8125,-0.79031 4.77229,-1.31048 0.21034,-0.0201 0.32041,0.0799 0.34025,0.29025 l 0.9406,-0.24024 -0.0302,-0.29025 -7.71366,0.21008 c 0.01,0.10027 -0.0402,0.16007 -0.15002,0.17012 l -0.94059,-0.0799 c -0.24024,0.0198 -0.44027,0.09 -0.60034,0.21008 l -0.35005,-0.13018 c -0.97049,0.0802 -1.69095,0.20029 -2.17117,0.35031 -0.6604,-0.05 -1.39065,-0.0402 -2.20106,0.0299 l -1.73091,0.15002 -0.80036,-0.09 c -0.04,-0.51012 0.95038,-3.02154 2.99138,-7.52369 0.59055,-1.52083 1.13056,-2.47121 1.651,-2.83131 0.11006,-0.0101 0.27014,0.0299 0.49027,0.11986 l 1.23058,-0.42016 0.63023,0.10001 c 1.06045,-0.09 2.29103,-0.38999 3.70179,-0.91043 0.35031,-0.0299 0.61039,-0.01 0.80036,0.0701 l 0.9406,-0.22014 2.8014,-0.23997 c 1.19037,-0.10002 2.481,-0.36037 3.88171,-0.79058 l -0.0299,-0.28998 c -0.52017,0.05 -0.79031,-0.04 -0.81042,-0.2503 -0.0299,-0.38999 -0.4101,-0.55007 -1.14062,-0.49027 l -0.0299,-0.28998 0.77047,-0.22014 2.02089,-0.17012 -0.0302,-0.28999 c -0.0799,0.01 -0.49001,0 -1.25043,-0.0302 l -0.0302,-0.31009 0.78052,-0.0701 c 0.21008,-0.0198 0.30004,-0.12012 0.2802,-0.32014 -1.05066,0.0302 -1.58089,-0.0198 -1.59094,-0.16008 -7.32367,0.3601 -10.99529,0.43022 -11.0154,0.20003 -0.11007,0.0101 -0.26009,0.0802 -0.46011,0.20029 l -0.19024,-0.3003 c 1.94099,-4.12195 3.08161,-6.20289 3.41181,-6.23306 0.01,0.16008 -0.0701,0.42016 -0.2503,0.77047 l 0.0101,0.12991 0.3101,-0.0299 c 0.77046,-1.84097 1.42081,-2.79135 1.96109,-2.8313 2.30108,-0.20029 -0.32015,-0.35031 4.60216,-1.12051 0.20029,0.0899 0.34025,0.12991 0.44027,0.11985 1.93093,-0.38999 4.62227,-0.80036 8.07402,-1.22052 l -0.0201,-0.29025 -1.84097,0.17013 -0.0198,-0.28999 c 0.22013,-0.0201 0.40005,-0.0902 0.55033,-0.21007 l 0.01,0.16007 c 0.10028,-0.0101 0.24024,-0.0802 0.42042,-0.20029 0.32015,-0.0299 0.56013,0 0.73025,0.0902 0.6403,-0.17013 1.16047,-0.27014 1.54067,-0.31035 l 1.15068,-0.11007 c 0.28019,-0.17992 0.4101,-0.33999 0.40031,-0.49001 l -0.01,-0.13017 c -0.29025,0.0299 -0.62045,0.0101 -1.01045,-0.0601 -0.0101,-0.16007 0.0698,-0.27013 0.26009,-0.32014 l 2.14101,-0.20003 0.98054,-0.25029 c 0.01,0.11006 0.0601,0.15028 0.13997,0.15028 0.10001,-0.0101 0.24024,-0.0802 0.42015,-0.20029 0.05,0.0101 0.11007,0.0101 0.16008,0.0201 -0.12991,0.27014 -0.2802,0.6604 -0.43021,1.17052 l -0.2802,0.0201 c -0.0198,-0.19024 -0.0698,-0.3601 -0.16007,-0.51039 l -0.13997,0.0101 c -2.60138,7.2435 -3.76184,10.61535 -6.16294,16.17795 -0.44026,1.42081 -0.81041,2.21112 -1.13056,2.38125 0.0101,0.16007 0.11007,0.23997 0.28019,0.22013 0.0598,0.70035 -0.10027,1.39065 -0.49027,2.07089 -1.11072,3.20173 -1.85102,4.95247 -2.23123,5.27262 l 0.25003,1.51077 c 0.01,0.16007 -0.0699,0.25003 -0.23998,0.27014 l -0.26008,0.0201 c -0.0402,-0.42042 -0.19024,-0.62045 -0.46038,-0.59029 l -0.13996,0.0101 c -0.34026,0.53022 -0.60034,1.14035 -0.77047,1.85076 l 0.26009,-0.0201 c 0.35031,-0.22992 0.51038,-0.50006 0.48022,-0.81042 l 0.52043,-0.05 0.30004,0.11007 c -0.23998,0.38021 -0.35004,0.68051 -0.3302,0.91043 l 0.14023,0.24024 -0.34026,0.80037 0.0101,0.13017 c 0.30004,-0.0302 0.63024,0.0699 0.98054,0.27993 0.23998,-0.0198 0.50007,-0.12991 0.79031,-0.32014 0.30004,-0.0299 1.42055,-0.04 3.35175,-0.04 l 0.97022,-0.3302 c 1.18084,-0.0101 1.37081,0.0201 2.39131,-0.0699 l 0.42016,-0.0402 0.22013,-0.15002 0.0101,0.13017 c 1.07051,-0.0902 1.14062,-0.0201 1.98094,0.0799 l 0.01,0.13017 -0.59028,0.05 0.0198,0.25003 c 0.18018,-0.0198 0.34026,-0.0701 0.47043,-0.17992 0.15002,-0.01 0.23998,0.0699 0.25003,0.25004 -0.23998,0.0201 -0.51012,0.0799 -0.81042,0.18018 l -0.26008,-0.0902 c -0.41011,0.11007 -0.32015,0.14023 -0.60034,0.16008 l -0.41011,-0.0799 c 0.0101,0.0699 -0.0302,0.11986 -0.10001,0.11986 0.01,0.16034 0.10001,0.24024 0.25003,0.23019 l 0.42016,-0.04 2.19102,-0.19023 0.83052,-0.17992 c 0.0101,0.0701 0.0399,0.11007 0.11007,0.10001 l 0.40005,-0.15001 0.75062,-0.0601 c 0.58023,-0.05 0.57018,-0.09 1.83065,-0.29025 -0.01,-0.0799 0.0201,-0.11007 0.0802,-0.11986 l 0.0101,0.1098 c 2.05105,-0.35004 2.18096,-0.37015 2.51116,-0.48022 l 0.0299,0.0601 c 0.51038,-0.11985 0.22013,-0.0899 0.36036,-0.18997 0.0101,0.09 0.04,0.12991 0.09,0.12991 l 0.36009,-0.0299 -0.0198,-0.27014 -0.73051,-0.0101 -0.01,-0.0198 c -0.0302,0.01 -0.0503,0.01 -0.0802,0.0198 h -0.10002 v 0.0201 c -0.49027,0.10001 -0.50032,0.0299 -0.82047,0.0601 l -1.83091,0.10001 -0.0101,-0.13017 1.0205,-0.13997 0.37015,-0.0302 0.21034,-0.15002 0.01,0.13018 c 1.44093,-0.12012 1.95104,0.23998 8.61431,-1.18057 0.3601,-0.0302 0.3302,-0.3302 0.56039,-0.95065 a 0.62282916,0.62282916 0 0 1 -0.35031,-0.0799 c -0.55007,0.21007 -0.84032,0.11006 -1.90077,0.28019 -0.0902,0.01 -0.16007,-0.0701 -0.19023,-0.23019 l -0.0101,-0.11006 1.0205,0.0299 c 0.19023,-0.0198 0.56039,-0.05 1.11072,-0.36009 0,0.0902 -0.20029,0.14022 -0.0802,0.13017 z m -49.26409,0.79031 -0.47043,0.04 c -0.0198,-0.18997 0.23019,-0.91043 0.75036,-2.14101 l 0.31035,-0.0299 c 0.0101,0.28998 -0.18018,1.00039 -0.59028,2.13095 z m 0.57018,-2.28097 -0.0101,-0.13018 c -0.0101,-0.16007 0.0902,-0.27014 0.31036,-0.32014 l 0.01,0.12991 c 0.0101,0.19023 -0.09,0.3003 -0.31009,0.32041 z m 6.25316,4.83235 0.0101,0.12991 -0.78052,0.0701 -0.0101,-0.13017 z m -0.9406,-0.0802 c 0.0101,0.16007 -0.22992,0.34025 -0.75035,0.52017 l -0.96044,-0.0699 -0.31009,0.0299 -0.0299,-0.28999 z m 6.32328,-29.10417 -0.47043,0.04 -0.01,-0.16007 c -0.0101,-0.16007 0.0799,-0.27014 0.27993,-0.32014 l 0.17013,-0.0101 0.32014,0.12991 c 0.0101,0.19024 -0.0799,0.3003 -0.28998,0.32041 z m 7.15354,-1.4007 0.15002,-0.0101 0.0198,0.28999 -0.43021,0.0402 c -0.01,-0.16007 0.0701,-0.27014 0.26035,-0.32014 z m -1.80102,0.63024 -0.7104,-0.0802 -0.0101,-0.12991 c 0.93054,-0.0802 1.24063,-0.18018 1.81107,-0.34026 0.0101,0.11007 0.11007,0.15002 0.28999,0.13018 l 0.0201,0.28998 -0.2802,0.0302 c -0.22013,0.0198 -0.4101,-0.0101 -0.57018,-0.10001 -0.17012,0.11007 -0.3503,0.17992 -0.55033,0.20003 z m 0.89059,2.59132 -0.0101,-0.13017 1.15041,-0.11007 0.0101,0.13018 z m 1.23058,-1.00065 -0.0101,-0.16007 0.56012,-0.05 0.0101,0.16007 z m 0.12991,-1.96083 -0.15002,0.0101 0.13017,-0.31036 1.28059,-0.11985 0.0101,0.16007 c -0.3302,0.0299 -0.76041,0.11985 -1.27079,0.26008 z m 0.65034,2.7612 -0.0201,-0.28999 0.56039,-0.05 c 0.19024,-0.0201 0.29025,0.0699 0.3003,0.27014 z m 3.3917,-4.62228 -0.72046,0.20029 -0.12991,0.01 c -0.34026,0.0302 -0.78053,0.0201 -1.3007,-0.0299 0.93054,-0.0601 1.82087,-0.13018 2.15107,-0.18019 z m -0.77047,3.20173 0.0101,0.12991 -0.99033,0.0902 -0.0101,-0.13017 z m 1.62084,0.7702 c -0.0101,-0.11986 -0.20003,-0.20003 -0.59029,-0.23998 l -0.99033,0.2802 -0.76042,0.0299 c -0.17012,-0.12012 -0.26008,-0.20002 -0.27014,-0.26008 l 0.88054,0.05 1.98093,-0.32014 1.01045,0.04 0.0101,0.16007 c -0.50033,0.05 -0.92048,0.14023 -1.27079,0.26009 z m 10.19519,-2.63128 c 0.11985,0.0101 0.20002,0.0101 0.22992,0.0101 0.35031,-0.33999 0.74057,-0.61013 1.19062,-0.80036 -0.36009,1.58088 -0.92048,2.7514 -1.69068,3.51181 l -0.56039,-0.34025 c 0.47016,-1.19063 0.75036,-1.98094 0.83053,-2.38125 z m -1.72085,2.95169 0.13996,-0.01 c -0.19023,0.36009 -0.3601,0.55006 -0.50033,0.56012 l -0.0299,-0.38021 c 0.0899,0 0.22013,-0.0601 0.39026,-0.16986 z m -1.11072,2.65112 c 0.27014,-1.08055 0.53022,-1.69068 0.77046,-1.85076 l 0.0101,0.12991 c -0.14023,1.00066 -0.36037,1.53088 -0.65035,1.57084 l 0.05,0.63023 c -0.24024,0.34026 -0.35031,0.60034 -0.34026,0.80037 l -0.13996,0.0101 -0.0802,-0.87048 c 0.16007,-0.0198 0.29025,-0.16007 0.38021,-0.42016 z m -0.43022,1.44066 c 0.0101,0.15028 -0.09,0.50033 -0.28998,1.04061 l -0.14023,0.0101 -0.0299,-0.3802 c 0.18997,-0.44027 0.35005,-0.6604 0.46011,-0.67046 z m -8.07376,23.4315 -0.0101,-0.1098 0.26008,-0.0201 0.0299,0.38021 c -0.13996,0.0101 -0.23998,-0.0701 -0.27993,-0.2503 z m 11.53557,0.3003 c -0.01,-0.09 -0.05,-0.13017 -0.13996,-0.12012 l -0.65035,0.0601 -0.0101,-0.13017 h 0.0601 l 1.54067,-0.12991 0.0101,0.12991 c -0.45032,0.0201 -0.72046,0.0902 -0.81042,0.19023 z m -0.77047,-0.32014 c 0.0601,0.0299 0.0302,0.0601 0,0.0799 -0.0299,-0.01 -0.0699,-0.04 0,-0.0799 z m 0.0802,-1.80102 -0.86042,0.0701 -0.0101,-0.13017 0.78026,-0.0698 0.68051,-0.17013 c 0.01,0.0799 0.05,0.11007 0.13996,0.10001 0.81042,-0.13996 0.73052,-0.17991 1.12051,-0.21008 0.13018,-0.0101 0.21035,0.0701 0.22014,0.23019 z m 3.01149,-0.26009 c -0.48022,-0.05 -0.51038,-0.09 -0.85037,-0.0601 l -0.01,-0.11006 0.7702,-0.0699 0.01,0.11006 c -0.0799,0.0101 0.21008,0.0299 0.0802,0.12991 z m 0.0601,-0.13996 -0.0101,-0.11007 0.42016,-0.04 0.01,0.11007 z m 0.93028,-0.0802 -0.01,-0.11007 c 0.0699,-0.01 0.16986,-0.0598 0.30003,-0.16007 0.21008,-0.0198 0.32015,0.12012 0.34026,0.28019 z m 1.19062,-0.15002 -0.01,-0.12991 0.51038,-0.0402 0.0101,0.13018 z m 0.71041,-0.0601 c -0.0101,-0.15002 0.05,-0.23998 0.18018,-0.26008 l 0.16986,0.22013 c -0.01,-0.0701 0.0201,-0.11007 0.0802,-0.12012 l 0.13018,0.24024 z m -7.55359,3.26178 -0.0201,-0.25029 -0.0802,0.01 0.0201,0.25003 z m 17.57865,-4.55242 c 0.0799,-0.05 0.11986,-0.10001 -0.0701,-0.12991 -0.0902,0.10002 0.10001,0.12991 -0.10002,0.13997 l 0.01,0.09 c 0.0201,-0.0198 0.0701,-0.05 0.11007,-0.0799 l -0.11007,0.09 v 0.01 l -0.21008,0.27014 0.42016,-0.15002 h 0.0503 l -0.0201,-0.25029 z m 0.73025,0.57044 -0.0802,0.0101 0.0201,0.25003 0.59028,-0.05 c -0.01,-0.16007 -0.40031,-0.21008 -0.53022,-0.21008 z m -0.91043,-0.44026 0.0101,-0.0101 v -0.01 c 0,0 -0.0101,0.01 -0.0101,0.0201 z"
           id="path943" />
        <g
           id="g966">
          <path
             id="path945"
             d="m 330.40381,152.6952 0.01,0.16008 0.3302,-0.0299 c -0.0101,-0.10002 0.0299,-0.26009 0.10001,-0.46038 l -0.0299,-0.28998 c -0.14022,0.0101 -0.28019,0.22013 -0.41036,0.62018 z m -3.16151,-7.60359 -0.0299,-0.29025 -0.47043,0.04 0.0302,0.29025 z m -9.17443,17.17833 c -0.0201,-0.27014 -0.86042,-1.32053 -2.52121,-3.17156 -0.0302,-0.33999 0.54028,-0.85037 1.71079,-1.52056 l 3.34169,-2.91147 c 0.75036,-0.95065 1.19036,-2.49132 1.32054,-4.63233 l -0.04,-0.49027 c -0.13017,-1.48087 -1.20067,-2.67123 -3.23162,-3.58166 -1.20068,-0.81042 -3.36179,-1.26074 -6.48308,-1.34091 -2.58128,0.22013 -5.95313,1.14062 -10.10497,2.77151 -1.14062,0.82047 -2.44131,1.64068 -3.90207,2.46115 l 0.0201,0.2503 c 0.09,-0.0101 0.22992,-0.0601 0.39026,-0.17013 0.16986,-0.0201 0.27014,0.0601 0.27993,0.22013 l 0.25029,-0.13017 0.11986,-0.0101 0.0101,0.11007 c 0.0101,0.13018 -0.89032,0.84032 -2.71118,2.11111 l 0.13996,0.26009 -0.12012,0.0101 -0.30004,-0.11007 c 0.0101,0.09 -0.12012,0.15002 -0.37015,0.17013 l 0.0101,0.11007 0.28999,0.3601 c -0.09,0.0101 -0.22993,-0.0299 -0.42016,-0.10002 -0.42016,0.04 -0.83053,0.26009 -1.24063,0.68025 l 0.17013,-0.74031 c 0.61039,-2.63128 1.03055,-4.96252 1.25068,-6.98341 l -0.0302,-0.13017 c -0.42016,-0.27014 -0.83026,-0.65035 -1.21047,-1.13057 0.0101,-0.31009 0.0101,-0.49027 0,-0.53022 l -0.0302,-0.11007 -0.11986,0.0302 c -1.3208,1.98094 -3.86212,5.36258 -7.63376,10.14492 -2.87152,3.40175 -4.35239,5.29246 -4.44235,5.67267 -1.17052,1.21073 -1.73091,1.94098 -1.67085,2.19128 -0.31009,0.20002 -0.44026,0.40005 -0.38999,0.62018 -0.0902,0.0201 -0.15028,-0.0101 -0.17013,-0.10001 -0.50033,0.81042 -1.24063,1.33059 -2.23123,1.56077 l -1.04061,0.23998 c -0.13996,0.0302 -0.21008,0.13018 -0.20002,0.3003 l 0.0302,0.12991 0.39,-0.09 0.0302,0.11006 -0.88053,0.34026 -1.56078,0.36009 -0.82021,0.05 c -0.12012,0.12012 0.65008,-0.0101 0.35004,0.0601 l -1.02049,0.24024 c -0.62019,0.13997 -0.96044,0.09 -1.0205,-0.16007 l -0.12012,0.0299 c 0.0201,0.11006 0.0302,0.18997 0.0101,0.26008 l -0.0601,-0.25003 -0.82047,0.18997 c -0.0598,-0.3802 -1.17052,-1.7608 -3.32158,-4.14205 -0.04,-0.46011 0.72046,-1.13056 2.27118,-2.00078 l 4.38203,-3.85207 c 0.98055,-1.26047 1.56078,-3.28162 1.75101,-6.06292 l -0.0601,-0.65035 c -0.17012,-1.96083 -1.59067,-3.54171 -4.26217,-4.76224 -1.58062,-1.0705 -4.42198,-1.64094 -8.52408,-1.7309 -3.40175,0.28998 -7.84384,1.50072 -13.30669,3.61183 -1.50072,1.09035 -3.21151,2.1709 -5.13239,3.24141 l 0.0299,0.34025 c 0.13018,-0.0101 0.3003,-0.0799 0.51038,-0.20002 0.22014,-0.0201 0.34026,0.0799 0.3601,0.28019 l 0.34025,-0.19023 0.17013,-0.0101 0.01,0.16007 c 0.0101,0.16008 -1.18057,1.09062 -3.59172,2.79136 l 0.19024,0.3003 -0.17013,0.0101 -0.37015,-0.13017 c 0.01,0.10001 -0.16007,0.17013 -0.51038,0.20002 l 0.0201,0.18019 0.40005,0.44026 c -0.12991,0.0101 -0.3101,-0.0302 -0.54002,-0.11006 -0.78052,0.0699 -1.54093,0.63023 -2.29129,1.69068 l 0.19024,0.30031 c 0.65034,-0.60034 1.03028,-0.90038 1.14035,-0.91044 l 0.0402,0.49028 c -0.11007,0.01 -0.2802,0.0799 -0.51039,0.20002 l 0.41037,0.62019 a 13.560425,13.560425 0 0 1 2.61118,-2.19102 c 0.47016,0.12012 0.72046,0.27014 0.73025,0.43021 l 0.36036,-0.0299 c 2.58127,-1.91109 5.13239,-3.29169 7.66366,-4.14206 l 0.0302,0.33999 c -0.47043,0.70036 -0.79058,1.06072 -0.9607,1.08056 0.0201,0.24024 0.10027,0.45032 0.25029,0.6305 0.04,0.43022 -1.11072,3.33164 -3.4417,8.69421 -5.29272,12.46611 -9.73481,21.69054 -13.34664,27.65346 0.0101,0.12012 0.0802,0.28019 0.21008,0.48022 0.89059,-0.21008 1.45071,-0.42995 1.69095,-0.6403 l 0.18997,-0.0198 0.0302,0.33999 0.32994,-0.0299 0.34025,-0.18997 c 0.0101,0.10001 0.12012,0.15002 0.35031,0.12991 l 0.0299,0.34026 c 0.0299,0.3302 -0.16007,0.83026 -0.56039,1.52056 -0.3601,0.41037 -0.75036,1.27079 -1.16046,2.58154 l 0.0101,0.1598 0.3302,-0.0299 c 1.44066,-1.61079 2.53127,-3.19167 3.28163,-4.73234 4.20211,-1.23058 7.40357,-2.44131 9.62475,-3.63167 2.23097,-0.19024 3.93171,-0.78052 5.09243,-1.75101 l -0.0201,-0.17992 -0.84032,0.25003 -0.19024,0.0201 -0.0198,-0.18018 c 1.64068,-0.25003 2.77125,-0.6104 3.40175,-1.11046 3.1914,-2.46142 5.60255,-4.20211 7.23344,-5.23266 3.35174,-2.46116 5.5327,-4.86252 6.5233,-7.19349 0.17992,-0.0402 0.3601,-0.0802 0.56013,-0.13018 0.47016,-0.0198 0.73051,-0.0299 0.80036,-0.05 -0.0198,-0.09 0.0201,-0.13996 0.11007,-0.16007 0.75036,-0.0799 0.39026,0.05 0.87048,-0.0601 l 1.26074,-0.28998 0.21008,-0.0503 -0.10002,0.0601 c 0.13997,0.0201 0.28999,0.0101 0.46011,-0.0299 l 0.09,0.37015 -5.73272,9.11437 -1.27053,1.59094 -0.62045,2.08095 0.12012,-0.0299 0.62018,-0.26009 -0.20002,0.81042 0.0601,0.23998 0.17012,0.21008 c -0.0802,0.0201 -0.11006,0.0701 -0.0902,0.16007 l 0.0302,0.13017 0.26009,-0.0601 c 0.38021,-0.3302 0.54028,-0.63023 0.48022,-0.90037 0.4101,0.0699 0.68024,0.10001 0.82047,0.0601 l 0.0299,0.12991 c -0.25003,0.0601 -0.38021,0.26008 -0.40005,0.60034 l 0.0299,0.12991 0.14023,-0.0299 c 2.08094,-2.27118 7.18343,-10.04491 11.27548,-15.31752 -0.13018,-0.57018 2.00104,-1.36075 6.40318,-2.38125 l 0.13997,-0.0299 c 0.16007,0.6903 -0.17992,2.36114 -1.0205,5.01253 -0.54028,1.60073 -0.80037,2.481 -0.76041,2.62123 -0.70036,2.13095 -1.03056,3.28162 -0.99034,3.46154 l -1.56078,5.11255 c -1.01071,2.62149 -1.78091,5.37262 -2.32119,8.27405 0.09,-0.0199 0.23019,-0.01 0.43022,0.0402 l 0.22013,-0.19023 c 0.0198,0.0902 0.0799,0.12012 0.17013,0.10001 l -0.0902,-0.37015 0.68051,-0.0198 c 0.20003,-0.05 0.37015,-0.3003 0.51012,-0.76041 -0.0299,-0.6903 0.11006,-1.06045 0.42016,-1.14062 0.42015,-1.64068 0.6805,-2.46115 0.77046,-2.49131 0.39026,-1.63063 0.68025,-2.56117 0.87048,-2.79136 0.59029,-2.1209 1.0205,-3.21151 1.30069,-3.28163 l 0.0601,0.26009 -0.43021,1.11072 c -0.75062,3.33163 -1.51077,5.96291 -2.28124,7.89384 l 0.22014,0.96044 0.13996,-0.0299 c 1.86108,-4.00208 4.54237,-11.92609 8.03408,-23.77175 0.10001,-1.04061 0.60033,-1.85103 1.49066,-2.4212 l -0.20003,-0.21008 -0.0302,-0.11007 c 0.40031,-0.0902 0.68051,-0.25003 0.84058,-0.47016 -0.0201,-0.0902 -0.37015,-0.22014 -1.05066,-0.40032 l 1.74096,-7.46363 c 0.38021,-0.34025 0.60034,-0.52017 0.67019,-0.52017 l 0.0302,0.37994 c -0.09,0.0101 -0.23019,0.0601 -0.39026,0.17013 l 0.3302,0.47043 c 0.60034,-0.65035 1.25069,-1.21073 1.96083,-1.6809 0.36036,0.10001 0.54028,0.22013 0.56039,0.33999 l 0.26008,-0.0198 c 1.98094,-1.45071 3.92192,-2.49132 5.833,-3.12156 l 0.0199,0.25003 c -0.35005,0.53023 -0.59029,0.80037 -0.7202,0.81042 0.0198,0.18018 0.0699,0.34026 0.16008,0.48022 0.0299,0.3302 -0.83053,2.53127 -2.59133,6.61326 -4.02193,9.45462 -7.39378,16.44809 -10.13513,20.99046 0.0101,0.09 0.0701,0.21007 0.18018,0.37015 0.67045,-0.16008 1.10067,-0.3302 1.27079,-0.49028 l 0.11986,-0.0101 0.0201,0.25003 0.28019,-0.0198 0.25003,-0.13018 c 0.0101,0.0701 0.10001,0.10002 0.27014,0.0902 l 0.0201,0.27014 c 0.0198,0.23997 -0.12012,0.62018 -0.43021,1.14035 -0.29025,0.31036 -0.59029,0.9607 -0.91043,1.95104 l 0.01,0.13017 0.26035,-0.0201 c 1.09034,-1.22052 1.92087,-2.4212 2.49105,-3.60177 3.19167,-0.94033 5.62292,-1.85102 7.30356,-2.7514 1.71106,-0.15002 3.00143,-0.59029 3.88196,-1.33059 l -0.0101,-0.13018 -0.65035,0.19024 -0.13996,0.0101 -0.0101,-0.13017 c 1.24064,-0.18018 2.11111,-0.46011 2.58128,-0.83026 2.4212,-1.86108 4.25212,-3.19167 5.49275,-3.97219 3.86186,-2.8112 5.66288,-5.5126 5.44274,-8.10393 z m -0.6604,0.17013 0.09,1.01044 c -0.11986,0.2503 -0.25003,0.38021 -0.37015,0.39027 l -0.15002,-1.72085 c 0.28019,0.10001 0.42016,0.20002 0.43021,0.32014 z m -75.75735,-8.14387 -0.16986,0.01 -0.0302,-0.3101 0.69029,-0.0601 0.0101,0.16008 c -0.11007,0.0101 -0.2802,0.0701 -0.50033,0.20029 z m -3.37158,33.72643 c -0.40005,-0.18018 -0.76042,-0.25003 -1.07051,-0.22013 l -0.04,-0.49027 c -0.0201,-0.18997 0.09,-0.32015 0.3302,-0.37016 0.21987,-0.0198 0.35004,0.14023 0.37015,0.46038 0.58023,-0.71041 0.90038,-1.0705 0.96044,-1.08056 l 0.37015,0.15002 c -0.12012,1.00039 -0.43021,1.51077 -0.92048,1.55072 z m 36.02778,-37.68857 c -0.17013,0.0201 -0.51038,-0.51012 -1.00039,-1.56078 l -0.0302,-0.31009 c 0.32014,-0.0299 0.65034,0.49027 1.00039,1.56078 z m -0.48022,-3.73168 -0.14023,0.3302 -4.89241,-2.04126 c 3.26178,0.11006 4.94268,0.68051 5.03264,1.71106 z m -20.66025,17.73872 -0.6903,0.0601 -0.0299,-0.31035 0.6903,-0.0601 z m -0.56039,-10.6553 0.17013,-0.0101 0.0402,0.49027 c -0.16007,0.0101 -0.37015,0.25003 -0.6305,0.71041 l -0.0299,-0.34026 c 0.31009,-0.37015 0.47017,-0.65034 0.45006,-0.85037 z m -1.45071,3.42159 0.0601,0.65035 -0.16986,0.01 -0.0601,-0.65034 z m -0.76015,1.22079 0.3302,-0.0302 c -0.0302,0.54028 -0.18018,0.83053 -0.45032,0.85037 l -0.17013,0.0101 c 0.21008,-0.36009 0.31009,-0.64029 0.29025,-0.83026 z m -0.57044,1.70074 0.19023,-0.0201 0.01,0.16008 -0.31009,0.52043 -0.3302,0.0299 -0.01,-0.16007 c 0.3302,-0.0299 0.48022,-0.20003 0.45006,-0.53023 z m -0.56012,1.53088 -0.10002,0.82021 -0.17012,0.0101 -0.0701,-0.81041 z m -5.61287,15.95782 c -0.22014,1.12051 -0.46012,1.69068 -0.71041,1.71079 l -0.01,-0.16007 c -0.0601,-0.55033 0.17992,-1.0705 0.7202,-1.55072 z m -1.03056,2.23096 0.0101,0.16008 c 0.0201,0.22013 -0.0799,0.3503 -0.30004,0.36009 l -0.0101,-0.16007 c -0.0201,-0.18997 0.0799,-0.31009 0.30003,-0.3601 z m -0.30003,4.63233 0.52017,-0.05 0.0201,0.18018 c -0.13017,0.01 -0.3003,0.0799 -0.51038,0.20003 l -0.3302,0.0299 c -0.0198,-0.17013 0.0902,-0.30004 0.30031,-0.3601 z m 14.80714,-4.57227 c -2.92127,1.44066 -4.64212,2.42121 -5.1525,2.93132 -3.1615,1.10067 -4.73234,1.78091 -4.70217,2.05105 -2.81147,1.11072 -4.66249,1.93093 -5.55281,2.44131 -0.21008,0.0199 -0.51012,-0.0601 -0.91044,-0.24024 -0.05,-0.57018 0.21008,-1.03055 0.76042,-1.4007 0.49027,-0.04 0.96043,0.0302 1.41076,0.22013 0.52017,-0.27014 1.4306,-0.57018 2.72124,-0.89032 l -0.0299,-0.34026 -1.04061,0.09 c 0.12991,-0.17992 1.13057,-0.65008 3.01149,-1.41049 l 0.52017,-0.05 0.0101,0.16007 c -0.89032,0.0799 -1.38059,0.33999 -1.49066,0.81042 0.0198,0.21008 0.13997,0.30004 0.3601,0.27993 0.67045,-0.42016 1.00039,-0.67019 0.9906,-0.7403 1.27053,-0.23998 4.78234,-2.08095 10.53518,-5.5126 l 0.0299,0.3101 c 0.0101,0.15001 -0.48022,0.57017 -1.47082,1.29063 z m -8.82412,2.90142 c 0.84032,-0.0701 1.56078,-0.4101 2.16085,-1.00039 0.24024,-0.0201 0.37042,0.0699 0.38021,0.27993 -0.41011,0.0402 -1.20042,0.38021 -2.35109,1.04061 l -0.17013,0.01 z m 14.23696,-10.93549 -4.41219,3.50176 c -3.28163,2.15106 -5.04243,3.23162 -5.30278,3.25173 -5.22234,2.87126 -8.47407,4.36219 -9.73455,4.47225 l -0.19023,0.0198 c 0.16007,-0.59029 2.48126,-5.34247 6.98341,-14.28697 1.98093,-0.17013 5.10249,-1.09062 9.35461,-2.77125 l 1.0406,-0.0902 c 2.15107,-0.18997 3.76185,0.23018 4.8223,1.23057 l 0.0601,0.65035 c -0.79031,2.29129 -1.67084,3.63194 -2.62123,4.02193 z m -8.62436,-4.85219 0.71041,-0.0601 0.0101,0.16007 -0.71041,0.0601 z m 9.97506,-1.69095 0.52017,-0.05 c 0.48022,0.23019 0.73025,0.43021 0.75036,0.61039 l 0.0101,0.16008 c -0.46037,0.04 -0.89058,-0.20029 -1.28058,-0.72046 z m 1.41049,-8.03381 c -0.46011,0.55007 -1.72085,1.49066 -3.78168,2.81119 -0.68051,0.0601 -3.21178,1.04061 -7.59381,2.96149 a 1.3890625,1.3890625 0 0 0 -0.70035,-0.12012 l -0.0299,-0.3101 c -0.05,-0.63023 0.22992,-1.42054 0.85037,-2.38098 0.33999,-1.80102 0.71041,-2.83157 1.12051,-3.0816 l 3.65178,-8.21399 c -0.0399,-0.51038 0.7403,-0.90065 2.34103,-1.17078 l 0.52044,-0.05 0.0399,0.47043 c 1.57083,-0.24024 2.55111,-0.38021 2.93132,-0.41037 2.90168,-0.25003 4.41219,0.34025 4.53231,1.75101 l 0.3302,-0.0302 -0.0701,-0.83026 0.36036,-0.0302 c 0.85037,0.47017 1.31048,1.04061 1.37054,1.7108 0.04,0.46038 -0.21008,1.03055 -0.7403,1.71106 -0.22014,0.0198 -0.35031,-0.14023 -0.37016,-0.46037 l -0.36036,0.0302 -0.0799,1.00039 c -1.47082,2.20107 -2.54132,3.33163 -3.20146,3.39169 -0.60034,0.83026 -0.97049,1.24063 -1.12078,1.25069 z m 2.24129,5.75283 c -0.3003,-0.20029 -0.54028,-0.29025 -0.72046,-0.28019 l -0.04,-0.49027 0.3302,-0.0302 0.73025,0.43048 c 0.0302,0.22992 -0.0701,0.35004 -0.30004,0.37015 z m 2.32119,2.75114 c 0.32015,0.13017 0.51012,0.27014 0.55007,0.40031 l -0.16007,0.04 0.0101,0.01 c -0.0299,0 -0.0701,0.0101 -0.10001,0.0201 l -0.24024,0.18997 z m 0.21987,1.38086 -0.0299,-0.13017 0.42016,-0.10002 0.0302,0.13018 z m 1.01071,1.13056 c 0.43021,-0.0701 0.64029,-0.10001 1.44065,-0.28019 l 0.0299,0.12991 -1.52056,0.35031 c 0.0198,-0.0701 0.04,-0.13996 0.05,-0.20003 z m 1.4806,0.63024 c -0.64029,0.0601 -0.50032,-0.0201 -1.52082,0.21008 l -0.0299,-0.13017 1.28059,-0.41011 0.61039,-0.13996 0.0601,0.23997 c -0.28019,0.0601 -0.0802,0.0601 -0.40032,0.23019 z m 1.3507,-0.32014 c -0.15002,0.04 -0.27014,-0.0299 -0.34025,-0.20003 l 0.39026,-0.0902 c 0.17013,-0.0399 0.28019,0.0302 0.32014,0.20029 z m 3.66184,-3.94203 -0.0302,-0.12991 0.63051,-0.15028 0.0601,0.24024 z m 3.91186,23.99189 c 0.04,-0.18018 0.05,-0.3101 0.0299,-0.40032 l 0.14023,-0.0299 c 0.17012,-0.04 0.27014,0.0201 0.31009,0.18019 l 0.0302,0.12991 z m 2.74135,-22.96134 -0.2802,-0.05 c -0.45005,0.18018 -0.83026,0.31009 -1.14061,0.3802 l -0.26009,0.0601 c -0.15002,0.04 -0.27014,-0.0201 -0.3302,-0.18018 l 1.83092,-0.42016 0.60034,-0.28019 0.20029,0.23019 c -0.29025,0.0601 -0.50033,0.15001 -0.62045,0.26008 z m 1.41076,-0.45032 -0.0302,-0.12991 c 0.0902,-0.0201 0.21008,-0.09 0.34026,-0.22013 l 1.30069,-0.30031 0.0299,0.13018 c -0.6903,0.17013 -1.24063,0.34025 -1.64068,0.52017 z m 0.20002,-2.63128 c -0.09,0.0201 -0.21008,0.10001 -0.3601,0.22013 -0.0201,-0.09 -0.20002,-0.09 -0.54028,-0.0101 -0.0601,-0.25003 0.90038,-0.60008 2.89137,-1.06045 l 0.2802,-0.0601 0.0601,0.24024 c -1.40071,0.4101 -2.18123,0.64029 -2.33125,0.67019 z m 3.50176,-3.78169 c -0.13996,1.59067 -0.70035,2.49105 -1.69095,2.72124 l -0.0299,-0.12991 -0.88053,0.33999 -0.39,0.0902 c -0.20029,0.05 -0.3802,0.04 -0.54028,-0.0101 l -0.0802,-0.35031 c -0.0299,-0.12991 1.24063,-1.89098 3.8219,-5.27262 l 0.30004,0.05 c 0.11007,0.46037 -0.0598,1.31074 -0.51012,2.56143 z m 6.1931,-5.30278 -0.12012,0.0101 -0.0201,-0.25003 0.52043,-0.05 0.01,0.12991 c -0.09,0.0201 -0.21987,0.0701 -0.39,0.16007 z m -2.55137,25.62278 c -0.30004,-0.14023 -0.57018,-0.20029 -0.80037,-0.18018 l -0.0299,-0.38021 c -0.0101,-0.12991 0.0699,-0.22013 0.23998,-0.27014 0.17013,-0.0198 0.27014,0.10001 0.29025,0.3601 0.43021,-0.55007 0.67019,-0.83026 0.7202,-0.83026 l 0.27014,0.11006 c -0.10002,0.76042 -0.32994,1.16047 -0.6903,1.19063 z m 27.35342,-28.61416 c -0.12991,0.0101 -0.38021,-0.39026 -0.77021,-1.20068 l -0.0201,-0.25003 c 0.25003,-0.0201 0.51038,0.37015 0.77046,1.17052 z m -0.3601,-2.86147 -0.12012,0.26009 -3.70179,-1.55072 c 2.47121,0.0802 3.75179,0.51038 3.82191,1.29063 z m -15.69773,13.47682 -0.52017,0.05 -0.0201,-0.2503 0.52017,-0.05 z m -0.43021,-8.09413 0.13996,-0.0101 0.0302,0.38021 c -0.13017,0.0101 -0.29024,0.19023 -0.48022,0.54028 l -0.0201,-0.25003 c 0.23018,-0.29025 0.34025,-0.51039 0.3302,-0.6604 z m -1.09062,2.60138 0.0402,0.49027 -0.14023,0.0101 -0.04,-0.49028 z m -0.59028,0.93027 0.26008,-0.0198 c -0.0299,0.42016 -0.13996,0.64029 -0.32993,0.66014 l -0.14023,0.0101 c 0.15002,-0.27993 0.22013,-0.50006 0.21008,-0.65035 z m -0.42016,1.28085 0.12012,-0.0101 0.0101,0.12991 -0.23018,0.40031 -0.26009,0.0201 -0.0101,-0.13017 c 0.27014,-0.0201 0.39026,-0.16008 0.37015,-0.41011 z m -0.42016,1.16046 -0.09,0.6403 -0.12012,0.0101 -0.05,-0.63024 z m -4.27223,12.13591 c -0.16986,0.84058 -0.35004,1.2708 -0.54027,1.29064 l -0.01,-0.11007 c -0.0302,-0.42015 0.15001,-0.82047 0.55006,-1.18057 z m -0.79031,1.69096 0.0101,0.11006 c 0.0201,0.17992 -0.0601,0.27993 -0.24024,0.28999 l -0.01,-0.12992 c -0.0101,-0.13017 0.0699,-0.22013 0.23997,-0.27013 z m -0.22013,3.5216 0.40032,-0.0299 0.01,0.12991 c -0.09,0.0101 -0.22993,0.0601 -0.39,0.15028 l -0.26009,0.0198 c -0.0101,-0.13997 0.0699,-0.22992 0.23998,-0.27014 z m 11.23553,-3.4716 c -2.20107,1.09061 -3.51181,1.83092 -3.92192,2.21112 -2.40109,0.84032 -3.59172,1.36049 -3.57161,1.57057 -2.13122,0.85064 -3.53192,1.46077 -4.19206,1.85103 -0.16007,0.01 -0.39026,-0.05 -0.69056,-0.18998 -0.04,-0.43021 0.16008,-0.78052 0.5805,-1.0406 0.3802,-0.0299 0.7403,0.0201 1.0705,0.16007 0.40005,-0.20002 1.09035,-0.42016 2.0709,-0.67045 l -0.0198,-0.25003 -0.81042,0.0701 c 0.10002,-0.14023 0.87022,-0.50033 2.30108,-1.08056 l 0.40005,-0.0302 0.0101,0.11007 c -0.68024,0.0601 -1.06045,0.26035 -1.14062,0.62044 0.0101,0.16008 0.11007,0.23998 0.28019,0.22014 0.50033,-0.3302 0.74031,-0.52044 0.74031,-0.58023 0.9607,-0.17013 3.62188,-1.57083 7.99412,-4.19206 l 0.0198,0.25003 c 0,0.10001 -0.37015,0.42016 -1.12051,0.97049 z m -6.70322,2.20107 c 0.65035,-0.0601 1.20068,-0.31009 1.66079,-0.75036 0.17013,-0.01 0.27014,0.0601 0.2802,0.22013 -0.30031,0.0299 -0.89059,0.2802 -1.78091,0.76042 l -0.13997,0.01 z m 10.82543,-8.314 -3.33163,2.68129 c -2.49132,1.63062 -3.84202,2.4511 -4.0521,2.4712 -3.96187,2.18096 -6.42329,3.31153 -7.39378,3.3917 l -0.13996,0.01 c 0.12012,-0.45006 1.89097,-4.06189 5.31257,-10.84527 1.49066,-0.12991 3.85206,-0.84032 7.09348,-2.1209 l 0.81041,-0.0701 c 1.6309,-0.13996 2.85142,0.18018 3.65178,0.95039 l 0.0402,0.49027 c -0.61039,1.72085 -1.27079,2.73129 -1.99099,3.04165 z m -6.54341,-3.68194 0.52044,-0.05 0.01,0.13018 -0.52017,0.05 z m 7.5737,-1.29064 0.40031,-0.0299 c 0.37015,0.17992 0.56039,0.33999 0.57018,0.47017 l 0.01,0.11006 c -0.35004,0.0299 -0.68024,-0.15002 -0.98054,-0.55033 z m 1.05066,-6.09309 c -0.35031,0.42042 -1.30069,1.14062 -2.85142,2.14127 -0.52017,0.05 -2.44131,0.79031 -5.76289,2.23097 -0.16007,-0.0601 -0.34025,-0.0799 -0.53022,-0.0701 l -0.0201,-0.25003 c -0.04,-0.48022 0.17013,-1.08056 0.6305,-1.81081 0.26009,-1.38086 0.55007,-2.15106 0.85037,-2.33124 l 2.79136,-6.24311 c -0.0302,-0.37015 0.56012,-0.67019 1.7608,-0.90037 l 0.40031,-0.0299 0.0299,0.37994 c 1.18057,-0.18997 1.92088,-0.30004 2.22118,-0.32994 2.20107,-0.19023 3.35148,0.25004 3.4417,1.33059 l 0.26008,-0.0201 -0.05,-0.60034 0.26008,-0.0198 c 0.6403,0.35005 0.98055,0.7702 1.0205,1.27053 0.0299,0.3601 -0.15002,0.80037 -0.53022,1.31075 -0.17013,0.0198 -0.27014,-0.10002 -0.29025,-0.36037 l -0.26009,0.0201 -0.0799,0.75036 c -1.11072,1.69095 -1.92114,2.56117 -2.43126,2.60138 -0.45032,0.61013 -0.73051,0.92049 -0.86042,0.93028 z m 1.17051,4.16216 -0.0299,-0.38021 0.26008,-0.0198 0.56013,0.33999 c 0.0101,0.16007 -0.0699,0.2503 -0.23998,0.27014 -0.24024,-0.15002 -0.42016,-0.22013 -0.55034,-0.21008 z m -46.57301,24.30198 -0.26009,0.0601 -0.22013,0.18997 c 0.0402,0.16007 0.14023,0.22013 0.31036,0.18018 0.16986,-0.04 0.23997,-0.13996 0.20002,-0.30004 z m -0.99034,-1.97088 0.0299,0.12991 c 0.17013,-0.04 0.24024,-0.13997 0.20029,-0.30004 l -0.0302,-0.13017 c -0.16007,0.04 -0.23019,0.14022 -0.20003,0.3003 z m 7.08343,-13.30669 0.19023,-0.12012 c -0.0402,0 -0.0701,-0.0101 -0.10027,-0.0198 -0.0699,0.0198 -0.10002,0.0699 -0.09,0.13997 z m -0.04,-3.45176 0.30003,-0.0699 -0.0601,-0.26035 -0.30003,0.0701 z m 70.70486,10.10497 -0.6805,-0.0799 -0.12013,0.26008 0.0101,0.13018 4.05209,-0.34026 -0.0201,-0.25003 z m 3.70179,-0.31009 0.0198,0.25003 h 0.04 l -0.0199,-0.25003 z m 16.99816,-2.22118 0.0201,0.2503 0.44027,0.0799 -0.0201,-0.25003 z m -0.62019,0.05 c -3.04138,0.68051 -3.42159,0.56039 -4.06188,0.61039 l 0.0198,0.25003 0.2802,-0.0198 0.15002,-0.0101 -0.04,-0.0299 0.3302,-0.13018 c 3.01149,-0.3302 3.36153,-0.21008 3.33164,-0.55033 z m -18.25889,-4.42198 -0.27014,-0.09 c -0.22014,0.59002 -0.3302,0.94033 -0.32015,1.04034 l 0.01,0.11007 c 0.21034,-0.0101 0.40032,-0.37016 0.5805,-1.06045 z m -3.66184,-1.97088 -0.0101,-0.13018 -0.13997,0.0101 -0.25029,0.16008 0.14023,0.23997 c 0.18997,-0.0198 0.27993,-0.11006 0.26008,-0.27992 z m 7.95391,8.22377 -0.0201,-0.25003 -0.0799,0.0101 0.0199,0.25003 z m 16.50814,-3.72162 0.18998,-0.0201 c 0.11006,-0.0101 0.16007,-0.10002 0.15001,-0.26009 l -0.11006,-0.24024 c -0.6903,0.0601 -1.01045,0.0902 -1.57057,0.40031 l -0.01,-0.13017 -0.83053,0.0802 c -0.0198,-0.2503 -0.09,-0.38021 -0.20002,-0.37015 l -0.43022,0.04 c -0.50032,0.0399 -0.7403,0.0201 -0.9906,0.21008 -0.01,-0.09 -0.04,-0.13018 -0.09,-0.13018 l -0.48021,0.0402 -0.2802,0.16007 c -0.0101,-0.0902 -0.04,-0.13017 -0.09,-0.13017 l -0.17012,0.15002 -0.0101,-0.12991 -0.67019,-0.05 -0.16007,0.0101 0.0198,0.25003 0.34026,0.09 0.32014,-0.0198 c 0.11007,0.0699 0.23019,0.09 0.37016,0.0799 l 0.28019,-0.13996 0.01,0.11007 c -1.57083,0.38999 -1.56077,0.32014 -2.64133,0.50006 -0.12012,-0.0799 -0.21008,-0.11986 -0.27014,-0.11007 l -0.0201,0.0201 c -0.11986,-0.0101 -0.18997,-0.09 -0.20002,-0.22013 l 0.56038,-0.0701 c 0.0399,0 0.0698,0.0402 0.37994,0.10028 0.45033,-0.22013 0.47043,-0.31036 0.71041,-0.3302 l -0.0198,-0.2503 c -1.54094,0.30031 -0.92049,0.10002 -2.85142,0.27014 l -0.0902,0.0101 -0.0198,-0.25003 c 2.48126,-0.30031 1.65073,-0.13018 2.5011,-0.37016 0.0101,0.09 0.0402,0.12991 0.0902,0.12991 a 0.58367083,0.58367083 0 0 1 0.33999,-0.17012 l 0.17013,-0.01 c 0.87048,-0.0701 1.16073,0.10001 2.88158,-0.38021 l 0.01,0.11007 0.28019,-0.14023 0.26009,-0.0198 c -0.0198,-0.25029 0.36036,-0.29024 0.49027,-0.3003 l -0.0198,-0.27014 c -3.02155,0.6104 -3.81212,0.44027 -4.65244,0.68051 l -0.01,-0.11007 c -0.79031,0.13997 -0.82021,0.0799 -1.0205,0.09 -0.0601,0.0101 -0.15002,0.0601 -0.25003,0.16008 -0.0101,-0.09 -0.04,-0.13018 -0.10001,-0.13018 -0.0302,0 -0.04,0.0101 -0.05,0.0101 l -2.56143,0.42015 c -0.01,-0.0698 -0.0399,-0.11006 -0.10001,-0.10001 -1.33059,0.28019 -0.97049,0.3302 -2.7514,0.49027 -0.0799,0.0101 -0.18998,0.05 -0.32994,0.13997 -0.01,-0.0699 -0.0503,-0.1098 -0.14023,-0.10001 l -1.09061,0.0902 -0.73025,0.17992 c -0.0101,-0.0699 -0.05,-0.11007 -0.13997,-0.10002 -0.41037,0.11007 -0.77046,0.18018 -1.06071,0.20003 h -0.0198 c -0.18019,0.0201 0.0899,-0.05 -0.05,-0.1098 l -0.22013,0.12991 c -0.32015,0.0302 -0.15002,-0.0201 -1.25069,-0.0101 -1.93093,0.24024 -1.72085,0.27014 -1.93093,0.2802 l -0.72046,-0.05 c 0.0101,0.0701 -0.0299,0.12012 -0.11007,0.12012 -0.8202,-0.11007 -1.24036,-0.24024 -1.25042,-0.39026 0.11007,-0.78026 0.30004,-1.18057 0.57018,-1.20068 l 0.14023,-0.01 -0.12012,0.26009 0.13996,-0.0101 c 0.26009,-0.14023 0.38021,-0.27014 0.37016,-0.39026 l -0.0199,-0.27014 -0.26035,0.0201 -0.0198,-0.25029 c -0.0201,-0.18998 0.0101,-0.3601 0.0799,-0.50007 l 0.59029,-0.95065 0.0201,0.2503 0.28019,-0.0201 -0.0201,-0.25003 -0.16007,-0.23019 c 0.21008,-0.18018 0.37015,-0.28019 0.50033,-0.29024 l -0.0101,-0.12991 -0.38021,0.0299 -0.0299,-0.3802 c 0.76041,-1.58062 1.12051,-2.50111 1.1004,-2.76119 l 0.27014,0.11006 c 0.17013,-0.01 0.25003,-0.11006 0.24024,-0.29025 l -0.26035,0.0201 -0.01,-0.11006 a 0.95117707,0.95117707 0 0 1 0.10001,-0.53023 c 0.41011,-0.43021 0.60034,-0.86042 0.56013,-1.31075 0.0802,-0.01 0.12012,0.0302 0.13017,0.12013 0.35031,-0.20003 0.62045,-0.73052 0.82047,-1.61079 0.62019,-1.12051 1.50072,-3.36179 2.65113,-6.71327 2.20133,-5.92296 2.11111,-6.5532 2.4212,-7.9539 l -0.26008,0.0198 c 0.0201,0.18018 -0.0199,0.35031 -0.10002,0.51038 -0.18018,-0.0701 -0.32014,-0.11007 -0.42016,-0.10001 l -0.01,-0.11007 c -0.04,-0.51038 0.17013,-1.12051 0.65035,-1.84097 l 0.12012,-0.0101 0.22013,0.86042 0.26009,-0.0198 c -0.0101,-0.0601 0.0601,-0.40032 0.20002,-1.03055 -0.0101,-0.13018 -0.11007,-0.21008 -0.31009,-0.22014 l -0.25003,0.16007 c -0.0201,-0.18018 -0.0101,-0.65034 0.0198,-1.4007 l -0.13017,0.0101 c -0.21987,-0.22013 -0.32994,-0.40031 -0.33999,-0.55033 l -1.43087,0.13997 c -0.01,-0.10002 -0.0598,-0.25004 -0.16007,-0.44027 -0.01,-0.12991 0.31035,-0.26009 0.97049,-0.39 l 0.29025,0.11007 0.27014,-0.16007 c 0.0101,0.09 0.0601,0.12991 0.16007,0.11985 l 0.27014,-0.16007 c 0.01,0.0902 0.0601,0.13018 0.16007,0.12012 l 0.13018,-0.0101 -0.0201,-0.28999 c -0.20003,0.0198 -0.73025,0.0198 -1.57083,-0.0101 l -0.27014,0.18018 -0.0101,-0.16007 c -6.71327,0.55007 -10.52512,0.86042 -11.43555,0.95038 -0.12012,0.0101 -0.59029,0 -1.42055,-0.0201 0.01,0.11007 -0.0902,0.17013 -0.29025,0.19024 l -0.29025,-0.13018 -0.98028,0.2503 c -0.23018,0.0198 -0.62045,0.01 -1.16072,-0.0503 -0.15002,0.12012 -0.3302,0.19023 -0.55034,0.21034 -0.11985,0.01 1.43087,-0.0802 2.87153,-0.18018 -0.15002,0.12012 -0.38021,0.18997 -0.70036,0.22013 -0.22013,0.0198 -0.4101,-0.0101 -0.57017,-0.10001 -0.22014,0.10001 -0.93054,0.26009 -2.12117,0.50006 l -0.28998,-0.11006 -4.68233,0.72046 c -0.18018,-0.09 -0.39026,-0.12012 -0.6305,-0.10001 -0.25004,0.0198 -0.67019,0.11006 -1.25043,0.27014 l -2.26112,0.94032 0.16986,0.2802 c 0.11006,-0.0101 0.27014,-0.0701 0.46037,-0.18018 l 0.80037,0.0701 -0.10002,0.75036 c -0.7403,0.3302 -1.17051,0.82047 -1.29063,1.44066 -1.11046,0.49027 -1.66079,0.84058 -1.66079,1.05066 l 0.0101,0.12991 0.16986,-0.01 0.30031,-0.16008 0.35004,0.42016 0.05,0.58023 c 0.0201,0.18019 -1.85076,4.11189 -5.59277,11.79592 -3.24141,7.40357 -4.94241,11.45567 -5.10249,12.18592 -1.11045,0.31009 -1.75074,0.76041 -1.94098,1.36075 0.0201,0.18997 0.35031,0.32014 0.9906,0.37015 l 0.0299,0.28998 -0.28998,0.48022 0.05,0.5805 c 0.0299,0.30004 0.84032,0.53022 2.43126,0.6903 -0.0101,-0.10002 0.04,-0.16008 0.15002,-0.17013 0.0299,0.3601 -0.0701,1.06045 -0.30031,2.10106 l 0.17013,-0.0101 c 0.6604,-0.90038 0.97049,-1.52082 0.9406,-1.86081 l 0.13996,-0.0101 c 0.16007,-0.01 0.3302,0.17013 0.53023,0.56013 -0.20003,0.0802 -0.90038,1.67084 -2.10106,4.78234 l 0.17013,0.28019 0.17012,-0.0101 c 1.47082,-3.72163 2.39131,-5.78273 2.77125,-6.17299 1.93119,-0.17013 5.27262,-0.51012 10.01501,-1.0205 l 0.3003,-0.18018 c 0.01,0.10027 0.0699,0.15028 0.17992,0.14023 l 0.31035,-0.0302 0.30004,-0.17991 c 0.01,0.10001 0.0701,0.15002 0.18018,0.13996 l 3.59172,-0.31009 c 0.95038,-0.0802 1.4007,-0.37015 1.36049,-0.86043 -0.01,-0.13017 0.55033,-0.28019 1.68089,-0.44026 0.11007,-0.0101 0.27014,0.0201 0.49028,0.09 -0.0101,-0.09 0.56039,-0.17992 1.701,-0.27993 0.0299,-0.60034 0.21987,-0.92049 0.56013,-0.95065 l -0.0299,-0.28998 c -0.32015,0.0299 -0.68051,0.11006 -1.10067,0.25003 -0.75036,-0.04 -1.23057,-0.10002 -1.4306,-0.17013 -0.20029,0.11007 -0.35031,0.17013 -0.46037,0.18018 l -2.50111,0.0799 -0.3003,0.16007 c -0.0101,-0.09 -0.0699,-0.12991 -0.17992,-0.11986 l -0.14023,0.01 -0.32014,0.16034 c -0.0101,-0.0902 -0.27014,-0.16034 -0.79031,-0.23019 l -0.32015,0.18997 -0.62018,0.05 -0.0101,-0.16007 c 3.22157,-0.35005 4.81224,-0.79031 4.77229,-1.31049 0.21008,-0.0201 0.32015,0.0799 0.33999,0.28999 l 0.94059,-0.23998 -0.0299,-0.29025 -7.71393,0.21008 c 0.0101,0.10001 -0.0399,0.16008 -0.15002,0.17013 l -0.94059,-0.0799 c -0.23998,0.0198 -0.44,0.0899 -0.60008,0.21007 l -0.35031,-0.13017 c -0.97049,0.0802 -1.69095,0.20002 -2.17117,0.35031 -0.66013,-0.05 -1.39065,-0.0402 -2.20107,0.0299 l -1.73064,0.15001 -0.80036,-0.0899 c -0.0402,-0.51039 0.95038,-3.02155 2.99138,-7.5237 0.59028,-1.52082 1.13056,-2.4712 1.65073,-2.8313 0.11007,-0.0101 0.27014,0.0299 0.49028,0.11985 l 1.23057,-0.42015 0.63024,0.10001 c 1.06072,-0.09 2.29129,-0.39 3.70205,-0.91043 0.35005,-0.0299 0.61013,-0.01 0.80037,0.0701 l 0.94033,-0.22013 2.8014,-0.24024 c 1.19063,-0.10002 2.48127,-0.3601 3.88197,-0.79031 l -0.0302,-0.28999 c -0.52017,0.05 -0.79031,-0.0402 -0.81016,-0.25029 -0.0302,-0.39 -0.41036,-0.55034 -1.14061,-0.49028 l -0.0302,-0.28998 0.77047,-0.22013 2.02089,-0.17013 -0.0299,-0.28998 c -0.0802,0.01 -0.49027,0 -1.25069,-0.0302 l -0.0299,-0.31009 0.78025,-0.0701 c 0.21008,-0.0198 0.3003,-0.12012 0.2802,-0.32015 -1.0504,0.0299 -1.58089,-0.0201 -1.59068,-0.16007 -7.32367,0.3601 -10.99555,0.43021 -11.0154,0.20002 -0.11006,0.0101 -0.26035,0.0802 -0.46037,0.20029 l -0.18997,-0.3003 c 1.94072,-4.12194 3.08133,-6.20315 3.41153,-6.23305 0.0101,0.16007 -0.0701,0.42016 -0.24024,0.77046 l 0.0101,0.12992 0.31035,-0.0299 c 0.77021,-1.84097 1.42055,-2.79136 1.96083,-2.83131 2.30108,-0.20029 -0.32015,-0.35031 4.60243,-1.12077 0.20002,0.0902 0.33999,0.13017 0.44,0.12012 1.93093,-0.39026 4.62227,-0.80037 8.07402,-1.22053 l -0.0201,-0.29024 -1.84071,0.17012 -0.0201,-0.29024 c 0.22013,-0.0199 0.40032,-0.09 0.55033,-0.21008 l 0.0101,0.16007 c 0.10001,-0.01 0.23998,-0.0799 0.42016,-0.20003 0.32014,-0.0299 0.56012,0 0.73025,0.09 0.64029,-0.16986 1.16072,-0.27014 1.54093,-0.31009 l 1.15041,-0.11007 c 0.28019,-0.17991 0.41037,-0.33999 0.40031,-0.49027 l -0.01,-0.12991 c -0.29025,0.0299 -0.62018,0.0101 -1.01044,-0.0601 -0.0101,-0.16007 0.0698,-0.27014 0.26008,-0.32015 l 2.14101,-0.20002 0.98055,-0.2503 c 0.01,0.11007 0.0601,0.15002 0.13996,0.15002 0.10001,-0.01 0.24024,-0.0799 0.42016,-0.20002 0.0503,0.0101 0.11006,0.0101 0.16007,0.0201 -0.12991,0.27014 -0.27993,0.6604 -0.43021,1.17051 l -0.27993,0.0201 c -0.0201,-0.19023 -0.0701,-0.36036 -0.16007,-0.51038 l -0.14023,0.0101 c -2.60112,7.2435 -3.76185,10.61535 -6.16294,16.17795 -0.44027,1.42081 -0.81042,2.21112 -1.13057,2.38125 0.0101,0.16007 0.11007,0.23998 0.2802,0.22013 0.0601,0.70036 -0.10002,1.39065 -0.49028,2.0709 -1.11072,3.20172 -1.85102,4.95247 -2.23123,5.27262 l 0.2503,1.51077 c 0.01,0.16007 -0.0701,0.25003 -0.24024,0.27014 l -0.26009,0.0201 c -0.04,-0.42042 -0.19023,-0.62044 -0.46011,-0.59028 l -0.14023,0.01 c -0.34025,0.53022 -0.60034,1.14062 -0.7702,1.85102 l 0.26009,-0.0201 c 0.35004,-0.22992 0.51011,-0.50006 0.48021,-0.81041 l 0.52017,-0.05 0.30004,0.11007 c -0.23997,0.3802 -0.35004,0.6805 -0.32993,0.91043 l 0.13996,0.24024 -0.34025,0.80036 0.0101,0.13018 c 0.3003,-0.0302 0.63024,0.0699 0.98055,0.27993 0.23997,-0.0198 0.50032,-0.12991 0.79031,-0.32015 0.3003,-0.0299 1.42081,-0.04 3.35174,-0.04 l 0.97049,-0.3302 c 1.18057,-0.0101 1.37054,0.0201 2.39104,-0.0701 l 0.42016,-0.04 0.22013,-0.15002 0.0101,0.13018 c 1.0705,-0.0902 1.14062,-0.0201 1.98093,0.0799 l 0.0101,0.13018 -0.59029,0.05 0.0201,0.25004 c 0.17992,-0.0201 0.33999,-0.0701 0.47016,-0.18019 0.15002,-0.01 0.23998,0.0701 0.25003,0.2503 -0.23997,0.0198 -0.51011,0.0799 -0.81041,0.17992 l -0.26009,-0.09 c -0.4101,0.11007 -0.32015,0.13996 -0.60034,0.16007 l -0.4101,-0.0799 c 0.01,0.0699 -0.0299,0.11985 -0.10002,0.11985 0.0101,0.16008 0.10002,0.24025 0.25004,0.23019 l 0.42015,-0.04 2.19128,-0.19024 0.83027,-0.17991 c 0.0101,0.0699 0.04,0.11006 0.11006,0.10001 l 0.40032,-0.15002 0.75036,-0.0601 c 0.58023,-0.05 0.57017,-0.0902 1.83091,-0.29025 -0.01,-0.0799 0.0199,-0.11006 0.0799,-0.12012 l 0.0101,0.11007 c 2.05105,-0.35004 2.18096,-0.37015 2.51116,-0.48022 l 0.0302,0.0601 c 0.51012,-0.12012 0.22014,-0.09 0.3601,-0.18997 0.0101,0.09 0.04,0.12991 0.09,0.12991 l 0.36036,-0.0299 -0.0201,-0.27014 -0.73025,-0.0101 -0.0101,-0.0201 c -0.0302,0.0101 -0.05,0.0101 -0.0802,0.0201 h -0.10001 v 0.0201 c -0.49027,0.10001 -0.50033,0.0299 -0.82047,0.0601 l -1.83092,0.10001 -0.01,-0.13018 1.0205,-0.13996 0.37015,-0.0302 0.21008,-0.15002 0.01,0.13017 c 1.44066,-0.12012 1.95078,0.23998 8.61404,-1.18057 0.36036,-0.0302 0.3302,-0.3302 0.56039,-0.95064 a 0.62150624,0.62150624 0 0 1 -0.35004,-0.0799 c -0.55034,0.21008 -0.84059,0.11007 -1.90104,0.28019 -0.0899,0.0101 -0.16007,-0.0701 -0.19023,-0.23018 l -0.0101,-0.11007 1.0205,0.0299 c 0.19024,-0.0198 0.56039,-0.05 1.11072,-0.3601 0,0.09 -0.21008,0.13997 -0.0902,0.13018 z m -49.26435,0.79031 -0.47017,0.04 c -0.0201,-0.18997 0.23019,-0.91043 0.75036,-2.14101 l 0.31009,-0.0299 c 0.0101,0.28999 -0.18018,1.00039 -0.59028,2.13096 z m 0.57044,-2.28124 -0.0101,-0.12991 c -0.0101,-0.16007 0.09,-0.27014 0.3101,-0.32015 l 0.01,0.12991 c 0.0101,0.19024 -0.0902,0.3003 -0.31009,0.32015 z m 6.2529,4.83235 0.0101,0.13017 -0.78026,0.0701 -0.0101,-0.13018 z m -0.94033,-0.0799 c 0.01,0.16008 -0.23019,0.34026 -0.75036,0.52017 l -0.9607,-0.0699 -0.31009,0.0299 -0.0299,-0.29025 z m 6.32301,-29.10443 -0.47016,0.0402 -0.0101,-0.16007 c -0.01,-0.16008 0.0802,-0.27014 0.2802,-0.32015 l 0.17012,-0.0101 0.32015,0.12991 c 0.01,0.19023 -0.0802,0.3003 -0.29025,0.32014 z m 7.15354,-1.4007 0.15002,-0.01 0.0201,0.28998 -0.43022,0.0399 c -0.01,-0.16007 0.0699,-0.26987 0.26009,-0.32014 z m -1.80102,0.6305 -0.71014,-0.0802 -0.0101,-0.12991 c 0.93054,-0.0802 1.24064,-0.18018 1.81081,-0.34025 0.0101,0.11006 0.11007,0.15002 0.29025,0.13017 l 0.0198,0.28999 -0.27992,0.0302 c -0.22014,0.0198 -0.41037,-0.0101 -0.57045,-0.10028 -0.17012,0.11007 -0.35004,0.18018 -0.55033,0.20029 z m 0.89059,2.59133 -0.0101,-0.13017 1.15068,-0.11007 0.0101,0.13017 z m 1.23058,-1.00065 -0.0101,-0.16008 0.56039,-0.05 0.0101,0.16007 z m 0.13017,-1.96083 -0.15028,0.01 0.13017,-0.31009 1.28059,-0.12012 0.0101,0.16007 c -0.3302,0.0302 -0.76041,0.12012 -1.27053,0.26035 z m 0.65035,2.76119 -0.0201,-0.28998 0.56039,-0.05 c 0.18997,-0.0201 0.28998,0.0699 0.30003,0.27014 z m 3.39143,-4.62227 -0.7202,0.20029 -0.13018,0.01 c -0.33999,0.0302 -0.78025,0.0201 -1.30069,-0.0299 0.93054,-0.0601 1.82113,-0.13017 2.15107,-0.18018 z m -0.77021,3.20172 0.0101,0.12991 -0.9906,0.0902 -0.0101,-0.13018 z m 1.62084,0.7702 c -0.0101,-0.11985 -0.20029,-0.20002 -0.59028,-0.23997 l -0.9906,0.28019 -0.76042,0.0299 c -0.17012,-0.12012 -0.26008,-0.20003 -0.27014,-0.26009 l 0.88054,0.05 1.98093,-0.32015 1.01045,0.04 0.0101,0.16007 c -0.50033,0.05 -0.92049,0.14023 -1.27053,0.26008 z m 10.19493,-2.63128 c 0.12012,0.0101 0.20002,0.0101 0.23018,0.0101 0.35005,-0.34026 0.74031,-0.6104 1.19063,-0.80037 -0.36036,1.58089 -0.92049,2.75141 -1.69095,3.51182 l -0.56039,-0.34026 c 0.47043,-1.19062 0.75062,-1.98093 0.83053,-2.38125 z m -1.72085,2.95143 0.13996,-0.01 c -0.18997,0.3601 -0.3601,0.55007 -0.50006,0.56012 l -0.0302,-0.3802 c 0.0902,0 0.22013,-0.0601 0.39026,-0.17013 z m -1.11046,2.65139 c 0.27014,-1.08056 0.53022,-1.69069 0.7702,-1.85076 l 0.0101,0.12991 c -0.13997,1.00039 -0.3601,1.53088 -0.65035,1.57083 l 0.05,0.63024 c -0.23998,0.34025 -0.35005,0.60034 -0.34026,0.80036 l -0.13996,0.0101 -0.0799,-0.87048 c 0.16008,-0.0199 0.28999,-0.16007 0.38021,-0.42016 z m -0.43021,1.44066 c 0.01,0.15002 -0.0902,0.50032 -0.29025,1.0406 l -0.13997,0.0101 -0.0302,-0.38021 c 0.19024,-0.44027 0.35031,-0.6604 0.46011,-0.67045 z m -8.07403,23.4315 -0.01,-0.11007 0.26008,-0.0198 0.0302,0.3802 c -0.14023,0.0101 -0.24025,-0.0701 -0.2802,-0.25029 z m 11.53557,0.3003 c -0.0101,-0.0902 -0.05,-0.13018 -0.13996,-0.12012 l -0.65035,0.0601 -0.01,-0.13018 h 0.0601 l 1.54067,-0.12991 0.01,0.12991 c -0.45006,0.0201 -0.7202,0.0902 -0.81042,0.19024 z m -0.7702,-0.32015 c 0.0601,0.0299 0.0299,0.0601 0,0.0799 -0.0302,-0.0101 -0.0701,-0.04 0,-0.0799 z m 0.0799,-1.80102 -0.86042,0.0701 -0.0101,-0.13018 0.78052,-0.0699 0.68025,-0.17012 c 0.01,0.0799 0.05,0.11006 0.14023,0.10001 0.81042,-0.13997 0.73025,-0.18018 1.12051,-0.21008 0.12991,-0.01 0.21008,0.0701 0.22013,0.23019 z m 3.01149,-0.26008 c -0.48022,-0.05 -0.51012,-0.09 -0.85037,-0.0601 l -0.0101,-0.11007 0.77046,-0.0699 0.0101,0.11007 c -0.0802,0.01 0.21008,0.0299 0.0799,0.12991 z m 0.0601,-0.13997 -0.01,-0.11006 0.42015,-0.0402 0.0101,0.11007 z m 0.93054,-0.0802 -0.01,-0.11007 c 0.0701,-0.01 0.17012,-0.0601 0.30003,-0.16007 0.21008,-0.0198 0.32015,0.12012 0.34026,0.28019 z m 1.19063,-0.15002 -0.0101,-0.13018 0.51012,-0.04 0.01,0.13017 z m 0.71014,-0.0601 c -0.01,-0.15002 0.05,-0.23998 0.18018,-0.26009 l 0.17013,0.22013 c -0.0101,-0.0701 0.0198,-0.11006 0.0799,-0.12012 l 0.13017,0.24024 z m 9.84488,-1.16047 0.01,-0.0101 v -0.0101 c 0,0 -0.01,0.0101 -0.01,0.0201 z m 0.18018,-0.13017 c 0.0799,-0.05 0.12012,-0.10001 -0.0701,-0.12991 -0.0899,0.10001 0.10002,0.12991 -0.10001,0.13996 l 0.0101,0.09 c 0.0198,-0.0198 0.0701,-0.05 0.11006,-0.0799 l -0.11006,0.09 v 0.0101 l -0.21008,0.27014 0.42016,-0.15002 h 0.05 l -0.0201,-0.2503 z m 0.73025,0.57044 -0.0799,0.01 0.0199,0.2503 0.59028,-0.05 c -0.01,-0.16007 -0.40005,-0.21008 -0.53022,-0.21008 z"
             inkscape:connector-curvature="0"
             style="fill:#f9dc3e;stroke-width:0.26458332" />
        </g>
      </g>
      <g
         transform="matrix(0.20778524,0,0,0.20778524,193.51626,87.026453)"
         id="g987">
        <path
           style="fill:#0367d8"
           inkscape:connector-curvature="0"
           d="m 42.58,80.84 h -7.43 v 27.97 c 0,7.18 -4.56,11.26 -11.04,11.26 -5.93,0 -10.79,-2.71 -10.79,-11.13 V 80.84 H 5.89 v 30.21 c 0,10.35 6.66,15.68 15.98,15.68 7.22,0 11.47,-3.09 13.06,-6.66 h 0.3 V 126 h 7.35 z M 55.73,126 h 7.39 V 98.5 c 0,-6.19 3.35,-11.69 11.13,-11.69 6.57,0 11.04,3.87 11.04,11.48 V 126 h 7.39 V 97.04 c 0,-11 -6.91,-16.93 -16.2,-16.93 -7.34,0 -11.51,3.82 -13.19,6.7 h -0.21 v -5.97 h -7.35 z m 49.84,0 h 7.39 V 80.84 h -7.39 z m -1.03,-56.03 c 0,2.62 2.11,4.68 4.73,4.68 2.62,0 4.77,-2.06 4.77,-4.68 0,-2.67 -2.15,-4.73 -4.77,-4.73 -2.62,0 -4.73,2.06 -4.73,4.73 z"
           id="path973" />
        <path
           inkscape:connector-curvature="0"
           d="m 129.42,126 h 7.39 V 87.03 h 8.85 v -6.19 h -8.89 v -3.91 c 0,-5.5 2.36,-7.09 7.26,-7.09 1.12,0 1.68,0.09 2.32,0.17 v -6.06 c -0.77,-0.13 -1.8,-0.25 -3.31,-0.25 -9.28,0 -13.62,3.99 -13.62,12.63 v 4.51 h -6.1 v 6.19 h 6.1 z m 26.73,0 h 7.39 V 80.84 h -7.39 z m -1.03,-56.03 c 0,2.62 2.1,4.68 4.72,4.68 2.62,0 4.77,-2.06 4.77,-4.68 0,-2.67 -2.15,-4.73 -4.77,-4.73 -2.62,0 -4.72,2.06 -4.72,4.73 z m 39.18,56.76 c 9.97,0 15.95,-5.54 17.66,-13.02 h -7.34 c -1.46,4.21 -4.9,6.83 -10.14,6.83 -7.35,0 -11.73,-5.88 -11.73,-14.48 v -0.81 h 29.82 v -4.21 c 0,-12.42 -6.79,-20.93 -18.61,-20.93 -11.86,0 -18.6,8.51 -18.6,20.41 v 5.07 c 0,12.85 7.17,21.14 18.94,21.14 z M 182.75,99.27 v -0.13 c 0,-7.13 4.38,-12.84 11.25,-12.84 6.75,0 11.18,5.67 11.18,12.84 v 0.13 z m 57.23,-19.12 c -11.39,0 -18.05,8.94 -18.05,21.23 v 4.08 c 0,12.59 6.28,21.23 18.05,21.23 6.06,0 10.79,-2.84 13.32,-7.48 h 0.17 V 126 h 7.09 V 64.25 h -7.39 v 22.86 h -0.21 c -2.28,-3.99 -7.01,-6.96 -12.98,-6.96 z m 1.03,6.45 c 7.61,0 12.29,5.93 12.29,15.04 v 3.61 c 0,9.58 -4.6,14.99 -12.16,14.99 -6.83,0 -11.77,-4.98 -11.77,-15.04 v -3.56 c 0,-10.06 4.94,-15.04 11.64,-15.04 z"
           id="path975" />
      </g>
    </g>
  </g>
  <style
     id="style1079"
     type="text/css">
	.st0{fill:#F7DF1E;}
</style>
  <style
     id="style922">.st0{fill:none}.st1{fill:#020202}</style>
</svg>
