<svg width="397" height="170" viewBox="0 0 397 170" fill="none" xmlns="http://www.w3.org/2000/svg">
  <path fill="#fff" d="M0 0h397v170H0z"/>
  <circle cx="362" cy="87" r="25" fill="#F2F2F2"/>
  <path d="M351.402 95.9531L349 69h26.426l-2.403 26.9531L362.184 99" fill="#333"/>
  <path d="M362.242 96.6562l8.731-2.4023 2.05-23.0859h-10.781" fill="#4F4F4F"/>
  <path d="M362.242 81.1875h-4.394l-.293-3.3984h4.687v-3.2813h-8.32l.058.8789.821 9.1406h7.441v-3.3398zm0 8.6133h-.058l-3.692-.9961-.234-2.6367H354.977l.41 5.2148 6.797 1.875h.058v-3.457z" fill="#F2F2F2"/>
  <path d="M362.184 81.1875v3.3398h4.101l-.41 4.2774-3.691.9961v3.457l6.796-1.875.059-.5859.762-8.7305.117-.8789h-7.734zm0-6.6797v3.2813h8.027l.059-.7032.175-1.6992.059-.8789h-8.32z" fill="#F2F2F2"/>
  <path d="M348.703 106.526c0-.156.046-.286.137-.39.094-.104.234-.157.42-.157.185 0 .325.053.42.157.097.104.146.234.146.39 0 .15-.049.275-.146.376-.095.101-.235.152-.42.152-.186 0-.326-.051-.42-.152-.091-.101-.137-.226-.137-.376zm7.363.474h-.903v-2.432h-2.949V107h-.903v-5.688h.903v2.514h2.949v-2.514h.903V107zm5.669-4.941h-1.948V107h-.903v-4.941h-1.939v-.747h4.79v.747zm2.046-.747l1.909 4.448 1.9-4.448h1.177V107h-.899v-1.958l.093-2.603-1.943 4.561h-.664l-1.939-4.541.093 2.583V107h-.899v-5.688h1.172zm7.241 4.951h2.852V107h-3.755v-5.688h.903v4.951z" fill="#FFAC00"/>
  <circle cx="35" cy="55" r="25" fill="#F2F2F2"/>
  <path d="M24.4023 63.9531L22 37h26.4258l-2.4024 26.9531L35.1836 67" fill="#333"/>
  <path d="M35.2422 64.6562l8.7305-2.4023 2.0507-23.0859H35.2422" fill="#4F4F4F"/>
  <path d="M35.2422 49.1875h-4.3945l-.293-3.3984h4.6875v-3.2813h-8.3203l.0586.8789.8203 9.1406h7.4414v-3.3398zm0 8.6133h-.0586l-3.6914-.9961-.2344-2.6367h-3.2812l.4101 5.2148 6.7969 1.875h.0586v-3.457z" fill="#F2F2F2"/>
  <path d="M35.1836 49.1875v3.3398h4.1016l-.4102 4.2774-3.6914.9961v3.457l6.7969-1.875.0586-.5859.7617-8.7305.1172-.8789h-7.7344zm0-6.6797v3.2813h8.0273l.0586-.7032.1758-1.6992.0586-.8789h-8.3203z" fill="#F2F2F2"/>
  <path d="M21.7031 74.5264c0-.1563.0456-.2865.1367-.3907.0944-.1041.2344-.1562.42-.1562.1855 0 .3255.0521.4199.1562.0976.1042.1465.2344.1465.3907 0 .1497-.0489.275-.1465.3759-.0944.101-.2344.1514-.4199.1514-.1856 0-.3256-.0504-.42-.1514-.0911-.1009-.1367-.2262-.1367-.3759zM29.0664 75h-.9033v-2.4316h-2.9492V75h-.9034v-5.6885h.9034v2.5147h2.9492v-2.5147h.9033V75zm5.669-4.9414h-1.9483V75h-.9033v-4.9414h-1.9385v-.7471h4.7901v.7471zm2.0458-.7471l1.9092 4.4483 1.8994-4.4483h1.1768V75h-.8984v-1.958l.0927-2.6025L39.0176 75h-.6641l-1.9385-4.541.0928 2.583V75h-.8984v-5.6885h1.1718zm7.2413 4.9512h2.8515V75h-3.7549v-5.6885h.9034v4.9512z" fill="#FFAC00"/>
  <circle cx="96" cy="55" r="25" fill="#F2F2F2"/>
  <path d="M111 52.3612c0-1.9874-2.489-3.8708-6.305-5.0387.881-3.8892.49-6.9833-1.235-7.9739-.397-.2324-.862-.3425-1.369-.3425v1.3637c.281 0 .507.055.697.1589.831.477 1.192 2.2932.911 4.6291-.068.5748-.178 1.1802-.312 1.7978-1.199-.2936-2.507-.5198-3.8831-.6666-.8255-1.1312-1.6816-2.1585-2.5439-3.0574 1.9935-1.8529 3.865-2.868 5.137-2.868V39c-1.682 0-3.8834 1.1985-6.1092 3.2776-2.2259-2.0668-4.4273-3.2531-6.1089-3.2531v1.3636c1.2658 0 3.1431 1.009 5.1366 2.8496-.8561.8989-1.7122 1.9201-2.5255 3.0513-1.382.1468-2.6906.373-3.8891.6727-.1406-.6115-.2446-1.2047-.318-1.7734-.2874-2.3359.0673-4.152.8928-4.6351.1835-.1101.4219-.159.7032-.159v-1.3636c-.5136 0-.9784.11-1.382.3424-1.7183.9906-2.1035 4.0787-1.2168 7.9556C83.4766 48.5027 81 50.3799 81 52.3612c0 1.9874 2.4888 3.8708 6.3045 5.0387-.8805 3.8891-.4892 6.9833 1.2352 7.9739.3975.2324.8623.3425 1.3759.3425 1.6816 0 3.883-1.1986 6.1089-3.2777 2.2258 2.0669 4.4275 3.2532 6.1085 3.2532.514 0 .979-.1101 1.382-.3424 1.719-.9907 2.104-4.0787 1.217-7.9556 3.791-1.168 6.268-3.0514 6.268-5.0326zm-7.962-4.0787c-.226.7888-.507 1.6021-.825 2.4154-.251-.4892-.514-.9784-.801-1.4676-.282-.4892-.581-.9661-.881-1.4309.869.1284 1.706.2874 2.507.4831zm-2.8 6.5124c-.4773.8256-.9665 1.6083-1.474 2.336-.9112.0795-1.8345.1223-2.764.1223-.9234 0-1.8467-.0428-2.7517-.1162-.5076-.7277-1.0029-1.5043-1.4799-2.3237-.4647-.8011-.8866-1.6144-1.2719-2.4338.3792-.8194.8072-1.6388 1.2658-2.4398.477-.8256.9662-1.6083 1.4737-2.3359.9112-.0795 1.8345-.1223 2.764-.1223.9234 0 1.8467.0428 2.7517.1161.5076.7277 1.0029 1.5043 1.4803 2.3237.464.8011.886 1.6144 1.271 2.4338-.385.8194-.807 1.6388-1.265 2.4398zM102.213 54c.33.8194.611 1.6388.844 2.4338-.801.1956-1.645.3607-2.52.4892.3-.4709.6-.954.881-1.4493.281-.4892.544-.9845.795-1.4737zm-6.2008 6.5247c-.5687-.5871-1.1374-1.2414-1.6999-1.9568.5503.0244 1.1129.0428 1.6816.0428.5748 0 1.1435-.0122 1.6999-.0428-.5503.7154-1.119 1.3697-1.6816 1.9568zm-4.5495-3.6017c-.8683-.1285-1.7061-.2875-2.5071-.4831.2262-.7889.5075-1.6021.8255-2.4154.2507.4892.5136.9784.801 1.4676.2874.4891.581.9661.8806 1.4309zm4.519-12.7253c.5686.5871 1.1373 1.2414 1.6999 1.9568-.5503-.0245-1.1129-.0428-1.6816-.0428-.5748 0-1.1435.0122-1.7.0428.5504-.7154 1.1191-1.3697 1.6817-1.9568zm-4.5251 3.6017c-.2996.4709-.5993.954-.8806 1.4493-.2813.4892-.5442.9784-.7949 1.4676-.3302-.8194-.6115-1.6388-.8439-2.4338.8011-.1896 1.6449-.3547 2.5194-.4831zm-5.5341 7.656c-2.1647-.9234-3.565-2.1342-3.565-3.0942 0-.9601 1.4003-2.1769 3.565-3.0942.5259-.2262 1.1007-.428 1.6939-.6176.3485 1.1985.8072 2.446 1.3759 3.724-.5626 1.2719-1.0151 2.5133-1.3576 3.7057-.6053-.1896-1.1802-.3975-1.7122-.6237zm3.2899 8.7382c-.8316-.4769-1.1924-2.2931-.9111-4.629.0672-.5748.1773-1.1802.3118-1.7978 1.1986.2935 2.5072.5198 3.883.6665.8255 1.1313 1.6816 2.1586 2.5439 3.0575-1.9935 1.8529-3.8647 2.8679-5.1366 2.8679-.2752-.0061-.5076-.0611-.691-.1651zm14.5046-4.6596c.287 2.336-.067 4.1521-.893 4.6352-.183.1101-.422.159-.703.159-1.266 0-3.143-1.009-5.1365-2.8496.8561-.8989 1.7122-1.9201 2.5255-3.0514 1.382-.1467 2.691-.373 3.889-.6726.141.6176.251 1.2107.318 1.7794zm2.354-4.0786c-.526.2262-1.1.428-1.694.6176-.348-1.1986-.807-2.446-1.375-3.724.562-1.272 1.015-2.5133 1.357-3.7057.606.1896 1.18.3975 1.718.6237 2.165.9234 3.565 2.1341 3.565 3.0942-.006.96-1.406 2.1769-3.571 3.0942z" fill="#333"/>
  <path d="M95.9939 55.1557c1.5434 0 2.7945-1.2511 2.7945-2.7945s-1.2511-2.7945-2.7945-2.7945-2.7946 1.2511-2.7946 2.7945 1.2512 2.7945 2.7946 2.7945z" fill="#333"/>
  <path d="M87.7031 74.5264c0-.1563.0456-.2865.1367-.3907.0944-.1041.2344-.1562.42-.1562.1855 0 .3255.0521.4199.1562.0976.1042.1465.2344.1465.3907 0 .1497-.0489.275-.1465.3759-.0944.101-.2344.1514-.4199.1514-.1856 0-.3256-.0504-.42-.1514-.0911-.1009-.1367-.2262-.1367-.3759zm5.1465-5.2149h.9131v4.0381c0 .5111-.1725.9277-.5176 1.25-.345.319-.8056.4785-1.3818.4785-.6315 0-1.1263-.1481-1.4844-.4443-.3548-.2995-.5322-.7162-.5322-1.25h.9082c0 .306.0911.542.2734.708.1856.166.4639.249.835.249.2995 0 .5387-.0879.7178-.2637.179-.179.2685-.4231.2685-.7324v-4.0332zm5.4736 4.2334c0-.2604-.0992-.4622-.2978-.6054-.1953-.1433-.5322-.2751-1.0108-.3956-.4785-.1204-.8577-.2506-1.1376-.3906-.6348-.319-.9522-.7698-.9522-1.3525 0-.4655.1969-.8431.5908-1.1328.3972-.2897.9066-.4346 1.5283-.4346.6381 0 1.1589.1628 1.5625.4883.4069.3255.6104.7422.6104 1.25h-.9033c0-.319-.1156-.5648-.3467-.7373-.2279-.1758-.5387-.2637-.9326-.2637-.3679 0-.6608.0732-.8789.2197-.2181.1433-.3272.3451-.3272.6055 0 .2116.0993.389.2979.5322.2018.1433.5566.28 1.0644.4102.5078.1302.905.2783 1.1914.4443.2865.1628.4997.3548.6397.5762.14.2213.2099.4801.2099.7764 0 .4785-.1985.8561-.5957 1.1328-.3938.2734-.9147.4101-1.5625.4101-.6738 0-1.2337-.1644-1.6796-.4931-.4428-.3321-.6641-.7618-.6641-1.2891h.9082c0 .332.1253.5908.376.7764.2506.1855.6038.2783 1.0595.2783.4102 0 .7211-.0733.9327-.2197.2115-.1498.3173-.3451.3173-.586zm3.9308-2.1094l1.401-2.124h1.074l-1.928 2.8223L104.798 75h-1.074l-1.46-2.1631L100.818 75h-1.0739l1.9829-2.8662-1.9389-2.8223h1.0689l1.397 2.124z" fill="#FFAC00"/>
  <circle cx="35" cy="116" r="25" fill="#F2F2F2"/>
  <path d="M36.1567 114.414l2.2614-2.261 1.1415 1.142-4.1802 4.179-4.2328-4.232 1.1415-1.142 2.2542 2.254.0001-6.096h1.6144l-.0001 6.156zM20 117.161h1.6143v-4.768l2.9192 2.92 2.9414-2.941v4.741h1.6143v-8.639l-4.5556 4.556L20 108.496v8.665zM40.9835 115.875l3.3138-3.314-3.419-3.419L42.0198 108l3.4194 3.419L48.8585 108 50 109.142l-3.4192 3.419 3.314 3.314-1.1415 1.141-3.3141-3.314-3.3142 3.314-1.1415-1.141z" fill="#333"/>
  <path d="M24.7031 135.526c0-.156.0456-.286.1367-.39.0944-.104.2344-.157.42-.157.1855 0 .3255.053.4199.157.0976.104.1465.234.1465.39 0 .15-.0489.275-.1465.376-.0944.101-.2344.152-.4199.152-.1856 0-.3256-.051-.42-.152-.0911-.101-.1367-.226-.1367-.376zm3.7793-5.214l1.9092 4.448 1.8994-4.448h1.1768V136h-.8985v-1.958l.0928-2.603L30.7188 136h-.6641l-1.9385-4.541.0928 2.583V136h-.8985v-5.688h1.1719zM34.8203 136v-5.688h1.7627c.5274 0 .9945.109 1.4014.327.4101.215.7291.522.957.923.2279.4.3467.859.3565 1.376v.376c0 .821-.254 1.473-.7618 1.958-.5045.485-1.1849.728-2.041.728h-1.6748zm.9033-4.941v4.204h.8008c.6055 0 1.0694-.17 1.3916-.508.3223-.339.4834-.82.4834-1.445v-.313c0-.625-.1546-1.103-.4639-1.435-.3059-.336-.7568-.503-1.3525-.503h-.8594zm6.6455 1.377l1.4014-2.124h1.0742l-1.9287 2.822L44.9131 136h-1.0742l-1.46-2.163L40.9336 136h-1.0742l1.9824-2.866-1.9385-2.822h1.0694l1.3964 2.124z" fill="#FFAC00"/>
  <circle cx="96" cy="116" r="25" fill="#F2F2F2"/>
  <path d="M109.846 101H82.1539c-.637 0-1.1539.517-1.1539 1.154v20.769c0 .637.5169 1.154 1.1539 1.154h27.6921c.637 0 1.154-.517 1.154-1.154v-20.769c0-.637-.517-1.154-1.154-1.154zm-1.154 2.308v9.907l-4.953-4.954c-.451-.45-1.181-.45-1.632 0l-8.4147 8.415-1.4919-1.492c-.4056-.406-1.0477-.452-1.5081-.107l-7.3846 5.538v-17.307h25.3843zm-23.0766 18.461l5.6608-4.245 1.5998 1.599c.4499.451 1.1815.451 1.6315 0l8.4155-8.414 5.769 5.769v5.291H85.6154z" fill="#333"/>
  <path d="M90.2308 112.538c1.909 0 3.4615-1.552 3.4615-3.461 0-1.909-1.5525-3.462-3.4615-3.462-1.9091 0-3.4616 1.553-3.4616 3.462 0 1.909 1.5525 3.461 3.4616 3.461zm0-4.615c.6363 0 1.1538.518 1.1538 1.154 0 .636-.5175 1.154-1.1538 1.154-.6364 0-1.1539-.518-1.1539-1.154 0-.636.5175-1.154 1.1539-1.154z" fill="#333"/>
  <path d="M86.7031 135.526c0-.156.0456-.286.1367-.39.0944-.104.2344-.157.42-.157.1855 0 .3255.053.4199.157.0976.104.1465.234.1465.39 0 .15-.0489.275-.1465.376-.0944.101-.2344.152-.4199.152-.1856 0-.3256-.051-.42-.152-.0911-.101-.1367-.226-.1367-.376zm3.5108-1.665V136h-.9034v-5.688h2.2803c.6641 0 1.1931.162 1.5869.488.3939.322.5909.757.5909 1.304 0 .553-.1905.984-.5713 1.293-.3809.31-.9196.464-1.6162.464h-1.3672zm0-.742h1.3769c.4037 0 .7162-.086.9375-.259.2214-.172.3321-.421.3321-.747 0-.312-.1107-.564-.3321-.757-.2213-.195-.5257-.294-.9131-.297h-1.4013v2.06zM99.5156 136h-.8984l-2.9541-4.277V136h-.9033v-5.688h.9033l2.9541 4.282v-4.282h.8984V136zm5.9424-.732c-.215.27-.513.473-.894.61-.377.133-.812.2-1.303.2-.775 0-1.397-.242-1.865-.727-.469-.485-.707-1.138-.713-1.958v-.44c0-.853.216-1.518.649-1.997.436-.482 1.048-.723 1.836-.723.651 0 1.173.153 1.567.459.394.306.635.754.723 1.343h-.898c-.124-.706-.585-1.059-1.382-1.059-.518 0-.912.167-1.182.503-.27.335-.405.826-.405 1.474v.41c0 .619.15 1.104.449 1.455.303.349.715.523 1.235.523.593 0 1.021-.121 1.285-.362v-1.162h-1.372v-.703h2.27v2.154z" fill="#FFAC00"/>
  <circle cx="229" cy="85" r="75" fill="#F2F2F2"/>
  <circle cx="229" cy="47" r="25" fill="#fff"/>
  <path d="M226.5 54.0872l10.545 7.0795h.577l10.545-7.0795v-4.826l-7.867 5.4371v-21.865h-5.933v21.865l-7.867-5.4371v4.826z" fill="#FFAC00"/>
  <path d="M231.5 39.9128l-10.545-7.0795h-.577l-10.545 7.0795v4.826l7.867-5.4371v21.865h5.933v-21.865l7.867 5.4371v-4.826z" fill="#FFAC00"/>
  <circle cx="229.5" cy="99.5" r="17.5" fill="#fff"/>
  <path d="M239.848 106.268L229.716 112v-4.463l6.313-3.474 3.819 2.205zm.695-.628V93.6552l-3.707 2.142v7.7048l3.707 2.138zm-21.849.628L228.826 112v-4.463l-6.316-3.474-3.816 2.205zm-.694-.628V93.6552l3.706 2.142v7.7048L218 105.64zm.435-12.7619L228.826 87v4.3139l-6.658 3.663-.053.0299-3.68-2.1287zm21.672 0L229.716 87v4.3139l6.659 3.6597.053.0299 3.679-2.1254z" fill="#828282"/>
  <path d="M228.826 106.52l-6.23-3.427v-6.7844l6.23 3.5966v6.6148zm.89 0l6.23-3.423v-6.7884l-6.23 3.5966v6.6148zm-6.698-10.9952l6.253-3.4371 6.254 3.4371-6.254 3.6099-6.253-3.6099z" fill="#333"/>
  <circle cx="204.5" cy="129.5" r="17.5" fill="#fff"/>
  <path d="M209.145 125.864l-.005-.053-.087.007.006.054.086-.008zm.584 1.403l.002.03.061-.006c-.002-.018.005-.048.018-.085l-.005-.053c-.026.002-.052.041-.076.114zm-2.277 1.767c-.003-.049-.158-.243-.465-.585-.005-.063.1-.157.316-.281l.616-.537c.139-.175.22-.46.244-.855l-.007-.09c-.024-.273-.222-.493-.597-.661-.221-.15-.62-.233-1.196-.248-.476.041-1.099.211-1.865.512-.21.151-.45.303-.72.454l.004.046c.016-.002.042-.011.072-.031.031-.004.05.011.051.04l.047-.024.022-.001.002.02c.001.024-.165.155-.501.389l.026.048-.022.002-.056-.02c.002.017-.022.028-.068.031l.002.021.054.066c-.017.002-.043-.005-.078-.018-.078.007-.153.048-.229.125l.032-.136c.112-.486.19-.916.23-1.289l-.005-.024c-.078-.05-.154-.12-.224-.209.002-.057.002-.09 0-.098l-.005-.02-.022.006c-.244.365-.713.989-1.409 1.872-.53.628-.803.977-.82 1.047-.216.223-.319.358-.308.404-.058.037-.082.074-.072.115-.017.003-.028-.002-.032-.019-.092.15-.229.246-.411.288l-.192.044c-.026.006-.039.024-.037.056l.005.024.072-.017.006.021-.163.062-.288.067-.151.009c-.022.022.12-.002.064.011l-.188.044c-.114.026-.177.017-.188-.029l-.022.005c.003.021.005.036.001.048l-.011-.046-.151.035c-.011-.07-.216-.325-.613-.764-.007-.085.133-.209.419-.369l.809-.711c.181-.233.288-.606.323-1.119l-.011-.12c-.032-.362-.294-.654-.787-.879-.291-.198-.816-.303-1.573-.319-.628.053-1.447.277-2.456.666-.276.201-.592.401-.947.598l.006.063c.024-.002.055-.015.094-.037.041-.004.063.015.066.052l.063-.035.032-.002.001.029c.002.03-.217.202-.662.516l.035.055-.032.002-.068-.024c.002.018-.03.031-.094.037l.003.033.074.081c-.024.002-.057-.005-.099-.02-.144.013-.285.116-.423.312l.035.055c.12-.11.19-.166.21-.168l.008.091c-.021.002-.052.015-.094.037l.075.114c.143-.154.305-.29.482-.404.087.022.133.05.135.079l.066-.005c.477-.353.948-.608 1.415-.765l.005.063c-.086.129-.145.196-.177.2.004.044.019.083.046.116.008.079-.205.615-.635 1.604-.977 2.301-1.796 4.003-2.463 5.104.002.022.015.051.039.088.164-.038.268-.079.312-.118l.035-.003.005.062.061-.005.063-.035c.002.018.022.027.065.024l.005.063c.006.06-.029.153-.103.28-.066.076-.139.235-.214.477l.002.029.061-.005c.266-.298.467-.59.605-.874.776-.227 1.367-.45 1.776-.67.412-.035.726-.144.94-.323l-.003-.033-.156.046-.035.003-.003-.033c.302-.046.511-.112.627-.205.589-.454 1.034-.775 1.335-.965.619-.455 1.021-.898 1.204-1.328.035-.007.069-.015.104-.024.086-.004.134-.005.147-.009-.003-.017.004-.026.021-.03.138-.014.072.009.16-.011l.233-.053c-.015.003-.02.011-.017.025l.035-.022c-.007 0-.013-.002-.018-.003l.039-.01-.019.012c.026.003.054.001.085-.006l.017.068-1.058 1.682-.235.294-.114.384.022-.006.114-.048-.036.15.011.044.031.039c-.015.004-.02.013-.017.03l.006.024.048-.012c.07-.06.1-.116.089-.166.075.013.125.019.151.011l.006.024c-.047.011-.071.048-.074.111l.005.024.026-.005c.384-.42 1.326-1.854 2.081-2.827-.024-.105.369-.251 1.182-.44l.025-.005c.03.127-.033.436-.188.925-.1.295-.148.458-.14.484-.129.393-.19.605-.183.639l-.288.943c-.186.484-.329.992-.428 1.527.016-.004.042-.002.079.007l.041-.035c.003.017.014.022.031.019l-.017-.069.126-.003c.037-.009.068-.056.094-.141-.005-.127.02-.195.078-.21.077-.303.125-.454.142-.46.072-.301.125-.473.16-.515.109-.391.189-.593.24-.606l.012.048-.08.205c-.138.615-.279 1.101-.421 1.457l.041.177.026-.005c.343-.739.838-2.201 1.482-4.387.019-.192.111-.342.275-.447l-.036-.039-.006-.02c.074-.017.126-.046.155-.087-.004-.016-.068-.04-.194-.074l.322-1.377c.07-.063.11-.096.123-.096l.006.07c-.017.002-.043.011-.072.031l.061.087c.11-.12.23-.223.362-.31.066.019.099.041.103.063l.048-.004c.366-.268.724-.46 1.076-.576l.004.046c-.065.098-.109.148-.133.15.004.033.013.063.03.088.005.061-.154.468-.478 1.221-.743 1.745-1.365 3.035-1.871 3.874.002.016.013.038.033.068.124-.03.203-.061.235-.091l.022-.001.004.046.051-.004.047-.024c.001.013.018.019.049.017l.004.05c.004.044-.022.114-.079.21-.054.057-.109.177-.168.36l.001.024.048-.004c.202-.225.355-.446.46-.664.589-.174 1.038-.342 1.348-.508.316-.028.554-.109.717-.246l-.002-.024-.12.035-.026.002-.002-.024c.229-.033.39-.085.476-.153.447-.343.785-.589 1.014-.733.713-.519 1.045-1.017 1.004-1.496zm-.122.032l.017.186c-.022.046-.046.07-.068.072l-.028-.317c.052.018.078.037.08.059h-.001zm-13.98-1.503l-.032.002-.005-.058.127-.011.002.03c-.02.002-.052.013-.092.037zm-.623 6.224c-.073-.033-.14-.046-.197-.041l-.008-.09c-.003-.035.017-.059.061-.068.041-.004.065.025.069.085.107-.132.166-.198.177-.2l.068.028c-.022.184-.079.279-.17.286zm6.649-6.955c-.031.003-.094-.095-.184-.288l-.006-.058c.059-.005.12.091.185.288l.005.058zm-.088-.689l-.026.061-.903-.377c.602.021.912.126.929.316zm-3.813 3.274l-.128.011-.005-.058.127-.011.006.058zm-.104-1.967l.032-.002.007.091c-.029.002-.068.046-.116.131l-.006-.063c.058-.068.087-.12.083-.157zm-.267.632l.011.12-.032.002-.011-.12.032-.002zm-.141.225l.061-.006c-.005.1-.033.154-.083.157l-.031.002c.039-.066.057-.118.053-.153zm-.105.314l.035-.004.002.03-.057.096-.061.005-.002-.029c.061-.006.089-.037.083-.098zm-.103.282l-.019.152-.031.002-.013-.15.063-.004zm-1.036 2.945c-.041.207-.085.312-.131.316l-.002-.03c-.011-.101.033-.197.133-.286zm-.19.412l.002.03c.003.04-.015.064-.056.066l-.002-.03c-.003-.035.015-.057.056-.066zm-.056.855l.096-.009.004.033c-.024.002-.055.015-.094.037l-.061.005c-.004-.031.017-.055.055-.066zm2.733-.844c-.539.266-.857.447-.951.541-.583.203-.873.329-.868.379-.518.205-.86.356-1.024.45-.039.004-.095-.011-.168-.044-.01-.105.038-.19.14-.259.09-.007.177.006.26.041.096-.05.264-.105.502-.164l-.005-.063-.192.016c.024-.033.208-.12.556-.26l.096-.009.002.029c-.165.015-.255.063-.276.15.004.039.026.055.067.052.124-.078.184-.124.183-.137.234-.044.882-.384 1.944-1.017l.005.057c.002.028-.088.105-.271.238zm-1.629.536c.156-.013.289-.076.399-.185.045-.004.069.013.07.052-.075.007-.221.07-.433.192l-.032.001-.004-.06zm2.628-2.019l-.814.645c-.606.397-.931.596-.977.6-.964.53-1.564.805-1.797.825l-.035.004c.03-.109.458-.986 1.289-2.637.366-.031.942-.201 1.726-.511l.192-.017c.397-.035.695.043.89.227l.011.12c-.147.425-.31.672-.485.744zm-1.592-.895l.131-.011.002.029-.131.012-.002-.03zm1.841-.312l.096-.009c.089.042.135.079.139.112l.002.03c-.085.007-.165-.037-.237-.133zm.261-1.483c-.085.102-.318.275-.698.519-.126.011-.593.192-1.402.547-.04-.019-.085-.026-.129-.022l-.006-.058c-.009-.116.043-.262.157-.439.063-.333.131-.523.207-.569l.674-1.516c-.007-.094.137-.166.432-.216l.096-.009.008.087c.289-.045.47-.07.54-.076.536-.046.815.063.837.323l.061-.005-.013-.154.066-.005c.157.087.242.192.253.316.008.085-.038.19-.136.315-.041.004-.065-.026-.069-.085l-.066.006-.015.185c-.271.406-.469.614-.591.625-.111.154-.179.229-.206.231zm.413 1.062c-.055-.037-.1-.054-.133-.052l-.007-.09.061-.006.135.08c.005.042-.013.064-.056.068zm.428.508c.06.024.095.05.102.074l-.03.007.002.002c-.005 0-.013.002-.018.004l-.044.035-.012-.122zm.041.255l-.005-.025.077-.018.006.024-.078.019zm.187.208c.079-.013.118-.018.265-.052l.006.024-.281.065c.004-.013.008-.026.01-.037zm.273.116c-.118.012-.092-.003-.281.039l-.005-.024.234-.075.113-.026.011.044c-.05.011-.013.011-.072.042zm.249-.059c-.028.008-.05-.005-.063-.037l.072-.016c.032-.008.052.005.059.037l-.068.016zm.676-.727l-.006-.024.117-.028.011.045-.122.007zm.722 4.428c.007-.034.009-.058.005-.074l.026-.006c.032-.007.05.004.057.033l.006.024-.094.023zm.506-4.238l-.052-.009c-.083.033-.153.057-.21.07l-.048.011c-.028.007-.05-.004-.061-.033l.337-.078.111-.051.037.042c-.053.011-.092.028-.114.048zm.26-.083l-.005-.024c.016-.004.038-.017.062-.041l.24-.055.006.024c-.128.031-.229.063-.303.096zm.037-.486c-.017.004-.039.019-.067.041-.003-.017-.036-.017-.099-.002-.011-.046.166-.111.533-.196l.052-.011.011.045c-.258.075-.402.118-.43.123zm.646-.698c-.026.294-.129.46-.312.503l-.005-.024-.163.062-.072.017c-.037.009-.07.007-.1-.002l-.014-.064c-.006-.024.229-.349.705-.973l.055.009c.021.085-.011.242-.094.472zm1.143-.978l-.022.002-.004-.046.096-.01.002.024c-.016.004-.04.013-.072.03zm-.471 4.728c-.055-.025-.105-.036-.147-.033l-.006-.07c-.002-.024.013-.041.044-.05.032-.003.05.019.054.067.079-.102.124-.154.133-.154l.05.021c-.019.14-.061.214-.128.219zm5.048-5.28c-.024.002-.07-.072-.142-.222l-.004-.046c.047-.004.095.068.143.216l.003.052zm-.066-.528l-.022.048-.683-.286c.456.014.692.094.705.238zm-2.897 2.487l-.096.009-.004-.046.096-.008.004.045zm-.08-1.494l.026-.002.006.07c-.024.002-.054.036-.089.1l-.003-.046c.042-.054.062-.094.06-.122zm-.201.48l.008.091-.026.001-.008-.09.026-.002zm-.109.172l.048-.004c-.005.078-.026.118-.061.122l-.025.002c.027-.052.04-.092.038-.12zm-.077.236l.022-.002.002.024-.043.074-.048.004-.002-.024c.05-.004.072-.03.069-.076zm-.078.214l-.016.119-.023.001-.009-.116.048-.004zm-.788 2.24c-.032.155-.065.235-.1.238l-.002-.02c-.005-.078.028-.151.102-.218zm-.146.312l.002.02c.003.034-.011.052-.045.054l-.001-.024c-.002-.024.013-.041.044-.05zm-.041.65l.074-.006.002.024c-.017.002-.042.012-.072.028l-.048.004c-.002-.026.013-.043.044-.05zm2.074-.641c-.406.202-.648.338-.724.408-.443.155-.663.252-.659.29-.393.157-.652.27-.774.342-.029.002-.072-.009-.127-.035-.008-.08.029-.144.107-.192.07-.006.137.003.197.029.074-.037.202-.077.383-.123l-.004-.047-.151.011c.018-.025.16-.092.424-.199l.074-.005.002.02c-.126.011-.196.048-.211.114.002.03.021.045.052.041.092-.061.137-.096.137-.107.177-.032.668-.29 1.475-.774l.004.046c.002.021-.067.08-.205.181zm-1.237.407c.12-.012.221-.058.306-.139.032-.004.05.011.052.041-.055.005-.164.051-.329.14l-.026.002-.003-.044zm1.997-1.535l-.614.495c-.46.301-.709.452-.748.456-.731.403-1.186.611-1.365.626l-.025.002c.022-.083.349-.75.98-2.002.275-.024.711-.155 1.309-.391l.15-.013c.301-.026.526.033.674.175l.007.091c-.113.317-.235.504-.368.561zm-1.207-.679l.096-.01.002.025-.096.009-.002-.024zm1.398-.238l.074-.006c.068.033.103.063.105.087l.002.02c-.065.006-.126-.028-.181-.101zm.194-1.125c-.065.078-.24.211-.527.395-.096.009-.45.146-1.063.412-.03-.011-.063-.015-.098-.013l-.004-.046c-.007-.089.032-.2.117-.334.048-.255.101-.397.157-.431l.515-1.152c-.006-.068.103-.123.325-.166l.073-.005.006.07c.218-.035.355-.056.41-.061.406-.035.618.046.635.245l.048-.003-.009-.111.048-.004c.118.065.181.142.188.235.006.066-.028.147-.098.242-.031.003-.049-.019-.053-.067l-.048.004-.015.138c-.205.312-.354.473-.449.48-.083.113-.134.17-.158.172zm.216.768l-.006-.07.048-.004.103.063c.002.03-.013.046-.044.05-.044-.028-.077-.041-.101-.039zm-8.595 4.485l-.048.011-.041.035c.007.03.026.041.057.033.032-.007.045-.025.037-.055l-.005-.024zm-.183-.364l.005.024c.032-.007.045-.026.037-.055l-.005-.024c-.03.007-.043.026-.037.055zm1.3-3.092l.055-.013-.011-.048-.055.013.011.048zm16.754 1.407c-.562.125-.632.103-.75.112l.004.046.052-.003.027-.002-.007-.006.061-.024c.556-.061.62-.038.615-.101l-.002-.022zm-3.023.4l.004.046h.007l-.003-.046h-.008zm-.347-1.217l-.05-.016c-.04.109-.061.173-.059.192l.002.02c.039-.002.074-.068.107-.196zm3.484.807l.004.046.081.015-.003-.046-.082-.015zm-3.82.467l-.125-.014-.023.048.002.024.748-.063-.004-.046-.598.051zm-.34-1.637l-.001-.024-.026.002-.047.029.026.044c.035-.003.052-.02.048-.051zm4.515.831l.035-.004c.02-.002.029-.019.028-.048l-.021-.044c-.127.011-.186.016-.29.073l-.002-.024-.153.015c-.003-.046-.016-.07-.037-.068l-.079.007c-.092.008-.137.004-.183.039-.002-.017-.007-.024-.016-.024l-.089.007-.052.03c-.002-.017-.007-.024-.016-.024l-.032.028-.002-.024-.123-.01-.03.002.004.046.063.017.059-.004c.02.013.042.017.068.015l.052-.026.002.021c-.29.072-.288.059-.488.092-.022-.015-.039-.022-.05-.02l-.003.003c-.023-.002-.036-.016-.037-.04l.103-.013c.007 0 .013.007.07.018.083-.04.087-.057.131-.061l-.003-.046c-.285.056-.17.019-.527.05l-.016.002-.004-.046c.458-.056.305-.024.462-.069.002.017.007.024.016.024.017-.017.039-.028.063-.031l.031-.002c.161-.013.215.019.532-.07l.002.02.052-.026.048-.003c-.004-.046.066-.054.09-.056l-.003-.05c-.558.113-.704.082-.859.126l-.002-.02c-.146.026-.151.015-.188.016-.011.002-.028.011-.046.03-.002-.017-.008-.024-.019-.024-.005 0-.007.002-.009.002l-.473.077c-.002-.013-.007-.02-.018-.018-.246.052-.179.061-.508.09-.015.002-.035.01-.061.026-.002-.013-.009-.02-.026-.018l-.201.016-.135.034c-.002-.013-.009-.021-.026-.019-.075.02-.142.033-.195.037h-.004c-.033.004.017-.009-.009-.02l-.041.024c-.059.005-.028-.004-.231-.002-.356.044-.317.05-.356.052l-.133-.01c.002.013-.005.022-.02.022-.152-.02-.229-.044-.231-.072.02-.144.055-.217.105-.221l.026-.002-.022.048.026-.002c.048-.026.07-.05.068-.072l-.004-.05-.048.004-.003-.046c-.004-.035.002-.067.014-.092l.109-.176.004.046.052-.003-.004-.047-.029-.042c.038-.033.068-.052.092-.054l-.002-.024-.07.006-.006-.07c.141-.292.207-.462.203-.51l.05.021c.032-.002.046-.021.045-.054l-.048.004-.002-.021c-.004-.033.003-.067.018-.097.076-.08.111-.159.104-.242.014-.002.022.005.024.022.064-.037.114-.135.151-.297.114-.207.277-.621.489-1.239.406-1.093.39-1.21.447-1.468l-.048.003c.004.034-.004.065-.018.095-.034-.013-.059-.021-.078-.019l-.002-.02c-.007-.094.032-.207.12-.34l.022-.002.041.159.048-.004c-.002-.011.011-.074.037-.19-.002-.024-.02-.039-.057-.04l-.046.029c-.004-.033-.002-.12.003-.258l-.024.001c-.04-.04-.061-.073-.063-.101l-.264.026c-.001-.019-.011-.046-.029-.082-.002-.024.057-.048.179-.072l.054.021.049-.03c.002.017.011.024.03.022l.05-.029c.002.016.011.024.029.022l.024-.002-.003-.053c-.037.003-.135.003-.29-.002l-.05.033-.002-.03c-1.239.102-1.942.159-2.11.176-.023.002-.109 0-.263-.004.002.02-.016.032-.053.035l-.054-.024-.181.046c-.042.004-.114.002-.214-.009-.027.022-.061.035-.101.039-.023.002.264-.015.53-.033-.028.022-.071.035-.13.04-.04.004-.075-.002-.105-.018-.041.018-.172.048-.391.092l-.054-.02-.864.133c-.033-.017-.072-.022-.116-.019-.047.004-.124.021-.231.05l-.417.174.031.051c.02-.001.05-.012.085-.033l.148.013-.019.139c-.137.061-.216.151-.238.266-.205.09-.307.155-.307.193l.002.024.032-.001.055-.03.065.078.009.107c.004.033-.342.758-1.032 2.177-.598 1.366-.912 2.114-.942 2.248-.205.058-.323.141-.358.252.004.035.065.059.183.068l.005.053-.053.089.009.107c.006.055.155.098.449.127-.002-.018.007-.029.027-.031.006.067-.013.196-.055.388l.031-.002c.122-.166.179-.281.174-.343l.026-.002c.029-.002.061.031.098.103-.037.015-.167.308-.388.883l.031.051.032-.002c.271-.686.441-1.067.511-1.139.356-.031.973-.094 1.848-.188l.056-.033c.002.018.013.027.033.026l.057-.006.056-.033c.001.018.012.027.033.026l.663-.058c.175-.014.258-.068.251-.158-.002-.024.101-.052.31-.082.02-.002.05.004.09.017-.001-.017.104-.033.314-.052.006-.111.041-.17.104-.175l-.006-.054c-.059.006-.125.021-.203.046-.138-.007-.227-.018-.264-.031-.037.02-.065.031-.085.033l-.461.015-.056.03c-.002-.017-.013-.024-.033-.023l-.026.002-.059.03c-.002-.017-.05-.03-.146-.043l-.059.035-.114.01-.002-.03c.594-.064.888-.146.88-.242.039-.003.06.015.063.054l.174-.044-.006-.054-1.423.039c.002.018-.008.029-.028.031l-.174-.015c-.044.004-.081.017-.11.039l-.065-.024c-.179.015-.312.037-.401.065-.122-.009-.256-.008-.406.005l-.319.028-.148-.017c-.007-.094.175-.557.552-1.388.109-.281.209-.456.305-.523.02-.001.05.006.09.023l.227-.078.117.018c.195-.016.422-.072.683-.168.064-.005.112-.001.147.013l.174-.04.517-.045c.22-.018.458-.066.716-.145l-.005-.054c-.096.009-.146-.007-.15-.046-.005-.072-.075-.102-.21-.091l-.006-.053.142-.041.373-.031-.005-.054c-.015.002-.091 0-.231-.005l-.005-.058.144-.012c.038-.004.055-.023.051-.06-.194.006-.291-.003-.293-.029-1.352.066-2.029.079-2.033.037-.02.002-.048.015-.085.037l-.035-.056c.358-.76.569-1.144.629-1.15.002.03-.012.078-.046.142l.002.024.057-.005c.143-.34.263-.515.362-.523.425-.037-.059-.064.85-.207.037.017.062.024.081.023.356-.072.853-.148 1.49-.226l-.004-.053-.34.031-.003-.053c.04-.004.074-.017.101-.039l.002.029c.019-.001.044-.014.078-.037.059-.005.103 0 .135.017.118-.031.214-.05.284-.057l.212-.02c.052-.034.076-.063.074-.091l-.002-.024c-.053.006-.114.002-.186-.011-.002-.03.013-.05.048-.059l.395-.037.181-.046c.002.02.011.028.026.028.018-.002.044-.015.077-.037.009.001.021.001.03.003-.024.05-.052.122-.08.216l-.051.004c-.004-.035-.013-.066-.03-.094l-.026.002c-.48 1.336-.694 1.959-1.137 2.985-.081.262-.15.408-.209.44.002.029.021.044.052.04.011.13-.019.257-.091.383-.204.59-.341.913-.411.973l.046.278c.002.03-.013.047-.044.05l-.048.004c-.008-.078-.036-.115-.085-.109l-.026.002c-.063.098-.111.21-.142.341l.048-.003c.064-.043.094-.093.088-.15l.096-.009.056.02c-.045.07-.065.126-.061.168l.026.045-.063.147.002.024c.055-.005.116.013.181.052.044-.004.092-.024.145-.059.056-.006.263-.007.619-.007l.179-.061c.218-.002.253.003.441-.013l.078-.008.041-.027.001.024c.198-.017.211-.004.366.014l.002.024-.109.01.004.046c.033-.004.062-.013.086-.033.028-.002.045.012.047.046-.045.003-.095.014-.15.033l-.048-.017c-.076.021-.059.026-.111.03l-.076-.015c.002.013-.005.022-.018.022.002.03.018.045.046.043l.078-.008.404-.035.153-.033c.002.013.008.02.021.018l.073-.027.139-.011c.107-.01.105-.017.338-.054-.002-.015.004-.02.015-.022l.001.02c.379-.064.403-.068.464-.088l.005.011c.095-.022.041-.017.067-.035.002.016.007.024.017.024l.066-.006-.004-.05-.134-.002-.002-.003c-.006.002-.01.002-.015.003h-.019v.004c-.09.019-.092.006-.151.011l-.338.019-.002-.024.189-.026.068-.006.039-.027.002.024c.265-.023.36.044 1.589-.218.067-.006.061-.061.104-.176-.023.002-.045-.003-.065-.015-.101.039-.155.021-.351.052-.016.002-.029-.013-.035-.042l-.002-.021.189.006c.035-.004.103-.009.205-.067 0 .017-.037.026-.015.024v.001zm-9.092.145l-.087.008c-.003-.035.043-.168.139-.395l.057-.006c.002.054-.033.185-.109.393zm.105-.42l-.001-.025c-.002-.029.016-.049.057-.059l.002.024c.002.035-.017.056-.058.06zm1.154.891l.002.024-.144.013-.002-.024.144-.013zm-.173-.014c.002.029-.043.062-.139.096l-.177-.013-.057.005-.006-.053.379-.035zm1.167-5.372l-.087.008-.002-.03c-.002-.029.015-.05.052-.059l.031-.002.059.024c.002.035-.014.056-.053.059zm1.32-.258l.028-.002.003.054-.079.007c-.002-.03.013-.05.048-.059zm-.332.116l-.132-.015-.001-.024c.171-.014.229-.033.334-.062.002.02.02.027.053.024l.004.053-.052.006c-.04.003-.075-.002-.105-.019-.031.021-.065.034-.101.037zm.164.478l-.002-.024.212-.02.002.024-.212.02zm.227-.184l-.002-.03.104-.009.001.03-.103.009zm.024-.362l-.028.002.024-.058.237-.022.002.03c-.061.005-.141.022-.235.048zm.12.509l-.004-.053.104-.009c.035-.004.053.013.055.05l-.155.012zm.626-.853l-.133.037-.024.002c-.063.006-.144.004-.24-.005.172-.011.336-.024.397-.034zm-.142.591l.002.024-.183.017-.002-.024.183-.017zm.299.142c-.002-.022-.037-.036-.109-.044l-.183.052-.14.005c-.032-.022-.048-.037-.05-.048l.163.01.365-.059.187.007.001.029c-.092.01-.169.026-.234.048zm1.881-.485c.023.002.037.002.043.002.064-.063.137-.113.22-.148-.067.292-.17.508-.312.648l-.104-.063c.087-.219.139-.365.153-.439zm-.317.545l.026-.002c-.035.066-.067.101-.093.103l-.005-.07c.016 0 .04-.011.072-.031zm-.205.489c.05-.2.098-.312.142-.342l.002.024c-.026.185-.067.283-.12.29l.009.116c-.044.063-.065.111-.063.148l-.026.002-.014-.161c.029-.003.053-.029.07-.077zm-.08.266c.002.027-.016.092-.053.192l-.026.002-.005-.071c.035-.081.064-.121.084-.123zm-1.49 4.324l-.001-.02.048-.004.005.07c-.026.002-.044-.013-.052-.046zm2.129.055c-.002-.016-.009-.024-.026-.022l-.12.011-.001-.024h.011l.284-.024.002.024c-.083.004-.133.017-.15.035zm-.142-.059c.011.006.006.011 0 .015-.005-.002-.013-.007 0-.015zm.015-.332l-.159.013-.002-.024.144-.013.126-.031c.002.014.009.02.026.018.149-.026.135-.033.206-.039.024-.002.039.013.041.043l-.382.033zm.556-.048c-.089-.009-.094-.017-.157-.011l-.002-.02.142-.013.002.02c-.015.002.039.005.015.024zm.011-.026l-.002-.02.077-.008.002.021-.077.007zm.171-.015l-.001-.02c.013-.002.031-.011.055-.03.039-.003.059.023.063.052l-.117-.002zm.22-.027l-.002-.024.095-.008.001.024-.094.008zm.131-.012c-.002-.027.01-.044.034-.047l.031.04c-.002-.013.004-.02.015-.022l.024.044-.104-.015zm-1.394.602l-.003-.046-.015.002.003.046.015-.002zm3.244-.84c.015-.009.023-.018-.013-.024-.016.019.019.024-.018.026l.002.017c.004-.004.013-.009.02-.015l-.02.017v.001l-.039.05.078-.027h.009l-.004-.047-.015.002zm.135.106l-.015.001.004.047.109-.01c-.002-.029-.074-.038-.098-.038zm-.168-.082l.002-.002v-.001s-.002.001-.002.003z" fill="#333"/>
  <path d="M209.646 127.12l.002.029.061-.005c-.002-.019.005-.048.018-.085l-.005-.054c-.026.002-.052.041-.076.115zm-.584-1.404l-.005-.053-.087.007.006.054.086-.008zm-1.693 3.171c-.003-.05-.159-.244-.465-.586-.006-.062.1-.157.316-.28l.616-.538c.139-.175.22-.459.244-.854l-.007-.091c-.024-.273-.222-.493-.597-.661-.221-.149-.62-.233-1.196-.247-.476.04-1.099.21-1.865.511-.21.152-.45.303-.72.454l.004.047c.016-.002.042-.012.072-.032.031-.004.05.011.051.041l.047-.024.022-.002.002.02c.001.024-.165.155-.501.39l.026.048-.022.002-.056-.021c.002.017-.022.028-.068.032l.002.02.054.066c-.017.002-.043-.005-.078-.018-.078.007-.153.048-.229.126l.031-.137c.113-.486.191-.916.231-1.289l-.005-.024c-.078-.05-.154-.12-.224-.209.002-.057.002-.09 0-.097l-.005-.021-.022.006c-.244.365-.713.99-1.409 1.872-.53.628-.803.977-.82 1.047-.216.223-.319.358-.308.404-.058.037-.082.074-.072.115-.017.004-.028-.002-.032-.019-.092.15-.229.246-.412.288l-.192.045c-.025.005-.038.024-.036.055l.005.024.072-.017.006.021-.163.063-.288.066-.151.009c-.022.022.12-.002.064.011l-.188.045c-.114.026-.177.016-.188-.03l-.022.006c.003.02.005.035.001.048l-.011-.046-.151.035c-.011-.071-.216-.325-.613-.765-.008-.085.133-.208.419-.369l.809-.711c.181-.233.288-.606.323-1.119l-.011-.12c-.032-.362-.294-.653-.787-.879-.292-.197-.816-.303-1.573-.319-.628.053-1.447.277-2.456.666-.277.202-.592.401-.947.599l.006.062c.024-.001.055-.014.094-.037.041-.003.063.015.066.052l.063-.035.032-.002.001.03c.002.029-.217.201-.662.515l.035.055-.032.002-.068-.024c.002.019-.03.032-.094.037l.003.033.074.082c-.024.001-.057-.006-.099-.021-.144.013-.285.117-.423.312l.035.056c.12-.111.19-.166.21-.168l.008.09c-.021.002-.052.015-.094.037l.075.115c.143-.155.305-.291.482-.405.087.022.133.05.135.08l.066-.006c.477-.353.948-.607 1.415-.764l.005.062c-.086.13-.146.196-.177.2.004.044.019.083.046.116.008.08-.205.615-.635 1.605-.977 2.3-1.796 4.003-2.463 5.103.002.022.015.052.039.089.164-.039.267-.08.312-.119l.035-.003.005.063.061-.006.063-.035c.002.018.022.028.065.024l.005.063c.006.061-.029.153-.103.28-.067.076-.139.235-.214.477l.002.029.061-.005c.265-.297.467-.589.605-.874.776-.227 1.366-.45 1.776-.67.412-.035.726-.144.94-.323l-.004-.033-.155.046-.035.004-.003-.034c.302-.046.511-.112.627-.204.589-.455 1.034-.776 1.335-.966.619-.454 1.021-.897 1.204-1.328.033-.007.067-.014.104-.024.086-.003.134-.005.147-.009-.003-.017.004-.026.021-.029.138-.015.072.009.16-.012l.233-.053.039-.009-.019.011c.026.003.054.002.085-.006l.017.069-1.058 1.682-.235.293-.114.384.022-.005.114-.048-.037.149.012.045.031.038c-.015.004-.02.013-.017.03l.006.024.048-.011c.07-.061.1-.117.089-.166.075.013.125.018.151.011l.005.024c-.046.011-.07.048-.073.11l.005.024.026-.005c.384-.419 1.326-1.854 2.081-2.827-.024-.105.369-.251 1.182-.439l.025-.006c.03.128-.033.436-.188.925-.1.296-.148.458-.14.484-.13.393-.19.606-.183.639l-.288.943c-.187.484-.329.992-.428 1.527.016-.003.042-.002.079.008l.041-.035c.003.016.014.022.031.018l-.017-.068.126-.004c.037-.009.068-.055.094-.14-.005-.128.02-.196.078-.211.077-.303.125-.454.142-.46.072-.3.125-.472.16-.515.109-.391.189-.592.24-.605l.012.048-.08.205c-.138.615-.279 1.1-.421 1.456l.041.178.026-.006c.343-.738.838-2.201 1.482-4.387.019-.192.111-.341.275-.447l-.037-.038-.005-.021c.074-.016.125-.046.155-.087-.004-.016-.068-.04-.194-.073l.321-1.378c.071-.063.111-.096.124-.096l.006.07c-.017.002-.043.011-.072.032l.061.087c.11-.12.23-.224.361-.311.067.019.1.041.104.063l.048-.004c.365-.267.724-.459 1.076-.576l.004.046c-.065.098-.109.148-.133.15.004.033.013.063.03.089.005.061-.154.467-.479 1.22-.742 1.745-1.364 3.036-1.87 3.874.002.016.013.039.033.068.124-.029.203-.061.235-.09l.022-.002.004.046.051-.004.046-.024c.002.013.019.019.05.017l.004.05c.004.044-.022.114-.079.21-.054.058-.109.178-.168.36l.001.024.049-.003c.201-.226.354-.447.459-.665.589-.174 1.038-.342 1.348-.508.316-.028.554-.109.716-.245l-.001-.024-.12.035-.026.002-.002-.024c.229-.034.39-.085.476-.154.447-.343.785-.589 1.014-.733.713-.519 1.045-1.017 1.004-1.495zm-.122.031l.017.187c-.022.046-.046.07-.068.072l-.028-.318c.052.018.078.037.079.059zm-13.98-1.503l-.032.002-.005-.057.127-.011.002.029c-.02.002-.052.013-.092.037zm-.623 6.224c-.073-.033-.14-.046-.197-.04l-.008-.091c-.003-.035.017-.059.061-.068.041-.004.065.026.069.085.107-.131.166-.198.177-.2l.068.028c-.022.185-.079.279-.17.286zm6.649-6.955c-.031.004-.094-.094-.184-.288l-.006-.057c.059-.006.12.09.185.288l.005.057zm-.088-.689l-.026.061-.903-.377c.602.021.912.126.929.316zm-3.813 3.274l-.128.011-.005-.057.127-.011.006.057zm-.104-1.967l.032-.001.007.09c-.029.002-.068.046-.116.131l-.006-.063c.058-.068.087-.12.083-.157zm-.267.632l.011.12-.032.002-.011-.12.032-.002zm-.141.225l.061-.005c-.005.099-.033.153-.083.157l-.031.001c.039-.066.057-.118.053-.153zm-.105.314l.035-.004.002.03-.057.096-.061.005-.002-.029c.061-.006.089-.037.083-.098zm-.103.283l-.019.151-.031.002-.013-.15.063-.003zm-1.036 2.945c-.041.206-.085.312-.131.315l-.002-.029c-.011-.102.033-.198.133-.286zm-.19.411l.002.03c.003.04-.015.064-.056.066l-.002-.029c-.003-.035.015-.057.056-.067zm-.056.855l.096-.009.004.033c-.024.002-.055.015-.094.037l-.061.006c-.004-.032.017-.056.055-.067zm2.733-.844c-.539.266-.857.447-.951.541-.583.203-.873.329-.868.379-.519.205-.86.356-1.024.45-.039.004-.095-.011-.169-.044-.009-.105.039-.19.141-.258.09-.008.177.005.26.04.096-.05.264-.105.502-.164l-.005-.063-.192.017c.024-.033.208-.12.556-.261l.096-.009.001.03c-.164.014-.254.062-.275.149.004.039.026.056.067.052.124-.078.184-.124.183-.137.234-.044.882-.384 1.944-1.017l.005.057c.002.028-.088.105-.271.238zm-1.629.536c.156-.013.288-.076.399-.185.045-.003.069.013.07.052-.075.007-.221.07-.433.192l-.032.002-.004-.061zm2.628-2.018l-.814.646c-.606.397-.931.596-.979.6-.964.53-1.564.805-1.797.825l-.035.004c.03-.109.458-.986 1.289-2.637.366-.031.942-.201 1.727-.511l.192-.017c.397-.035.694.043.889.227l.012.12c-.146.423-.309.671-.484.743zm-1.592-.896l.131-.011.002.03-.131.011-.002-.03zm1.841-.312l.096-.009c.089.042.135.079.139.113l.001.029c-.085.008-.164-.037-.236-.133zm.26-1.482c-.084.101-.317.275-.697.518-.126.011-.593.192-1.402.547-.04-.019-.085-.026-.129-.022l-.006-.057c-.009-.117.043-.263.157-.44.063-.332.131-.522.207-.569l.674-1.515c-.007-.095.137-.167.432-.217l.096-.009.007.087c.29-.044.471-.07.541-.076.536-.046.815.063.837.323l.061-.005-.013-.153.066-.006c.157.087.242.192.253.316.008.085-.039.19-.136.316-.041.003-.065-.026-.069-.085l-.066.005-.015.185c-.271.406-.469.615-.591.626-.111.153-.179.229-.207.231zm.414 1.061c-.055-.037-.1-.053-.133-.051l-.007-.091.061-.006.134.08c.006.042-.013.065-.055.068zm.428.508c.059.024.095.05.102.074l-.03.007.002.002c-.005 0-.013.002-.018.004l-.045.035-.011-.122zm.041.255l-.006-.024.078-.019.006.024-.078.019zm.187.208c.079-.012.118-.018.265-.051l.006.024-.281.064c.004-.013.008-.025.01-.037zm.273.117c-.118.011-.093-.004-.281.039l-.005-.024.236-.076.113-.026.011.044c-.052.011-.015.011-.074.043zm.249-.059c-.028.007-.05-.006-.063-.037l.072-.017c.032-.007.052.006.059.037l-.068.017zm.676-.728l-.006-.024.117-.028.011.045-.122.007zm.722 4.428c.007-.033.009-.057.005-.074l.026-.006c.032-.007.05.004.057.034l.006.024-.094.022zm.506-4.238l-.052-.009c-.083.033-.153.057-.211.07l-.048.011c-.027.008-.049-.003-.061-.033l.338-.077.111-.052.037.042c-.053.011-.092.028-.114.048zm.26-.083l-.006-.024c.017-.003.039-.016.063-.04l.24-.056.006.024c-.128.032-.229.063-.303.096zm.037-.485c-.017.003-.039.018-.067.04-.003-.016-.036-.016-.099-.002-.011-.046.166-.11.533-.195l.052-.011.011.044c-.258.076-.402.118-.43.124zm.646-.698c-.026.293-.129.459-.312.502l-.005-.024-.163.063-.072.016c-.037.01-.07.008-.1-.001l-.014-.065c-.006-.024.229-.349.705-.973l.055.009c.021.085-.011.242-.094.473zm1.143-.979l-.022.002-.004-.046.096-.009.002.024c-.017.003-.041.013-.072.029zm-.471 4.729c-.055-.026-.105-.037-.147-.033l-.006-.071c-.002-.024.013-.04.044-.049.032-.004.05.018.054.066.079-.102.124-.153.133-.153l.05.02c-.019.14-.061.214-.128.22zm5.048-5.281c-.024.002-.07-.072-.142-.221l-.004-.047c.047-.003.095.069.143.216l.003.052zm-.066-.528l-.022.048-.684-.286c.456.015.693.094.706.238zm-2.897 2.487l-.096.009-.004-.046.096-.009.004.046zm-.08-1.494l.026-.001.006.07c-.024.002-.054.035-.089.099l-.004-.046c.043-.053.063-.094.061-.122zm-.201.48l.008.091-.026.002-.008-.091.026-.002zm-.109.172l.048-.004c-.005.078-.026.119-.061.122l-.026.002c.028-.051.041-.092.039-.12zm-.077.237l.022-.002.002.024-.043.074-.048.003-.002-.024c.05-.004.072-.029.069-.075zm-.078.214l-.017.118-.022.002-.009-.117.048-.003zm-.788 2.239c-.032.155-.065.235-.1.239l-.002-.021c-.005-.077.028-.151.102-.218zm-.146.312l.002.021c.003.033-.011.051-.045.053l-.001-.024c-.002-.024.012-.04.044-.05zm-.041.65l.074-.005.002.024c-.017.002-.043.011-.072.027l-.048.004c-.002-.026.013-.042.044-.05zm2.074-.64c-.407.201-.648.338-.724.408-.443.155-.663.251-.659.29-.394.157-.652.269-.774.341-.029.002-.072-.009-.127-.035-.008-.079.029-.144.107-.192.07-.005.136.004.197.03.074-.037.202-.078.383-.124l-.004-.046-.15.013c.019-.026.161-.093.425-.2l.074-.005.002.02c-.126.011-.196.048-.211.114.002.03.021.045.052.041.092-.061.137-.096.137-.107.177-.031.668-.29 1.475-.774l.003.047c0 .018-.068.077-.206.179zm-1.237.406c.12-.011.221-.057.306-.139.032-.001.05.011.052.041-.056.005-.165.052-.329.14l-.026.002-.003-.044zm1.997-1.535l-.614.495c-.46.301-.709.453-.748.456-.731.403-1.186.612-1.365.626l-.026.002c.023-.083.349-.749.981-2.001.275-.024.711-.155 1.309-.392l.15-.013c.3-.025.526.034.673.176l.008.09c-.113.318-.235.504-.368.562v-.001zm-1.207-.679l.096-.009.002.024-.096.009-.002-.024zm1.398-.238l.073-.006c.069.034.104.063.106.087l.002.02c-.065.006-.126-.027-.181-.101zm.193-1.125c-.064.078-.24.211-.526.396-.096.009-.45.145-1.063.411-.03-.011-.063-.015-.098-.013l-.004-.046c-.007-.088.032-.199.117-.334.048-.255.101-.397.156-.43l.516-1.152c-.006-.069.103-.124.325-.167l.073-.005.006.07c.218-.035.354-.055.41-.061.406-.035.618.046.635.246l.048-.004-.009-.111.048-.003c.118.064.181.142.188.234.006.066-.028.148-.098.242-.031.004-.05-.019-.053-.067l-.048.004-.015.139c-.205.312-.355.472-.449.48-.083.112-.135.17-.159.171zm.216.768l-.005-.07.048-.003.103.062c.002.03-.013.047-.044.05-.044-.027-.077-.04-.102-.039zm-8.594 4.485l-.048.011-.041.035c.007.03.026.041.057.034.032-.008.044-.026.037-.056l-.005-.024zm-.183-.363l.005.024c.032-.008.045-.026.037-.056l-.005-.024c-.03.008-.043.026-.037.056zm1.307-2.456l.035-.022c-.007 0-.013-.002-.018-.004-.013.004-.019.013-.017.026zm-.007-.637l.055-.013-.011-.048-.055.013.011.048zm13.048 1.865l-.126-.015-.022.048.002.024.748-.063-.004-.046-.598.052zm.683-.057l.004.046h.007l-.003-.046h-.008zm3.137-.41l.004.046.081.015-.004-.047-.081-.014zm-.114.009c-.562.125-.632.103-.75.112l.004.047.051-.004.028-.002-.007-.005.061-.024c.555-.061.62-.039.615-.102l-.002-.022zm-3.37-.816l-.05-.017c-.04.109-.061.174-.059.192l.002.02c.039-.001.074-.068.107-.195zm-.676-.364l-.002-.024-.025.002-.047.029.026.045c.035-.004.052-.021.048-.052zm1.468 1.518l-.004-.046-.014.001.003.047.015-.002zm3.047-.687l.035-.004c.02-.002.029-.018.027-.048l-.02-.044c-.127.011-.186.016-.29.074l-.002-.024-.153.015c-.003-.047-.016-.071-.037-.069l-.079.008c-.092.007-.137.003-.183.038-.002-.016-.007-.024-.017-.024l-.088.008-.052.029c-.002-.016-.007-.024-.016-.024l-.032.028-.002-.024-.123-.009-.03.002.004.046.062.016.06-.003c.02.013.042.016.068.014l.052-.025.001.02c-.289.072-.288.059-.487.092-.022-.015-.039-.022-.05-.02l-.004.004c-.022-.002-.035-.017-.037-.041l.104-.013c.007 0 .013.007.07.019.083-.041.087-.058.131-.061l-.004-.047c-.284.056-.169.019-.526.05l-.016.002-.004-.046c.458-.055.305-.024.462-.068.001.016.007.024.016.024.017-.018.039-.029.063-.032l.031-.002c.161-.013.215.019.532-.07l.002.021.052-.026.048-.004c-.004-.046.066-.054.09-.055l-.004-.05c-.557.112-.703.081-.858.125l-.002-.02c-.146.026-.151.015-.188.017-.011.002-.028.011-.046.029-.002-.016-.008-.024-.019-.024-.005 0-.007.002-.009.002l-.473.078c-.002-.013-.007-.021-.018-.019-.246.052-.179.061-.508.091-.015.001-.035.009-.061.025-.002-.012-.009-.02-.026-.018l-.201.017-.135.033c-.002-.013-.009-.02-.026-.019-.075.021-.142.034-.195.037h-.004c-.033.004.017-.009-.009-.02l-.041.024c-.059.006-.028-.004-.231-.002-.356.044-.317.05-.356.052l-.133-.009c.002.013-.006.022-.02.022-.152-.021-.229-.045-.231-.072.02-.144.055-.218.105-.222l.026-.002-.022.048.026-.002c.048-.025.07-.049.068-.072l-.004-.049-.048.003-.003-.046c-.004-.035.001-.066.014-.092l.109-.176.004.047.052-.004-.004-.046-.03-.043c.039-.033.069-.051.093-.053l-.002-.024-.07.005-.006-.07c.141-.292.207-.462.203-.51l.05.021c.032-.002.046-.021.044-.054l-.048.004-.001-.02c-.004-.034.003-.068.018-.098.076-.08.111-.159.103-.242.015-.002.023.005.024.022.065-.037.115-.135.152-.297.114-.207.277-.621.489-1.239.406-1.093.39-1.21.447-1.468l-.048.004c.004.033-.004.064-.019.094-.033-.013-.059-.02-.077-.019l-.002-.02c-.007-.094.031-.207.12-.34l.022-.002.041.159.048-.003c-.002-.012.011-.074.037-.191-.002-.024-.021-.038-.057-.04l-.047.029c-.003-.033-.001-.12.004-.258l-.024.002c-.04-.041-.061-.074-.063-.102l-.264.026c-.002-.019-.011-.046-.029-.081-.002-.024.057-.048.179-.072l.053.02.05-.03c.002.017.011.024.03.023l.05-.03c.001.017.011.024.029.022l.024-.002-.004-.053c-.036.004-.134.004-.289-.002l-.05.033-.002-.029c-1.239.101-1.942.158-2.111.175-.022.002-.108 0-.262-.004.002.021-.016.032-.053.035l-.054-.024-.181.047c-.042.003-.114.002-.214-.01-.028.023-.061.035-.101.039-.023.002.264-.015.529-.033-.027.022-.07.035-.129.041-.04.003-.075-.002-.105-.019-.041.019-.172.048-.391.092l-.054-.02-.864.133c-.033-.017-.072-.022-.116-.018-.047.003-.124.02-.231.049l-.418.174.032.052c.02-.002.05-.013.085-.034l.148.013-.019.139c-.137.061-.216.151-.238.266-.205.09-.307.155-.307.194l.002.024.032-.002.055-.03.065.078.009.107c.004.033-.342.759-1.032 2.177-.599 1.366-.912 2.114-.942 2.249-.205.057-.323.14-.358.251.004.035.064.059.183.068l.005.054-.053.088.009.107c.005.056.155.098.449.128-.002-.019.007-.03.027-.032.006.067-.013.196-.055.388l.031-.002c.122-.166.179-.28.174-.343l.026-.002c.029-.002.061.031.097.103-.036.015-.166.309-.387.883l.031.052.032-.002c.271-.687.441-1.067.511-1.14.356-.031.973-.094 1.848-.188l.056-.033c.001.018.013.028.033.026l.057-.006.055-.033c.002.018.013.028.034.026l.663-.057c.175-.015.258-.069.251-.159-.002-.024.101-.052.31-.081.02-.002.05.003.09.016-.002-.016.104-.033.314-.051.006-.111.041-.17.104-.176l-.006-.053c-.059.005-.125.02-.203.046-.139-.008-.227-.019-.264-.032-.037.021-.065.032-.085.034l-.462.014-.055.03c-.002-.017-.013-.024-.033-.022l-.026.002-.059.029c-.002-.016-.05-.029-.146-.042l-.059.035-.115.009-.001-.03c.594-.064.888-.145.88-.241.039-.004.059.014.063.053l.174-.044-.006-.054-1.423.039c.001.018-.008.03-.028.031l-.174-.014c-.044.003-.081.016-.11.038l-.065-.024c-.179.015-.312.037-.401.065-.122-.009-.256-.007-.406.006l-.319.027-.148-.016c-.008-.095.175-.558.552-1.389.109-.28.209-.456.305-.522.02-.002.049.005.09.022l.227-.078.116.019c.196-.017.423-.072.684-.168.064-.006.112-.002.147.013l.174-.041.517-.044c.22-.019.458-.067.716-.146l-.005-.054c-.096.01-.146-.007-.15-.046-.005-.072-.075-.101-.21-.09l-.006-.054.142-.04.373-.032-.005-.053c-.015.001-.091 0-.231-.006l-.006-.057.144-.013c.039-.004.056-.022.052-.059-.194.005-.292-.004-.293-.03-1.352.067-2.03.08-2.033.037-.021.002-.048.015-.085.037l-.035-.055c.358-.761.568-1.145.629-1.151.002.03-.013.078-.044.143l.002.024.057-.006c.142-.34.262-.515.362-.522.425-.037-.059-.065.849-.207.037.016.063.024.082.022.356-.072.853-.148 1.49-.225l-.004-.054-.34.031-.004-.053c.041-.004.074-.017.102-.039l.002.03c.018-.002.044-.015.077-.037.06-.006.104 0 .135.016.118-.031.214-.049.285-.057l.212-.02c.052-.033.076-.063.074-.091l-.002-.024c-.054.006-.115.002-.187-.011-.001-.029.013-.05.048-.059l.396-.037.181-.046c.001.02.011.028.025.028.019-.002.045-.015.078-.037.009.002.02.002.029.004-.024.049-.051.121-.079.216l-.052.003c-.003-.035-.013-.066-.029-.094l-.026.002c-.48 1.337-.694 1.959-1.137 2.986-.082.262-.15.408-.209.439.002.03.02.044.052.041.011.129-.019.256-.091.382-.205.591-.341.914-.412.973l.047.279c.001.029-.013.046-.045.05l-.048.003c-.007-.077-.035-.114-.085-.109l-.026.002c-.062.098-.11.211-.142.342l.048-.004c.065-.042.094-.092.089-.15l.096-.009.055.021c-.044.07-.064.125-.061.168l.026.044-.063.148.002.024c.056-.006.117.013.181.051.045-.003.093-.024.146-.059.056-.005.262-.007.619-.007l.179-.061c.218-.002.253.004.441-.013l.078-.007.04-.028.002.024c.198-.017.211-.004.366.015l.002.024-.109.009.003.046c.034-.004.063-.013.087-.033.028-.002.044.013.046.046-.044.004-.094.015-.149.033l-.048-.016c-.076.02-.059.025-.111.029l-.076-.015c.002.013-.005.023-.018.023.002.029.018.044.046.042l.077-.007.405-.035.153-.034c.002.013.007.021.02.019l.074-.028.139-.011c.107-.009.105-.017.338-.054-.002-.014.003-.02.014-.022l.002.021c.379-.065.403-.069.464-.089l.005.011c.094-.022.041-.017.067-.035.002.017.007.024.016.024l.067-.006-.004-.049-.135-.002-.002-.004c-.005.002-.009.002-.014.004h-.019v.003c-.09.019-.092.006-.151.012l-.338.018-.002-.024.188-.026.069-.005.038-.028.002.024c.266-.022.36.044 1.59-.218.066-.006.061-.061.103-.175-.022.001-.045-.004-.064-.015-.102.039-.155.02-.351.052-.017.001-.03-.013-.035-.043l-.002-.02.188.005c.035-.003.104-.009.205-.066 0 .016-.038.026-.016.024zm-9.092.146l-.087.007c-.003-.035.043-.168.139-.395l.057-.006c.002.054-.033.185-.109.394zm.105-.421l-.001-.024c-.002-.03.016-.05.057-.059l.002.024c.001.035-.017.055-.058.059zm1.154.892l.002.024-.144.013-.002-.025.144-.012zm-.173-.015c.002.029-.043.063-.139.096l-.177-.013-.057.005-.006-.053.379-.035zm1.167-5.371l-.087.007-.002-.029c-.002-.03.015-.05.052-.06l.031-.001.059.024c.002.035-.015.055-.053.059zm1.32-.259l.028-.002.003.054-.079.007c-.002-.029.013-.05.048-.059zm-.333.117l-.131-.015-.001-.024c.171-.015.229-.034.334-.063.002.02.02.028.053.024l.004.053-.052.006c-.04.004-.075-.002-.105-.018-.031.02-.065.033-.102.037zm.165.478l-.002-.024.212-.021.002.024-.212.021zm.227-.185l-.002-.029.103-.01.002.03-.103.009zm.024-.362l-.028.002.024-.057.237-.022.001.029c-.061.006-.14.022-.234.048zm.12.51l-.004-.054.104-.009c.035-.004.053.013.055.05l-.155.013zm.626-.853l-.133.037-.024.002c-.063.005-.144.003-.24-.006.172-.011.336-.024.397-.033zm-.142.591l.002.024-.183.016-.002-.024.183-.016zm.299.142c-.002-.022-.037-.037-.109-.045l-.183.052-.14.006c-.032-.022-.048-.037-.05-.048l.162.009.366-.059.186.007.002.03c-.092.009-.17.026-.234.048zm1.881-.486c.022.002.037.002.043.002.064-.063.136-.113.219-.148-.066.292-.169.508-.312.648l-.103-.062c.087-.22.139-.366.153-.44zm-.317.545l.026-.002c-.036.066-.067.102-.093.103l-.005-.07c.016 0 .04-.011.072-.031zm-.205.489c.05-.199.098-.312.142-.341l.002.024c-.026.184-.067.282-.12.289l.009.117c-.044.063-.065.111-.063.147l-.026.002-.014-.16c.029-.004.053-.03.07-.078zm-.08.266c.002.028-.016.092-.053.192l-.026.002-.006-.07c.036-.081.065-.122.085-.124zm-1.49 4.324l-.002-.02.048-.004.006.07c-.026.002-.044-.012-.052-.046zm2.129.056c-.002-.017-.009-.024-.026-.023l-.12.012-.001-.024h.011l.284-.024.002.024c-.083.003-.133.016-.15.035zm-.142-.059c.011.005.006.011 0 .014-.006-.002-.013-.007 0-.014zm.015-.333l-.159.013-.002-.024.144-.013.126-.031c.002.015.009.02.026.018.149-.026.134-.033.206-.038.024-.002.039.012.041.042l-.382.033zm.556-.048c-.089-.009-.095-.016-.157-.011l-.002-.02.142-.013.002.02c-.015.002.039.006.015.024zm.011-.026l-.002-.02.077-.007.002.02-.077.007zm.171-.014l-.001-.021c.012-.002.031-.011.055-.029.039-.004.059.022.063.051l-.117-.001zm.22-.028l-.002-.024.094-.008.002.025-.094.007zm.131-.011c-.002-.028.009-.044.033-.048l.032.04c-.002-.013.003-.02.015-.022l.024.045-.104-.015zm1.817-.214l.002-.002v-.002s-.002.002-.002.004zm.033-.024c.015-.01.022-.019-.013-.024-.016.018.019.024-.018.025l.002.017c.003-.004.013-.009.02-.015l-.02.017v.002l-.039.05.078-.028h.009l-.004-.046-.015.002zm.135.105l-.015.002.004.046.109-.009c-.002-.03-.074-.039-.098-.039z" fill="#828282"/>
  <circle cx="253.5" cy="129.5" r="17.5" fill="#fff"/>
  <path d="M244.602 127.683h-.73v2.745c0 .705-.447 1.106-1.083 1.106-.583 0-1.06-.266-1.06-1.093v-2.758H241v2.965c0 1.016.654 1.539 1.569 1.539.708 0 1.126-.303 1.282-.653h.029v.582h.722v-4.433zm1.291 4.433h.725v-2.7c0-.607.329-1.147 1.093-1.147.645 0 1.083.38 1.083 1.127v2.72h.726v-2.843c0-1.08-.678-1.662-1.59-1.662-.721 0-1.13.375-1.295.658h-.021v-.586h-.721v4.433zm4.892 0h.726v-4.433h-.726v4.433zm-.101-5.5c0 .257.207.459.464.459.258 0 .469-.202.469-.459 0-.263-.211-.465-.469-.465-.257 0-.464.202-.464.465z" fill="#828282"/>
  <path d="M253.126 132.116h.726v-3.826h.869v-.607h-.873v-.384c0-.54.232-.696.713-.696.11 0 .165.009.227.016v-.594c-.075-.013-.176-.025-.324-.025-.911 0-1.338.392-1.338 1.24v.443h-.598v.607h.598v3.826zm2.624 0h.726v-4.433h-.726v4.433zm-.101-5.5c0 .257.207.459.464.459s.468-.202.468-.459c0-.263-.211-.465-.468-.465s-.464.202-.464.465zm3.847 5.571c.978 0 1.565-.543 1.733-1.278h-.72c-.144.414-.481.671-.996.671-.721 0-1.151-.577-1.151-1.422v-.079h2.927v-.413c0-1.22-.667-2.055-1.827-2.055-1.164 0-1.826.835-1.826 2.003v.498c0 1.262.704 2.075 1.86 2.075zm-1.134-2.695v-.013c0-.7.43-1.26 1.104-1.26.663 0 1.098.556 1.098 1.26v.013h-2.202zm5.618-1.877c-1.118 0-1.772.877-1.772 2.084v.4c0 1.236.616 2.084 1.772 2.084.595 0 1.059-.278 1.307-.734h.017v.667H266v-6.062h-.725v2.244h-.021c-.224-.392-.688-.683-1.274-.683zm.101.633c.747 0 1.206.582 1.206 1.476v.355c0 .94-.451 1.471-1.193 1.471-.671 0-1.156-.489-1.156-1.476v-.35c0-.987.485-1.476 1.143-1.476z" fill="#333"/>
  <circle cx="65.5" cy="85.5" r="1.5" fill="#BDBDBD"/>
  <circle cx="67.5" cy="83.5" r=".5" fill="#BDBDBD"/>
  <circle cx="68.5" cy="85.5" r=".5" fill="#BDBDBD"/>
  <circle cx="70.5" cy="85.5" r=".5" fill="#BDBDBD"/>
  <circle cx="72.5" cy="85.5" r=".5" fill="#BDBDBD"/>
  <circle cx="74.5" cy="85.5" r=".5" fill="#BDBDBD"/>
  <circle cx="76.5" cy="85.5" r=".5" fill="#BDBDBD"/>
  <circle cx="78.5" cy="85.5" r=".5" fill="#BDBDBD"/>
  <circle cx="80.5" cy="85.5" r=".5" fill="#BDBDBD"/>
  <circle cx="82.5" cy="85.5" r=".5" fill="#BDBDBD"/>
  <circle cx="84.5" cy="85.5" r=".5" fill="#BDBDBD"/>
  <circle cx="86.5" cy="85.5" r=".5" fill="#BDBDBD"/>
  <circle cx="88.5" cy="85.5" r=".5" fill="#BDBDBD"/>
  <circle cx="90.5" cy="85.5" r=".5" fill="#BDBDBD"/>
  <circle cx="92.5" cy="85.5" r=".5" fill="#BDBDBD"/>
  <circle cx="94.5" cy="85.5" r=".5" fill="#BDBDBD"/>
  <circle cx="96.5" cy="85.5" r=".5" fill="#BDBDBD"/>
  <circle cx="98.5" cy="85.5" r=".5" fill="#BDBDBD"/>
  <circle cx="100.5" cy="85.5" r=".5" fill="#BDBDBD"/>
  <circle cx="102.5" cy="85.5" r=".5" fill="#BDBDBD"/>
  <circle cx="104.5" cy="85.5" r=".5" fill="#BDBDBD"/>
  <circle cx="106.5" cy="85.5" r=".5" fill="#BDBDBD"/>
  <circle cx="108.5" cy="85.5" r=".5" fill="#BDBDBD"/>
  <circle cx="110.5" cy="85.5" r=".5" fill="#BDBDBD"/>
  <circle cx="112.5" cy="85.5" r=".5" fill="#BDBDBD"/>
  <circle cx="114.5" cy="85.5" r=".5" fill="#BDBDBD"/>
  <circle cx="116.5" cy="85.5" r=".5" fill="#BDBDBD"/>
  <circle cx="118.5" cy="85.5" r=".5" fill="#BDBDBD"/>
  <circle cx="120.5" cy="85.5" r=".5" fill="#BDBDBD"/>
  <circle cx="122.5" cy="85.5" r=".5" fill="#BDBDBD"/>
  <circle cx="124.5" cy="85.5" r=".5" fill="#BDBDBD"/>
  <circle cx="126.5" cy="85.5" r=".5" fill="#BDBDBD"/>
  <circle cx="128.5" cy="85.5" r=".5" fill="#BDBDBD"/>
  <circle cx="130.5" cy="85.5" r=".5" fill="#BDBDBD"/>
  <circle cx="132.5" cy="85.5" r=".5" fill="#BDBDBD"/>
  <circle cx="134.5" cy="85.5" r=".5" fill="#BDBDBD"/>
  <circle cx="136.5" cy="85.5" r=".5" fill="#BDBDBD"/>
  <circle cx="138.5" cy="85.5" r=".5" fill="#BDBDBD"/>
  <circle cx="140.5" cy="85.5" r=".5" fill="#BDBDBD"/>
  <circle cx="142.5" cy="85.5" r=".5" fill="#BDBDBD"/>
  <circle cx="144.5" cy="85.5" r=".5" fill="#BDBDBD"/>
  <circle cx="146.5" cy="85.5" r=".5" fill="#BDBDBD"/>
  <circle cx="148.5" cy="85.5" r=".5" fill="#BDBDBD"/>
  <circle cx="150.5" cy="85.5" r=".5" fill="#BDBDBD"/>
  <circle cx="152.5" cy="85.5" r=".5" fill="#BDBDBD"/>
  <circle cx="305.5" cy="85.5" r=".5" fill="#BDBDBD"/>
  <circle cx="307.5" cy="85.5" r=".5" fill="#BDBDBD"/>
  <circle cx="309.5" cy="85.5" r=".5" fill="#BDBDBD"/>
  <circle cx="311.5" cy="85.5" r=".5" fill="#BDBDBD"/>
  <circle cx="313.5" cy="85.5" r=".5" fill="#BDBDBD"/>
  <circle cx="315.5" cy="85.5" r=".5" fill="#BDBDBD"/>
  <circle cx="317.5" cy="85.5" r=".5" fill="#BDBDBD"/>
  <circle cx="319.5" cy="85.5" r=".5" fill="#BDBDBD"/>
  <circle cx="321.5" cy="85.5" r=".5" fill="#BDBDBD"/>
  <circle cx="323.5" cy="85.5" r=".5" fill="#BDBDBD"/>
  <circle cx="325.5" cy="85.5" r=".5" fill="#BDBDBD"/>
  <circle cx="327.5" cy="85.5" r=".5" fill="#BDBDBD"/>
  <circle cx="329.5" cy="85.5" r=".5" fill="#BDBDBD"/>
  <circle cx="331.5" cy="85.5" r=".5" fill="#BDBDBD"/>
  <circle cx="333.5" cy="85.5" r=".5" fill="#BDBDBD"/>
  <circle cx="335.5" cy="85.5" r=".5" fill="#BDBDBD"/>
  <circle cx="63.5" cy="87.5" r=".5" fill="#BDBDBD"/>
  <circle cx="63.5" cy="83.5" r=".5" fill="#BDBDBD"/>
  <circle cx="67.5" cy="87.5" r=".5" fill="#BDBDBD"/>
  <circle cx="69.5" cy="89.5" r=".5" fill="#BDBDBD"/>
  <circle cx="71.5" cy="91.5" r=".5" fill="#BDBDBD"/>
  <circle cx="73.5" cy="93.5" r=".5" fill="#BDBDBD"/>
  <circle cx="75.5" cy="95.5" r=".5" fill="#BDBDBD"/>
  <circle cx="77.5" cy="97.5" r=".5" fill="#BDBDBD"/>
  <circle cx="62.5" cy="81.5" r=".5" fill="#BDBDBD"/>
  <circle cx="60.5" cy="79.5" r=".5" fill="#BDBDBD"/>
  <circle cx="58.5" cy="77.5" r=".5" fill="#BDBDBD"/>
  <circle cx="56.5" cy="75.5" r=".5" fill="#BDBDBD"/>
  <circle cx="54.5" cy="73.5" r=".5" fill="#BDBDBD"/>
  <circle cx="61.5" cy="89.5" r=".5" fill="#BDBDBD"/>
  <circle cx="59.5" cy="91.5" r=".5" fill="#BDBDBD"/>
  <circle cx="57.5" cy="93.5" r=".5" fill="#BDBDBD"/>
  <circle cx="55.5" cy="95.5" r=".5" fill="#BDBDBD"/>
  <circle cx="53.5" cy="97.5" r=".5" fill="#BDBDBD"/>
  <circle cx="69.5" cy="81.5" r=".5" fill="#BDBDBD"/>
  <circle cx="71.5" cy="79.5" r=".5" fill="#BDBDBD"/>
  <circle cx="73.5" cy="77.5" r=".5" fill="#BDBDBD"/>
  <circle cx="75.5" cy="75.5" r=".5" fill="#BDBDBD"/>
  <circle cx="77.5" cy="73.5" r=".5" fill="#BDBDBD"/>
</svg>
