<svg width="397" height="170" viewBox="0 0 397 170" fill="none" xmlns="http://www.w3.org/2000/svg">
<rect width="397" height="170" fill="white"/>
<circle cx="362" cy="87" r="25" fill="#F2F2F2"/>
<path d="M351.402 95.9531L349 69H375.426L373.023 95.9531L362.184 99" fill="#333333"/>
<path d="M362.242 96.6562L370.973 94.2539L373.023 71.168H362.242" fill="#4F4F4F"/>
<path d="M362.242 81.1875H357.848L357.555 77.7891H362.242V74.5078H362.184H353.922L353.98 75.3867L354.801 84.5273H362.242V81.1875ZM362.242 89.8008H362.184L358.492 88.8047L358.258 86.168H356.5H354.977L355.387 91.3828L362.184 93.2578H362.242V89.8008Z" fill="#F2F2F2"/>
<path d="M362.184 81.1875V84.5273H366.285L365.875 88.8047L362.184 89.8008V93.2578L368.98 91.3828L369.039 90.7969L369.801 82.0664L369.918 81.1875H368.98H362.184ZM362.184 74.5078V76.5586V77.7891H370.211L370.27 77.0859L370.445 75.3867L370.504 74.5078H362.184Z" fill="#F2F2F2"/>
<path d="M348.703 106.526C348.703 106.37 348.749 106.24 348.84 106.136C348.934 106.032 349.074 105.979 349.26 105.979C349.445 105.979 349.585 106.032 349.68 106.136C349.777 106.24 349.826 106.37 349.826 106.526C349.826 106.676 349.777 106.801 349.68 106.902C349.585 107.003 349.445 107.054 349.26 107.054C349.074 107.054 348.934 107.003 348.84 106.902C348.749 106.801 348.703 106.676 348.703 106.526ZM356.066 107H355.163V104.568H352.214V107H351.311V101.312H352.214V103.826H355.163V101.312H356.066V107ZM361.735 102.059H359.787V107H358.884V102.059H356.945V101.312H361.735V102.059ZM363.781 101.312L365.69 105.76L367.59 101.312H368.767V107H367.868V105.042L367.961 102.439L366.018 107H365.354L363.415 102.459L363.508 105.042V107H362.609V101.312H363.781ZM371.022 106.263H373.874V107H370.119V101.312H371.022V106.263Z" fill="#FFAC00"/>
<circle cx="35" cy="55" r="25" fill="#F2F2F2"/>
<path d="M24.4023 63.9531L22 37H48.4258L46.0234 63.9531L35.1836 67" fill="#333333"/>
<path d="M35.2422 64.6562L43.9727 62.2539L46.0234 39.168H35.2422" fill="#4F4F4F"/>
<path d="M35.2422 49.1875H30.8477L30.5547 45.7891H35.2422V42.5078H35.1836H26.9219L26.9805 43.3867L27.8008 52.5273H35.2422V49.1875ZM35.2422 57.8008H35.1836L31.4922 56.8047L31.2578 54.168H29.5H27.9766L28.3867 59.3828L35.1836 61.2578H35.2422V57.8008Z" fill="#F2F2F2"/>
<path d="M35.1836 49.1875V52.5273H39.2852L38.875 56.8047L35.1836 57.8008V61.2578L41.9805 59.3828L42.0391 58.7969L42.8008 50.0664L42.918 49.1875H41.9805H35.1836ZM35.1836 42.5078V44.5586V45.7891H43.2109L43.2695 45.0859L43.4453 43.3867L43.5039 42.5078H35.1836Z" fill="#F2F2F2"/>
<path d="M21.7031 74.5264C21.7031 74.3701 21.7487 74.2399 21.8398 74.1357C21.9342 74.0316 22.0742 73.9795 22.2598 73.9795C22.4453 73.9795 22.5853 74.0316 22.6797 74.1357C22.7773 74.2399 22.8262 74.3701 22.8262 74.5264C22.8262 74.6761 22.7773 74.8014 22.6797 74.9023C22.5853 75.0033 22.4453 75.0537 22.2598 75.0537C22.0742 75.0537 21.9342 75.0033 21.8398 74.9023C21.7487 74.8014 21.7031 74.6761 21.7031 74.5264ZM29.0664 75H28.1631V72.5684H25.2139V75H24.3105V69.3115H25.2139V71.8262H28.1631V69.3115H29.0664V75ZM34.7354 70.0586H32.7871V75H31.8838V70.0586H29.9453V69.3115H34.7354V70.0586ZM36.7812 69.3115L38.6904 73.7598L40.5898 69.3115H41.7666V75H40.8682V73.042L40.9609 70.4395L39.0176 75H38.3535L36.415 70.459L36.5078 73.042V75H35.6094V69.3115H36.7812ZM44.0225 74.2627H46.874V75H43.1191V69.3115H44.0225V74.2627Z" fill="#FFAC00"/>
<circle cx="96" cy="55" r="25" fill="#F2F2F2"/>
<path d="M111 52.3612C111 50.3738 108.511 48.4904 104.695 47.3225C105.576 43.4333 105.185 40.3392 103.46 39.3486C103.063 39.1162 102.598 39.0061 102.091 39.0061V40.3698C102.372 40.3698 102.598 40.4248 102.788 40.5287C103.619 41.0057 103.98 42.8219 103.699 45.1578C103.631 45.7326 103.521 46.338 103.387 46.9556C102.188 46.662 100.88 46.4358 99.5039 46.289C98.6784 45.1578 97.8223 44.1305 96.96 43.2316C98.9535 41.3787 100.825 40.3636 102.097 40.3636V39C100.415 39 98.2136 40.1985 95.9878 42.2776C93.7619 40.2108 91.5605 39.0245 89.8789 39.0245V40.3881C91.1447 40.3881 93.022 41.3971 95.0155 43.2377C94.1594 44.1366 93.3033 45.1578 92.49 46.289C91.108 46.4358 89.7994 46.662 88.6009 46.9617C88.4603 46.3502 88.3563 45.757 88.2829 45.1883C87.9955 42.8524 88.3502 41.0363 89.1757 40.5532C89.3592 40.4431 89.5976 40.3942 89.8789 40.3942V39.0306C89.3653 39.0306 88.9005 39.1406 88.4969 39.373C86.7786 40.3636 86.3934 43.4517 87.2801 47.3286C83.4766 48.5027 81 50.3799 81 52.3612C81 54.3486 83.4888 56.232 87.3045 57.3999C86.424 61.289 86.8153 64.3832 88.5397 65.3738C88.9372 65.6062 89.402 65.7163 89.9156 65.7163C91.5972 65.7163 93.7986 64.5177 96.0245 62.4386C98.2503 64.5055 100.452 65.6918 102.133 65.6918C102.647 65.6918 103.112 65.5817 103.515 65.3494C105.234 64.3587 105.619 61.2707 104.732 57.3938C108.523 56.2258 111 54.3424 111 52.3612V52.3612ZM103.038 48.2825C102.812 49.0713 102.531 49.8846 102.213 50.6979C101.962 50.2087 101.699 49.7195 101.412 49.2303C101.13 48.7411 100.831 48.2642 100.531 47.7994C101.4 47.9278 102.237 48.0868 103.038 48.2825ZM100.238 54.7949C99.7607 55.6205 99.2715 56.4032 98.764 57.1309C97.8528 57.2104 96.9295 57.2532 96 57.2532C95.0766 57.2532 94.1533 57.2104 93.2483 57.137C92.7407 56.4093 92.2454 55.6327 91.7684 54.8133C91.3037 54.0122 90.8818 53.1989 90.4965 52.3795C90.8757 51.5601 91.3037 50.7407 91.7623 49.9397C92.2393 49.1141 92.7285 48.3314 93.236 47.6038C94.1472 47.5243 95.0705 47.4815 96 47.4815C96.9234 47.4815 97.8467 47.5243 98.7517 47.5976C99.2593 48.3253 99.7546 49.1019 100.232 49.9213C100.696 50.7224 101.118 51.5357 101.503 52.3551C101.118 53.1745 100.696 53.9939 100.238 54.7949ZM102.213 54C102.543 54.8194 102.824 55.6388 103.057 56.4338C102.256 56.6294 101.412 56.7945 100.537 56.923C100.837 56.4521 101.137 55.969 101.418 55.4737C101.699 54.9845 101.962 54.4892 102.213 54V54ZM96.0122 60.5247C95.4435 59.9376 94.8748 59.2833 94.3123 58.5679C94.8626 58.5923 95.4252 58.6107 95.9939 58.6107C96.5687 58.6107 97.1374 58.5985 97.6938 58.5679C97.1435 59.2833 96.5748 59.9376 96.0122 60.5247ZM91.4627 56.923C90.5944 56.7945 89.7566 56.6355 88.9556 56.4399C89.1818 55.651 89.4631 54.8378 89.7811 54.0245C90.0318 54.5137 90.2947 55.0029 90.5821 55.4921C90.8695 55.9812 91.1631 56.4582 91.4627 56.923ZM95.9817 44.1977C96.5503 44.7848 97.119 45.4391 97.6816 46.1545C97.1313 46.13 96.5687 46.1117 96 46.1117C95.4252 46.1117 94.8565 46.1239 94.3 46.1545C94.8504 45.4391 95.4191 44.7848 95.9817 44.1977ZM91.4566 47.7994C91.157 48.2703 90.8573 48.7534 90.576 49.2487C90.2947 49.7379 90.0318 50.2271 89.7811 50.7163C89.4509 49.8969 89.1696 49.0775 88.9372 48.2825C89.7383 48.0929 90.5821 47.9278 91.4566 47.7994ZM85.9225 55.4554C83.7578 54.532 82.3575 53.3212 82.3575 52.3612C82.3575 51.4011 83.7578 50.1843 85.9225 49.267C86.4484 49.0408 87.0232 48.839 87.6164 48.6494C87.9649 49.8479 88.4236 51.0954 88.9923 52.3734C88.4297 53.6453 87.9772 54.8867 87.6347 56.0791C87.0294 55.8895 86.4545 55.6816 85.9225 55.4554ZM89.2124 64.1936C88.3808 63.7167 88.02 61.9005 88.3013 59.5646C88.3685 58.9898 88.4786 58.3844 88.6131 57.7668C89.8117 58.0603 91.1203 58.2866 92.4961 58.4333C93.3216 59.5646 94.1777 60.5919 95.04 61.4908C93.0465 63.3437 91.1753 64.3587 89.9034 64.3587C89.6282 64.3526 89.3958 64.2976 89.2124 64.1936V64.1936ZM103.717 59.534C104.004 61.87 103.65 63.6861 102.824 64.1692C102.641 64.2793 102.402 64.3282 102.121 64.3282C100.855 64.3282 98.978 63.3192 96.9845 61.4786C97.8406 60.5797 98.6967 59.5585 99.51 58.4272C100.892 58.2805 102.201 58.0542 103.399 57.7546C103.54 58.3722 103.65 58.9653 103.717 59.534V59.534ZM106.071 55.4554C105.545 55.6816 104.971 55.8834 104.377 56.073C104.029 54.8744 103.57 53.627 103.002 52.349C103.564 51.077 104.017 49.8357 104.359 48.6433C104.965 48.8329 105.539 49.0408 106.077 49.267C108.242 50.1904 109.642 51.4011 109.642 52.3612C109.636 53.3212 108.236 54.5381 106.071 55.4554V55.4554Z" fill="#333333"/>
<path d="M95.9939 55.1557C97.5373 55.1557 98.7884 53.9046 98.7884 52.3612C98.7884 50.8178 97.5373 49.5667 95.9939 49.5667C94.4505 49.5667 93.1993 50.8178 93.1993 52.3612C93.1993 53.9046 94.4505 55.1557 95.9939 55.1557Z" fill="#333333"/>
<path d="M87.7031 74.5264C87.7031 74.3701 87.7487 74.2399 87.8398 74.1357C87.9342 74.0316 88.0742 73.9795 88.2598 73.9795C88.4453 73.9795 88.5853 74.0316 88.6797 74.1357C88.7773 74.2399 88.8262 74.3701 88.8262 74.5264C88.8262 74.6761 88.7773 74.8014 88.6797 74.9023C88.5853 75.0033 88.4453 75.0537 88.2598 75.0537C88.0742 75.0537 87.9342 75.0033 87.8398 74.9023C87.7487 74.8014 87.7031 74.6761 87.7031 74.5264ZM92.8496 69.3115H93.7627V73.3496C93.7627 73.8607 93.5902 74.2773 93.2451 74.5996C92.9001 74.9186 92.4395 75.0781 91.8633 75.0781C91.2318 75.0781 90.737 74.93 90.3789 74.6338C90.0241 74.3343 89.8467 73.9176 89.8467 73.3838H90.7549C90.7549 73.6898 90.846 73.9258 91.0283 74.0918C91.2139 74.2578 91.4922 74.3408 91.8633 74.3408C92.1628 74.3408 92.402 74.2529 92.5811 74.0771C92.7601 73.8981 92.8496 73.654 92.8496 73.3447V69.3115ZM98.3232 73.5449C98.3232 73.2845 98.224 73.0827 98.0254 72.9395C97.8301 72.7962 97.4932 72.6644 97.0146 72.5439C96.5361 72.4235 96.1569 72.2933 95.877 72.1533C95.2422 71.8343 94.9248 71.3835 94.9248 70.8008C94.9248 70.3353 95.1217 69.9577 95.5156 69.668C95.9128 69.3783 96.4222 69.2334 97.0439 69.2334C97.682 69.2334 98.2028 69.3962 98.6064 69.7217C99.0133 70.0472 99.2168 70.4639 99.2168 70.9717H98.3135C98.3135 70.6527 98.1979 70.4069 97.9668 70.2344C97.7389 70.0586 97.4281 69.9707 97.0342 69.9707C96.6663 69.9707 96.3734 70.0439 96.1553 70.1904C95.9372 70.3337 95.8281 70.5355 95.8281 70.7959C95.8281 71.0075 95.9274 71.1849 96.126 71.3281C96.3278 71.4714 96.6826 71.6081 97.1904 71.7383C97.6982 71.8685 98.0954 72.0166 98.3818 72.1826C98.6683 72.3454 98.8815 72.5374 99.0215 72.7588C99.1615 72.9801 99.2314 73.2389 99.2314 73.5352C99.2314 74.0137 99.0329 74.3913 98.6357 74.668C98.2419 74.9414 97.721 75.0781 97.0732 75.0781C96.3994 75.0781 95.8395 74.9137 95.3936 74.585C94.9508 74.2529 94.7295 73.8232 94.7295 73.2959H95.6377C95.6377 73.6279 95.763 73.8867 96.0137 74.0723C96.2643 74.2578 96.6175 74.3506 97.0732 74.3506C97.4834 74.3506 97.7943 74.2773 98.0059 74.1309C98.2174 73.9811 98.3232 73.7858 98.3232 73.5449ZM102.254 71.4355L103.655 69.3115H104.729L102.801 72.1338L104.798 75H103.724L102.264 72.8369L100.818 75H99.7441L101.727 72.1338L99.7881 69.3115H100.857L102.254 71.4355Z" fill="#FFAC00"/>
<circle cx="35" cy="116" r="25" fill="#F2F2F2"/>
<path d="M36.1567 114.414L38.4181 112.153L39.5596 113.295L35.3794 117.474L31.1466 113.242L32.2881 112.1L34.5423 114.354L34.5424 108.258H36.1568L36.1567 114.414Z" fill="#333333"/>
<path d="M20 117.161H21.6143V112.393L24.5335 115.313L27.4749 112.372V117.113H29.0892V108.474L24.5336 113.03L20 108.496V117.161Z" fill="#333333"/>
<path d="M40.9835 115.875L44.2973 112.561L40.8783 109.142L42.0198 108L45.4392 111.419L48.8585 108L50 109.142L46.5808 112.561L49.8948 115.875L48.7533 117.016L45.4392 113.702L42.125 117.016L40.9835 115.875Z" fill="#333333"/>
<path d="M24.7031 135.526C24.7031 135.37 24.7487 135.24 24.8398 135.136C24.9342 135.032 25.0742 134.979 25.2598 134.979C25.4453 134.979 25.5853 135.032 25.6797 135.136C25.7773 135.24 25.8262 135.37 25.8262 135.526C25.8262 135.676 25.7773 135.801 25.6797 135.902C25.5853 136.003 25.4453 136.054 25.2598 136.054C25.0742 136.054 24.9342 136.003 24.8398 135.902C24.7487 135.801 24.7031 135.676 24.7031 135.526ZM28.4824 130.312L30.3916 134.76L32.291 130.312H33.4678V136H32.5693V134.042L32.6621 131.439L30.7188 136H30.0547L28.1162 131.459L28.209 134.042V136H27.3105V130.312H28.4824ZM34.8203 136V130.312H36.583C37.1104 130.312 37.5775 130.421 37.9844 130.639C38.3945 130.854 38.7135 131.161 38.9414 131.562C39.1693 131.962 39.2881 132.421 39.2979 132.938V133.314C39.2979 134.135 39.0439 134.787 38.5361 135.272C38.0316 135.757 37.3512 136 36.4951 136H34.8203ZM35.7236 131.059V135.263H36.5244C37.1299 135.263 37.5938 135.093 37.916 134.755C38.2383 134.416 38.3994 133.935 38.3994 133.31V132.997C38.3994 132.372 38.2448 131.894 37.9355 131.562C37.6296 131.226 37.1787 131.059 36.583 131.059H35.7236ZM42.3691 132.436L43.7705 130.312H44.8447L42.916 133.134L44.9131 136H43.8389L42.3789 133.837L40.9336 136H39.8594L41.8418 133.134L39.9033 130.312H40.9727L42.3691 132.436Z" fill="#FFAC00"/>
<circle cx="96" cy="116" r="25" fill="#F2F2F2"/>
<path d="M109.846 101H82.1539C81.5169 101 81 101.517 81 102.154V122.923C81 123.56 81.5169 124.077 82.1539 124.077H109.846C110.483 124.077 111 123.56 111 122.923V102.154C111 101.517 110.483 101 109.846 101ZM108.692 103.308V113.215L103.739 108.261C103.288 107.811 102.558 107.811 102.107 108.261L93.6923 116.676L92.2004 115.184C91.7948 114.778 91.1527 114.732 90.6923 115.077L83.3077 120.615V103.308L108.692 103.308ZM85.6154 121.769L91.2762 117.524L92.876 119.123C93.3259 119.574 94.0575 119.574 94.5075 119.123L102.923 110.709L108.692 116.478V121.769H85.6154Z" fill="#333333"/>
<path d="M90.2308 112.538C92.1398 112.538 93.6923 110.986 93.6923 109.077C93.6923 107.168 92.1398 105.615 90.2308 105.615C88.3217 105.615 86.7692 107.168 86.7692 109.077C86.7692 110.986 88.3217 112.538 90.2308 112.538ZM90.2308 107.923C90.8671 107.923 91.3846 108.441 91.3846 109.077C91.3846 109.713 90.8671 110.231 90.2308 110.231C89.5944 110.231 89.0769 109.713 89.0769 109.077C89.0769 108.441 89.5944 107.923 90.2308 107.923Z" fill="#333333"/>
<path d="M86.7031 135.526C86.7031 135.37 86.7487 135.24 86.8398 135.136C86.9342 135.032 87.0742 134.979 87.2598 134.979C87.4453 134.979 87.5853 135.032 87.6797 135.136C87.7773 135.24 87.8262 135.37 87.8262 135.526C87.8262 135.676 87.7773 135.801 87.6797 135.902C87.5853 136.003 87.4453 136.054 87.2598 136.054C87.0742 136.054 86.9342 136.003 86.8398 135.902C86.7487 135.801 86.7031 135.676 86.7031 135.526ZM90.2139 133.861V136H89.3105V130.312H91.5908C92.2549 130.312 92.7839 130.474 93.1777 130.8C93.5716 131.122 93.7686 131.557 93.7686 132.104C93.7686 132.657 93.5781 133.088 93.1973 133.397C92.8164 133.707 92.2777 133.861 91.5811 133.861H90.2139ZM90.2139 133.119H91.5908C91.9945 133.119 92.307 133.033 92.5283 132.86C92.7497 132.688 92.8604 132.439 92.8604 132.113C92.8604 131.801 92.7497 131.549 92.5283 131.356C92.307 131.161 92.0026 131.062 91.6152 131.059H90.2139V133.119ZM99.5156 136H98.6172L95.6631 131.723V136H94.7598V130.312H95.6631L98.6172 134.594V130.312H99.5156V136ZM105.458 135.268C105.243 135.538 104.945 135.741 104.564 135.878C104.187 136.011 103.752 136.078 103.261 136.078C102.486 136.078 101.864 135.836 101.396 135.351C100.927 134.866 100.689 134.213 100.683 133.393V132.953C100.683 132.1 100.899 131.435 101.332 130.956C101.768 130.474 102.38 130.233 103.168 130.233C103.819 130.233 104.341 130.386 104.735 130.692C105.129 130.998 105.37 131.446 105.458 132.035H104.56C104.436 131.329 103.975 130.976 103.178 130.976C102.66 130.976 102.266 131.143 101.996 131.479C101.726 131.814 101.591 132.305 101.591 132.953V133.363C101.591 133.982 101.741 134.467 102.04 134.818C102.343 135.167 102.755 135.341 103.275 135.341C103.868 135.341 104.296 135.22 104.56 134.979V133.817H103.188V133.114H105.458V135.268Z" fill="#FFAC00"/>
<circle cx="229" cy="85" r="75" fill="#F2F2F2"/>
<circle cx="229" cy="47" r="25" fill="white"/>
<path d="M226.5 54.0872L237.045 61.1667H237.622L248.167 54.0872V49.2612L240.3 54.6983V32.8333H234.367V54.6983L226.5 49.2612V54.0872Z" fill="#FFAC00"/>
<path d="M231.5 39.9128L220.955 32.8333L220.378 32.8333L209.833 39.9128L209.833 44.7388L217.7 39.3017L217.7 61.1667L223.633 61.1667L223.633 39.3017L231.5 44.7388L231.5 39.9128Z" fill="#FFAC00"/>
<circle cx="229.5" cy="99.5" r="17.5" fill="white"/>
<path d="M239.848 106.268L229.716 112V107.537L236.029 104.063L239.848 106.268ZM240.543 105.64V93.6552L236.836 95.7972V103.502L240.543 105.64ZM218.694 106.268L228.826 112V107.537L222.51 104.063L218.694 106.268ZM218 105.64V93.6552L221.706 95.7972V103.502L218 105.64ZM218.435 92.8781L228.826 87V91.3139L222.168 94.9769L222.115 95.0068L218.435 92.8781ZM240.107 92.8781L229.716 87V91.3139L236.375 94.9736L236.428 95.0035L240.107 92.8781Z" fill="#828282"/>
<path d="M228.826 106.52L222.596 103.093V96.3086L228.826 99.9052V106.52ZM229.716 106.52L235.946 103.097V96.3086L229.716 99.9052V106.52ZM223.018 95.5248L229.271 92.0877L235.525 95.5248L229.271 99.1347L223.018 95.5248Z" fill="#333333"/>
<circle cx="204.5" cy="129.5" r="17.5" fill="white"/>
<path d="M209.145 125.864L209.14 125.811L209.053 125.818L209.059 125.872L209.145 125.864ZM209.729 127.267L209.731 127.297L209.792 127.291C209.79 127.273 209.797 127.243 209.81 127.206L209.805 127.153C209.779 127.155 209.753 127.194 209.729 127.267V127.267ZM207.452 129.034C207.449 128.985 207.294 128.791 206.987 128.449C206.982 128.386 207.087 128.292 207.303 128.168L207.919 127.631C208.058 127.456 208.139 127.171 208.163 126.776L208.156 126.686C208.132 126.413 207.934 126.193 207.559 126.025C207.338 125.875 206.939 125.792 206.363 125.777C205.887 125.818 205.264 125.988 204.498 126.289C204.288 126.44 204.048 126.592 203.778 126.743L203.782 126.789C203.798 126.787 203.824 126.778 203.854 126.758C203.885 126.754 203.904 126.769 203.905 126.798L203.952 126.774L203.974 126.773L203.976 126.793C203.977 126.817 203.811 126.948 203.475 127.182L203.501 127.23L203.479 127.232L203.423 127.212C203.425 127.229 203.401 127.24 203.355 127.243L203.357 127.264L203.411 127.33C203.394 127.332 203.368 127.325 203.333 127.312C203.255 127.319 203.18 127.36 203.104 127.437L203.136 127.301C203.248 126.815 203.326 126.385 203.366 126.012L203.361 125.988C203.283 125.938 203.207 125.868 203.137 125.779C203.139 125.722 203.139 125.689 203.137 125.681L203.132 125.661L203.11 125.667C202.866 126.032 202.397 126.656 201.701 127.539C201.171 128.167 200.898 128.516 200.881 128.586C200.665 128.809 200.562 128.944 200.573 128.99C200.515 129.027 200.491 129.064 200.501 129.105C200.484 129.108 200.473 129.103 200.469 129.086C200.377 129.236 200.24 129.332 200.058 129.374L199.866 129.418C199.84 129.424 199.827 129.442 199.829 129.474L199.834 129.498L199.906 129.481L199.912 129.502L199.749 129.564L199.461 129.631L199.31 129.64C199.288 129.662 199.43 129.638 199.374 129.651L199.186 129.695C199.072 129.721 199.009 129.712 198.998 129.666L198.976 129.671C198.979 129.692 198.981 129.707 198.977 129.719L198.966 129.673L198.815 129.708C198.804 129.638 198.599 129.383 198.202 128.944C198.195 128.859 198.335 128.735 198.621 128.575L199.43 127.864C199.611 127.631 199.718 127.258 199.753 126.745L199.742 126.625C199.71 126.263 199.448 125.971 198.955 125.746C198.664 125.548 198.139 125.443 197.382 125.427C196.754 125.48 195.935 125.704 194.926 126.093C194.65 126.294 194.334 126.494 193.979 126.691L193.985 126.754C194.009 126.752 194.04 126.739 194.079 126.717C194.12 126.713 194.142 126.732 194.145 126.769L194.208 126.734L194.24 126.732L194.241 126.761C194.243 126.791 194.024 126.963 193.579 127.277L193.614 127.332L193.582 127.334L193.514 127.31C193.516 127.328 193.484 127.341 193.42 127.347L193.423 127.38L193.497 127.461C193.473 127.463 193.44 127.456 193.398 127.441C193.254 127.454 193.113 127.557 192.975 127.753L193.01 127.808C193.13 127.698 193.2 127.642 193.22 127.64L193.228 127.731C193.207 127.733 193.176 127.746 193.134 127.768L193.209 127.882C193.352 127.728 193.514 127.592 193.691 127.478C193.778 127.5 193.824 127.528 193.826 127.557L193.892 127.552C194.369 127.199 194.84 126.944 195.307 126.787L195.312 126.85C195.226 126.979 195.167 127.046 195.135 127.05C195.139 127.094 195.154 127.133 195.181 127.166C195.189 127.245 194.976 127.781 194.546 128.77C193.569 131.071 192.75 132.773 192.083 133.874C192.085 133.896 192.098 133.925 192.122 133.962C192.286 133.924 192.39 133.883 192.434 133.844L192.469 133.841L192.474 133.903L192.535 133.898L192.598 133.863C192.6 133.881 192.62 133.89 192.663 133.887L192.668 133.95C192.674 134.01 192.639 134.103 192.565 134.23C192.499 134.306 192.426 134.465 192.351 134.707L192.353 134.736L192.414 134.731C192.68 134.433 192.881 134.141 193.019 133.857C193.795 133.63 194.386 133.407 194.795 133.187C195.207 133.152 195.521 133.043 195.735 132.864L195.732 132.831L195.576 132.877L195.541 132.88L195.538 132.847C195.84 132.801 196.049 132.735 196.165 132.642C196.754 132.188 197.199 131.867 197.5 131.677C198.119 131.222 198.521 130.779 198.704 130.349C198.739 130.342 198.773 130.334 198.808 130.325C198.894 130.321 198.942 130.32 198.955 130.316C198.952 130.299 198.959 130.29 198.976 130.286C199.114 130.272 199.048 130.295 199.136 130.275L199.369 130.222C199.354 130.225 199.349 130.233 199.352 130.247L199.387 130.225C199.38 130.225 199.374 130.223 199.369 130.222L199.408 130.212L199.389 130.224C199.415 130.227 199.443 130.225 199.474 130.218L199.491 130.286L198.433 131.968L198.198 132.262L198.084 132.646L198.106 132.64L198.22 132.592L198.184 132.742L198.195 132.786L198.226 132.825C198.211 132.829 198.206 132.838 198.209 132.855L198.215 132.879L198.263 132.867C198.333 132.807 198.363 132.751 198.352 132.701C198.427 132.714 198.477 132.72 198.503 132.712L198.509 132.736C198.462 132.747 198.438 132.784 198.435 132.847L198.44 132.871L198.466 132.866C198.85 132.446 199.792 131.012 200.547 130.039C200.523 129.934 200.916 129.788 201.729 129.599L201.754 129.594C201.784 129.721 201.721 130.03 201.566 130.519C201.466 130.814 201.418 130.977 201.426 131.003C201.297 131.396 201.236 131.608 201.243 131.642L200.955 132.585C200.769 133.069 200.626 133.577 200.527 134.112C200.543 134.108 200.569 134.11 200.606 134.119L200.647 134.084C200.65 134.101 200.661 134.106 200.678 134.103L200.661 134.034L200.787 134.031C200.824 134.022 200.855 133.975 200.881 133.89C200.876 133.763 200.901 133.695 200.959 133.68C201.036 133.377 201.084 133.226 201.101 133.22C201.173 132.919 201.226 132.747 201.261 132.705C201.37 132.314 201.45 132.112 201.501 132.099L201.513 132.147L201.433 132.352C201.295 132.967 201.154 133.453 201.012 133.809L201.053 133.986L201.079 133.981C201.422 133.242 201.917 131.78 202.561 129.594C202.58 129.402 202.672 129.252 202.836 129.147L202.8 129.108L202.794 129.088C202.868 129.071 202.92 129.042 202.949 129.001C202.945 128.985 202.881 128.961 202.755 128.927L203.077 127.55C203.147 127.487 203.187 127.454 203.2 127.454L203.206 127.524C203.189 127.526 203.163 127.535 203.134 127.555L203.195 127.642C203.305 127.522 203.425 127.419 203.557 127.332C203.623 127.351 203.656 127.373 203.66 127.395L203.708 127.391C204.074 127.123 204.432 126.931 204.784 126.815L204.788 126.861C204.723 126.959 204.679 127.009 204.655 127.011C204.659 127.044 204.668 127.074 204.685 127.099C204.69 127.16 204.531 127.567 204.207 128.32C203.464 130.065 202.842 131.355 202.336 132.194C202.338 132.21 202.349 132.232 202.369 132.262C202.493 132.232 202.572 132.201 202.604 132.171L202.626 132.17L202.63 132.216L202.681 132.212L202.728 132.188C202.729 132.201 202.746 132.207 202.777 132.205L202.781 132.255C202.785 132.299 202.759 132.369 202.702 132.465C202.648 132.522 202.593 132.642 202.534 132.825L202.535 132.849L202.583 132.845C202.785 132.62 202.938 132.399 203.043 132.181C203.632 132.007 204.081 131.839 204.391 131.673C204.707 131.645 204.945 131.564 205.108 131.427L205.106 131.403L204.986 131.438L204.96 131.44L204.958 131.416C205.187 131.383 205.348 131.331 205.434 131.263C205.881 130.92 206.219 130.674 206.448 130.53C207.161 130.011 207.493 129.513 207.452 129.034L207.452 129.034ZM207.33 129.066L207.347 129.252C207.325 129.298 207.301 129.322 207.279 129.324L207.251 129.007C207.303 129.025 207.329 129.044 207.331 129.066H207.33ZM193.35 127.563L193.318 127.565L193.313 127.507L193.44 127.496L193.442 127.526C193.422 127.528 193.39 127.539 193.35 127.563L193.35 127.563ZM192.727 133.787C192.654 133.754 192.587 133.741 192.53 133.746L192.522 133.656C192.519 133.621 192.539 133.597 192.583 133.588C192.624 133.584 192.648 133.613 192.652 133.673C192.759 133.541 192.818 133.475 192.829 133.473L192.897 133.501C192.875 133.685 192.818 133.78 192.727 133.787V133.787ZM199.376 126.832C199.345 126.835 199.282 126.737 199.192 126.544L199.186 126.486C199.245 126.481 199.306 126.577 199.371 126.774L199.376 126.832ZM199.288 126.143L199.262 126.204L198.359 125.827C198.961 125.848 199.271 125.953 199.288 126.143ZM195.475 129.417L195.347 129.428L195.342 129.37L195.469 129.359L195.475 129.417ZM195.371 127.45L195.403 127.448L195.41 127.539C195.381 127.541 195.342 127.585 195.294 127.67L195.288 127.607C195.346 127.539 195.375 127.487 195.371 127.45V127.45ZM195.104 128.082L195.115 128.202L195.083 128.204L195.072 128.084L195.104 128.082ZM194.963 128.307L195.024 128.301C195.019 128.401 194.991 128.455 194.941 128.458L194.91 128.46C194.949 128.394 194.967 128.342 194.963 128.307V128.307ZM194.858 128.621L194.893 128.617L194.895 128.647L194.838 128.743L194.777 128.748L194.775 128.719C194.836 128.713 194.864 128.682 194.858 128.621V128.621ZM194.755 128.903L194.736 129.055L194.705 129.057L194.692 128.907L194.755 128.903ZM193.719 131.848C193.678 132.055 193.634 132.16 193.588 132.164L193.586 132.134C193.575 132.033 193.619 131.937 193.719 131.848H193.719ZM193.529 132.26L193.531 132.29C193.534 132.33 193.516 132.354 193.475 132.356L193.473 132.326C193.47 132.291 193.488 132.269 193.529 132.26H193.529ZM193.473 133.115L193.569 133.106L193.573 133.139C193.549 133.141 193.518 133.154 193.479 133.176L193.418 133.181C193.414 133.15 193.435 133.126 193.473 133.115H193.473ZM196.206 132.271C195.667 132.537 195.349 132.718 195.255 132.812C194.672 133.015 194.382 133.141 194.387 133.191C193.869 133.396 193.527 133.547 193.363 133.641C193.324 133.645 193.268 133.63 193.195 133.597C193.185 133.492 193.233 133.407 193.335 133.338C193.425 133.331 193.512 133.344 193.595 133.379C193.691 133.329 193.859 133.274 194.097 133.215L194.092 133.152L193.9 133.168C193.924 133.135 194.108 133.048 194.456 132.908L194.552 132.899L194.554 132.928C194.389 132.943 194.299 132.991 194.278 133.078C194.282 133.117 194.304 133.133 194.345 133.13C194.469 133.052 194.529 133.006 194.528 132.993C194.762 132.949 195.41 132.609 196.472 131.976L196.477 132.033C196.479 132.061 196.389 132.138 196.206 132.271L196.206 132.271ZM194.577 132.807C194.733 132.794 194.866 132.731 194.976 132.622C195.021 132.618 195.045 132.635 195.046 132.674C194.971 132.681 194.825 132.744 194.613 132.866L194.581 132.867L194.577 132.807ZM197.205 130.788L196.391 131.433C195.785 131.83 195.46 132.029 195.414 132.033C194.45 132.563 193.85 132.838 193.617 132.858L193.582 132.862C193.612 132.753 194.04 131.876 194.871 130.225C195.237 130.194 195.813 130.024 196.597 129.714L196.789 129.697C197.186 129.662 197.484 129.74 197.679 129.924L197.69 130.044C197.543 130.469 197.38 130.716 197.205 130.788V130.788ZM195.613 129.893L195.744 129.882L195.746 129.911L195.615 129.923L195.613 129.893ZM197.454 129.581L197.55 129.572C197.639 129.614 197.685 129.651 197.689 129.684L197.691 129.714C197.606 129.721 197.526 129.677 197.454 129.581L197.454 129.581ZM197.715 128.098C197.63 128.2 197.397 128.373 197.017 128.617C196.891 128.628 196.424 128.809 195.615 129.164C195.575 129.145 195.53 129.138 195.486 129.142L195.48 129.084C195.471 128.968 195.523 128.822 195.637 128.645C195.7 128.312 195.768 128.122 195.844 128.076L196.518 126.56C196.511 126.466 196.655 126.394 196.95 126.344L197.046 126.335L197.054 126.422C197.343 126.377 197.524 126.352 197.594 126.346C198.13 126.3 198.409 126.409 198.431 126.669L198.492 126.664L198.479 126.51L198.545 126.505C198.702 126.592 198.787 126.697 198.798 126.821C198.806 126.906 198.76 127.011 198.662 127.136C198.621 127.14 198.597 127.11 198.593 127.051L198.527 127.057L198.512 127.242C198.241 127.648 198.043 127.856 197.921 127.867C197.81 128.021 197.742 128.096 197.715 128.098L197.715 128.098ZM198.128 129.16C198.073 129.123 198.028 129.106 197.995 129.108L197.988 129.018L198.049 129.012L198.184 129.092C198.189 129.134 198.171 129.156 198.128 129.16H198.128ZM198.556 129.668C198.616 129.692 198.651 129.718 198.658 129.742L198.628 129.749L198.63 129.751C198.625 129.751 198.617 129.753 198.612 129.755L198.568 129.79L198.556 129.668ZM198.597 129.923L198.592 129.898L198.669 129.88L198.675 129.904L198.597 129.923ZM198.784 130.131C198.863 130.118 198.902 130.113 199.049 130.079L199.055 130.103L198.774 130.168C198.778 130.155 198.782 130.142 198.784 130.131H198.784ZM199.057 130.247C198.939 130.259 198.965 130.244 198.776 130.286L198.771 130.262L199.005 130.187L199.118 130.161L199.129 130.205C199.079 130.216 199.116 130.216 199.057 130.247H199.057ZM199.306 130.188C199.278 130.196 199.256 130.183 199.243 130.151L199.315 130.135C199.347 130.127 199.367 130.14 199.374 130.172L199.306 130.188ZM199.982 129.461L199.976 129.437L200.093 129.409L200.104 129.454L199.982 129.461ZM200.704 133.889C200.711 133.855 200.713 133.831 200.709 133.815L200.735 133.809C200.767 133.802 200.785 133.813 200.792 133.842L200.798 133.866L200.704 133.889ZM201.21 129.651L201.158 129.642C201.075 129.675 201.005 129.699 200.948 129.712L200.9 129.723C200.872 129.73 200.85 129.719 200.839 129.69L201.176 129.612L201.287 129.561L201.324 129.603C201.271 129.614 201.232 129.631 201.21 129.651V129.651ZM201.47 129.568L201.465 129.544C201.481 129.54 201.503 129.527 201.527 129.503L201.767 129.448L201.773 129.472C201.645 129.503 201.544 129.535 201.47 129.568H201.47ZM201.507 129.082C201.49 129.086 201.468 129.101 201.44 129.123C201.437 129.106 201.404 129.106 201.341 129.121C201.33 129.075 201.507 129.01 201.874 128.925L201.926 128.914L201.937 128.959C201.679 129.034 201.535 129.077 201.507 129.082L201.507 129.082ZM202.153 128.384C202.127 128.678 202.024 128.844 201.841 128.887L201.836 128.863L201.673 128.925L201.601 128.942C201.564 128.951 201.531 128.949 201.501 128.94L201.487 128.876C201.481 128.852 201.716 128.527 202.192 127.903L202.247 127.912C202.268 127.997 202.236 128.154 202.153 128.384V128.384ZM203.296 127.406L203.274 127.408L203.27 127.362L203.366 127.352L203.368 127.376C203.352 127.38 203.328 127.389 203.296 127.406L203.296 127.406ZM202.825 132.134C202.77 132.109 202.72 132.098 202.678 132.101L202.672 132.031C202.67 132.007 202.685 131.99 202.716 131.981C202.748 131.978 202.766 132 202.77 132.048C202.849 131.946 202.894 131.894 202.903 131.894L202.953 131.915C202.934 132.055 202.892 132.129 202.825 132.134H202.825ZM207.873 126.854C207.849 126.856 207.803 126.782 207.731 126.632L207.727 126.586C207.774 126.582 207.822 126.654 207.87 126.802L207.873 126.854ZM207.807 126.326L207.785 126.374L207.102 126.088C207.558 126.102 207.794 126.182 207.807 126.326V126.326ZM204.91 128.813L204.814 128.822L204.81 128.776L204.906 128.768L204.91 128.813ZM204.83 127.319L204.856 127.317L204.862 127.387C204.838 127.389 204.808 127.423 204.773 127.487L204.77 127.441C204.812 127.387 204.832 127.347 204.83 127.319L204.83 127.319ZM204.629 127.799L204.637 127.89L204.611 127.891L204.603 127.801L204.629 127.799ZM204.52 127.971L204.568 127.967C204.563 128.045 204.542 128.085 204.507 128.089L204.482 128.091C204.509 128.039 204.522 127.999 204.52 127.971V127.971ZM204.443 128.207L204.465 128.205L204.467 128.229L204.424 128.303L204.376 128.307L204.374 128.283C204.424 128.279 204.446 128.253 204.443 128.207V128.207ZM204.365 128.421L204.349 128.54L204.326 128.541L204.317 128.425L204.365 128.421ZM203.577 130.661C203.545 130.816 203.512 130.896 203.477 130.899L203.475 130.879C203.47 130.801 203.503 130.728 203.577 130.661H203.577ZM203.431 130.973L203.433 130.993C203.436 131.027 203.422 131.045 203.388 131.047L203.387 131.023C203.385 130.999 203.4 130.982 203.431 130.973H203.431ZM203.39 131.623L203.464 131.617L203.466 131.641C203.449 131.643 203.424 131.653 203.394 131.669L203.346 131.673C203.344 131.647 203.359 131.63 203.39 131.623L203.39 131.623ZM205.464 130.982C205.058 131.184 204.816 131.32 204.74 131.39C204.297 131.545 204.077 131.642 204.081 131.68C203.688 131.837 203.429 131.95 203.307 132.022C203.278 132.024 203.235 132.013 203.18 131.987C203.172 131.907 203.209 131.843 203.287 131.795C203.357 131.789 203.424 131.798 203.484 131.824C203.558 131.787 203.686 131.747 203.867 131.701L203.863 131.654L203.712 131.665C203.73 131.64 203.872 131.573 204.136 131.466L204.21 131.461L204.212 131.481C204.086 131.492 204.016 131.529 204.001 131.595C204.003 131.625 204.022 131.64 204.053 131.636C204.145 131.575 204.19 131.54 204.19 131.529C204.367 131.497 204.858 131.239 205.665 130.755L205.669 130.801C205.671 130.822 205.602 130.881 205.464 130.982V130.982ZM204.227 131.389C204.347 131.377 204.448 131.331 204.533 131.25C204.565 131.246 204.583 131.261 204.585 131.291C204.53 131.296 204.421 131.342 204.256 131.431L204.23 131.433L204.227 131.389ZM206.224 129.854L205.61 130.349C205.15 130.65 204.901 130.801 204.862 130.805C204.131 131.208 203.676 131.416 203.497 131.431L203.472 131.433C203.494 131.35 203.821 130.683 204.452 129.431C204.727 129.407 205.163 129.276 205.761 129.04L205.911 129.027C206.212 129.001 206.437 129.06 206.585 129.202L206.592 129.293C206.479 129.61 206.357 129.797 206.224 129.854L206.224 129.854ZM205.017 129.175L205.113 129.165L205.115 129.19L205.019 129.199L205.017 129.175ZM206.415 128.937L206.489 128.931C206.557 128.964 206.592 128.994 206.594 129.018L206.596 129.038C206.531 129.044 206.47 129.01 206.415 128.937L206.415 128.937ZM206.609 127.812C206.544 127.89 206.369 128.023 206.082 128.207C205.986 128.216 205.632 128.353 205.019 128.619C204.989 128.608 204.956 128.604 204.921 128.606L204.917 128.56C204.91 128.471 204.949 128.36 205.034 128.226C205.082 127.971 205.135 127.829 205.191 127.795L205.706 126.643C205.7 126.575 205.809 126.52 206.031 126.477L206.104 126.472L206.11 126.542C206.328 126.507 206.465 126.486 206.52 126.481C206.926 126.446 207.138 126.527 207.155 126.726L207.203 126.723L207.194 126.612L207.242 126.608C207.36 126.673 207.423 126.75 207.43 126.843C207.436 126.909 207.402 126.99 207.332 127.085C207.301 127.088 207.283 127.066 207.279 127.018L207.231 127.022L207.216 127.16C207.011 127.472 206.862 127.633 206.767 127.64C206.684 127.753 206.633 127.81 206.609 127.812L206.609 127.812ZM206.825 128.58L206.819 128.51L206.867 128.506L206.97 128.569C206.972 128.599 206.957 128.615 206.926 128.619C206.882 128.591 206.849 128.578 206.825 128.58L206.825 128.58ZM198.23 133.065L198.182 133.076L198.141 133.111C198.148 133.141 198.167 133.152 198.198 133.144C198.23 133.137 198.243 133.119 198.235 133.089L198.23 133.065ZM198.047 132.701L198.052 132.725C198.084 132.718 198.097 132.699 198.089 132.67L198.084 132.646C198.054 132.653 198.041 132.672 198.047 132.701ZM199.347 129.609L199.402 129.596L199.391 129.548L199.336 129.561L199.347 129.609ZM216.101 131.016C215.539 131.141 215.469 131.119 215.351 131.128L215.355 131.174L215.407 131.171L215.434 131.169L215.427 131.163L215.488 131.139C216.044 131.078 216.108 131.101 216.103 131.038L216.101 131.016ZM213.078 131.416L213.082 131.462H213.089L213.086 131.416H213.078ZM212.731 130.199L212.681 130.183C212.641 130.292 212.62 130.356 212.622 130.375L212.624 130.395C212.663 130.393 212.698 130.327 212.731 130.199L212.731 130.199ZM216.215 131.006L216.219 131.052L216.3 131.067L216.297 131.021L216.215 131.006ZM212.395 131.473L212.27 131.459L212.247 131.507L212.249 131.531L212.997 131.468L212.993 131.422L212.395 131.473ZM212.055 129.836L212.054 129.812L212.028 129.814L211.981 129.843L212.007 129.887C212.042 129.884 212.059 129.867 212.055 129.836L212.055 129.836ZM216.57 130.667L216.605 130.663C216.625 130.661 216.634 130.644 216.633 130.615L216.612 130.571C216.485 130.582 216.426 130.587 216.322 130.644L216.32 130.62L216.167 130.635C216.164 130.589 216.151 130.565 216.13 130.567L216.051 130.574C215.959 130.582 215.914 130.578 215.868 130.613C215.866 130.596 215.861 130.589 215.852 130.589L215.763 130.596L215.711 130.626C215.709 130.609 215.704 130.602 215.695 130.602L215.663 130.63L215.661 130.606L215.538 130.596L215.508 130.598L215.512 130.644L215.575 130.661L215.634 130.657C215.654 130.67 215.676 130.674 215.702 130.672L215.754 130.646L215.756 130.667C215.466 130.739 215.468 130.726 215.268 130.759C215.246 130.744 215.229 130.737 215.218 130.739L215.215 130.742C215.192 130.74 215.179 130.726 215.178 130.702L215.281 130.689C215.288 130.689 215.294 130.696 215.351 130.707C215.434 130.667 215.438 130.65 215.482 130.646L215.479 130.6C215.194 130.656 215.309 130.619 214.952 130.65L214.936 130.652L214.932 130.606C215.39 130.55 215.237 130.582 215.394 130.537C215.396 130.554 215.401 130.561 215.41 130.561C215.427 130.544 215.449 130.533 215.473 130.53L215.504 130.528C215.665 130.515 215.719 130.547 216.036 130.458L216.038 130.478L216.09 130.452L216.138 130.449C216.134 130.403 216.204 130.395 216.228 130.393L216.225 130.343C215.667 130.456 215.521 130.425 215.366 130.469L215.364 130.449C215.218 130.475 215.213 130.464 215.176 130.465C215.165 130.467 215.148 130.476 215.13 130.495C215.128 130.478 215.122 130.471 215.111 130.471C215.106 130.471 215.104 130.473 215.102 130.473L214.629 130.55C214.627 130.537 214.622 130.53 214.611 130.532C214.365 130.584 214.432 130.593 214.103 130.622C214.088 130.624 214.068 130.632 214.042 130.648C214.04 130.635 214.033 130.628 214.016 130.63L213.815 130.646L213.68 130.68C213.678 130.667 213.671 130.659 213.654 130.661C213.579 130.681 213.512 130.694 213.459 130.698H213.455C213.422 130.702 213.472 130.689 213.446 130.678L213.405 130.702C213.346 130.707 213.377 130.698 213.174 130.7C212.818 130.744 212.857 130.75 212.818 130.752L212.685 130.742C212.687 130.755 212.68 130.764 212.665 130.764C212.513 130.744 212.436 130.72 212.434 130.692C212.454 130.548 212.489 130.475 212.539 130.471L212.565 130.469L212.543 130.517L212.569 130.515C212.617 130.489 212.639 130.465 212.637 130.443L212.633 130.393L212.585 130.397L212.582 130.351C212.578 130.316 212.584 130.284 212.596 130.259L212.705 130.083L212.709 130.129L212.761 130.126L212.757 130.079L212.728 130.037C212.766 130.004 212.796 129.985 212.82 129.983L212.818 129.959L212.748 129.965L212.742 129.895C212.883 129.603 212.949 129.433 212.945 129.385L212.995 129.406C213.027 129.404 213.041 129.385 213.04 129.352L212.992 129.356L212.99 129.335C212.986 129.302 212.993 129.268 213.008 129.238C213.084 129.158 213.119 129.079 213.112 128.996C213.126 128.994 213.134 129.001 213.136 129.018C213.2 128.981 213.25 128.883 213.287 128.721C213.401 128.514 213.564 128.1 213.776 127.482C214.182 126.389 214.166 126.272 214.223 126.014L214.175 126.017C214.179 126.051 214.171 126.082 214.157 126.112C214.123 126.099 214.098 126.091 214.079 126.093L214.077 126.073C214.07 125.979 214.109 125.866 214.197 125.733L214.219 125.731L214.26 125.89L214.308 125.886C214.306 125.875 214.319 125.812 214.345 125.696C214.343 125.672 214.325 125.657 214.288 125.656L214.242 125.685C214.238 125.652 214.24 125.565 214.245 125.427L214.221 125.428C214.181 125.388 214.16 125.355 214.158 125.327L213.894 125.353C213.893 125.334 213.883 125.307 213.865 125.271C213.863 125.247 213.922 125.223 214.044 125.199L214.098 125.22L214.147 125.19C214.149 125.207 214.158 125.214 214.177 125.212L214.227 125.183C214.229 125.199 214.238 125.207 214.256 125.205L214.28 125.203L214.277 125.15C214.24 125.153 214.142 125.153 213.987 125.148L213.937 125.181L213.935 125.151C212.696 125.253 211.993 125.31 211.825 125.327C211.802 125.329 211.716 125.327 211.562 125.323C211.564 125.343 211.546 125.355 211.509 125.358L211.455 125.334L211.274 125.38C211.232 125.384 211.16 125.382 211.06 125.371C211.033 125.393 210.999 125.406 210.959 125.41C210.936 125.412 211.223 125.395 211.489 125.377C211.461 125.399 211.418 125.412 211.359 125.417C211.319 125.421 211.284 125.415 211.254 125.399C211.213 125.417 211.082 125.447 210.863 125.491L210.809 125.471L209.945 125.604C209.912 125.587 209.873 125.582 209.829 125.585C209.782 125.589 209.705 125.606 209.598 125.635L209.181 125.809L209.212 125.86C209.232 125.859 209.262 125.848 209.297 125.827L209.445 125.84L209.426 125.979C209.289 126.04 209.21 126.13 209.188 126.245C208.983 126.335 208.881 126.4 208.881 126.438L208.883 126.462L208.915 126.461L208.97 126.431L209.035 126.509L209.044 126.616C209.048 126.649 208.702 127.374 208.012 128.793C207.414 130.159 207.1 130.907 207.07 131.041C206.865 131.099 206.747 131.182 206.712 131.293C206.716 131.328 206.777 131.352 206.895 131.361L206.9 131.414L206.847 131.503L206.856 131.61C206.862 131.665 207.011 131.708 207.305 131.737C207.303 131.719 207.312 131.708 207.332 131.706C207.338 131.773 207.319 131.902 207.277 132.094L207.308 132.092C207.43 131.926 207.487 131.811 207.482 131.749L207.508 131.747C207.537 131.745 207.569 131.778 207.606 131.85C207.569 131.865 207.439 132.158 207.218 132.733L207.249 132.784L207.281 132.782C207.552 132.096 207.722 131.715 207.792 131.643C208.148 131.612 208.765 131.549 209.64 131.455L209.696 131.422C209.698 131.44 209.709 131.449 209.729 131.448L209.786 131.442L209.842 131.409C209.843 131.427 209.854 131.436 209.875 131.435L210.538 131.377C210.713 131.363 210.796 131.309 210.789 131.219C210.787 131.195 210.89 131.167 211.099 131.137C211.119 131.135 211.149 131.141 211.189 131.154C211.188 131.137 211.293 131.121 211.503 131.102C211.509 130.991 211.544 130.932 211.607 130.927L211.601 130.873C211.542 130.879 211.476 130.894 211.398 130.919C211.26 130.912 211.171 130.901 211.134 130.888C211.097 130.908 211.069 130.919 211.049 130.921L210.588 130.936L210.532 130.966C210.53 130.949 210.519 130.942 210.499 130.943L210.473 130.945L210.414 130.975C210.412 130.958 210.364 130.945 210.268 130.932L210.209 130.967L210.095 130.977L210.093 130.947C210.687 130.883 210.981 130.801 210.973 130.705C211.012 130.702 211.033 130.72 211.036 130.759L211.21 130.715L211.204 130.661L209.781 130.7C209.783 130.718 209.773 130.729 209.753 130.731L209.579 130.716C209.535 130.72 209.498 130.733 209.469 130.755L209.404 130.731C209.225 130.746 209.092 130.768 209.003 130.796C208.881 130.787 208.747 130.788 208.597 130.801L208.278 130.829L208.13 130.812C208.123 130.718 208.305 130.255 208.682 129.424C208.791 129.143 208.891 128.968 208.987 128.901C209.007 128.9 209.037 128.907 209.077 128.924L209.304 128.846L209.421 128.864C209.616 128.848 209.843 128.792 210.104 128.696C210.168 128.691 210.216 128.695 210.251 128.709L210.425 128.669L210.942 128.624C211.162 128.606 211.4 128.558 211.658 128.479L211.653 128.425C211.557 128.434 211.507 128.418 211.503 128.379C211.498 128.307 211.428 128.277 211.293 128.288L211.287 128.235L211.429 128.194L211.802 128.163L211.797 128.109C211.782 128.111 211.706 128.109 211.566 128.104L211.561 128.046L211.705 128.034C211.743 128.03 211.76 128.011 211.756 127.974C211.562 127.98 211.465 127.971 211.463 127.945C210.111 128.011 209.434 128.024 209.43 127.982C209.41 127.984 209.382 127.997 209.345 128.019L209.31 127.963C209.668 127.203 209.879 126.819 209.939 126.813C209.941 126.843 209.927 126.891 209.893 126.955L209.895 126.979L209.952 126.974C210.095 126.634 210.215 126.459 210.314 126.451C210.739 126.414 210.255 126.387 211.164 126.244C211.201 126.261 211.226 126.268 211.245 126.267C211.601 126.195 212.098 126.119 212.735 126.041L212.731 125.988L212.391 126.019L212.388 125.966C212.428 125.962 212.462 125.949 212.489 125.927L212.491 125.956C212.51 125.955 212.535 125.942 212.569 125.919C212.628 125.914 212.672 125.919 212.704 125.936C212.822 125.905 212.918 125.886 212.988 125.879L213.2 125.859C213.252 125.825 213.276 125.796 213.274 125.768L213.272 125.744C213.219 125.75 213.158 125.746 213.086 125.733C213.084 125.703 213.099 125.683 213.134 125.674L213.529 125.637L213.71 125.591C213.712 125.611 213.721 125.619 213.736 125.619C213.754 125.617 213.78 125.604 213.813 125.582C213.822 125.583 213.834 125.583 213.843 125.585C213.819 125.635 213.791 125.707 213.763 125.801L213.712 125.805C213.708 125.77 213.699 125.739 213.682 125.711L213.656 125.713C213.176 127.049 212.962 127.672 212.519 128.698C212.438 128.96 212.369 129.106 212.31 129.138C212.312 129.167 212.331 129.182 212.362 129.178C212.373 129.308 212.343 129.435 212.271 129.561C212.067 130.151 211.93 130.474 211.86 130.534L211.906 130.812C211.908 130.842 211.893 130.859 211.862 130.862L211.814 130.866C211.806 130.788 211.778 130.751 211.729 130.757L211.703 130.759C211.64 130.857 211.592 130.969 211.561 131.1L211.609 131.097C211.673 131.054 211.703 131.004 211.697 130.947L211.793 130.938L211.849 130.958C211.804 131.028 211.784 131.084 211.788 131.126L211.814 131.171L211.751 131.318L211.753 131.342C211.808 131.337 211.869 131.355 211.934 131.394C211.978 131.39 212.026 131.37 212.079 131.335C212.135 131.329 212.342 131.328 212.698 131.328L212.877 131.267C213.095 131.265 213.13 131.27 213.318 131.254L213.396 131.246L213.437 131.219L213.438 131.243C213.636 131.226 213.649 131.239 213.804 131.257L213.806 131.281L213.697 131.291L213.701 131.337C213.734 131.333 213.763 131.324 213.787 131.304C213.815 131.302 213.832 131.316 213.834 131.35C213.789 131.353 213.739 131.364 213.684 131.383L213.636 131.366C213.56 131.387 213.577 131.392 213.525 131.396L213.449 131.381C213.451 131.394 213.444 131.403 213.431 131.403C213.433 131.433 213.449 131.448 213.477 131.446L213.555 131.438L213.959 131.403L214.112 131.37C214.114 131.383 214.12 131.39 214.133 131.388L214.206 131.361L214.345 131.35C214.452 131.34 214.45 131.333 214.683 131.296C214.681 131.281 214.687 131.276 214.698 131.274L214.699 131.294C215.078 131.23 215.102 131.226 215.163 131.206L215.168 131.217C215.263 131.195 215.209 131.2 215.235 131.182C215.237 131.198 215.242 131.206 215.252 131.206L215.318 131.2L215.314 131.15L215.18 131.148L215.178 131.145C215.172 131.147 215.168 131.147 215.163 131.148H215.144V131.152C215.054 131.171 215.052 131.158 214.993 131.163L214.655 131.182L214.653 131.158L214.842 131.132L214.91 131.126L214.949 131.099L214.951 131.123C215.216 131.1 215.311 131.167 216.54 130.905C216.607 130.899 216.601 130.844 216.644 130.729C216.621 130.731 216.599 130.726 216.579 130.714C216.478 130.753 216.424 130.735 216.228 130.766C216.212 130.768 216.199 130.753 216.193 130.724L216.191 130.703L216.38 130.709C216.415 130.705 216.483 130.7 216.585 130.642C216.585 130.659 216.548 130.668 216.57 130.666L216.57 130.667ZM207.478 130.812L207.391 130.82C207.388 130.785 207.434 130.652 207.53 130.425L207.587 130.419C207.589 130.473 207.554 130.604 207.478 130.812V130.812ZM207.583 130.392L207.582 130.367C207.58 130.338 207.598 130.318 207.639 130.308L207.641 130.332C207.643 130.367 207.624 130.388 207.583 130.392H207.583ZM208.737 131.283L208.739 131.307L208.595 131.32L208.593 131.296L208.737 131.283ZM208.564 131.269C208.566 131.298 208.521 131.331 208.425 131.365L208.248 131.352L208.191 131.357L208.185 131.304L208.564 131.269ZM209.731 125.897L209.644 125.905L209.642 125.875C209.64 125.846 209.657 125.825 209.694 125.816L209.725 125.814L209.784 125.838C209.786 125.873 209.77 125.894 209.731 125.897L209.731 125.897ZM211.051 125.639L211.079 125.637L211.082 125.691L211.003 125.698C211.001 125.668 211.016 125.648 211.051 125.639L211.051 125.639ZM210.719 125.755L210.587 125.74L210.586 125.716C210.757 125.702 210.815 125.683 210.92 125.654C210.922 125.674 210.94 125.681 210.973 125.678L210.977 125.731L210.925 125.737C210.885 125.74 210.85 125.735 210.82 125.718C210.789 125.739 210.755 125.752 210.719 125.755H210.719ZM210.883 126.233L210.881 126.209L211.093 126.189L211.095 126.213L210.883 126.233ZM211.11 126.049L211.108 126.019L211.212 126.01L211.213 126.04L211.11 126.049ZM211.134 125.687L211.106 125.689L211.13 125.631L211.367 125.609L211.369 125.639C211.308 125.644 211.228 125.661 211.134 125.687L211.134 125.687ZM211.254 126.196L211.25 126.143L211.354 126.134C211.389 126.13 211.407 126.147 211.409 126.184L211.254 126.196ZM211.88 125.343L211.747 125.38L211.723 125.382C211.66 125.388 211.579 125.386 211.483 125.377C211.655 125.366 211.819 125.353 211.88 125.343V125.343ZM211.738 125.934L211.74 125.958L211.557 125.975L211.555 125.951L211.738 125.934ZM212.037 126.076C212.035 126.054 212 126.04 211.928 126.032L211.745 126.084L211.605 126.089C211.573 126.067 211.557 126.052 211.555 126.041L211.718 126.051L212.083 125.992L212.27 125.999L212.271 126.028C212.179 126.038 212.102 126.054 212.037 126.076L212.037 126.076ZM213.918 125.591C213.941 125.593 213.955 125.593 213.961 125.593C214.025 125.53 214.098 125.48 214.181 125.445C214.114 125.737 214.011 125.953 213.869 126.093L213.765 126.03C213.852 125.811 213.904 125.665 213.918 125.591V125.591ZM213.601 126.136L213.627 126.134C213.592 126.2 213.56 126.235 213.534 126.237L213.529 126.167C213.545 126.167 213.569 126.156 213.601 126.136V126.136ZM213.396 126.625C213.446 126.425 213.494 126.313 213.538 126.283L213.54 126.307C213.514 126.492 213.473 126.59 213.42 126.597L213.429 126.713C213.385 126.776 213.364 126.824 213.366 126.861L213.34 126.863L213.326 126.702C213.355 126.699 213.379 126.673 213.396 126.625V126.625ZM213.316 126.891C213.318 126.918 213.3 126.983 213.263 127.083L213.237 127.085L213.232 127.014C213.267 126.933 213.296 126.893 213.316 126.891V126.891ZM211.826 131.215L211.825 131.195L211.873 131.191L211.878 131.261C211.852 131.263 211.834 131.248 211.826 131.215H211.826ZM213.955 131.27C213.953 131.254 213.946 131.246 213.929 131.248L213.809 131.259L213.808 131.235H213.819L214.103 131.211L214.105 131.235C214.022 131.239 213.972 131.252 213.955 131.27L213.955 131.27ZM213.813 131.211C213.824 131.217 213.819 131.222 213.813 131.226C213.808 131.224 213.8 131.219 213.813 131.211ZM213.828 130.879L213.669 130.892L213.667 130.868L213.811 130.855L213.937 130.824C213.939 130.838 213.946 130.844 213.963 130.842C214.112 130.816 214.098 130.809 214.169 130.803C214.193 130.801 214.208 130.816 214.21 130.846L213.828 130.879ZM214.384 130.831C214.295 130.822 214.29 130.814 214.227 130.82L214.225 130.8L214.367 130.787L214.369 130.807C214.354 130.809 214.408 130.812 214.384 130.831L214.384 130.831ZM214.395 130.805L214.393 130.785L214.47 130.777L214.472 130.798L214.395 130.805ZM214.566 130.79L214.565 130.77C214.578 130.768 214.596 130.759 214.62 130.74C214.659 130.737 214.679 130.763 214.683 130.792L214.566 130.79ZM214.786 130.763L214.784 130.739L214.879 130.731L214.88 130.755L214.786 130.763ZM214.917 130.751C214.915 130.724 214.927 130.707 214.951 130.704L214.982 130.744C214.98 130.731 214.986 130.724 214.997 130.722L215.021 130.766L214.917 130.751ZM213.523 131.353L213.52 131.307L213.505 131.309L213.508 131.355L213.523 131.353ZM216.767 130.513C216.782 130.504 216.79 130.495 216.754 130.489C216.738 130.508 216.773 130.513 216.736 130.515L216.738 130.532C216.742 130.528 216.751 130.523 216.758 130.517L216.738 130.534V130.535L216.699 130.585L216.777 130.558H216.786L216.782 130.511L216.767 130.513ZM216.902 130.619L216.887 130.62L216.891 130.667L217 130.657C216.998 130.628 216.926 130.619 216.902 130.619L216.902 130.619ZM216.734 130.537L216.736 130.535V130.534C216.736 130.534 216.734 130.535 216.734 130.537V130.537Z" fill="#333333"/>
<path d="M209.646 127.12L209.648 127.149L209.709 127.144C209.707 127.125 209.714 127.096 209.727 127.059L209.722 127.005C209.696 127.007 209.67 127.046 209.646 127.12H209.646ZM209.062 125.716L209.057 125.663L208.97 125.67L208.976 125.724L209.062 125.716ZM207.369 128.887C207.366 128.837 207.21 128.643 206.904 128.301C206.898 128.239 207.004 128.144 207.22 128.021L207.836 127.483C207.975 127.308 208.056 127.024 208.08 126.629L208.073 126.538C208.049 126.265 207.851 126.045 207.476 125.877C207.255 125.728 206.856 125.644 206.28 125.63C205.804 125.67 205.181 125.84 204.415 126.141C204.205 126.293 203.965 126.444 203.695 126.595L203.699 126.642C203.715 126.64 203.741 126.63 203.771 126.61C203.802 126.606 203.821 126.621 203.822 126.651L203.869 126.627L203.891 126.625L203.893 126.645C203.894 126.669 203.728 126.8 203.392 127.035L203.418 127.083L203.396 127.085L203.34 127.064C203.342 127.081 203.318 127.092 203.272 127.096L203.274 127.116L203.328 127.182C203.311 127.184 203.285 127.177 203.25 127.164C203.172 127.171 203.097 127.212 203.021 127.29L203.052 127.153C203.165 126.667 203.243 126.237 203.283 125.864L203.278 125.84C203.2 125.79 203.124 125.72 203.054 125.631C203.056 125.574 203.056 125.541 203.054 125.534L203.049 125.513L203.027 125.519C202.783 125.884 202.314 126.509 201.618 127.391C201.088 128.019 200.815 128.368 200.798 128.438C200.582 128.661 200.479 128.796 200.49 128.842C200.432 128.879 200.408 128.916 200.418 128.957C200.401 128.961 200.39 128.955 200.386 128.938C200.294 129.088 200.157 129.184 199.974 129.226L199.782 129.271C199.757 129.276 199.744 129.295 199.746 129.326L199.751 129.35L199.823 129.333L199.829 129.354L199.666 129.417L199.378 129.483L199.227 129.492C199.205 129.514 199.347 129.49 199.291 129.503L199.103 129.548C198.989 129.574 198.926 129.564 198.915 129.518L198.893 129.524C198.896 129.544 198.898 129.559 198.894 129.572L198.883 129.526L198.732 129.561C198.721 129.49 198.516 129.236 198.119 128.796C198.111 128.711 198.252 128.588 198.538 128.427L199.347 127.716C199.528 127.483 199.635 127.11 199.67 126.597L199.659 126.477C199.627 126.115 199.365 125.824 198.872 125.598C198.58 125.401 198.056 125.295 197.299 125.279C196.671 125.332 195.852 125.556 194.843 125.945C194.566 126.147 194.251 126.346 193.896 126.544L193.902 126.606C193.926 126.605 193.957 126.592 193.996 126.569C194.037 126.566 194.059 126.584 194.062 126.621L194.125 126.586L194.157 126.584L194.158 126.614C194.16 126.643 193.941 126.815 193.496 127.129L193.531 127.184L193.499 127.186L193.431 127.162C193.433 127.181 193.401 127.194 193.337 127.199L193.34 127.232L193.414 127.314C193.39 127.315 193.357 127.308 193.315 127.293C193.171 127.306 193.03 127.41 192.892 127.605L192.927 127.661C193.047 127.55 193.117 127.495 193.137 127.493L193.145 127.583C193.124 127.585 193.093 127.598 193.051 127.62L193.126 127.735C193.269 127.58 193.431 127.444 193.608 127.33C193.695 127.352 193.741 127.38 193.743 127.41L193.809 127.404C194.286 127.051 194.757 126.797 195.224 126.64L195.229 126.702C195.143 126.832 195.083 126.898 195.052 126.902C195.056 126.946 195.071 126.985 195.098 127.018C195.106 127.098 194.893 127.633 194.463 128.623C193.486 130.923 192.667 132.626 192 133.726C192.002 133.748 192.015 133.778 192.039 133.815C192.203 133.776 192.306 133.735 192.351 133.696L192.386 133.693L192.391 133.756L192.452 133.75L192.515 133.715C192.517 133.733 192.537 133.743 192.58 133.739L192.585 133.802C192.591 133.863 192.556 133.955 192.482 134.082C192.415 134.158 192.343 134.317 192.268 134.559L192.27 134.588L192.331 134.583C192.596 134.286 192.798 133.994 192.936 133.709C193.712 133.482 194.302 133.259 194.712 133.039C195.124 133.004 195.438 132.895 195.652 132.716L195.648 132.683L195.493 132.729L195.458 132.733L195.455 132.699C195.757 132.653 195.966 132.587 196.082 132.495C196.671 132.04 197.116 131.719 197.417 131.529C198.036 131.075 198.438 130.632 198.621 130.201C198.654 130.194 198.688 130.187 198.725 130.177C198.811 130.174 198.859 130.172 198.872 130.168C198.869 130.151 198.876 130.142 198.893 130.139C199.031 130.124 198.965 130.148 199.053 130.127L199.286 130.074L199.325 130.065L199.306 130.076C199.332 130.079 199.36 130.078 199.391 130.07L199.408 130.139L198.35 131.821L198.115 132.114L198.001 132.498L198.023 132.493L198.137 132.445L198.1 132.594L198.112 132.639L198.143 132.677C198.128 132.681 198.123 132.69 198.126 132.707L198.132 132.731L198.18 132.72C198.25 132.659 198.28 132.603 198.269 132.554C198.344 132.567 198.394 132.572 198.42 132.565L198.425 132.589C198.379 132.6 198.355 132.637 198.352 132.699L198.357 132.723L198.383 132.718C198.767 132.299 199.709 130.864 200.464 129.891C200.44 129.786 200.833 129.64 201.646 129.452L201.671 129.446C201.701 129.574 201.638 129.882 201.483 130.371C201.383 130.667 201.335 130.829 201.343 130.855C201.213 131.248 201.153 131.461 201.16 131.494L200.872 132.437C200.685 132.921 200.543 133.429 200.444 133.964C200.46 133.961 200.486 133.962 200.523 133.972L200.564 133.937C200.567 133.953 200.578 133.959 200.595 133.955L200.578 133.887L200.704 133.883C200.741 133.874 200.772 133.828 200.798 133.743C200.793 133.615 200.818 133.547 200.876 133.532C200.953 133.229 201.001 133.078 201.018 133.072C201.09 132.772 201.143 132.6 201.178 132.557C201.287 132.166 201.367 131.965 201.418 131.952L201.43 132L201.35 132.205C201.212 132.82 201.071 133.305 200.929 133.661L200.97 133.839L200.996 133.833C201.339 133.095 201.834 131.632 202.478 129.446C202.497 129.254 202.589 129.105 202.753 128.999L202.716 128.961L202.711 128.94C202.785 128.924 202.836 128.894 202.866 128.853C202.862 128.837 202.798 128.813 202.672 128.78L202.993 127.402C203.064 127.339 203.104 127.306 203.117 127.306L203.123 127.376C203.106 127.378 203.08 127.387 203.051 127.408L203.112 127.495C203.222 127.375 203.342 127.271 203.473 127.184C203.54 127.203 203.573 127.225 203.577 127.247L203.625 127.243C203.99 126.976 204.349 126.784 204.701 126.667L204.705 126.713C204.64 126.811 204.596 126.861 204.572 126.863C204.576 126.896 204.585 126.926 204.602 126.952C204.607 127.013 204.448 127.419 204.123 128.172C203.381 129.917 202.759 131.208 202.253 132.046C202.255 132.062 202.266 132.085 202.286 132.114C202.41 132.085 202.489 132.053 202.521 132.024L202.543 132.022L202.547 132.068L202.598 132.064L202.644 132.04C202.646 132.053 202.663 132.059 202.694 132.057L202.698 132.107C202.702 132.151 202.676 132.221 202.619 132.317C202.565 132.375 202.51 132.495 202.451 132.677L202.452 132.701L202.501 132.698C202.702 132.472 202.855 132.251 202.96 132.033C203.549 131.859 203.998 131.691 204.308 131.525C204.624 131.497 204.862 131.416 205.024 131.28L205.023 131.256L204.903 131.291L204.877 131.293L204.875 131.269C205.104 131.235 205.265 131.184 205.351 131.115C205.798 130.772 206.136 130.526 206.365 130.382C207.078 129.863 207.41 129.365 207.369 128.887L207.369 128.887ZM207.247 128.918L207.264 129.105C207.242 129.151 207.218 129.175 207.196 129.177L207.168 128.859C207.22 128.877 207.246 128.896 207.247 128.918H207.247ZM193.267 127.415L193.235 127.417L193.23 127.36L193.357 127.349L193.359 127.378C193.339 127.38 193.307 127.391 193.267 127.415V127.415ZM192.644 133.639C192.571 133.606 192.504 133.593 192.447 133.599L192.439 133.508C192.436 133.473 192.456 133.449 192.5 133.44C192.541 133.436 192.565 133.466 192.569 133.525C192.676 133.394 192.735 133.327 192.746 133.325L192.814 133.353C192.792 133.538 192.735 133.632 192.644 133.639H192.644ZM199.293 126.684C199.262 126.688 199.199 126.59 199.109 126.396L199.103 126.339C199.162 126.333 199.223 126.429 199.288 126.627L199.293 126.684ZM199.205 125.995L199.179 126.056L198.276 125.679C198.878 125.7 199.188 125.805 199.205 125.995V125.995ZM195.392 129.269L195.264 129.28L195.259 129.223L195.386 129.212L195.392 129.269ZM195.288 127.302L195.32 127.301L195.327 127.391C195.298 127.393 195.259 127.437 195.211 127.522L195.205 127.459C195.263 127.391 195.292 127.339 195.288 127.302V127.302ZM195.021 127.934L195.032 128.054L195 128.056L194.989 127.936L195.021 127.934ZM194.88 128.159L194.941 128.154C194.936 128.253 194.908 128.307 194.858 128.311L194.827 128.312C194.866 128.246 194.884 128.194 194.88 128.159V128.159ZM194.775 128.473L194.81 128.469L194.812 128.499L194.755 128.595L194.694 128.6L194.692 128.571C194.753 128.565 194.781 128.534 194.775 128.473V128.473ZM194.672 128.756L194.653 128.907L194.622 128.909L194.609 128.759L194.672 128.756ZM193.636 131.701C193.595 131.907 193.551 132.013 193.505 132.016L193.503 131.987C193.492 131.885 193.536 131.789 193.636 131.701H193.636ZM193.446 132.112L193.448 132.142C193.451 132.182 193.433 132.206 193.392 132.208L193.39 132.179C193.387 132.144 193.405 132.122 193.446 132.112V132.112ZM193.39 132.967L193.486 132.958L193.49 132.991C193.466 132.993 193.435 133.006 193.396 133.028L193.335 133.034C193.331 133.002 193.352 132.978 193.39 132.967V132.967ZM196.123 132.123C195.584 132.389 195.266 132.57 195.172 132.664C194.589 132.867 194.299 132.993 194.304 133.043C193.785 133.248 193.444 133.399 193.28 133.493C193.241 133.497 193.185 133.482 193.111 133.449C193.102 133.344 193.15 133.259 193.252 133.191C193.342 133.183 193.429 133.196 193.512 133.231C193.608 133.181 193.776 133.126 194.014 133.067L194.009 133.004L193.817 133.021C193.841 132.988 194.025 132.901 194.373 132.76L194.469 132.751L194.47 132.781C194.306 132.795 194.216 132.843 194.195 132.93C194.199 132.969 194.221 132.986 194.262 132.982C194.386 132.904 194.446 132.858 194.445 132.845C194.679 132.801 195.327 132.461 196.389 131.828L196.394 131.885C196.396 131.913 196.306 131.99 196.123 132.123L196.123 132.123ZM194.494 132.659C194.65 132.646 194.782 132.583 194.893 132.474C194.938 132.471 194.962 132.487 194.963 132.526C194.888 132.533 194.742 132.596 194.53 132.718L194.498 132.72L194.494 132.659ZM197.122 130.641L196.308 131.287C195.702 131.684 195.377 131.883 195.329 131.887C194.365 132.417 193.765 132.692 193.532 132.712L193.497 132.716C193.527 132.607 193.955 131.73 194.786 130.079C195.152 130.048 195.728 129.878 196.513 129.568L196.705 129.551C197.102 129.516 197.399 129.594 197.594 129.778L197.606 129.898C197.46 130.321 197.297 130.569 197.122 130.641L197.122 130.641ZM195.53 129.745L195.661 129.734L195.663 129.764L195.532 129.775L195.53 129.745ZM197.371 129.433L197.467 129.424C197.556 129.466 197.602 129.503 197.606 129.537L197.607 129.566C197.522 129.574 197.443 129.529 197.371 129.433L197.371 129.433ZM197.631 127.951C197.547 128.052 197.314 128.226 196.934 128.469C196.808 128.48 196.341 128.661 195.532 129.016C195.492 128.997 195.447 128.99 195.403 128.994L195.397 128.937C195.388 128.82 195.44 128.674 195.554 128.497C195.617 128.165 195.685 127.975 195.761 127.928L196.435 126.413C196.428 126.318 196.572 126.246 196.867 126.196L196.963 126.187L196.97 126.274C197.26 126.23 197.441 126.204 197.511 126.198C198.047 126.152 198.326 126.261 198.348 126.521L198.409 126.516L198.396 126.363L198.462 126.357C198.619 126.444 198.704 126.549 198.715 126.673C198.723 126.758 198.676 126.863 198.579 126.989C198.538 126.992 198.514 126.963 198.51 126.904L198.444 126.909L198.429 127.094C198.158 127.5 197.96 127.709 197.838 127.72C197.727 127.873 197.659 127.949 197.631 127.951L197.631 127.951ZM198.045 129.012C197.99 128.975 197.945 128.959 197.912 128.961L197.905 128.87L197.966 128.864L198.1 128.944C198.106 128.986 198.087 129.009 198.045 129.012L198.045 129.012ZM198.473 129.52C198.532 129.544 198.568 129.57 198.575 129.594L198.545 129.601L198.547 129.603C198.542 129.603 198.534 129.605 198.529 129.607L198.484 129.642L198.473 129.52ZM198.514 129.775L198.508 129.751L198.586 129.732L198.592 129.756L198.514 129.775ZM198.701 129.983C198.78 129.971 198.819 129.965 198.966 129.932L198.972 129.956L198.691 130.02C198.695 130.007 198.699 129.995 198.701 129.983H198.701ZM198.974 130.1C198.856 130.111 198.881 130.096 198.693 130.139L198.688 130.115L198.924 130.039L199.037 130.013L199.048 130.057C198.996 130.068 199.033 130.068 198.974 130.1H198.974ZM199.223 130.041C199.195 130.048 199.173 130.035 199.16 130.004L199.232 129.987C199.264 129.98 199.284 129.993 199.291 130.024L199.223 130.041ZM199.899 129.313L199.893 129.289L200.01 129.261L200.021 129.306L199.899 129.313ZM200.621 133.741C200.628 133.708 200.63 133.684 200.626 133.667L200.652 133.661C200.684 133.654 200.702 133.665 200.709 133.695L200.715 133.719L200.621 133.741ZM201.127 129.503L201.075 129.494C200.992 129.527 200.922 129.551 200.864 129.564L200.816 129.575C200.789 129.583 200.767 129.572 200.755 129.542L201.093 129.465L201.204 129.413L201.241 129.455C201.188 129.466 201.149 129.483 201.127 129.503V129.503ZM201.387 129.42L201.381 129.396C201.398 129.393 201.42 129.38 201.444 129.356L201.684 129.3L201.69 129.324C201.562 129.356 201.461 129.387 201.387 129.42H201.387ZM201.424 128.935C201.407 128.938 201.385 128.953 201.357 128.975C201.354 128.959 201.321 128.959 201.258 128.973C201.247 128.927 201.424 128.863 201.791 128.778L201.843 128.767L201.854 128.811C201.596 128.887 201.452 128.929 201.424 128.935L201.424 128.935ZM202.07 128.237C202.044 128.53 201.941 128.696 201.758 128.739L201.753 128.715L201.59 128.778L201.518 128.794C201.481 128.804 201.448 128.802 201.418 128.793L201.404 128.728C201.398 128.704 201.633 128.379 202.109 127.755L202.164 127.764C202.185 127.849 202.153 128.006 202.07 128.237L202.07 128.237ZM203.213 127.258L203.191 127.26L203.187 127.214L203.283 127.205L203.285 127.229C203.268 127.232 203.244 127.242 203.213 127.258L203.213 127.258ZM202.742 131.987C202.687 131.961 202.637 131.95 202.595 131.954L202.589 131.883C202.587 131.859 202.602 131.843 202.633 131.834C202.665 131.83 202.683 131.852 202.687 131.9C202.766 131.798 202.811 131.747 202.82 131.747L202.87 131.767C202.851 131.907 202.809 131.981 202.742 131.987V131.987ZM207.79 126.706C207.766 126.708 207.72 126.634 207.648 126.485L207.644 126.438C207.691 126.435 207.739 126.507 207.787 126.654L207.79 126.706ZM207.724 126.178L207.702 126.226L207.018 125.94C207.474 125.955 207.711 126.034 207.724 126.178V126.178ZM204.827 128.665L204.731 128.674L204.727 128.628L204.823 128.619L204.827 128.665ZM204.747 127.171L204.773 127.17L204.779 127.24C204.755 127.242 204.725 127.275 204.69 127.339L204.686 127.293C204.729 127.24 204.749 127.199 204.747 127.171L204.747 127.171ZM204.546 127.651L204.554 127.742L204.528 127.744L204.52 127.653L204.546 127.651ZM204.437 127.823L204.485 127.819C204.48 127.897 204.459 127.938 204.424 127.941L204.398 127.943C204.426 127.892 204.439 127.851 204.437 127.823V127.823ZM204.36 128.06L204.382 128.058L204.384 128.082L204.341 128.156L204.293 128.159L204.291 128.135C204.341 128.131 204.363 128.106 204.36 128.06V128.06ZM204.282 128.274L204.265 128.392L204.243 128.394L204.234 128.277L204.282 128.274ZM203.494 130.513C203.462 130.668 203.429 130.748 203.394 130.752L203.392 130.731C203.387 130.654 203.42 130.58 203.494 130.513H203.494ZM203.348 130.825L203.35 130.846C203.353 130.879 203.339 130.897 203.305 130.899L203.304 130.875C203.302 130.851 203.316 130.835 203.348 130.825H203.348ZM203.307 131.475L203.381 131.47L203.383 131.494C203.366 131.496 203.34 131.505 203.311 131.521L203.263 131.525C203.261 131.499 203.276 131.483 203.307 131.475L203.307 131.475ZM205.381 130.835C204.974 131.036 204.733 131.173 204.657 131.243C204.214 131.398 203.994 131.494 203.998 131.533C203.604 131.69 203.346 131.802 203.224 131.874C203.195 131.876 203.152 131.865 203.097 131.839C203.089 131.76 203.126 131.695 203.204 131.647C203.274 131.642 203.34 131.651 203.401 131.677C203.475 131.64 203.603 131.599 203.784 131.553L203.78 131.507L203.63 131.52C203.649 131.494 203.791 131.427 204.055 131.32L204.129 131.315L204.131 131.335C204.005 131.346 203.935 131.383 203.92 131.449C203.922 131.479 203.941 131.494 203.972 131.49C204.064 131.429 204.109 131.394 204.109 131.383C204.286 131.352 204.777 131.093 205.584 130.609L205.587 130.656C205.587 130.674 205.519 130.733 205.381 130.835L205.381 130.835ZM204.144 131.241C204.264 131.23 204.365 131.184 204.45 131.102C204.482 131.101 204.5 131.113 204.502 131.143C204.446 131.148 204.337 131.195 204.173 131.283L204.147 131.285L204.144 131.241ZM206.141 129.706L205.527 130.201C205.067 130.502 204.818 130.654 204.779 130.657C204.048 131.06 203.593 131.269 203.414 131.283L203.388 131.285C203.411 131.202 203.737 130.536 204.369 129.284C204.644 129.26 205.08 129.129 205.678 128.892L205.828 128.879C206.128 128.854 206.354 128.913 206.501 129.055L206.509 129.145C206.396 129.463 206.274 129.649 206.141 129.707L206.141 129.706ZM204.934 129.027L205.03 129.018L205.032 129.042L204.936 129.051L204.934 129.027ZM206.332 128.789L206.405 128.783C206.474 128.817 206.509 128.846 206.511 128.87L206.513 128.89C206.448 128.896 206.387 128.863 206.332 128.789H206.332ZM206.525 127.664C206.461 127.742 206.285 127.875 205.999 128.06C205.903 128.069 205.549 128.205 204.936 128.471C204.906 128.46 204.873 128.456 204.838 128.458L204.834 128.412C204.827 128.324 204.866 128.213 204.951 128.078C204.999 127.823 205.052 127.681 205.107 127.648L205.623 126.496C205.617 126.427 205.726 126.372 205.948 126.329L206.021 126.324L206.027 126.394C206.245 126.359 206.381 126.339 206.437 126.333C206.843 126.298 207.055 126.379 207.072 126.579L207.12 126.575L207.111 126.464L207.159 126.461C207.277 126.525 207.34 126.603 207.347 126.695C207.353 126.761 207.319 126.843 207.249 126.937C207.218 126.941 207.199 126.918 207.196 126.87L207.148 126.874L207.133 127.013C206.928 127.325 206.778 127.485 206.684 127.493C206.601 127.605 206.549 127.663 206.525 127.664V127.664ZM206.741 128.432L206.736 128.362L206.784 128.359L206.887 128.421C206.889 128.451 206.874 128.468 206.843 128.471C206.799 128.444 206.766 128.431 206.741 128.432V128.432ZM198.147 132.917L198.099 132.928L198.058 132.963C198.065 132.993 198.084 133.004 198.115 132.997C198.147 132.989 198.159 132.971 198.152 132.941L198.147 132.917ZM197.964 132.554L197.969 132.578C198.001 132.57 198.014 132.552 198.006 132.522L198.001 132.498C197.971 132.506 197.958 132.524 197.964 132.554H197.964ZM199.271 130.098L199.306 130.076C199.299 130.076 199.293 130.074 199.288 130.072C199.275 130.076 199.269 130.085 199.271 130.098L199.271 130.098ZM199.264 129.461L199.319 129.448L199.308 129.4L199.253 129.413L199.264 129.461ZM212.312 131.326L212.186 131.311L212.164 131.359L212.166 131.383L212.914 131.32L212.91 131.274L212.312 131.326ZM212.995 131.269L212.999 131.315H213.006L213.003 131.269H212.995ZM216.132 130.859L216.136 130.905L216.217 130.92L216.213 130.873L216.132 130.859ZM216.018 130.868C215.456 130.993 215.386 130.971 215.268 130.98L215.272 131.027L215.323 131.023L215.351 131.021L215.344 131.016L215.405 130.992C215.96 130.931 216.025 130.953 216.02 130.89L216.018 130.868ZM212.648 130.052L212.598 130.035C212.558 130.144 212.537 130.209 212.539 130.227L212.541 130.247C212.58 130.246 212.615 130.179 212.648 130.052L212.648 130.052ZM211.972 129.688L211.97 129.664L211.945 129.666L211.898 129.695L211.924 129.74C211.959 129.736 211.976 129.719 211.972 129.688L211.972 129.688ZM213.44 131.206L213.436 131.16L213.422 131.161L213.425 131.208L213.44 131.206ZM216.487 130.519L216.522 130.515C216.542 130.513 216.551 130.497 216.549 130.467L216.529 130.423C216.402 130.434 216.343 130.439 216.239 130.497L216.237 130.473L216.084 130.488C216.081 130.441 216.068 130.417 216.047 130.419L215.968 130.427C215.876 130.434 215.831 130.43 215.785 130.465C215.783 130.449 215.778 130.441 215.768 130.441L215.68 130.449L215.628 130.478C215.626 130.462 215.621 130.454 215.612 130.454L215.58 130.482L215.578 130.458L215.455 130.449L215.425 130.451L215.429 130.497L215.491 130.513L215.551 130.51C215.571 130.523 215.593 130.526 215.619 130.524L215.671 130.499L215.672 130.519C215.383 130.591 215.384 130.578 215.185 130.611C215.163 130.596 215.146 130.589 215.135 130.591L215.131 130.595C215.109 130.593 215.096 130.578 215.094 130.554L215.198 130.541C215.205 130.541 215.211 130.548 215.268 130.56C215.351 130.519 215.355 130.502 215.399 130.499L215.395 130.452C215.111 130.508 215.226 130.471 214.869 130.502L214.853 130.504L214.849 130.458C215.307 130.403 215.154 130.434 215.311 130.39C215.312 130.406 215.318 130.414 215.327 130.414C215.344 130.396 215.366 130.385 215.39 130.382L215.421 130.38C215.582 130.367 215.636 130.399 215.953 130.31L215.955 130.331L216.007 130.305L216.055 130.301C216.051 130.255 216.121 130.247 216.145 130.246L216.141 130.196C215.584 130.308 215.438 130.277 215.283 130.321L215.281 130.301C215.135 130.327 215.13 130.316 215.093 130.318C215.082 130.32 215.065 130.329 215.047 130.347C215.045 130.331 215.039 130.323 215.028 130.323C215.023 130.323 215.021 130.325 215.019 130.325L214.546 130.403C214.544 130.39 214.539 130.382 214.528 130.384C214.282 130.436 214.349 130.445 214.02 130.475C214.005 130.476 213.985 130.484 213.959 130.5C213.957 130.488 213.95 130.48 213.933 130.482L213.732 130.499L213.597 130.532C213.595 130.519 213.588 130.512 213.571 130.513C213.496 130.534 213.429 130.547 213.376 130.55H213.372C213.339 130.554 213.389 130.541 213.363 130.53L213.322 130.554C213.263 130.56 213.294 130.55 213.091 130.552C212.735 130.596 212.774 130.602 212.735 130.604L212.602 130.595C212.604 130.608 212.596 130.617 212.582 130.617C212.43 130.596 212.353 130.572 212.351 130.545C212.371 130.401 212.406 130.327 212.456 130.323L212.482 130.321L212.46 130.369L212.486 130.367C212.534 130.342 212.556 130.318 212.554 130.295L212.55 130.246L212.502 130.249L212.499 130.203C212.495 130.168 212.5 130.137 212.513 130.111L212.622 129.935L212.626 129.982L212.678 129.978L212.674 129.932L212.644 129.889C212.683 129.856 212.713 129.838 212.737 129.836L212.735 129.812L212.665 129.817L212.659 129.747C212.8 129.455 212.866 129.285 212.862 129.237L212.912 129.258C212.944 129.256 212.958 129.237 212.956 129.204L212.908 129.208L212.907 129.188C212.903 129.154 212.91 129.12 212.925 129.09C213.001 129.01 213.036 128.931 213.028 128.848C213.043 128.846 213.051 128.853 213.052 128.87C213.117 128.833 213.167 128.735 213.204 128.573C213.318 128.366 213.481 127.952 213.693 127.334C214.099 126.241 214.083 126.124 214.14 125.866L214.092 125.87C214.096 125.903 214.088 125.934 214.073 125.964C214.04 125.951 214.014 125.944 213.996 125.945L213.994 125.925C213.987 125.831 214.025 125.718 214.114 125.585L214.136 125.583L214.177 125.742L214.225 125.739C214.223 125.727 214.236 125.665 214.262 125.548C214.26 125.524 214.241 125.51 214.205 125.508L214.158 125.537C214.155 125.504 214.157 125.417 214.162 125.279L214.138 125.281C214.098 125.24 214.077 125.207 214.075 125.179L213.811 125.205C213.809 125.186 213.8 125.159 213.782 125.124C213.78 125.1 213.839 125.076 213.961 125.052L214.014 125.072L214.064 125.042C214.066 125.059 214.075 125.066 214.094 125.065L214.144 125.035C214.145 125.052 214.155 125.059 214.173 125.057L214.197 125.055L214.193 125.002C214.157 125.006 214.059 125.006 213.904 125L213.854 125.033L213.852 125.004C212.613 125.105 211.91 125.162 211.741 125.179C211.719 125.181 211.633 125.179 211.479 125.175C211.481 125.196 211.463 125.207 211.426 125.21L211.372 125.186L211.191 125.233C211.149 125.236 211.077 125.235 210.977 125.223C210.949 125.246 210.916 125.258 210.876 125.262C210.853 125.264 211.14 125.247 211.405 125.229C211.378 125.251 211.335 125.264 211.276 125.27C211.236 125.273 211.201 125.268 211.171 125.251C211.13 125.27 210.999 125.299 210.78 125.343L210.726 125.323L209.862 125.456C209.829 125.439 209.79 125.434 209.746 125.438C209.699 125.441 209.622 125.458 209.515 125.487L209.097 125.661L209.129 125.713C209.149 125.711 209.179 125.7 209.214 125.679L209.362 125.692L209.343 125.831C209.206 125.892 209.127 125.982 209.105 126.097C208.9 126.187 208.798 126.252 208.798 126.291L208.8 126.315L208.832 126.313L208.887 126.283L208.952 126.361L208.961 126.468C208.965 126.501 208.619 127.227 207.929 128.645C207.33 130.011 207.017 130.759 206.987 130.894C206.782 130.951 206.664 131.034 206.629 131.145C206.633 131.18 206.693 131.204 206.812 131.213L206.817 131.267L206.764 131.355L206.773 131.462C206.778 131.518 206.928 131.56 207.222 131.59C207.22 131.571 207.229 131.56 207.249 131.558C207.255 131.625 207.236 131.754 207.194 131.946L207.225 131.944C207.347 131.778 207.404 131.664 207.399 131.601L207.425 131.599C207.454 131.597 207.486 131.63 207.522 131.702C207.486 131.717 207.356 132.011 207.135 132.585L207.166 132.637L207.198 132.635C207.469 131.948 207.639 131.568 207.709 131.495C208.065 131.464 208.682 131.401 209.557 131.307L209.613 131.274C209.614 131.292 209.626 131.302 209.646 131.3L209.703 131.294L209.758 131.261C209.76 131.279 209.771 131.289 209.792 131.287L210.455 131.23C210.63 131.215 210.713 131.161 210.706 131.071C210.704 131.047 210.807 131.019 211.016 130.99C211.036 130.988 211.066 130.993 211.106 131.006C211.104 130.99 211.21 130.973 211.42 130.955C211.426 130.844 211.461 130.785 211.524 130.779L211.518 130.726C211.459 130.731 211.393 130.746 211.315 130.772C211.176 130.764 211.088 130.753 211.051 130.74C211.014 130.761 210.986 130.772 210.966 130.774L210.504 130.788L210.449 130.818C210.447 130.801 210.436 130.794 210.416 130.796L210.39 130.798L210.331 130.827C210.329 130.811 210.281 130.798 210.185 130.785L210.126 130.82L210.011 130.829L210.01 130.799C210.604 130.735 210.898 130.654 210.89 130.558C210.929 130.554 210.949 130.572 210.953 130.611L211.127 130.567L211.121 130.513L209.698 130.552C209.699 130.57 209.69 130.582 209.67 130.583L209.496 130.569C209.452 130.572 209.415 130.585 209.386 130.607L209.321 130.583C209.142 130.598 209.009 130.62 208.92 130.648C208.798 130.639 208.664 130.641 208.514 130.654L208.195 130.681L208.047 130.665C208.039 130.57 208.222 130.107 208.599 129.276C208.708 128.996 208.808 128.82 208.904 128.754C208.924 128.752 208.953 128.759 208.994 128.776L209.221 128.698L209.337 128.717C209.533 128.7 209.76 128.645 210.021 128.549C210.085 128.543 210.133 128.547 210.168 128.562L210.342 128.521L210.859 128.477C211.079 128.458 211.317 128.41 211.575 128.331L211.57 128.277C211.474 128.287 211.424 128.27 211.42 128.231C211.415 128.159 211.345 128.13 211.21 128.141L211.204 128.087L211.346 128.047L211.719 128.015L211.714 127.962C211.699 127.963 211.623 127.962 211.483 127.956L211.477 127.899L211.621 127.886C211.66 127.882 211.677 127.864 211.673 127.827C211.479 127.832 211.381 127.823 211.38 127.797C210.028 127.864 209.35 127.877 209.347 127.834C209.326 127.836 209.299 127.849 209.262 127.871L209.227 127.816C209.585 127.055 209.795 126.671 209.856 126.665C209.858 126.695 209.843 126.743 209.812 126.808L209.814 126.832L209.871 126.826C210.013 126.486 210.133 126.311 210.233 126.304C210.658 126.267 210.174 126.239 211.082 126.097C211.119 126.113 211.145 126.121 211.164 126.119C211.52 126.047 212.017 125.971 212.654 125.894L212.65 125.84L212.31 125.871L212.306 125.818C212.347 125.814 212.38 125.801 212.408 125.779L212.41 125.809C212.428 125.807 212.454 125.794 212.487 125.772C212.547 125.766 212.591 125.772 212.622 125.788C212.74 125.757 212.836 125.739 212.907 125.731L213.119 125.711C213.171 125.678 213.195 125.648 213.193 125.62L213.191 125.596C213.137 125.602 213.076 125.598 213.004 125.585C213.003 125.556 213.017 125.535 213.052 125.526L213.448 125.489L213.629 125.443C213.63 125.463 213.64 125.471 213.654 125.471C213.673 125.469 213.699 125.456 213.732 125.434C213.741 125.436 213.752 125.436 213.761 125.438C213.737 125.487 213.71 125.559 213.682 125.654L213.63 125.657C213.627 125.622 213.617 125.591 213.601 125.563L213.575 125.565C213.095 126.902 212.881 127.524 212.438 128.551C212.356 128.813 212.288 128.959 212.229 128.99C212.231 129.02 212.249 129.034 212.281 129.031C212.292 129.16 212.262 129.287 212.19 129.413C211.985 130.004 211.849 130.327 211.778 130.386L211.825 130.665C211.826 130.694 211.812 130.711 211.78 130.715L211.732 130.718C211.725 130.641 211.697 130.604 211.647 130.609L211.621 130.611C211.559 130.709 211.511 130.822 211.479 130.953L211.527 130.949C211.592 130.907 211.621 130.857 211.616 130.799L211.712 130.79L211.767 130.811C211.723 130.881 211.703 130.936 211.706 130.979L211.732 131.023L211.669 131.171L211.671 131.195C211.727 131.189 211.788 131.208 211.852 131.246C211.897 131.243 211.945 131.222 211.998 131.187C212.054 131.182 212.26 131.18 212.617 131.18L212.796 131.119C213.014 131.117 213.049 131.123 213.237 131.106L213.315 131.099L213.355 131.071L213.357 131.095C213.555 131.078 213.568 131.091 213.723 131.11L213.725 131.134L213.616 131.143L213.619 131.189C213.653 131.185 213.682 131.176 213.706 131.156C213.734 131.154 213.75 131.169 213.752 131.202C213.708 131.206 213.658 131.217 213.603 131.235L213.555 131.219C213.479 131.239 213.496 131.244 213.444 131.248L213.368 131.233C213.37 131.246 213.363 131.256 213.35 131.256C213.352 131.285 213.368 131.3 213.396 131.298L213.473 131.291L213.878 131.256L214.031 131.222C214.033 131.235 214.038 131.243 214.051 131.241L214.125 131.213L214.264 131.202C214.371 131.193 214.369 131.185 214.602 131.148C214.6 131.134 214.605 131.128 214.616 131.126L214.618 131.147C214.997 131.082 215.021 131.078 215.082 131.058L215.087 131.069C215.181 131.047 215.128 131.052 215.154 131.034C215.156 131.051 215.161 131.058 215.17 131.058L215.237 131.052L215.233 131.003L215.098 131.001L215.096 130.997C215.091 130.999 215.087 130.999 215.082 131.001H215.063V131.004C214.973 131.023 214.971 131.01 214.912 131.016L214.574 131.034L214.572 131.01L214.76 130.984L214.829 130.979L214.867 130.951L214.869 130.975C215.135 130.953 215.229 131.019 216.459 130.757C216.525 130.751 216.52 130.696 216.562 130.582C216.54 130.583 216.517 130.578 216.498 130.567C216.396 130.606 216.343 130.587 216.147 130.619C216.13 130.62 216.117 130.606 216.112 130.576L216.11 130.556L216.298 130.561C216.333 130.558 216.402 130.552 216.503 130.495C216.503 130.511 216.465 130.521 216.487 130.519L216.487 130.519ZM207.395 130.665L207.308 130.672C207.305 130.637 207.351 130.504 207.447 130.277L207.504 130.271C207.506 130.325 207.471 130.456 207.395 130.665V130.665ZM207.5 130.244L207.499 130.22C207.497 130.19 207.515 130.17 207.556 130.161L207.558 130.185C207.559 130.22 207.541 130.24 207.5 130.244H207.5ZM208.654 131.136L208.656 131.16L208.512 131.173L208.51 131.148L208.654 131.136ZM208.481 131.121C208.483 131.15 208.438 131.184 208.342 131.217L208.165 131.204L208.108 131.209L208.102 131.156L208.481 131.121ZM209.648 125.75L209.561 125.757L209.559 125.728C209.557 125.698 209.574 125.678 209.611 125.668L209.642 125.667L209.701 125.691C209.703 125.726 209.686 125.746 209.648 125.75L209.648 125.75ZM210.968 125.491L210.996 125.489L210.999 125.543L210.92 125.55C210.918 125.521 210.933 125.5 210.968 125.491V125.491ZM210.635 125.608L210.504 125.593L210.503 125.569C210.674 125.554 210.732 125.535 210.837 125.506C210.839 125.526 210.857 125.534 210.89 125.53L210.894 125.583L210.842 125.589C210.802 125.593 210.767 125.587 210.737 125.571C210.706 125.591 210.672 125.604 210.635 125.608H210.635ZM210.8 126.086L210.798 126.062L211.01 126.041L211.012 126.065L210.8 126.086ZM211.027 125.901L211.025 125.872L211.128 125.862L211.13 125.892L211.027 125.901ZM211.051 125.539L211.023 125.541L211.047 125.484L211.284 125.462L211.285 125.491C211.224 125.497 211.145 125.513 211.051 125.539L211.051 125.539ZM211.171 126.049L211.167 125.995L211.271 125.986C211.306 125.982 211.324 125.999 211.326 126.036L211.171 126.049ZM211.797 125.196L211.664 125.233L211.64 125.235C211.577 125.24 211.496 125.238 211.4 125.229C211.572 125.218 211.736 125.205 211.797 125.196V125.196ZM211.655 125.787L211.657 125.811L211.474 125.827L211.472 125.803L211.655 125.787ZM211.954 125.929C211.952 125.907 211.917 125.892 211.845 125.884L211.662 125.936L211.522 125.942C211.49 125.92 211.474 125.905 211.472 125.894L211.634 125.903L212 125.844L212.186 125.851L212.188 125.881C212.096 125.89 212.018 125.907 211.954 125.929L211.954 125.929ZM213.835 125.443C213.857 125.445 213.872 125.445 213.878 125.445C213.942 125.382 214.014 125.332 214.097 125.297C214.031 125.589 213.928 125.805 213.785 125.945L213.682 125.883C213.769 125.663 213.821 125.517 213.835 125.443V125.443ZM213.518 125.988L213.544 125.986C213.508 126.052 213.477 126.088 213.451 126.089L213.446 126.019C213.462 126.019 213.486 126.008 213.518 125.988L213.518 125.988ZM213.313 126.477C213.363 126.278 213.411 126.165 213.455 126.136L213.457 126.16C213.431 126.344 213.39 126.442 213.337 126.449L213.346 126.566C213.302 126.629 213.281 126.677 213.283 126.713L213.257 126.715L213.243 126.555C213.272 126.551 213.296 126.525 213.313 126.477L213.313 126.477ZM213.233 126.743C213.235 126.771 213.217 126.835 213.18 126.935L213.154 126.937L213.148 126.867C213.184 126.786 213.213 126.745 213.233 126.743L213.233 126.743ZM211.743 131.067L211.741 131.047L211.789 131.043L211.795 131.113C211.769 131.115 211.751 131.101 211.743 131.067L211.743 131.067ZM213.872 131.123C213.87 131.106 213.863 131.099 213.846 131.1L213.726 131.112L213.725 131.088H213.736L214.02 131.064L214.022 131.088C213.939 131.091 213.889 131.104 213.872 131.123L213.872 131.123ZM213.73 131.064C213.741 131.069 213.736 131.075 213.73 131.078C213.724 131.076 213.717 131.071 213.73 131.064ZM213.745 130.731L213.586 130.744L213.584 130.72L213.728 130.707L213.854 130.676C213.856 130.691 213.863 130.696 213.88 130.694C214.029 130.668 214.014 130.661 214.086 130.656C214.11 130.654 214.125 130.668 214.127 130.698L213.745 130.731ZM214.301 130.683C214.212 130.674 214.206 130.667 214.144 130.672L214.142 130.652L214.284 130.639L214.286 130.659C214.271 130.661 214.325 130.665 214.301 130.683V130.683ZM214.312 130.657L214.31 130.637L214.387 130.63L214.389 130.65L214.312 130.657ZM214.483 130.643L214.482 130.622C214.494 130.62 214.513 130.611 214.537 130.593C214.576 130.589 214.596 130.615 214.6 130.644L214.483 130.643ZM214.703 130.615L214.701 130.591L214.795 130.583L214.797 130.608L214.703 130.615ZM214.834 130.604C214.832 130.576 214.843 130.56 214.867 130.556L214.899 130.596C214.897 130.583 214.902 130.576 214.914 130.574L214.938 130.619L214.834 130.604ZM216.651 130.39L216.653 130.388V130.386C216.653 130.386 216.651 130.388 216.651 130.39V130.39ZM216.684 130.366C216.699 130.356 216.706 130.347 216.671 130.342C216.655 130.36 216.69 130.366 216.653 130.367L216.655 130.384C216.658 130.38 216.668 130.375 216.675 130.369L216.655 130.386V130.388L216.616 130.438L216.694 130.41H216.703L216.699 130.364L216.684 130.366ZM216.819 130.471L216.804 130.473L216.808 130.519L216.917 130.51C216.915 130.48 216.843 130.471 216.819 130.471L216.819 130.471Z" fill="#828282"/>
<circle cx="253.5" cy="129.5" r="17.5" fill="white"/>
<path d="M244.602 127.683H243.872V130.428C243.872 131.133 243.425 131.534 242.789 131.534C242.206 131.534 241.729 131.268 241.729 130.441V127.683H241V130.648C241 131.664 241.654 132.187 242.569 132.187C243.277 132.187 243.695 131.884 243.851 131.534H243.88V132.116H244.602V127.683ZM245.893 132.116H246.618V129.416C246.618 128.809 246.947 128.269 247.711 128.269C248.356 128.269 248.794 128.649 248.794 129.396V132.116H249.52V129.273C249.52 128.193 248.842 127.611 247.93 127.611C247.209 127.611 246.8 127.986 246.635 128.269H246.614V127.683H245.893V132.116ZM250.785 132.116H251.511V127.683H250.785V132.116ZM250.684 126.616C250.684 126.873 250.891 127.075 251.148 127.075C251.406 127.075 251.617 126.873 251.617 126.616C251.617 126.353 251.406 126.151 251.148 126.151C250.891 126.151 250.684 126.353 250.684 126.616Z" fill="#828282"/>
<path d="M253.126 132.116H253.852V128.29H254.721V127.683H253.848V127.299C253.848 126.759 254.08 126.603 254.561 126.603C254.671 126.603 254.726 126.612 254.788 126.619V126.025C254.713 126.012 254.612 126 254.464 126C253.553 126 253.126 126.392 253.126 127.24V127.683H252.528V128.29H253.126V132.116ZM255.75 132.116H256.476V127.683H255.75V132.116ZM255.649 126.616C255.649 126.873 255.856 127.075 256.113 127.075C256.37 127.075 256.581 126.873 256.581 126.616C256.581 126.353 256.37 126.151 256.113 126.151C255.856 126.151 255.649 126.353 255.649 126.616ZM259.496 132.187C260.474 132.187 261.061 131.644 261.229 130.909H260.509C260.365 131.323 260.028 131.58 259.513 131.58C258.792 131.58 258.362 131.003 258.362 130.158V130.079H261.289V129.666C261.289 128.446 260.622 127.611 259.462 127.611C258.298 127.611 257.636 128.446 257.636 129.614V130.112C257.636 131.374 258.34 132.187 259.496 132.187V132.187ZM258.362 129.492V129.479C258.362 128.779 258.792 128.219 259.466 128.219C260.129 128.219 260.564 128.775 260.564 129.479V129.492H258.362ZM263.98 127.615C262.862 127.615 262.208 128.492 262.208 129.699V130.099C262.208 131.335 262.824 132.183 263.98 132.183C264.575 132.183 265.039 131.905 265.287 131.449H265.304V132.116H266V126.054H265.275V128.298H265.254C265.03 127.906 264.566 127.615 263.98 127.615V127.615ZM264.081 128.248C264.828 128.248 265.287 128.83 265.287 129.724V130.079C265.287 131.019 264.836 131.55 264.094 131.55C263.423 131.55 262.938 131.061 262.938 130.074V129.724C262.938 128.737 263.423 128.248 264.081 128.248Z" fill="#333333"/>
<circle cx="65.5" cy="85.5" r="1.5" fill="#BDBDBD"/>
<circle cx="67.5" cy="83.5" r="0.5" fill="#BDBDBD"/>
<circle cx="68.5" cy="85.5" r="0.5" fill="#BDBDBD"/>
<circle cx="70.5" cy="85.5" r="0.5" fill="#BDBDBD"/>
<circle cx="72.5" cy="85.5" r="0.5" fill="#BDBDBD"/>
<circle cx="74.5" cy="85.5" r="0.5" fill="#BDBDBD"/>
<circle cx="76.5" cy="85.5" r="0.5" fill="#BDBDBD"/>
<circle cx="78.5" cy="85.5" r="0.5" fill="#BDBDBD"/>
<circle cx="80.5" cy="85.5" r="0.5" fill="#BDBDBD"/>
<circle cx="82.5" cy="85.5" r="0.5" fill="#BDBDBD"/>
<circle cx="84.5" cy="85.5" r="0.5" fill="#BDBDBD"/>
<circle cx="86.5" cy="85.5" r="0.5" fill="#BDBDBD"/>
<circle cx="88.5" cy="85.5" r="0.5" fill="#BDBDBD"/>
<circle cx="90.5" cy="85.5" r="0.5" fill="#BDBDBD"/>
<circle cx="92.5" cy="85.5" r="0.5" fill="#BDBDBD"/>
<circle cx="94.5" cy="85.5" r="0.5" fill="#BDBDBD"/>
<circle cx="96.5" cy="85.5" r="0.5" fill="#BDBDBD"/>
<circle cx="98.5" cy="85.5" r="0.5" fill="#BDBDBD"/>
<circle cx="100.5" cy="85.5" r="0.5" fill="#BDBDBD"/>
<circle cx="102.5" cy="85.5" r="0.5" fill="#BDBDBD"/>
<circle cx="104.5" cy="85.5" r="0.5" fill="#BDBDBD"/>
<circle cx="106.5" cy="85.5" r="0.5" fill="#BDBDBD"/>
<circle cx="108.5" cy="85.5" r="0.5" fill="#BDBDBD"/>
<circle cx="110.5" cy="85.5" r="0.5" fill="#BDBDBD"/>
<circle cx="112.5" cy="85.5" r="0.5" fill="#BDBDBD"/>
<circle cx="114.5" cy="85.5" r="0.5" fill="#BDBDBD"/>
<circle cx="116.5" cy="85.5" r="0.5" fill="#BDBDBD"/>
<circle cx="118.5" cy="85.5" r="0.5" fill="#BDBDBD"/>
<circle cx="120.5" cy="85.5" r="0.5" fill="#BDBDBD"/>
<circle cx="122.5" cy="85.5" r="0.5" fill="#BDBDBD"/>
<circle cx="124.5" cy="85.5" r="0.5" fill="#BDBDBD"/>
<circle cx="126.5" cy="85.5" r="0.5" fill="#BDBDBD"/>
<circle cx="128.5" cy="85.5" r="0.5" fill="#BDBDBD"/>
<circle cx="130.5" cy="85.5" r="0.5" fill="#BDBDBD"/>
<circle cx="132.5" cy="85.5" r="0.5" fill="#BDBDBD"/>
<circle cx="134.5" cy="85.5" r="0.5" fill="#BDBDBD"/>
<circle cx="136.5" cy="85.5" r="0.5" fill="#BDBDBD"/>
<circle cx="138.5" cy="85.5" r="0.5" fill="#BDBDBD"/>
<circle cx="140.5" cy="85.5" r="0.5" fill="#BDBDBD"/>
<circle cx="142.5" cy="85.5" r="0.5" fill="#BDBDBD"/>
<circle cx="144.5" cy="85.5" r="0.5" fill="#BDBDBD"/>
<circle cx="146.5" cy="85.5" r="0.5" fill="#BDBDBD"/>
<circle cx="148.5" cy="85.5" r="0.5" fill="#BDBDBD"/>
<circle cx="150.5" cy="85.5" r="0.5" fill="#BDBDBD"/>
<circle cx="152.5" cy="85.5" r="0.5" fill="#BDBDBD"/>
<circle cx="305.5" cy="85.5" r="0.5" fill="#BDBDBD"/>
<circle cx="307.5" cy="85.5" r="0.5" fill="#BDBDBD"/>
<circle cx="309.5" cy="85.5" r="0.5" fill="#BDBDBD"/>
<circle cx="311.5" cy="85.5" r="0.5" fill="#BDBDBD"/>
<circle cx="313.5" cy="85.5" r="0.5" fill="#BDBDBD"/>
<circle cx="315.5" cy="85.5" r="0.5" fill="#BDBDBD"/>
<circle cx="317.5" cy="85.5" r="0.5" fill="#BDBDBD"/>
<circle cx="319.5" cy="85.5" r="0.5" fill="#BDBDBD"/>
<circle cx="321.5" cy="85.5" r="0.5" fill="#BDBDBD"/>
<circle cx="323.5" cy="85.5" r="0.5" fill="#BDBDBD"/>
<circle cx="325.5" cy="85.5" r="0.5" fill="#BDBDBD"/>
<circle cx="327.5" cy="85.5" r="0.5" fill="#BDBDBD"/>
<circle cx="329.5" cy="85.5" r="0.5" fill="#BDBDBD"/>
<circle cx="331.5" cy="85.5" r="0.5" fill="#BDBDBD"/>
<circle cx="333.5" cy="85.5" r="0.5" fill="#BDBDBD"/>
<circle cx="335.5" cy="85.5" r="0.5" fill="#BDBDBD"/>
<circle cx="63.5" cy="87.5" r="0.5" fill="#BDBDBD"/>
<circle cx="63.5" cy="83.5" r="0.5" fill="#BDBDBD"/>
<circle cx="67.5" cy="87.5" r="0.5" fill="#BDBDBD"/>
<circle cx="69.5" cy="89.5" r="0.5" fill="#BDBDBD"/>
<circle cx="71.5" cy="91.5" r="0.5" fill="#BDBDBD"/>
<circle cx="73.5" cy="93.5" r="0.5" fill="#BDBDBD"/>
<circle cx="75.5" cy="95.5" r="0.5" fill="#BDBDBD"/>
<circle cx="77.5" cy="97.5" r="0.5" fill="#BDBDBD"/>
<circle cx="62.5" cy="81.5" r="0.5" fill="#BDBDBD"/>
<circle cx="60.5" cy="79.5" r="0.5" fill="#BDBDBD"/>
<circle cx="58.5" cy="77.5" r="0.5" fill="#BDBDBD"/>
<circle cx="56.5" cy="75.5" r="0.5" fill="#BDBDBD"/>
<circle cx="54.5" cy="73.5" r="0.5" fill="#BDBDBD"/>
<circle cx="61.5" cy="89.5" r="0.5" fill="#BDBDBD"/>
<circle cx="59.5" cy="91.5" r="0.5" fill="#BDBDBD"/>
<circle cx="57.5" cy="93.5" r="0.5" fill="#BDBDBD"/>
<circle cx="55.5" cy="95.5" r="0.5" fill="#BDBDBD"/>
<circle cx="53.5" cy="97.5" r="0.5" fill="#BDBDBD"/>
<circle cx="69.5" cy="81.5" r="0.5" fill="#BDBDBD"/>
<circle cx="71.5" cy="79.5" r="0.5" fill="#BDBDBD"/>
<circle cx="73.5" cy="77.5" r="0.5" fill="#BDBDBD"/>
<circle cx="75.5" cy="75.5" r="0.5" fill="#BDBDBD"/>
<circle cx="77.5" cy="73.5" r="0.5" fill="#BDBDBD"/>
</svg>
