<svg width="22" height="25" viewBox="0 0 22 25" fill="none" xmlns="http://www.w3.org/2000/svg">
  <path d="M4.41177 4.41176L11.0294 0v2.94118c2.1814 0 4.3138.64686 6.1276 1.85879 1.8138 1.21192 3.2275 2.93448 4.0623 4.94984.8347 2.01539 1.0532 4.23299.6276 6.37249-.4256 2.1395-1.476 4.1048-3.0185 5.6473-1.5425 1.5424-3.5078 2.5929-5.6473 3.0185-2.1395.4255-4.3571.2071-6.37246-.6277-2.01536-.8348-3.73792-2.2484-4.94985-4.0622C.646864 18.2844 0 16.152 0 13.9706h2c0 1.7858.52957 3.5316 1.52173 5.0165.99216 1.4848 2.40237 2.6422 4.05227 3.3256 1.64991.6834 3.4654.8622 5.217.5138 1.7515-.3484 3.3604-1.2084 4.6232-2.4712 1.2628-1.2627 2.1227-2.8716 2.4711-4.6232.3484-1.7515.1696-3.567-.5138-5.2169-.6834-1.64993-1.8407-3.06013-3.3256-4.05229-1.4849-.99217-3.2306-1.52173-5.0165-1.52173v3.88235L4.41177 4.41176z" fill="#fff"/>
</svg>
