<?xml version="1.0" encoding="UTF-8" standalone="no"?>
<svg
  xmlns="http://www.w3.org/2000/svg"
  width="128.53"
  height="34.13"
  viewBox="0 0 128.53 34.13"
>
  <path
    d="M108.93 21.4453V34.125H103V0H116.055C119.867 0 122.891 0.992188 125.125 2.97656C127.375 4.96094 128.5 7.58594 128.5 10.8516C128.5 14.1953 127.398 16.7969 125.195 18.6562C123.008 20.5156 119.938 21.4453 115.984 21.4453H108.93ZM108.93 16.6875H116.055C118.164 16.6875 119.773 16.1953 120.883 15.2109C121.992 14.2109 122.547 12.7734 122.547 10.8984C122.547 9.05469 121.984 7.58594 120.859 6.49219C119.734 5.38281 118.188 4.8125 116.219 4.78125H108.93V16.6875Z"
    fill="#333333"
  />
  <path
    d="M84.7422 12.3281L91.9141 0H98.7578L88.4453 16.9219L98.9922 34.125H92.0781L84.7422 21.6094L77.3828 34.125H70.4922L81.0625 16.9219L70.7266 0H77.5703L84.7422 12.3281Z"
    fill="#333333"
  />
  <path
    d="M42 34.125V0H52.0781C55.0938 0 57.7656 0.671875 60.0938 2.01562C62.4375 3.35938 64.25 5.26562 65.5312 7.73438C66.8125 10.2031 67.4531 13.0312 67.4531 16.2188V17.9297C67.4531 21.1641 66.8047 24.0078 65.5078 26.4609C64.2266 28.9141 62.3906 30.8047 60 32.1328C57.625 33.4609 54.8984 34.125 51.8203 34.125H42ZM47.9297 4.78125V29.3906H51.7969C54.9062 29.3906 57.2891 28.4219 58.9453 26.4844C60.6172 24.5312 61.4688 21.7344 61.5 18.0938V16.1953C61.5 12.4922 60.6953 9.66406 59.0859 7.71094C57.4766 5.75781 55.1406 4.78125 52.0781 4.78125H47.9297Z"
    fill="black"
  />
  <path
    d="M7.6875 0L17.5312 26.1562L27.3516 0H35.0156V34.125H29.1094V22.875L29.6953 7.82812L19.6172 34.125H15.375L5.32031 7.85156L5.90625 22.875V34.125H0V0H7.6875Z"
    fill="black"
  />
</svg>
