<?xml version="1.0" encoding="UTF-8" standalone="no"?>
<svg width="497" height="172" viewBox="0 0 497 172" fill="none" xmlns="http://www.w3.org/2000/svg">
<path d="M494.185 154.806L463.788 172V158.608L482.727 148.19L494.185 154.806ZM496.264 152.923V116.964L485.14 123.384V146.496L496.264 152.923ZM430.723 154.806L461.119 172V158.608L442.18 148.19L430.723 154.806ZM428.643 152.923V116.964L439.767 123.384V146.496L428.643 152.923ZM429.945 114.638L461.119 97V109.948L441.148 120.934L440.995 121.021L429.945 114.638ZM494.963 114.638L463.788 97V109.948L483.759 120.934L483.912 121.021L494.963 114.638Z" fill="#333333"/>
<path d="M461.119 155.562L442.435 145.289V124.932L461.119 135.721V155.562ZM463.788 155.562L482.472 145.289V124.932L463.788 135.721V155.562ZM443.7 122.577L462.457 112.26L481.214 122.577L462.457 133.409L443.7 122.577Z" fill="#333333"/>
<path d="M265.998 97L265.997 147.097L284.399 128.699L293.687 137.988L259.673 172L225.229 137.556L234.518 128.268L252.861 146.611L252.862 97H265.998Z" fill="#333333"/>
<path d="M147.663 170.047V131.249L171.417 155.005L195.351 131.073V169.655H208.488V99.3606L171.418 136.428L134.527 99.5341V170.047H147.663Z" fill="#333333"/>
<path d="M369.355 97.5903L378.643 106.879L350.82 134.701L377.787 161.669L368.499 170.957L341.531 143.99L314.563 170.957L305.274 161.669L332.239 134.701L304.418 106.879L313.707 97.5903L341.531 125.411L369.355 97.5903Z" fill="#333333"/>
<path fill-rule="evenodd" clip-rule="evenodd" d="M66.7771 120.454C67.6912 120.716 68.5985 121.001 69.4982 121.309C78.6274 124.443 84.5267 129.352 84.5267 134.429C84.5267 139.723 78.2222 144.899 68.5319 148.101C68.0198 148.27 67.495 148.433 66.96 148.59C67.1508 149.356 67.321 150.108 67.4669 150.844C69.38 160.48 67.9068 168.401 63.3729 171.018C58.9831 173.553 51.8882 171.063 44.7042 164.898C43.9234 164.227 43.1615 163.533 42.4193 162.819C41.8302 163.387 41.2417 163.929 40.6555 164.44C33.2389 170.906 25.6226 173.588 21.0845 170.978C16.6909 168.451 15.3102 161.078 17.0781 151.792C17.2713 150.783 17.4927 149.78 17.7421 148.783C16.9744 148.564 16.2123 148.327 15.4564 148.07C6.13499 144.893 0 139.653 0 134.429C0 129.371 5.71527 124.494 14.6641 121.383C15.6644 121.035 16.71 120.708 17.7926 120.402C17.5607 119.476 17.3524 118.545 17.1679 117.609C15.3135 108.16 16.6183 100.608 21.0236 98.0646C25.6177 95.4124 33.2688 98.2604 40.902 105.02C41.3769 105.441 41.8438 105.871 42.3026 106.31C42.9878 105.65 43.6895 105.008 44.4072 104.384C51.6906 98.0627 58.9023 95.4184 63.3116 97.9545C67.9106 100.599 69.2573 108.632 67.1976 118.603C67.0689 119.222 66.9287 119.839 66.7771 120.454ZM65.9766 145.126C66.4599 144.983 66.9343 144.835 67.3963 144.683H67.3966C75.763 141.918 80.916 137.687 80.916 134.429C80.916 131.37 76.145 127.399 68.3229 124.714C67.5141 124.436 66.6747 124.173 65.8101 123.923C64.7702 127.279 63.3823 130.824 61.6963 134.447C63.4628 138.157 64.9067 141.748 65.9766 145.126ZM64.331 162.669C64.8914 159.657 64.7706 155.804 63.9248 151.543C63.7927 150.878 63.6393 150.198 63.4673 149.504C59.9662 150.311 56.1056 150.902 52.0191 151.264C49.6961 154.618 47.3158 157.638 44.934 160.236C45.6455 160.919 46.3551 161.564 47.0595 162.168C53.2028 167.441 58.8997 169.439 61.5635 167.902C62.8152 167.179 63.8275 165.375 64.331 162.669ZM22.8888 167.858C24.1416 168.579 26.2144 168.553 28.8169 167.636H28.8173C31.7135 166.616 34.9998 164.588 38.2794 161.729C38.8283 161.249 39.3653 160.756 39.8898 160.25C37.4216 157.608 34.9725 154.591 32.6341 151.31C28.5379 150.978 24.7054 150.429 21.2432 149.665C21.0116 150.592 20.8057 151.525 20.626 152.464C19.1143 160.405 20.2223 166.325 22.8888 167.858ZM6.76578 139.44C9.09894 141.432 12.5027 143.258 16.6244 144.663C17.3145 144.897 18.0102 145.114 18.711 145.314C19.7787 141.843 21.186 138.198 22.8821 134.516C21.2077 130.889 19.8202 127.301 18.7623 123.87C17.7838 124.146 16.8136 124.45 15.853 124.783C8.19964 127.444 3.61075 131.359 3.61075 134.429C3.61075 135.871 4.66941 137.649 6.76578 139.44ZM22.8327 101.181C20.1778 102.714 19.1229 108.821 20.7116 116.918V116.917C20.8834 117.788 21.0771 118.654 21.2926 119.515C24.791 118.724 28.5966 118.134 32.572 117.766C34.8902 114.504 37.3169 111.51 39.7724 108.88C39.3485 108.476 38.9254 108.085 38.5042 107.712C31.9136 101.876 25.6608 99.5485 22.8327 101.181ZM54.6022 121.681C55.4892 123.067 56.3462 124.473 57.1725 125.896C58.0122 127.342 58.8229 128.805 59.6041 130.283C60.6732 127.787 61.5811 125.352 62.3095 123.024C59.8831 122.472 57.2993 122.02 54.6022 121.681ZM47.278 117.442C45.6373 115.262 43.9692 113.253 42.3038 111.453C40.6122 113.274 38.9299 115.28 37.2877 117.44C40.616 117.284 43.9498 117.285 47.278 117.442ZM24.9538 130.28C25.715 128.809 26.5105 127.355 27.3397 125.921C28.17 124.485 29.034 123.069 29.931 121.674C27.2514 122.008 24.6796 122.448 22.2678 122.986C23.0025 125.347 23.9022 127.793 24.9538 130.28ZM22.2181 146.191C24.6291 146.715 27.2398 147.132 30.008 147.44C29.0891 146.019 28.2042 144.575 27.3543 143.111C26.5213 141.676 25.7223 140.222 24.9579 138.75C23.8839 141.29 22.9644 143.788 22.2181 146.191ZM37.318 151.589C38.9853 153.78 40.6922 155.817 42.4037 157.658C44.0579 155.842 45.7199 153.802 47.3659 151.571C45.6896 151.646 43.9864 151.684 42.2634 151.684C40.5864 151.684 38.9363 151.652 37.318 151.589ZM62.477 146.035C61.7206 143.673 60.7682 141.188 59.6385 138.62C58.8547 140.127 58.0374 141.616 57.1871 143.086C56.3507 144.533 55.4855 145.963 54.5921 147.376C57.3801 147.042 60.026 146.593 62.477 146.035ZM50.0039 147.812C51.4262 145.682 52.7786 143.506 54.059 141.287H54.0594C55.3509 139.057 56.5623 136.781 57.6914 134.464C56.5506 132.171 55.3353 129.915 54.0474 127.7C52.7668 125.492 51.4084 123.329 49.9748 121.215C47.4617 121.024 44.8809 120.924 42.2638 120.924C39.6583 120.924 37.0808 121.024 34.567 121.213C33.1187 123.33 31.7516 125.5 30.4685 127.72V127.719C29.1851 129.939 27.9858 132.206 26.8732 134.515C27.9886 136.824 29.1915 139.09 30.4794 141.307C31.7732 143.537 33.1512 145.717 34.6104 147.842C37.0745 148.002 39.6332 148.083 42.2634 148.083C44.9044 148.083 47.4961 147.991 50.0039 147.812ZM63.661 117.876C65.4394 109.267 64.3385 102.702 61.5082 101.074C58.8507 99.5455 53.0183 101.684 46.7778 107.1C46.1153 107.677 45.4672 108.269 44.8341 108.878C47.2499 111.474 49.6564 114.473 51.9791 117.771C55.9661 118.144 59.7743 118.745 63.281 119.552C63.4178 118.996 63.5445 118.437 63.661 117.876Z" fill="#333333"/>
<path d="M42.2633 126.901C46.4321 126.901 49.8112 130.271 49.8112 134.428C49.8112 138.586 46.4321 141.956 42.2633 141.956C38.0949 141.956 34.7154 138.586 34.7154 134.428C34.7154 130.271 38.0949 126.901 42.2633 126.901Z" fill="#333333"/>
<path d="M126.598 58.7227V75H122.414V34.043H137.566C142.23 34.043 145.898 35.168 148.57 37.418C151.242 39.668 152.578 42.7031 152.578 46.5234C152.578 50.3672 151.277 53.3555 148.676 55.4883C146.074 57.6211 142.418 58.6992 137.707 58.7227H126.598ZM126.598 55.1367H137.566C141.012 55.1367 143.66 54.3984 145.512 52.9219C147.387 51.4219 148.324 49.3125 148.324 46.5938C148.324 43.8281 147.375 41.6484 145.477 40.0547C143.578 38.4609 140.953 37.6641 137.602 37.6641H126.598V55.1367ZM193.465 56.5781C193.465 62.3438 191.906 66.9492 188.789 70.3945C185.672 73.8398 181.488 75.5625 176.238 75.5625C171.012 75.5625 166.816 73.8281 163.652 70.3594C160.512 66.8906 158.941 62.2383 158.941 56.4023V52.5352C158.941 48.7617 159.645 45.4336 161.051 42.5508C162.457 39.668 164.473 37.4414 167.098 35.8711C169.746 34.2773 172.77 33.4805 176.168 33.4805C181.254 33.4805 185.367 35.1445 188.508 38.4727C191.672 41.7773 193.324 46.2305 193.465 51.832V56.5781ZM189.316 52.4648C189.316 47.6836 188.133 43.9453 185.766 41.25C183.422 38.5312 180.223 37.1719 176.168 37.1719C172.16 37.1719 168.973 38.5312 166.605 41.25C164.262 43.9453 163.09 47.7539 163.09 52.6758V56.5781C163.09 61.3359 164.273 65.0859 166.641 67.8281C169.008 70.5703 172.207 71.9414 176.238 71.9414C180.316 71.9414 183.516 70.582 185.836 67.8633C188.156 65.1445 189.316 61.3359 189.316 56.4375V52.4648ZM211.219 64.875L212.309 70.2188L213.609 65.2266L223.137 34.043H227.039L236.426 65.2969L237.691 70.2891L238.852 64.8398L246.797 34.043H251.016L239.906 75H235.828L225.844 42.1289L225.105 39.1406L224.367 42.1289L214.172 75H210.129L198.984 34.043H203.238L211.219 64.875ZM282.516 55.5586H262.23V71.4492H285.609V75H258.047V34.043H285.469V37.6641H262.23V51.9727H282.516V55.5586ZM309.762 58.5469H297.316V75H293.133V34.043H307.652C312.363 34.043 316.043 35.1445 318.691 37.3477C321.363 39.5508 322.699 42.5742 322.699 46.418C322.699 49.1133 321.879 51.4688 320.238 53.4844C318.598 55.4766 316.43 56.8477 313.734 57.5977L324.562 74.6484V75H320.062L309.762 58.5469ZM297.316 54.9609H308.426C311.473 54.9609 313.91 54.1758 315.738 52.6055C317.566 51.0352 318.48 49.0078 318.48 46.5234C318.48 43.7812 317.531 41.625 315.633 40.0547C313.758 38.4844 311.133 37.6875 307.758 37.6641H297.316V54.9609ZM357.117 55.5586H336.832V71.4492H360.211V75H332.648V34.043H360.07V37.6641H336.832V51.9727H357.117V55.5586ZM367.805 75V34.043H380.25C383.859 34.043 387.094 34.8164 389.953 36.3633C392.812 37.9102 395.039 40.1016 396.633 42.9375C398.25 45.75 399.082 48.9258 399.129 52.4648V56.2969C399.129 59.9297 398.344 63.1641 396.773 66C395.227 68.8125 393.012 71.0039 390.129 72.5742C387.27 74.1445 384 74.9531 380.32 75H367.805ZM371.988 37.6641V71.4492H380.004C384.551 71.4492 388.172 70.0781 390.867 67.3359C393.586 64.5938 394.945 60.8438 394.945 56.0859V52.7461C394.945 48.1758 393.621 44.5195 390.973 41.7773C388.324 39.0352 384.715 37.6641 380.145 37.6641H371.988ZM425.812 75V34.043H438.82C443.648 34.043 447.316 34.9922 449.824 36.8906C452.332 38.7656 453.586 41.4492 453.586 44.9414C453.586 47.0039 452.988 48.8203 451.793 50.3906C450.621 51.9375 448.934 53.0508 446.73 53.7305C449.215 54.2227 451.23 55.3828 452.777 57.2109C454.348 59.0156 455.133 61.1133 455.133 63.5039C455.133 67.1602 453.855 69.9961 451.301 72.0117C448.77 74.0039 445.242 75 440.719 75H425.812ZM429.996 55.6289V71.4492H440.859C444.047 71.4492 446.52 70.7578 448.277 69.375C450.035 67.9688 450.914 66.0117 450.914 63.5039C450.914 61.0898 450.07 59.1914 448.383 57.8086C446.719 56.4023 444.41 55.6758 441.457 55.6289H429.996ZM429.996 52.2539H439.348C442.559 52.2539 445.031 51.6562 446.766 50.4609C448.5 49.2422 449.367 47.4258 449.367 45.0117C449.367 40.2305 446.016 37.7812 439.312 37.6641H429.996V52.2539ZM477.07 56.4023L490.113 34.043H494.93L479.145 60.1289V75H474.926V59.9531L459.246 34.043H464.062L477.07 56.4023Z" fill="#333333"/>
</svg>
