<?xml version="1.0" encoding="UTF-8" standalone="no"?>
<svg width="100" height="100" viewBox="0 0 100 100" fill="none" xmlns="http://www.w3.org/2000/svg">
<path class="hover" fill-rule="evenodd" clip-rule="evenodd" d="M50 0C77.6143 0 100 22.3857 100 50C100 77.6143 77.6143 100 50 100C22.3857 100 0 77.6143 0 50C0 22.3857 22.3857 0 50 0ZM84.2885 31.1856C87.3571 33.3281 90.3515 36.7931 91.4045 42.3554C93.8503 55.2744 84.1431 64.9826 70.385 64.2183C70.4581 67.7629 69.75 74.1219 62.9053 75.8343C62.3583 75.9711 61.7951 76.0319 61.2313 76.0354C49.2095 76.1101 24.1421 76.1836 24.1421 76.1836C24.1421 76.1836 16.4645 76.1861 15.9461 68.5231C15.7755 55.5431 15.8655 31.2409 15.8655 31.2409C15.8655 31.2409 15.8611 30.7533 15.8621 30.6314C15.8693 29.6969 16.6013 27.8313 18.5121 27.8313H73.443C77.3136 27.8313 81.115 28.9699 84.2885 31.1856ZM70.6313 55.0594C70.6313 55.0594 73.0151 55.3346 75.9495 54.9679C79.342 53.8679 82.4593 51.4844 82.4593 45.4348C82.4593 42.9598 81.5825 41.1681 80.4865 39.8951C78.9295 38.0871 76.6278 37.0934 74.2416 37.0934H70.6313V55.0594Z" fill="#333333"/>
<path class="hover" d="M42.769 66.1055C43.3664 66.4065 43.7482 66.0326 43.7482 66.0326C43.7482 66.0326 52.491 58.053 56.4297 53.4573C59.9329 49.3463 60.1614 42.4183 54.1452 39.8296C48.129 37.2411 43.1792 42.875 43.1792 42.875C38.8869 38.1541 32.3904 38.3931 29.3855 41.588C26.3809 44.783 27.43 50.2668 29.6717 53.3186C31.7759 56.1836 41.0247 64.427 42.4265 65.8211C42.4265 65.8211 42.5287 65.928 42.769 66.1055Z" fill="#333333"/>
</svg>
