<?xml version="1.0" encoding="UTF-8" standalone="no"?>
<svg width="100" height="100" viewBox="0 0 100 100" fill="none" xmlns="http://www.w3.org/2000/svg">
<path class="hover" fill-rule="evenodd" clip-rule="evenodd" d="M50 100C59.0724 100 67.5804 97.5837 74.9156 93.3596L67.2387 78.553L56.5828 89.2007V47.8113L87.522 76.2079H73.1468L80.2196 89.8377C92.2391 80.706 100 66.2593 100 50C100 22.3858 77.6142 0 50 0C22.3858 0 0 22.3858 0 50C0 77.6142 22.3858 100 50 100ZM88.5011 54.9042C88.4758 55.0773 88.4506 55.2499 88.4271 55.4225C88.4132 55.5264 88.4001 55.6317 88.3869 55.738C88.3372 56.1367 88.2859 56.5484 88.1885 56.9448C87.6597 59.931 86.7814 62.8447 85.5718 65.6258L78.3966 59.043C79 57 79.3511 55.0851 79.3511 55.0851C79.645 53.4087 79.7937 51.7101 79.7954 50.0081C79.7866 48.303 79.6324 46.6018 79.3346 44.9229C74.2983 43.3598 69.119 42.3013 63.8732 41.7632L58.7222 41.2777C57.3266 41.1775 53.0939 40.9897 49.9918 40.9897C46.8896 40.9897 43.9767 41.0967 41.2449 41.2777C41.0638 44.0095 40.9569 46.8978 40.9569 50.0246C40.9569 53.1514 41.0803 56.0396 41.2695 58.7633C43.9932 58.9443 46.9061 59.0513 50.0082 59.0513H50.1234V64.227H50.0082C47.2105 64.227 44.454 64.1283 41.7797 63.9637C42.3188 69.1648 43.3717 74.2998 44.923 79.2934C46.6015 79.5953 48.3028 79.7523 50.0082 79.7624H50.0658V88.8138H49.9506C48.7492 88.8138 47.4903 88.7479 46.2807 88.6327C45.8335 88.5904 45.3331 88.5171 44.9098 88.455C44.7567 88.4326 44.6137 88.4116 44.4869 88.3941C44.3246 88.3717 44.1614 88.3512 43.9978 88.3307C43.6804 88.2909 43.3619 88.2509 43.0469 88.1966C27.1277 85.3061 14.6691 72.8475 11.7786 56.9283C11.7274 56.6471 11.6922 56.3628 11.6571 56.0793C11.6356 55.9064 11.6142 55.7338 11.5893 55.5624C11.5655 55.3979 11.5405 55.2345 11.5157 55.0715C11.4459 54.6149 11.3767 54.1614 11.3342 53.6945C11.219 52.4931 11.1532 51.2342 11.1532 50.0246C11.1532 48.815 11.219 47.556 11.3342 46.3464C11.378 45.9915 11.462 45.5791 11.5386 45.2026C11.5917 44.9419 11.6413 44.6985 11.6716 44.5033C11.7042 44.2932 11.7304 44.0816 11.7565 43.8706C11.7898 43.6019 11.823 43.3341 11.8691 43.0715C14.7597 27.1523 27.2182 14.6937 43.1374 11.8032C43.4146 11.7532 43.6944 11.7208 43.978 11.6879C44.2079 11.6612 44.4404 11.6343 44.6761 11.5975C44.7336 11.5885 44.7914 11.5794 44.8494 11.5703C45.3233 11.4958 45.816 11.4184 46.3218 11.3671C47.5397 11.2519 48.7657 11.186 50.0082 11.186C51.2507 11.186 52.4768 11.2519 53.7275 11.3671C54.1227 11.4096 54.5537 11.4746 54.9577 11.5356C55.1005 11.5571 55.24 11.5781 55.3732 11.5975C55.5124 11.6177 55.6523 11.636 55.7934 11.6546C56.1694 11.704 56.5545 11.7546 56.9613 11.8443C72.8805 14.7349 85.3391 27.1934 88.2296 43.1126C88.2723 43.364 88.304 43.6207 88.3359 43.8782C88.3593 44.0676 88.3828 44.2574 88.4106 44.4457C88.4324 44.5963 88.4552 44.7469 88.478 44.8977C88.5498 45.3732 88.622 45.851 88.6657 46.3382C88.7809 47.5396 88.8468 48.708 88.8468 50.0081C88.8468 51.3082 88.7727 52.5343 88.6493 53.7768C88.61 54.1585 88.5554 54.5325 88.5011 54.9042ZM36.5381 36.5298C37.0149 31.7494 37.8566 27.0124 39.0561 22.3603H39.0232C31.4269 25.4096 25.4112 31.4373 22.3769 39.0395C27.0263 37.8428 31.7606 37.0037 36.5381 36.5298ZM39.0126 77.6797C37.8181 73.0329 36.9799 68.3018 36.5052 63.5276C31.7274 63.0511 26.9932 62.2093 22.344 61.0096C25.3849 68.614 31.4098 74.6387 39.0126 77.6797ZM20.6818 55.118C25.6936 56.6801 30.8479 57.7412 36.0691 58.286C35.9045 55.62 35.8058 52.7976 35.8058 49.9999C35.8058 47.2022 35.9045 44.4457 36.0691 41.7714C30.8479 42.3162 25.6936 43.3773 20.6818 44.9394C20.0594 48.3037 20.0594 51.7537 20.6818 55.118ZM41.7797 36.0773C44.4293 35.9127 47.1858 35.8222 50.0082 35.8222C52.8306 35.8222 55.5871 35.9127 58.2367 36.0855C57.7084 30.8632 56.6637 25.7062 55.1181 20.69C51.7566 20.0669 48.3092 20.0669 44.9477 20.69C43.3853 25.7016 42.3241 30.856 41.7797 36.0773ZM60.985 22.3521C62.1811 27.0045 63.0201 31.7414 63.4947 36.5216C68.2781 36.9971 73.0179 37.8389 77.6724 39.0395C74.6314 31.4256 68.599 25.3932 60.985 22.3521Z" fill="#333333"/>
</svg>
