<?xml version="1.0" encoding="UTF-8" standalone="no"?>
<svg width="100" height="100" viewBox="0 0 100 100" fill="none" xmlns="http://www.w3.org/2000/svg">
<path class="hover" d="M50 0C22.3877 0 0 22.9537 0 51.264C0 73.9173 14.325 93.1288 34.1949 99.9059C36.6943 100.375 37.6068 98.792 37.6068 97.4403C37.6068 96.22 37.561 92.1776 37.5366 87.8972C23.6328 90.9948 20.6939 81.8522 20.6939 81.8522C18.4174 75.9323 15.1428 74.3553 15.1428 74.3553C10.5987 71.1763 15.4875 71.2389 15.4875 71.2389C20.5076 71.5956 23.1506 76.5205 23.1506 76.5205C27.6123 84.3553 34.8571 82.09 37.7014 80.7758C38.1559 77.4717 39.4498 75.2064 40.8752 73.9298C29.776 72.6345 18.1 68.2352 18.1 48.5919C18.1 42.9911 20.0501 38.423 23.2422 34.8341C22.7325 33.5325 21.0113 28.3165 23.7365 21.2609C23.7365 21.2609 27.9297 19.8842 37.4877 26.5175C41.4732 25.3755 45.7488 24.8123 49.9999 24.7934C54.2479 24.8123 58.5265 25.3817 62.5183 26.5237C72.0581 19.8842 76.2573 21.2671 76.2573 21.2671C78.9917 28.3291 77.2705 33.5387 76.7578 34.8341C79.9621 38.423 81.897 42.9912 81.897 48.5919C81.897 68.2852 70.2026 72.6219 59.0638 73.8922C60.8644 75.4817 62.4573 78.5981 62.4573 83.3791C62.4573 90.2314 62.3901 95.757 62.3901 97.4466C62.3901 98.8108 63.2995 100.407 65.8325 99.9059C85.6873 93.1162 100 73.9048 100 51.264C100 22.9537 77.6123 0 50 0Z" fill="#333333"/>
</svg>
